<svg width="76" height="76" viewBox="0 0 76 76" fill="none" xmlns="http://www.w3.org/2000/svg">
<g clip-path="url(#clip0_206_1267)">
<mask id="mask0_206_1267" style="mask-type:luminance" maskUnits="userSpaceOnUse" x="0" y="0" width="76" height="76">
<path d="M0.5 0.500008H75.5V75.5H0.5V0.500008Z" fill="white"/>
</mask>
<g mask="url(#mask0_206_1267)">
<path d="M56.7302 70.959H5.40726C3.30374 70.959 1.59866 69.2538 1.59866 67.1504V64.2207C1.59866 63.8971 1.86102 63.6348 2.1846 63.6348H73.8155C74.139 63.6348 74.4014 63.8971 74.4014 64.2207V67.1504C74.4014 69.2538 72.6962 70.959 70.5928 70.959H61.4721" stroke="#F4B32F" stroke-width="2" stroke-miterlimit="10" stroke-linecap="round" stroke-linejoin="round"/>
<path d="M69.493 30.8948L69.4942 60.7036C69.4942 62.3208 68.1831 63.6333 66.5645 63.6333L9.43704 63.6348C7.81839 63.6348 6.50736 62.3237 6.50736 60.7051L6.50589 22.6206C6.50589 21.0034 7.81692 19.6909 9.43558 19.6909L40.9099 19.6895" stroke="#F4B32F" stroke-width="2" stroke-miterlimit="10" stroke-linecap="round" stroke-linejoin="round"/>
<path d="M60.675 19.6896H66.563C68.1816 19.6896 69.4926 21.0006 69.4926 22.6192L69.4928 26.2346" stroke="#F4B32F" stroke-width="2" stroke-miterlimit="10" stroke-linecap="round" stroke-linejoin="round"/>
<path d="M54.9315 19.6895H46.6344" stroke="#F4B32F" stroke-width="2" stroke-miterlimit="10" stroke-linecap="round" stroke-linejoin="round"/>
<path d="M10.9014 47.2874L10.9004 24.0854L40.3276 24.0841" stroke="#F4B32F" stroke-width="2" stroke-miterlimit="10" stroke-linecap="round" stroke-linejoin="round"/>
<path d="M61.7583 24.084H65.0982L65.0997 59.2388L10.9018 59.2402L10.9015 52.0292" stroke="#F4B32F" stroke-width="2" stroke-miterlimit="10" stroke-linecap="round" stroke-linejoin="round"/>
<path d="M42.9805 67.1504H33.0195C32.0488 67.1504 31.2617 66.3633 31.2617 65.3926V63.6348H44.7383V65.3926C44.7383 66.3633 43.9512 67.1504 42.9805 67.1504Z" stroke="#F4B32F" stroke-width="2" stroke-miterlimit="10" stroke-linecap="round" stroke-linejoin="round"/>
<path d="M55.6793 17.4109C55.6793 14.7135 53.4871 12.527 50.7832 12.527C48.0791 12.527 45.8871 14.7135 45.8871 17.4109C45.8871 20.1083 48.0791 22.295 50.7832 22.295C53.4871 22.295 55.6793 20.1083 55.6793 17.4109ZM53.6058 26.6325C53.5242 27.2108 53.3294 28.0392 53.1553 28.7123C52.9927 29.341 52.4269 29.7808 51.7774 29.7808H49.7888C49.1393 29.7808 48.5735 29.341 48.411 28.7123C48.2368 28.0392 48.042 27.2108 47.9606 26.6325C47.8998 26.2016 47.6409 25.8244 47.2637 25.607L45.4264 24.5489C45.0498 24.3318 44.5939 24.2967 44.1908 24.4593C43.6469 24.6786 42.8269 24.9254 42.1539 25.112C41.5289 25.2853 40.8659 25.0159 40.541 24.4546L39.5481 22.739C39.2229 22.1771 39.3211 21.467 39.785 21.0129C40.2829 20.5256 40.9056 19.9421 41.3672 19.5824C41.7102 19.315 41.9078 18.9028 41.9078 18.4678V16.354C41.9078 15.9191 41.7102 15.5067 41.3672 15.2396C40.9056 14.8798 40.2829 14.2963 39.785 13.809C39.3211 13.3549 39.2229 12.6449 39.5481 12.083L40.541 10.3673C40.8659 9.80601 41.5289 9.53662 42.1539 9.70991C42.8269 9.89654 43.6469 10.1432 44.1908 10.3626C44.5939 10.5252 45.0498 10.4899 45.4264 10.273L47.2637 9.2148C47.6409 8.99756 47.8998 8.62036 47.9606 8.18941C48.042 7.61109 48.2368 6.78257 48.411 6.10962C48.5735 5.48091 49.1393 5.04116 49.7888 5.04116H51.7774C52.4269 5.04116 52.9927 5.48091 53.1553 6.10962C53.3294 6.78257 53.5242 7.61109 53.6058 8.18941C53.6666 8.62036 53.9253 8.99756 54.3026 9.2148L56.14 10.273C56.5167 10.4899 56.9723 10.5252 57.3754 10.3626C57.9194 10.1432 58.7395 9.89654 59.4123 9.70991C60.0373 9.53662 60.7003 9.80601 61.0252 10.3673L62.0181 12.083C62.3433 12.6449 62.2451 13.3549 61.7812 13.809C61.2835 14.2963 60.6609 14.8798 60.1992 15.2396C59.8561 15.5067 59.6584 15.9191 59.6584 16.354V18.4678C59.6584 18.9028 59.8561 19.315 60.1992 19.5824C60.6609 19.9421 61.2835 20.5256 61.7812 21.0129C62.2451 21.467 62.3433 22.1771 62.0181 22.739L61.0252 24.4546C60.7003 25.0159 60.0373 25.2853 59.4123 25.112C58.7395 24.9254 57.9194 24.6786 57.3754 24.4593C56.9723 24.2967 56.5167 24.3318 56.14 24.5489L54.3026 25.607C53.9253 25.8244 53.6666 26.2016 53.6058 26.6325Z" stroke="#F4B32F" stroke-width="2" stroke-miterlimit="10" stroke-linecap="round" stroke-linejoin="round"/>
<path d="M38.4509 36.4539C38.4509 33.7565 36.2588 31.5699 33.5548 31.5699C30.8507 31.5699 28.6587 33.7565 28.6587 36.4539C28.6587 39.1512 30.8507 41.3379 33.5548 41.3379C36.2588 41.3379 38.4509 39.1512 38.4509 36.4539ZM36.3774 45.6755C36.2958 46.2538 36.101 47.0822 35.927 47.7553C35.7644 48.384 35.1985 48.8237 34.549 48.8237H32.5605C31.911 48.8237 31.3451 48.384 31.1826 47.7553C31.0085 47.0822 30.8136 46.2538 30.7322 45.6755C30.6714 45.2445 30.4126 44.8673 30.0354 44.65L28.198 43.5919C27.8214 43.3748 27.3655 43.3396 26.9624 43.5022C26.4184 43.7215 25.5985 43.9684 24.9256 44.155C24.3005 44.3283 23.6375 44.0589 23.3126 43.4976L22.3197 41.7819C21.9946 41.22 22.0927 40.51 22.5566 40.0559C23.0545 39.5686 23.6771 38.9851 24.1388 38.6253C24.4819 38.358 24.6795 37.9458 24.6795 37.5107V35.397C24.6795 34.9621 24.4819 34.5497 24.1388 34.2825C23.6771 33.9228 23.0545 33.3393 22.5566 32.852C22.0927 32.3979 21.9946 31.6878 22.3197 31.1259L23.3126 29.4103C23.6375 28.849 24.3005 28.5796 24.9256 28.7529C25.5985 28.9395 26.4184 29.1863 26.9624 29.4056C27.3655 29.5682 27.8214 29.5329 28.198 29.316L30.0354 28.2578C30.4126 28.0405 30.6714 27.6633 30.7322 27.2324C30.8136 26.6541 31.0085 25.8257 31.1826 25.1526C31.3451 24.5239 31.911 24.0841 32.5605 24.0841H34.549C35.1985 24.0841 35.7644 24.5239 35.927 25.1526C36.101 25.8257 36.2958 26.6541 36.3774 27.2324C36.4382 27.6633 36.6969 28.0405 37.0742 28.2578L38.9116 29.316C39.2882 29.5329 39.7439 29.5682 40.147 29.4056C40.6911 29.1863 41.5111 28.9395 42.1839 28.7529C42.809 28.5796 43.4719 28.849 43.7968 29.4103L44.7897 31.1259C45.1149 31.6878 45.0168 32.3979 44.5529 32.852C44.0551 33.3393 43.4325 33.9228 42.9707 34.2825C42.6278 34.5497 42.43 34.9621 42.43 35.397V37.5107C42.43 37.9458 42.6278 38.358 42.9707 38.6253C43.4325 38.9851 44.0551 39.5686 44.5529 40.0559C45.0168 40.51 45.1149 41.22 44.7897 41.7819L43.7968 43.4976C43.4719 44.0589 42.809 44.3283 42.1839 44.155C41.5111 43.9684 40.6911 43.7215 40.147 43.5022C39.7439 43.3396 39.2882 43.3748 38.9116 43.5919L37.0742 44.65C36.6969 44.8673 36.4382 45.2445 36.3774 45.6755Z" stroke="#F4B32F" stroke-width="2" stroke-miterlimit="10" stroke-linecap="round" stroke-linejoin="round"/>
</g>
</g>
<defs>
<clipPath id="clip0_206_1267">
<rect width="75" height="75" fill="white" transform="translate(0.5 0.5)"/>
</clipPath>
</defs>
</svg>
