<svg width="76" height="75" viewBox="0 0 76 75" fill="none" xmlns="http://www.w3.org/2000/svg">
<g clip-path="url(#clip0_206_1292)">
<path d="M60.0156 29.6514C59.2628 29.013 58.083 29.6598 58.2165 30.6377C58.2238 30.692 58.8628 35.837 54.2695 40.029C52.6848 37.9777 48.9293 32.424 50.0254 27.0979C52.4802 16.0131 46.1341 4.63726 35.7942 0.0974597C34.8623 -0.323825 33.8937 0.702581 34.3686 1.60843C36.9515 6.53319 35.8752 13.0325 32.693 17.3674C32.334 17.8565 32.4396 18.5441 32.9287 18.9031C33.4176 19.2623 34.1052 19.1566 34.4644 18.6675C37.6982 14.2612 38.7596 8.65836 37.3403 3.38293C45.356 8.07565 49.8801 17.5256 47.8735 26.655C46.2764 34.4155 53.0215 42.0046 53.3093 42.324C53.6957 42.7524 54.3479 42.8091 54.8022 42.4534C58.5708 39.5044 59.8594 35.9782 60.2709 33.4913C67.3711 45.7184 62.9707 64.2854 48.4796 70.5386C50.2157 68.833 51.5027 66.7413 52.2458 64.396C52.675 63.0421 50.5803 62.3779 50.1513 63.7323C48.4603 69.0684 43.5594 72.6535 37.956 72.6535C29.3059 72.8113 22.9013 63.711 25.8817 55.6268C26.1846 57.007 26.8039 58.5364 27.991 59.9828C28.7164 60.8666 30.1758 60.1273 29.9066 59.0212C29.8446 58.7668 28.4602 52.7278 34.6289 47.4081C36.8111 44.353 38.9616 42.3499 38.4045 38.2322C41.6263 40.6806 42.8342 44.2404 42.8107 48.1639C42.7902 51.5313 42.7726 54.4394 45.5316 57.6603C45.9141 58.1066 46.58 58.173 47.043 57.8107C48.5121 56.6611 49.3031 55.3469 49.7232 54.1825C50.1954 55.2919 50.6782 56.9862 50.7395 59.3454C50.7766 60.7645 52.9731 60.7086 52.9361 59.2881C52.771 52.95 49.8933 50.4384 49.7709 50.3345C49.0212 49.6989 47.8368 50.3306 47.9706 51.3124C47.9824 51.4103 48.2039 53.4616 46.5033 55.3278C44.9778 53.1058 44.9902 51.0754 45.0078 48.1773C45.0433 42.4389 42.4552 37.3286 37.0487 34.8845C36.1188 34.4641 35.158 35.4873 35.6206 36.3911C37.2797 39.6315 35.8175 43.5241 33.1922 45.7455C29.8659 48.6145 28.4374 51.7019 27.8717 54.2292C27.7429 53.0666 27.8698 52.13 27.9502 51.7002C28.1586 50.5866 26.6772 49.9315 25.994 50.8355C21.4217 56.5905 22.2183 65.6622 27.4574 70.55C14.4638 65.032 8.25422 48.0678 15.2752 35.3036C15.4099 38.5172 16.3292 42.823 19.581 46.7848C20.3079 47.6707 21.7761 46.9294 21.4954 45.8186C21.4876 45.788 20.7294 42.7028 21.4847 38.2835C22.1868 34.1738 24.3895 28.0974 30.8952 22.4862C31.3451 22.1029 31.412 21.4287 31.0401 20.964C30.6129 20.43 29.9718 20.4618 29.4626 20.8201C22.4609 26.8581 20.0817 33.4481 19.3187 37.9134C19.0837 39.2888 18.9822 40.549 18.9583 41.6528C16.9149 37.1036 17.4495 32.7772 17.7229 31.3169C17.9312 30.2034 16.4499 29.5483 15.7667 30.4522C1.92499 48.4075 15.2687 75.1912 37.9564 74.999C63.7187 74.7767 73.0255 44.3967 60.0156 29.6514Z" fill="#F4B32F"/>
</g>
<defs>
<clipPath id="clip0_206_1292">
<rect width="75" height="75" fill="white" transform="translate(0.5)"/>
</clipPath>
</defs>
</svg>
