<svg width="76" height="76" viewBox="0 0 76 76" fill="none" xmlns="http://www.w3.org/2000/svg">
<g id="elevator">
<g id="Layer_x0020_1">
<path id="Vector" fill-rule="evenodd" clip-rule="evenodd" d="M57.442 23.6106H18.5141C18.0308 23.6106 17.6353 24.006 17.6353 24.4893V73.0394H11.9235V12.7143H64.0764V73.0394H58.3207V24.4893C58.3207 24.006 57.9253 23.6106 57.442 23.6106ZM23.0835 10.9568H11.0448C10.5615 10.9568 10.1661 11.3523 10.1661 11.8356V73.9182C10.1661 74.4015 10.5615 74.7969 11.0448 74.7969H64.9552C65.4385 74.7969 65.8339 74.4015 65.8339 73.9182V11.8356C65.8339 11.3523 65.4385 10.9568 64.9552 10.9568H52.9165V2.08162C52.9165 1.59831 52.5211 1.20288 52.0378 1.20288H23.9622C23.4789 1.20288 23.0835 1.59831 23.0835 2.08162V10.9568ZM51.159 10.9568H24.8409V2.96035H51.159V10.9568ZM19.3928 25.3681H37.0993V73.0394H19.3928V25.3681ZM38.8568 73.0394V25.3681H56.5633V73.0394H38.8568Z" fill="#F4B32F"/>
<path id="Vector_2" fill-rule="evenodd" clip-rule="evenodd" d="M35.6933 41.449C35.6933 40.2628 33.9359 40.2628 33.9359 41.449V57.0026C33.9359 58.145 35.6933 58.145 35.6933 57.0026V41.449Z" fill="#F4B32F"/>
<path id="Vector_3" fill-rule="evenodd" clip-rule="evenodd" d="M40.3067 41.449V57.0026C40.3067 58.145 42.0641 58.145 42.0641 57.0026V41.449C42.0641 40.2628 40.3067 40.2628 40.3067 41.449Z" fill="#F4B32F"/>
<path id="Vector_4" fill-rule="evenodd" clip-rule="evenodd" d="M58.8919 38.7688C61.4842 41.3611 60.913 41.3611 63.5053 38.7688C64.2961 37.934 63.0659 36.7038 62.275 37.5386L61.2206 38.5931L60.1221 37.5386C59.3313 36.7038 58.1011 37.934 58.8919 38.7688Z" fill="#F4B32F"/>
<path id="Vector_5" fill-rule="evenodd" clip-rule="evenodd" d="M61.2206 42.2837C58.0132 42.2837 58.0132 47.1167 61.2206 47.1167C64.384 47.1167 64.384 42.2837 61.2206 42.2837ZM61.2206 45.3593C59.9464 45.3593 60.7812 43.3821 61.6599 44.2608C62.0554 44.6563 61.7917 45.3593 61.2206 45.3593Z" fill="#F4B32F"/>
<path id="Vector_6" fill-rule="evenodd" clip-rule="evenodd" d="M61.2206 53.3558C64.384 53.3558 64.384 48.5667 61.2206 48.5667C58.0132 48.5667 58.0132 53.3558 61.2206 53.3558ZM61.2206 51.5983C59.9464 51.5983 60.7812 49.6211 61.6599 50.4999C62.0554 50.8953 61.7917 51.5983 61.2206 51.5983Z" fill="#F4B32F"/>
<path id="Vector_7" fill-rule="evenodd" clip-rule="evenodd" d="M44.261 10.6931C44.6564 10.5174 46.7654 8.23264 47.2487 7.79328C48.0395 6.95848 46.8093 5.72825 45.9745 6.51911L44.7443 7.79328V3.97078C44.7443 2.82842 42.9868 2.82842 42.9868 3.97078V7.79328L41.7566 6.51911C40.9218 5.72825 39.6916 6.95848 40.4824 7.79328C40.9657 8.23264 43.0747 10.5174 43.4701 10.6931C43.6898 10.8249 44.0413 10.8249 44.261 10.6931Z" fill="#F4B32F"/>
<path id="Vector_8" fill-rule="evenodd" clip-rule="evenodd" d="M33.0132 9.90224V6.12368L34.2434 7.35391C35.0782 8.18871 36.3084 6.91454 35.4736 6.12368C31.4754 2.12544 32.7496 2.12544 28.7513 6.12368C27.9165 6.91454 29.1907 8.18871 29.9815 7.35391L31.2557 6.12368V9.90224C31.2557 11.0446 33.0132 11.0446 33.0132 9.90224Z" fill="#F4B32F"/>
<path id="Vector_9" fill-rule="evenodd" clip-rule="evenodd" d="M14.7355 53.3558C17.8989 53.3558 17.8989 48.5667 14.7355 48.5667C11.5721 48.5667 11.5721 53.3558 14.7355 53.3558ZM14.7355 51.5983C13.5053 51.5983 14.3401 49.6211 15.2188 50.4999C15.6142 50.8953 15.3067 51.5983 14.7355 51.5983Z" fill="#F4B32F"/>
<path id="Vector_10" fill-rule="evenodd" clip-rule="evenodd" d="M14.7355 47.1167C17.8989 47.1167 17.8989 42.2837 14.7355 42.2837C11.5721 42.2837 11.5721 47.1167 14.7355 47.1167ZM14.7355 45.3593C13.5053 45.3593 14.3401 43.3821 15.2188 44.2608C15.6142 44.6563 15.3067 45.3593 14.7355 45.3593Z" fill="#F4B32F"/>
<path id="Vector_11" fill-rule="evenodd" clip-rule="evenodd" d="M14.7355 39.3839C15.4385 40.0869 16.2293 41.2292 17.0202 40.4383C17.3717 40.0869 17.3717 39.5596 17.0202 39.2081C14.4279 36.6158 15.043 36.6158 12.4508 39.2081C11.616 39.999 12.8462 41.2731 13.681 40.4383L14.7355 39.3839Z" fill="#F4B32F"/>
<path id="Vector_12" fill-rule="evenodd" clip-rule="evenodd" d="M23.8304 15.4823H52.1257V20.8865H23.8304V15.4823ZM22.0729 21.7653C22.0729 22.2486 22.4684 22.644 22.9517 22.644H53.0044C53.4877 22.644 53.8831 22.2486 53.8831 21.7653V14.6036C53.8831 14.0763 53.4877 13.7249 53.0044 13.7249H22.9517C22.4684 13.7249 22.0729 14.0763 22.0729 14.6036V21.7653Z" fill="#F4B32F"/>
</g>
</g>
</svg>
