<svg width="72" height="73" viewBox="0 0 72 73" fill="none" xmlns="http://www.w3.org/2000/svg">
<g id="smart-house 1" clip-path="url(#clip0_43_420)">
<g id="Group 5">
<path id="path27" d="M0.924805 58.1672C2.76024 59.6241 5.35759 59.6242 7.19316 58.1674L7.21763 58.1481C9.05574 56.6893 11.6574 56.6917 13.4929 58.1537L13.4981 58.1579C15.3339 59.6203 17.9362 59.6224 19.7745 58.1627L19.7985 58.1437C21.6341 56.6862 24.232 56.6859 26.0679 58.1432L26.0926 58.1627C27.9307 59.6217 30.5323 59.6195 32.368 58.1574L32.3732 58.1533C34.2086 56.6914 36.8099 56.689 38.648 58.1475L38.6738 58.1679C40.5092 59.6244 43.1063 59.6244 44.9417 58.1678L44.9669 58.1478C46.8048 56.6891 49.4061 56.6912 51.2417 58.153L51.2423 58.1534C53.0804 59.6174 55.686 59.6172 57.524 58.1533C59.3594 56.6914 61.9607 56.689 63.7988 58.1475L63.8189 58.1634C65.657 59.622 68.2583 59.6196 70.0937 58.1578" stroke="#F4B32F" stroke-width="2.5" stroke-miterlimit="10" stroke-linecap="round" stroke-linejoin="round"/>
<path id="path31" d="M0.924805 68.6675C2.76024 70.1243 5.35759 70.1245 7.19316 68.6676L7.21763 68.6483C9.05574 67.1895 11.6574 67.1919 13.4929 68.654L13.4981 68.6582C15.3339 70.1206 17.9362 70.1227 19.7745 68.663L19.7985 68.644C21.6341 67.1864 24.232 67.1861 26.0679 68.6434L26.0926 68.663C27.9307 70.122 30.5323 70.1197 32.368 68.6576L32.3732 68.6536C34.2086 67.1916 36.8099 67.1892 38.648 68.6478L38.6738 68.6682C40.5092 70.1246 43.1063 70.1246 44.9417 68.668L44.9669 68.6479C46.8048 67.1894 49.4061 67.1915 51.2417 68.6533L51.2423 68.6537C53.0804 70.1176 55.686 70.1175 57.524 68.6536C59.3594 67.1916 61.9607 67.1892 63.7988 68.6478L63.8189 68.6637C65.657 70.1222 68.2583 70.1198 70.0937 68.6581" stroke="#F4B32F" stroke-width="2.5" stroke-miterlimit="10" stroke-linecap="round" stroke-linejoin="round"/>
<path id="path35" d="M63.2929 2.12306C67.3392 4.31231 70.0938 8.59574 70.0938 13.5104V15.0573C70.0938 16.6107 68.8346 17.8698 67.2813 17.8698C65.7279 17.8698 64.4688 16.6107 64.4688 15.0573V13.5104C64.4688 9.47831 61.1884 6.19795 57.1563 6.19795C53.1241 6.19795 49.8438 9.47831 49.8438 13.5104V46.5503" stroke="#F4B32F" stroke-width="2.5" stroke-miterlimit="10" stroke-linecap="round" stroke-linejoin="round"/>
<path id="path39" d="M44.2188 47.9565V13.5104C44.2188 8.60587 46.9619 4.33017 50.9945 2.1367" stroke="#F4B32F" stroke-width="2.5" stroke-miterlimit="10" stroke-linecap="round" stroke-linejoin="round"/>
<path id="path43" d="M12.7237 46.5503V13.5104C12.7237 6.37668 18.5274 0.572948 25.6612 0.572948C32.795 0.572948 38.5987 6.37668 38.5987 13.5104V15.0573C38.5987 16.6107 37.3396 17.8698 35.7862 17.8698C34.2329 17.8698 32.9737 16.6107 32.9737 15.0573V13.5104C32.9737 9.47831 29.6934 6.19795 25.6612 6.19795C21.6291 6.19795 18.3487 9.47831 18.3487 13.5104V47.9565" stroke="#F4B32F" stroke-width="2.5" stroke-miterlimit="10" stroke-linecap="round" stroke-linejoin="round"/>
<path id="path47" d="M18.3487 36.4324H44.2188" stroke="#F4B32F" stroke-width="2.5" stroke-miterlimit="10" stroke-linecap="round" stroke-linejoin="round"/>
<path id="path51" d="M18.3487 26.3074H44.2188" stroke="#F4B32F" stroke-width="2.5" stroke-miterlimit="10" stroke-linecap="round" stroke-linejoin="round"/>
<path id="path55" d="M12.2969 26.3074H0.906265" stroke="#F4B32F" stroke-width="2.5" stroke-miterlimit="10" stroke-linecap="round" stroke-linejoin="round"/>
<path id="path59" d="M70.0938 26.3074H49.8438" stroke="#F4B32F" stroke-width="2.5" stroke-miterlimit="10" stroke-linecap="round" stroke-linejoin="round"/>
<path id="path67" d="M0.924805 47.6672C2.76024 49.1241 5.35759 49.1242 7.19316 47.6674L7.21763 47.6481C9.05574 46.1893 11.6574 46.1917 13.4929 47.6537L13.4981 47.6579C15.3339 49.1203 17.9362 49.1224 19.7745 47.6627L19.7985 47.6437C21.6341 46.1862 24.232 46.1859 26.0679 47.6432L26.0926 47.6627C27.9307 49.1217 30.5323 49.1195 32.368 47.6574L32.3732 47.6533C34.2086 46.1914 36.8099 46.189 38.648 47.6475L38.6738 47.6679C40.5092 49.1244 43.1063 49.1244 44.9417 47.6678L44.9669 47.6477C46.8048 46.1891 49.4061 46.1912 51.2417 47.653L51.2423 47.6534C53.0804 49.1174 55.686 49.1172 57.524 47.6533C59.3594 46.1914 61.9607 46.189 63.7988 47.6475L63.8189 47.6634C65.657 49.122 68.2583 49.1196 70.0937 47.6578" stroke="#F4B32F" stroke-width="2.5" stroke-miterlimit="10" stroke-linecap="round" stroke-linejoin="round"/>
</g>
</g>
<defs>
<clipPath id="clip0_43_420">
<rect width="72" height="72" fill="white" transform="translate(0 0.3125)"/>
</clipPath>
</defs>
</svg>
