<svg width="76" height="75" viewBox="0 0 76 75" fill="none" xmlns="http://www.w3.org/2000/svg">
<g clip-path="url(#clip0_206_1294)">
<path d="M65.5391 47.0379V40.6397C65.5391 29.1248 56.2043 19.79 44.6892 19.79H38.9521V32.6807H40.6701C43.3893 32.6807 45.8396 33.8263 47.5695 35.6591" stroke="#F4B32F" stroke-width="2" stroke-miterlimit="10" stroke-linecap="round" stroke-linejoin="round"/>
<path d="M49.9531 40.2031C50.0867 40.8374 50.1582 41.4947 50.1582 42.1688V47.8367" stroke="#F4B32F" stroke-width="2" stroke-miterlimit="10" stroke-linecap="round" stroke-linejoin="round"/>
<path d="M49.2793 25.6002C47.8268 25.1561 46.2854 24.917 44.6894 24.917H38.9521" stroke="#F4B32F" stroke-width="2" stroke-miterlimit="10" stroke-linecap="round" stroke-linejoin="round"/>
<path d="M60.4121 40.6396C60.4121 35.3079 57.7445 30.5876 53.6738 27.7432" stroke="#F4B32F" stroke-width="2" stroke-miterlimit="10" stroke-linecap="round" stroke-linejoin="round"/>
<path d="M54.6992 40.334C54.6992 36.625 52.8436 33.3413 50.0117 31.3625" stroke="#F4B32F" stroke-width="2" stroke-miterlimit="10" stroke-linecap="round" stroke-linejoin="round"/>
<path d="M30.3096 15.7542H8.19043V33.6252H30.3096V15.7542Z" stroke="#F4B32F" stroke-width="2" stroke-miterlimit="10" stroke-linecap="round" stroke-linejoin="round"/>
<path d="M14.709 25.4882V33.6252H20.7881V15.7542H14.709V20.3612" stroke="#F4B32F" stroke-width="2" stroke-miterlimit="10" stroke-linecap="round" stroke-linejoin="round"/>
<path d="M31.042 36.4084H38.2197C38.6242 36.4084 38.9521 36.0805 38.9521 35.676V13.7034C38.9521 13.2989 38.6242 12.9709 38.2197 12.9709H31.042C30.6375 12.9709 30.3096 13.2989 30.3096 13.7034V35.676C30.3096 36.0805 30.6375 36.4084 31.042 36.4084Z" stroke="#F4B32F" stroke-width="2" stroke-miterlimit="10" stroke-linecap="round" stroke-linejoin="round"/>
<path d="M74.4014 55.5048V48.5347C74.4014 48.1571 74.1138 47.8417 73.7378 47.8069C71.7941 47.6268 70.0776 46.6637 68.9062 45.2362C68.6082 44.8731 68.0606 44.8731 67.7627 45.2362C66.4597 46.8243 64.482 47.8375 62.2676 47.8375C60.0531 47.8375 58.0755 46.8243 56.7724 45.2362C56.4745 44.8731 55.9269 44.8731 55.629 45.2362C54.326 46.8243 52.3483 47.8375 50.1339 47.8375C47.9193 47.8375 45.9418 46.8243 44.6387 45.2362C44.3407 44.8731 43.7932 44.8731 43.4952 45.2362C42.1922 46.8243 40.2146 47.8375 38 47.8375C35.7854 47.8375 33.8079 46.8243 32.5049 45.2362C32.207 44.8731 31.6594 44.8731 31.3615 45.2362C30.0585 46.8243 28.0808 47.8375 25.8663 47.8375C23.6517 47.8375 21.6742 46.8243 20.371 45.2362C20.0731 44.8731 19.5255 44.8731 19.2276 45.2362C17.9246 46.8243 15.9469 47.8375 13.7325 47.8375C11.518 47.8375 9.54043 46.8243 8.2373 45.2362C8.2228 45.2185 8.2061 45.2041 8.19043 45.1882" stroke="#F4B32F" stroke-width="2" stroke-miterlimit="10" stroke-linecap="round" stroke-linejoin="round"/>
<path d="M59.7042 55.0254C58.5516 54.579 57.5434 53.8431 56.7726 52.9037C56.4746 52.5406 55.9271 52.5406 55.6291 52.9037C54.3261 54.4917 52.3484 55.505 50.134 55.505C47.9195 55.505 45.942 54.4917 44.6388 52.9037C44.3409 52.5406 43.7933 52.5406 43.4954 52.9037C42.1924 54.4917 40.2147 55.505 38.0002 55.505C35.7856 55.505 33.8081 54.4917 32.5051 52.9037C32.2071 52.5406 31.6596 52.5406 31.3616 52.9037C30.0586 54.4917 28.081 55.505 25.8664 55.505C23.6519 55.505 21.6743 54.4917 20.3712 52.9037C20.0732 52.5406 19.5257 52.5406 19.2277 52.9037C17.9248 54.4917 15.9471 55.505 13.7327 55.505C11.5181 55.505 9.54058 54.4917 8.23746 52.9037C8.22296 52.886 8.20626 52.8716 8.19058 52.8557V66.8736H73.6691C74.0735 66.8736 74.4015 66.5456 74.4015 66.1412V55.505C72.187 55.505 70.2094 54.4917 68.9063 52.9037C68.6084 52.5406 68.0608 52.5406 67.7628 52.9037C66.9919 53.8432 65.9836 54.5792 64.8311 55.0255" stroke="#F4B32F" stroke-width="2" stroke-miterlimit="10" stroke-linecap="round" stroke-linejoin="round"/>
<path d="M8.19043 66.8734H2.33105C1.92661 66.8734 1.59863 66.5454 1.59863 66.141V8.85913C1.59863 8.45469 1.92661 8.12671 2.33105 8.12671H7.45801C7.86245 8.12671 8.19043 8.45469 8.19043 8.85913V66.8734Z" stroke="#F4B32F" stroke-width="2" stroke-miterlimit="10" stroke-linecap="round" stroke-linejoin="round"/>
</g>
<defs>
<clipPath id="clip0_206_1294">
<rect width="75" height="75" fill="white" transform="translate(0.5)"/>
</clipPath>
</defs>
</svg>
