<svg width="160" height="160" viewBox="0 0 160 160" fill="none" xmlns="http://www.w3.org/2000/svg">
<g id="house-plan">
<rect width="160" height="160" rx="80" fill="#FFF9ED"/>
<g id="Group">
<g id="Group_2">
<path id="Vector" d="M117.954 72.5986C117.764 72.5986 117.574 72.5986 117.384 72.5986C117.342 72.5986 117.179 72.6252 117.147 72.5986C117.121 72.5763 117.132 72.4708 117.13 72.429C117.123 72.2962 117.117 72.1637 117.109 72.031C117.058 71.1129 116.969 70.1958 116.844 69.2848C116.537 67.0378 116.015 64.8295 115.277 62.682C115.014 61.918 114.182 61.5108 113.418 61.7735C112.653 62.0361 112.246 62.8685 112.509 63.6329C112.835 64.5815 113.111 65.5442 113.345 66.5167H108.783C107.042 66.5167 105.627 67.9324 105.627 69.6726V72.5986H88.2235V69.6726C88.2235 67.9324 86.8078 66.5167 85.0676 66.5167H74.5C72.7598 66.5167 71.344 67.9324 71.344 69.6726V72.5986H55.4043V69.6726C55.4043 67.9324 53.9886 66.5167 52.2484 66.5167H47.6979C49.8692 57.5819 55.8212 49.8655 64.142 45.5567L65.3067 49.3693C65.4994 49.9999 66.079 50.4055 66.7058 50.4055C66.8473 50.4055 66.9914 50.3847 67.1339 50.3412C67.9067 50.105 68.342 49.287 68.1058 48.514L65.7772 40.8913C65.7718 40.8737 65.7553 40.8203 65.7997 40.7605C65.8441 40.7005 65.9002 40.7005 65.9185 40.7005C66.028 40.7005 66.1369 40.6883 66.2434 40.6639C67.5013 40.3775 68.7787 40.1295 70.0574 39.9183V54.715C70.0574 55.5232 70.7125 56.1783 71.5208 56.1783C72.329 56.1783 72.9841 55.5232 72.9841 54.715V35.738C72.9841 35.2907 73.3482 34.9269 73.7952 34.9269H87.2359C87.6831 34.9269 88.047 35.2909 88.047 35.738V54.715C88.047 55.5232 88.7021 56.1783 89.5103 56.1783C90.3186 56.1783 90.9737 55.5232 90.9737 54.715V39.9185C92.2528 40.1295 93.53 40.3775 94.7876 40.6639C94.8878 40.6868 94.99 40.699 95.0927 40.7003C95.1115 40.7025 95.1979 40.7149 95.2316 40.7605C95.2759 40.8203 95.2594 40.8741 95.2541 40.8915L93.0389 48.1434C92.8027 48.9164 93.238 49.7344 94.0108 49.9706C94.1533 50.0141 94.2972 50.0349 94.4389 50.0349C95.0654 50.0349 95.6453 49.6291 95.838 48.9987L96.8901 45.5545C102.29 48.3584 106.885 52.7292 109.94 58.0027C110.211 58.4711 110.703 58.7326 111.207 58.7326C111.457 58.7326 111.709 58.6688 111.94 58.5352C112.639 58.1301 112.878 57.2347 112.472 56.5354C109.05 50.628 103.856 45.758 97.7583 42.7117L98.0532 41.7466C98.3409 40.8047 98.17 39.8105 97.5842 39.0195C96.9619 38.1783 96.035 37.8328 95.3079 37.7805C93.8785 37.4581 92.426 37.1815 90.9735 36.9524V35.7376C90.9741 33.6769 89.2972 32 87.2361 32H73.7954C71.7343 32 70.0574 33.6769 70.0574 35.738V36.953C68.6076 37.1816 67.1575 37.4576 65.7301 37.7794C64.8194 37.8336 63.9952 38.2786 63.4469 39.0195C62.8612 39.8113 62.6902 40.8053 62.9779 41.747L63.2724 42.7106C53.4008 47.6311 46.4926 56.9146 44.4733 67.571C44.4594 67.6186 44.4472 67.667 44.4383 67.7165C44.2214 68.9004 44.0675 70.1009 43.973 71.3066C43.9391 71.7367 43.9127 72.1677 43.8945 72.599H43.0778C40.278 72.599 38 74.8642 38 77.6485V85.4406V90.3096C38 91.7205 38.9981 92.9373 40.3734 93.2035L47.7196 94.6254C48.4514 97.2436 49.4951 99.7621 50.8319 102.134L46.6413 108.336C45.8523 109.504 46.0032 111.074 46.9993 112.071L53.8853 118.957C54.8821 119.953 56.4525 120.104 57.6201 119.315L63.822 115.124C66.1935 116.461 68.712 117.505 71.3305 118.236L72.7525 125.583C73.0201 126.966 74.2372 127.97 75.6464 127.97H85.3847C86.7939 127.97 88.011 126.966 88.2786 125.583L88.8875 122.437C89.041 121.644 88.5221 120.876 87.7287 120.722C86.9338 120.568 86.1673 121.088 86.014 121.881L85.4052 125.027C85.4033 125.037 85.3947 125.044 85.3845 125.044H75.6462C75.6363 125.044 75.6274 125.036 75.6256 125.027L74.0291 116.779C73.9212 116.22 73.499 115.775 72.947 115.637C69.9796 114.896 67.1433 113.72 64.517 112.143C64.0295 111.85 63.4158 111.866 62.9442 112.185L55.9809 116.89C55.9727 116.896 55.9616 116.894 55.9547 116.887L49.0686 110.001C49.0615 109.994 49.0604 109.983 49.0662 109.975L53.771 103.012C54.0894 102.54 54.1058 101.927 53.813 101.439C52.2355 98.8118 51.06 95.9752 50.3187 93.0086C50.1807 92.4566 49.7355 92.0344 49.177 91.9265L40.932 90.3325C40.9314 90.3319 40.9265 90.3261 40.9265 90.3096V86.9036H55.7796C56.5395 99.8881 67.3438 110.219 80.5156 110.219C93.6873 110.219 104.492 99.8881 105.252 86.9036H120.073V90.3092C120.073 90.3199 120.072 90.3287 120.071 90.3357L111.854 91.9261C111.296 92.0341 110.851 92.4562 110.713 93.0082C109.971 95.975 108.796 98.8114 107.218 101.438C106.926 101.926 106.942 102.54 107.26 103.011L111.965 109.974C111.971 109.983 111.97 109.994 111.963 110.001L105.077 116.887C105.07 116.894 105.058 116.895 105.05 116.889L98.0871 112.184C97.6153 111.866 97.002 111.849 96.5143 112.142C93.888 113.72 91.0515 114.895 88.0843 115.637C87.3002 115.832 86.8232 116.627 87.019 117.411C87.2147 118.195 88.0099 118.672 88.7934 118.476C91.7383 117.74 94.5651 116.614 97.2095 115.124L103.411 119.314C104.579 120.103 106.15 119.953 107.146 118.956L114.032 112.07C115.029 111.074 115.179 109.503 114.39 108.336L110.2 102.134C111.537 99.7617 112.58 97.2433 113.312 94.6251L120.658 93.2031C122.037 92.9362 123 91.7462 123 90.3092V85.4402V77.6481C123 74.8638 120.736 72.5986 117.954 72.5986ZM108.553 69.6726C108.553 69.5463 108.657 69.4434 108.783 69.4434H113.909C113.941 69.6696 113.972 69.8962 114 70.1234C114.02 70.285 114.037 70.4468 114.055 70.6085C114.077 70.8162 114.098 71.0239 114.116 71.2321C114.127 71.3648 114.139 71.4976 114.148 71.6303C114.171 71.9264 114.19 72.2228 114.204 72.5201C114.205 72.5463 114.207 72.5723 114.209 72.5984H108.553V69.6726ZM74.2711 69.6726C74.2711 69.5463 74.374 69.4434 74.5004 69.4434H85.068C85.1943 69.4434 85.2972 69.5463 85.2972 69.6726V72.5986H74.2711V69.6726ZM46.8898 71.5463C46.8936 71.4976 46.8979 71.4488 46.9018 71.3999C46.9567 70.7431 47.033 70.091 47.1277 69.4432H52.2486C52.3749 69.4432 52.4778 69.5463 52.4778 69.6726V72.5986H46.8231C46.8392 72.2468 46.8623 71.8961 46.8898 71.5463ZM120.073 83.9769H70.9971C70.1888 83.9769 69.5337 84.632 69.5337 85.4402C69.5337 86.2485 70.1888 86.9036 70.9971 86.9036H102.317C101.562 98.2729 92.073 107.292 80.5157 107.292C68.9585 107.292 59.4696 98.2729 58.714 86.9036H63.485C64.2932 86.9036 64.9483 86.2485 64.9483 85.4402C64.9483 84.632 64.2932 83.9769 63.485 83.9769H40.9267V77.6481C40.9267 76.4775 41.8917 75.5255 43.0778 75.5255H117.954C119.123 75.5255 120.073 76.4777 120.073 77.6481V83.9769Z" fill="#F4B32F"/>
</g>
</g>
</g>
</svg>
