<svg width="50" height="50" viewBox="0 0 50 50" fill="none" xmlns="http://www.w3.org/2000/svg">
<path d="M25.002 49.9987C24.164 50.0219 23.3466 49.7359 22.7056 49.195C22.0646 48.6541 21.6447 47.8961 21.5257 47.0653C18.0261 46.5216 14.7069 45.1489 11.8444 43.0613C11.1649 43.5296 10.343 43.7448 9.52145 43.6695C8.69992 43.5941 7.9307 43.2331 7.34741 42.6491C6.76412 42.0651 6.40361 41.295 6.32852 40.4726C6.25343 39.6501 6.46849 38.8273 6.93635 38.1471C4.84538 35.2746 3.47324 31.9418 2.93512 28.4285C2.1162 28.2964 1.37106 27.8766 0.833223 27.2444C0.295384 26.6122 0 25.809 0 24.9786C0 24.1482 0.295384 23.3449 0.833223 22.7127C1.37106 22.0806 2.1162 21.6608 2.93512 21.5286C3.47574 18.0032 4.85594 14.6597 6.95915 11.7807C6.47292 11.1097 6.24163 10.2872 6.30685 9.46084C6.37208 8.63449 6.72952 7.85851 7.31498 7.27231C7.90043 6.68612 8.67551 6.32815 9.50096 6.26271C10.3264 6.19727 11.1481 6.42866 11.8184 6.9153C14.6865 4.81675 18.0152 3.43707 21.5257 2.8919C21.6768 2.07945 22.1071 1.34552 22.742 0.817335C23.377 0.28915 24.1765 0 25.002 0C25.8275 0 26.627 0.28915 27.262 0.817335C27.8969 1.34552 28.3272 2.07945 28.4783 2.8919C31.9759 3.43515 35.2934 4.80671 38.1547 6.89246C38.8342 6.41661 39.6594 6.19557 40.4855 6.26814C41.3115 6.34071 42.0857 6.70225 42.672 7.2893C43.2583 7.87635 43.6193 8.65139 43.6917 9.47837C43.7641 10.3053 43.5431 11.1314 43.0677 11.8116C45.1586 14.6835 46.5308 18.0158 47.0689 21.5285C47.887 21.6617 48.6311 22.0819 49.1681 22.714C49.7051 23.346 50 24.1487 50 24.9785C50 25.8083 49.7051 26.611 49.1681 27.243C48.6311 27.8751 47.887 28.2953 47.0689 28.4285C46.5281 31.9536 45.1486 35.2969 43.0465 38.1764C43.5315 38.8477 43.7616 39.67 43.6957 40.4958C43.6299 41.3216 43.2722 42.0969 42.687 42.6826C42.1018 43.2684 41.3273 43.6262 40.5024 43.6921C39.6775 43.7579 38.8561 43.5273 38.1856 43.0418C35.3161 45.141 31.9856 46.5208 28.4734 47.0652C28.3546 47.8951 27.9353 48.6524 27.2953 49.1932C26.6554 49.734 25.8392 50.0207 25.002 49.9987ZM23.146 46.5162C23.1429 46.7633 23.189 47.0085 23.2816 47.2376C23.3743 47.4666 23.5116 47.6748 23.6857 47.8501C23.8597 48.0254 24.0669 48.1641 24.2951 48.2583C24.5233 48.3524 24.768 48.4 25.0149 48.3983C25.2617 48.3967 25.5057 48.3457 25.7326 48.2485C25.9596 48.1513 26.1649 48.0097 26.3365 47.8321C26.5081 47.6545 26.6426 47.4444 26.7322 47.2141C26.8217 46.9838 26.8645 46.738 26.858 46.491C26.8452 46.0046 26.6423 45.5426 26.293 45.2043C25.9436 44.866 25.4757 44.6784 24.9897 44.6817C24.5036 44.685 24.0383 44.879 23.6936 45.222C23.3489 45.565 23.1523 46.0297 23.146 46.5162ZM25.002 43.0239C25.7413 43.0039 26.4671 43.2246 27.0702 43.653C27.6734 44.0813 28.1213 44.6942 28.3467 45.3993C31.4926 44.8908 34.4775 43.6574 37.0658 41.7964C36.7454 41.1329 36.6393 40.386 36.7621 39.6594C36.8848 38.9328 37.2305 38.2625 37.751 37.7414C38.2715 37.2203 38.9412 36.8743 39.667 36.7514C40.3928 36.6284 41.1389 36.7347 41.8016 37.0554C43.6612 34.4647 44.8931 31.4764 45.3998 28.3268C44.7083 28.0819 44.1095 27.6284 43.6861 27.0288C43.2626 26.4292 43.0352 25.7129 43.0352 24.9785C43.0352 24.2442 43.2626 23.5279 43.6861 22.9283C44.1095 22.3286 44.7083 21.8752 45.3998 21.6303C44.8938 18.4805 43.6619 15.492 41.8016 12.9017C41.1389 13.224 40.3923 13.3314 39.6657 13.2091C38.9391 13.0867 38.2686 12.7407 37.7476 12.2191C37.2266 11.6976 36.881 11.0264 36.7588 10.299C36.6366 9.57165 36.7439 8.82422 37.0658 8.16073C34.4775 6.29971 31.4926 5.0663 28.3466 4.55786C28.1063 5.2544 27.6549 5.85858 27.0554 6.28622C26.4559 6.71387 25.7381 6.9437 25.002 6.9437C24.2658 6.9437 23.548 6.71387 22.9485 6.28622C22.349 5.85858 21.8977 5.2544 21.6573 4.55786C18.5114 5.06631 15.5265 6.29972 12.9382 8.16073C13.2551 8.82425 13.3586 9.56981 13.2345 10.2947C13.1105 11.0196 12.7649 11.6881 12.2454 12.2081C11.7259 12.7282 11.0581 13.0741 10.334 13.1983C9.60993 13.3226 8.86517 13.2189 8.20237 12.9017C6.34282 15.4924 5.11094 18.4807 4.60419 21.6303C5.29567 21.8753 5.8943 22.3288 6.3177 22.9284C6.74109 23.5281 6.96843 24.2443 6.96843 24.9786C6.96843 25.7129 6.74109 26.4291 6.3177 27.0288C5.8943 27.6284 5.29567 28.0819 4.60419 28.3269C5.11023 31.4764 6.34218 34.4646 8.20237 37.0547C8.86522 36.7328 9.61179 36.6256 10.3383 36.7481C11.0648 36.8706 11.7351 37.2167 12.256 37.7383C12.7769 38.2598 13.1225 38.9309 13.2448 39.6582C13.3671 40.3855 13.2599 41.1329 12.9382 41.7964C15.5264 43.6577 18.5113 44.8911 21.6574 45.3993C21.8824 44.694 22.3303 44.081 22.9335 43.6525C23.5367 43.2241 24.2627 43.0035 25.002 43.0239ZM8.47866 38.8947C8.30572 39.0708 8.16969 39.2798 8.07859 39.5093C7.98748 39.7388 7.94314 39.9843 7.94816 40.2312C7.95318 40.4781 8.00747 40.7215 8.10783 40.9472C8.20819 41.1728 8.35259 41.376 8.53256 41.545C8.71252 41.7139 8.92441 41.8451 9.15576 41.9309C9.38712 42.0167 9.63327 42.0553 9.87974 42.0445C10.1262 42.0336 10.368 41.9736 10.591 41.8678C10.8139 41.7621 11.0135 41.6127 11.178 41.4287C11.5002 41.068 11.6687 40.5955 11.6475 40.1122C11.6263 39.6288 11.4171 39.1729 11.0645 38.842C10.712 38.511 10.2441 38.3313 9.76086 38.3411C9.27766 38.3509 8.81747 38.5496 8.47866 38.8947ZM38.3432 40.2581C38.3598 40.6211 38.4811 40.9716 38.6924 41.2672C38.9037 41.5627 39.196 41.7906 39.534 41.9234C39.872 42.0562 40.2411 42.0881 40.5968 42.0153C40.9525 41.9425 41.2795 41.7682 41.5383 41.5133C41.7143 41.3455 41.8536 41.1432 41.9476 40.9189C42.0416 40.6946 42.0883 40.4533 42.0846 40.2101C42.081 39.9669 42.0271 39.7271 41.9264 39.5057C41.8256 39.2844 41.6803 39.0863 41.4994 38.924C41.2386 38.6653 40.907 38.4901 40.5465 38.4205C40.1861 38.3508 39.8131 38.39 39.475 38.5329C39.1368 38.6759 38.8487 38.9162 38.6472 39.2233C38.4457 39.5305 38.3399 39.8906 38.3432 40.2581ZM1.63499 24.9786C1.64117 25.4627 1.83763 25.925 2.18183 26.2652C2.52602 26.6054 2.99024 26.7962 3.47393 26.7962C3.95763 26.7962 4.42185 26.6054 4.76604 26.2652C5.11024 25.925 5.3067 25.4627 5.31287 24.9786C5.3067 24.4944 5.11024 24.0321 4.76604 23.6919C4.42185 23.3517 3.95763 23.161 3.47393 23.161C2.99024 23.161 2.52602 23.3517 2.18183 23.6919C1.83763 24.0321 1.64117 24.4944 1.63499 24.9786ZM45.0618 26.1532C45.3044 26.4525 45.6338 26.6691 46.0044 26.7733C46.3751 26.8774 46.769 26.8639 47.1317 26.7347C47.4944 26.6054 47.8082 26.3668 48.0298 26.0517C48.2514 25.7365 48.37 25.3603 48.3692 24.9749C48.3684 24.5895 48.2483 24.2138 48.0253 23.8995C47.8024 23.5853 47.4876 23.348 47.1243 23.2203C46.7611 23.0926 46.3672 23.0807 45.997 23.1864C45.6267 23.2921 45.2983 23.5101 45.0569 23.8104C44.8151 24.1532 44.6856 24.5629 44.6865 24.9826C44.6874 25.4023 44.8186 25.8114 45.0618 26.1532ZM9.74144 11.6229C10.1069 11.6225 10.4641 11.5143 10.7684 11.3119C11.0728 11.1094 11.3108 10.8217 11.4528 10.4847C11.5948 10.1476 11.6344 9.77612 11.5668 9.41664C11.4991 9.05715 11.3272 8.72559 11.0724 8.46336C8.51048 6.2388 6.22068 10.957 9.74144 11.6229ZM38.5448 8.93191C38.3665 9.32768 38.3314 9.77323 38.4454 10.1921C38.5595 10.611 38.8156 10.977 39.1699 11.2275C39.5241 11.4779 39.9544 11.5971 40.3869 11.5646C40.8194 11.5321 41.227 11.35 41.54 11.0494C41.7387 10.8586 41.8927 10.6261 41.9912 10.3687C42.0896 10.1113 42.13 9.83533 42.1093 9.56048C42.0887 9.28563 42.0077 9.01874 41.872 8.77892C41.7363 8.53911 41.5493 8.3323 41.3244 8.17331C41.0995 8.01431 40.8422 7.90707 40.5711 7.85926C40.2999 7.81144 40.0216 7.82424 39.756 7.89674C39.4903 7.96923 39.244 8.09963 39.0346 8.27859C38.8252 8.45755 38.6579 8.68065 38.5448 8.93191ZM23.2289 3.99085C23.3392 4.37134 23.5739 4.70375 23.8954 4.93475C24.2169 5.16575 24.6066 5.28197 25.002 5.26477C25.2462 5.27155 25.4892 5.22867 25.7164 5.13872C25.9436 5.04877 26.1502 4.91362 26.3236 4.74145C26.4971 4.56928 26.6339 4.36367 26.7258 4.13705C26.8176 3.91043 26.8626 3.66752 26.8579 3.42301C26.8544 3.157 26.7938 2.89485 26.6802 2.65432C26.5667 2.4138 26.4028 2.2005 26.1998 2.02887C25.9967 1.85725 25.7592 1.7313 25.5033 1.65955C25.2474 1.5878 24.9791 1.57194 24.7165 1.61302C24.4539 1.6541 24.2033 1.75118 23.9814 1.89768C23.7596 2.04418 23.5718 2.23668 23.4307 2.46215C23.2897 2.68762 23.1987 2.94079 23.1639 3.20454C23.129 3.46828 23.1512 3.73644 23.2289 3.99085ZM29.4112 39.7562C28.5414 39.7712 27.6818 39.5671 26.9114 39.1627C26.1409 38.7583 25.4844 38.1666 25.002 37.4419C24.3689 38.3832 23.4441 39.09 22.3702 39.4533C21.2963 39.8166 20.1329 39.8164 19.0591 39.4525C17.9854 39.0887 17.061 38.3814 16.4283 37.4398C15.7956 36.4982 15.4898 35.3744 15.558 34.2417C14.3793 34.1488 13.258 33.6941 12.3471 32.9396C11.4361 32.1851 10.78 31.1675 10.4682 30.0258C10.1564 28.8841 10.2041 27.6739 10.6049 26.5604C11.0056 25.4468 11.7399 24.4842 12.7074 23.804C12.2896 23.0717 12.0372 22.2566 11.9679 21.4161C11.8987 20.5756 12.0143 19.7301 12.3067 18.9392C12.599 18.1482 13.061 17.4311 13.6601 16.8381C14.2592 16.2452 14.9808 15.7909 15.7742 15.5073C13.9304 9.90305 22.0769 6.41037 25.0053 11.2724C27.9288 6.40402 36.0749 9.9118 34.23 15.5073C35.0234 15.791 35.745 16.2453 36.344 16.8382C36.9431 17.4311 37.4051 18.1483 37.6975 18.9392C37.9898 19.7302 38.1054 20.5756 38.0362 21.4161C37.967 22.2566 37.7146 23.0717 37.2967 23.804C38.2643 24.4843 38.9985 25.4469 39.3993 26.5604C39.8 27.674 39.8478 28.8842 39.536 30.0259C39.2242 31.1676 38.568 32.1851 37.6571 32.9396C36.7461 33.6942 35.6248 34.1489 34.4461 34.2418C34.5018 34.9403 34.4134 35.6428 34.1863 36.3056C33.9591 36.9684 33.5982 37.5774 33.126 38.0946C32.6537 38.6118 32.0802 39.0262 31.4412 39.3121C30.8021 39.5979 30.1111 39.7491 29.4112 39.7562ZM25.8341 34.5784C25.8363 35.2484 26.0302 35.9038 26.3928 36.467C26.7554 37.0302 27.2715 37.4777 27.8801 37.7564C28.4887 38.0352 29.1644 38.1337 29.8271 38.0402C30.4899 37.9466 31.112 37.665 31.6199 37.2287C31.997 36.8856 32.2957 36.4651 32.4955 35.9959C32.6954 35.5266 32.7916 35.0197 32.7777 34.5098C32.7638 33.9999 32.6401 33.499 32.415 33.0413C32.1899 32.5837 31.8688 32.1801 31.4735 31.8582C31.3009 31.7252 31.1872 31.5297 31.1568 31.3138C31.1265 31.0978 31.182 30.8785 31.3113 30.7031C31.4407 30.5276 31.6336 30.4099 31.8487 30.3752C32.0638 30.3405 32.2839 30.3916 32.4617 30.5176C33.1808 31.0438 33.7409 31.7585 34.0803 32.583C34.9557 32.5701 35.8034 32.2744 36.4973 31.7401C37.1912 31.2057 37.694 30.4612 37.931 29.6176C38.1679 28.7739 38.1263 27.8762 37.8122 27.0582C37.4982 26.2401 36.9286 25.5455 36.1882 25.0778C35.5695 25.5412 34.2075 26.7143 33.609 25.5863C33.5178 25.3852 33.51 25.1561 33.5874 24.9492C33.6648 24.7424 33.8211 24.5748 34.0218 24.4832C34.7442 24.1722 35.3655 23.6657 35.8161 23.0205C36.2628 22.2961 36.465 21.447 36.3929 20.5986C36.3208 19.7503 35.9781 18.9476 35.4154 18.3092C34.8527 17.6707 34.0999 17.2303 33.2681 17.0529C32.4363 16.8755 31.5695 16.9705 30.7958 17.3239C30.5949 17.408 30.3691 17.4099 30.1669 17.3292C29.9646 17.2486 29.8021 17.0917 29.714 16.8924C29.626 16.6931 29.6195 16.4671 29.696 16.2631C29.7724 16.059 29.9258 15.8931 30.1231 15.8009C30.8918 15.4488 31.7252 15.2602 32.5705 15.247C32.746 14.7658 32.8132 14.2518 32.7673 13.7417C32.7214 13.2315 32.5635 12.7378 32.305 12.2958C32.0465 11.8537 31.6937 11.4743 31.2718 11.1845C30.8499 10.8947 30.3693 10.7018 29.8643 10.6194C29.3592 10.5371 28.8423 10.5674 28.3503 10.7081C27.8584 10.8489 27.4035 11.0966 27.0182 11.4337C26.633 11.7707 26.3268 12.1888 26.1215 12.658C25.9163 13.1272 25.817 13.6359 25.8309 14.148L25.8341 34.5784ZM18.3858 37.2287C18.8937 37.6648 19.5157 37.9462 20.1783 38.0396C20.8409 38.133 21.5163 38.0344 22.1247 37.7556C22.7331 37.4768 23.249 37.0295 23.6115 36.4664C23.9739 35.9033 24.1676 35.2481 24.1698 34.5783L24.1699 14.0829C23.934 8.63593 15.7483 10.1708 17.4335 15.247C18.2543 15.3127 20.7769 15.456 20.3053 16.8991C20.216 17.101 20.0502 17.2591 19.8445 17.3387C19.6388 17.4183 19.4099 17.413 19.2082 17.3238C18.4344 16.9706 17.5677 16.8757 16.736 17.0532C15.9042 17.2307 15.1515 17.6711 14.5889 18.3096C14.0263 18.948 13.6837 19.7506 13.6115 20.5989C13.5393 21.4471 13.7414 22.2962 14.188 23.0207C14.6386 23.6657 15.2599 24.1721 15.9822 24.4831C16.1789 24.5773 16.3308 24.7449 16.4054 24.9499C16.4799 25.155 16.4711 25.3812 16.3808 25.5798C16.2905 25.7784 16.126 25.9337 15.9226 26.0121C15.7192 26.0906 15.4932 26.0861 15.2931 25.9995C14.7606 25.7619 14.2634 25.4517 13.8158 25.0778C13.0761 25.5459 12.5072 26.2405 12.1936 27.0584C11.88 27.8762 11.8386 28.7736 12.0754 29.6169C12.3123 30.4602 12.8148 31.2044 13.5082 31.7389C14.2015 32.2733 15.0487 32.5693 15.9237 32.5829C16.3069 31.7262 17.6243 29.5499 18.706 30.6931C18.8369 30.871 18.892 31.0935 18.8591 31.312C18.8262 31.5304 18.708 31.7269 18.5305 31.8581C18.1351 32.18 17.8139 32.5837 17.5887 33.0414C17.3636 33.4991 17.24 34.0001 17.2262 34.5101C17.2125 35.0202 17.309 35.5271 17.5091 35.9963C17.7093 36.4655 18.0083 36.8859 18.3858 37.2287Z" fill="#F4B32F"/>
</svg>
