<svg width="93" height="106" viewBox="0 0 93 106" fill="none" xmlns="http://www.w3.org/2000/svg">
<g clip-path="url(#clip0_115_14911)">
<path d="M46.5156 9.72052C45.8712 9.72052 45.3481 9.2021 45.3481 8.56332V1.15721C45.3481 0.518428 45.8712 0 46.5156 0C47.1601 0 47.6831 0.518428 47.6831 1.15721V8.56332C47.6831 9.2021 47.1601 9.72052 46.5156 9.72052Z" fill="#F4B32F"/>
<path d="M27.8331 14.6826C27.4175 14.6826 27.0298 14.4604 26.822 14.104L23.086 7.69074C22.7591 7.13528 22.9459 6.42476 23.4993 6.10305C23.6791 5.99891 23.8822 5.94336 24.0877 5.94336C24.501 5.94336 24.8886 6.16323 25.0964 6.51502L28.8418 12.9468C29.1641 13.4999 28.9726 14.2081 28.4145 14.5275C28.237 14.6293 28.0362 14.6826 27.8331 14.6826Z" fill="#F4B32F"/>
<path d="M14.1568 28.2359C13.9537 28.2359 13.7529 28.1826 13.5778 28.0808L7.10273 24.3777C6.83887 24.2227 6.6474 23.9727 6.56801 23.6742C6.48862 23.3756 6.53299 23.0632 6.68943 22.797C6.89725 22.4429 7.28486 22.2253 7.69816 22.2253C7.89898 22.2253 8.09745 22.2786 8.27258 22.3758L14.7406 26.0765C15.2987 26.3959 15.4901 27.1041 15.1679 27.6573C14.9601 28.0137 14.5725 28.2359 14.1568 28.2359Z" fill="#F4B32F"/>
<path d="M1.68314 46.7511C1.03867 46.7511 0.515625 46.2326 0.515625 45.5939C0.515625 44.9551 1.03867 44.4366 1.68314 44.4366H9.15522C9.79969 44.4366 10.3227 44.9551 10.3227 45.5939C10.3227 46.2326 9.79969 46.7511 9.15522 46.7511H1.68314Z" fill="#F4B32F"/>
<path d="M7.69116 68.9695C7.37826 68.9695 7.08405 68.8491 6.86456 68.6316C6.64507 68.414 6.52364 68.1224 6.52364 67.8123C6.52364 67.4003 6.74781 67.0161 7.1074 66.8101L13.5801 63.1071C13.7646 63.0006 13.9677 62.9451 14.1732 62.9451C14.5865 62.9451 14.9741 63.1649 15.1819 63.5167C15.5088 64.0676 15.3197 64.7781 14.7663 65.0998L8.27491 68.8121C8.09745 68.9139 7.89897 68.9672 7.69583 68.9672H7.69349L7.69116 68.9695Z" fill="#F4B32F"/>
<path d="M85.3378 68.9695C85.1346 68.9695 84.9338 68.9162 84.7587 68.8144L78.2836 65.1114C77.7209 64.7943 77.5224 64.0861 77.8423 63.5306C78.0501 63.1696 78.4378 62.9451 78.8581 62.9451C79.0589 62.9451 79.2573 62.9983 79.4325 63.0955L85.9215 66.8078C86.1924 66.9629 86.3838 67.2128 86.4656 67.5114C86.5473 67.81 86.5053 68.1224 86.3488 68.3886C86.141 68.745 85.7534 68.9672 85.3378 68.9672H85.3331L85.3378 68.9695Z" fill="#F4B32F"/>
<path d="M83.876 46.7511C83.2316 46.7511 82.7085 46.2326 82.7085 45.5939C82.7085 44.9551 83.2316 44.4366 83.876 44.4366H91.3481C91.9926 44.4366 92.5156 44.9551 92.5156 45.5939C92.5156 46.2326 91.9926 46.7511 91.3481 46.7511H83.876Z" fill="#F4B32F"/>
<path d="M42.7796 106C38.0208 105.995 34.1447 102.153 34.14 97.4367V91.1878H31.5715C28.8675 91.1878 26.6679 89.0076 26.6679 86.3275V82.6245C26.6679 79.9444 28.8675 77.7642 31.5715 77.7642H34.14V73.8182L33.729 73.633C22.6587 68.6616 15.4995 57.6682 15.4878 45.6217C15.4808 37.3986 18.7031 29.6661 24.5641 23.8477C30.425 18.0293 38.2193 14.8192 46.5156 14.8123C47.1578 14.8123 47.6831 15.3307 47.6831 15.9695V27.4188C47.6831 27.5485 47.6598 27.6781 47.6154 27.803C47.4496 28.2659 47.0083 28.5761 46.5156 28.5761C46.3849 28.5761 46.2541 28.5529 46.1257 28.5089C45.64 28.3284 45.1193 28.2358 44.5869 28.2358C44.0545 28.2358 43.5338 28.3284 43.0364 28.5136C40.7434 29.3606 39.5736 31.8972 40.4282 34.17C41.0727 35.8826 42.7422 37.0329 44.5846 37.0329C45.1123 37.0329 45.6353 36.9403 46.135 36.7552C46.2494 36.7158 46.3779 36.6927 46.511 36.6927C47.1554 36.6927 47.6785 37.2111 47.6785 37.8499V44.439H52.8155V43.7447C52.8155 40.044 55.8534 37.0329 59.5871 37.0329C63.3208 37.0329 66.3587 40.044 66.3587 43.7447V44.439H76.3993C77.0438 44.439 77.5668 44.9575 77.5668 45.5962C77.5972 57.6844 70.4263 68.6894 59.2999 73.633L58.8866 73.8158V77.7642H61.4551C64.1591 77.7642 66.3587 79.9444 66.3587 82.6245V86.3275C66.3587 89.0076 64.1591 91.1878 61.4551 91.1878H58.8866V97.4367C58.8819 102.153 55.0058 105.995 50.247 106H42.7749H42.7796ZM36.475 97.4367C36.475 100.883 39.3027 103.686 42.7796 103.686H50.2517C53.7285 103.686 56.5562 100.883 56.5562 97.4367V91.1878H51.4192V97.4367C51.4192 98.0755 50.8961 98.5939 50.2517 98.5939C49.6072 98.5939 49.0842 98.0755 49.0842 97.4367V91.1878H43.9471V97.4367C43.9471 98.0755 43.4241 98.5939 42.7796 98.5939C42.1351 98.5939 41.6121 98.0755 41.6121 97.4367V91.1878H36.475V97.4367ZM31.5715 80.0786C30.1541 80.0786 29.0029 81.2196 29.0029 82.6245V86.3275C29.0029 87.7324 30.1541 88.8734 31.5715 88.8734H61.4598C62.8772 88.8734 64.0283 87.7324 64.0283 86.3275V82.6245C64.0283 81.2196 62.8772 80.0786 61.4598 80.0786H31.5715ZM47.6831 77.7642H56.5562V73.0475C56.5562 72.573 56.8434 72.1518 57.2848 71.9759C67.4445 67.9326 74.4659 58.3232 75.1734 47.4917L75.2224 46.7534H64.8526C64.7195 46.7534 64.5887 46.7303 64.4626 46.6863C63.8555 46.4734 63.538 45.8115 63.7528 45.2097C64.1217 44.2307 64.1217 43.1383 63.7481 42.1478C63.1036 40.4351 61.4341 39.2848 59.5894 39.2848C59.0617 39.2848 58.5387 39.3774 58.0413 39.5626C56.9298 39.9722 56.0472 40.7869 55.5545 41.8561C55.0618 42.9254 55.0198 44.1196 55.4331 45.219C55.4728 45.3324 55.4961 45.462 55.4961 45.5939C55.4961 46.2304 54.9731 46.7511 54.3286 46.7511H47.6808V51.8428H48.3813C52.115 51.8428 55.1529 54.8539 55.1529 58.5546C55.1529 62.2554 52.115 65.2664 48.3813 65.2664H47.6808V77.7642H47.6831ZM17.8649 47.4894C18.5677 58.3185 25.5868 67.9303 35.7465 71.9736C36.1878 72.1495 36.475 72.5707 36.475 73.0451V77.7642H45.3481V63.769C45.3481 63.6394 45.3715 63.5098 45.4158 63.3848C45.5793 62.9219 46.0229 62.6118 46.5156 62.6118C46.6464 62.6118 46.7772 62.6349 46.9056 62.6789C47.3913 62.8594 47.912 62.952 48.4444 62.952C48.9767 62.952 49.4975 62.8594 49.9948 62.6743C52.2878 61.8272 53.4577 59.2906 52.603 57.0178C51.9586 55.3052 50.289 54.1549 48.4467 54.1549C47.919 54.1549 47.3959 54.2475 46.8986 54.4327C46.7842 54.472 46.6557 54.4951 46.5226 54.4951C45.8782 54.4951 45.3551 53.9767 45.3551 53.3379V46.7488H40.2181V47.4431C40.2181 51.1439 37.1802 54.1549 33.4465 54.1549C29.7128 54.1549 26.6749 51.1439 26.6749 47.4431V46.7488H17.8252L17.8742 47.4871L17.8649 47.4894ZM44.5986 17.1892C30.3269 18.1543 18.8292 29.5481 17.8579 43.6961L17.8065 44.4367H28.1787C28.3118 44.4367 28.4425 44.4599 28.5686 44.5038C29.1757 44.7168 29.4933 45.3787 29.2785 45.9804C28.9095 46.9594 28.9095 48.0518 29.2831 49.0424C29.9276 50.7551 31.5971 51.9053 33.4418 51.9053C33.9695 51.9053 34.4926 51.8127 34.9923 51.6276C37.2853 50.7805 38.4551 48.2439 37.6005 45.9712C37.5608 45.8578 37.5375 45.7281 37.5375 45.5962C37.5375 44.9575 38.0605 44.439 38.705 44.439H45.3528V39.3473H44.6523C40.9186 39.3473 37.8807 36.3363 37.8807 32.6355C37.8807 28.9348 40.9186 25.9237 44.6523 25.9237H45.3528V17.1406L44.6056 17.1915L44.5986 17.1892Z" fill="#F4B32F"/>
<path d="M79.7967 31.9389C79.6636 31.9389 79.5329 31.9157 79.4068 31.8717C78.7997 31.6588 78.4821 30.9969 78.697 30.3952C79.0659 29.4162 79.0659 28.3238 78.6923 27.3332C78.0478 25.6205 76.3783 24.4703 74.5336 24.4703C74.0059 24.4703 73.4828 24.5628 72.9855 24.748C71.874 25.1576 70.9914 25.9723 70.4987 27.0416C70.006 28.1108 69.964 29.3051 70.3773 30.4044C70.4169 30.5178 70.4403 30.6474 70.4403 30.7793C70.4403 31.4158 69.9173 31.9366 69.2728 31.9366H61.4575C60.813 31.9366 60.2899 31.4181 60.2899 30.7793V24.5304H59.5894C55.8557 24.5304 52.8179 21.5194 52.8179 17.8186C52.8179 14.1179 55.8557 11.1069 59.5894 11.1069H60.2899V1.15721C60.2899 0.518428 60.813 0 61.4575 0C78.5615 0.0185153 92.4946 13.8286 92.5133 30.7817C92.5133 31.4181 91.9902 31.9389 91.3458 31.9389H79.7944H79.7967ZM74.5359 22.2183C78.2696 22.2183 81.3075 25.2294 81.3075 28.9301V29.6245H90.1689L90.1176 28.8838C89.1439 14.7382 77.6485 3.34201 63.3745 2.3769L62.6273 2.32598V12.6066C62.6273 12.7362 62.604 12.8658 62.5596 12.9908C62.3938 13.4537 61.9525 13.7638 61.4598 13.7638C61.329 13.7638 61.1983 13.7407 61.0698 13.6967C60.5842 13.5162 60.0634 13.4236 59.5311 13.4236C58.9987 13.4236 58.478 13.5162 57.9806 13.7013C55.6876 14.5484 54.5178 17.085 55.3724 19.3577C56.0168 21.0704 57.6864 22.2207 59.5287 22.2207C60.0564 22.2207 60.5795 22.1281 61.0768 21.9429C61.1913 21.9036 61.3197 21.8804 61.4528 21.8804C62.0973 21.8804 62.6203 22.3989 62.6203 23.0376V29.6268H67.7574V28.9324C67.7574 25.2317 70.7952 22.2207 74.5289 22.2207L74.5359 22.2183Z" fill="#F4B32F"/>
</g>
<defs>
<clipPath id="clip0_115_14911">
<rect width="92" height="106" fill="white" transform="translate(0.515625)"/>
</clipPath>
</defs>
</svg>
