<svg width="102" height="93" viewBox="0 0 102 93" fill="none" xmlns="http://www.w3.org/2000/svg">
<path d="M93.2695 48.5492C91.7983 73.3187 70.4499 92.2731 45.6805 90.8018C34.9311 90.1633 25.2769 85.7814 17.9121 79.0006" stroke="#F4B32F" stroke-width="2.5" stroke-miterlimit="10" stroke-linecap="round" stroke-linejoin="round"/>
<path d="M4 46.334C4 21.5209 24.1869 1.334 49 1.334C59.5636 1.334 69.2889 4.99272 76.975 11.1096" stroke="#F4B32F" stroke-width="2.5" stroke-miterlimit="10" stroke-linecap="round" stroke-linejoin="round"/>
<path d="M88.4948 16.6098C88.8738 15.9148 89.8717 15.9148 90.2507 16.6098L92.9999 21.6508C93.1437 21.9146 93.3985 22.0997 93.6938 22.1549L99.3376 23.2118C100.116 23.3576 100.424 24.3066 99.8802 24.8818L95.9355 29.0542C95.7291 29.2725 95.6318 29.572 95.6704 29.8699L96.4093 35.5641C96.5112 36.3491 95.7039 36.9356 94.9888 36.5962L89.8016 34.1339C89.5302 34.005 89.2153 34.005 88.9439 34.1339L83.7567 36.5962C83.0416 36.9356 82.2343 36.3491 82.3362 35.5641L83.0751 29.8699C83.1137 29.572 83.0164 29.2725 82.81 29.0542L78.8653 24.8818C78.3215 24.3066 78.6298 23.3576 79.4079 23.2118L85.0517 22.1549C85.347 22.0997 85.6018 21.9146 85.7456 21.6508L88.4948 16.6098Z" stroke="#F4B32F" stroke-width="2"/>
<g clip-path="url(#clip0_0_1)">
<path d="M71.563 96.9397H49.45C49.105 96.9397 48.7741 96.8059 48.5302 96.5676C48.2862 96.3293 48.1492 96.0062 48.1492 95.6692V9.27395C48.1493 9.03253 48.2198 8.79614 48.3525 8.59245C48.4851 8.38876 48.6745 8.2262 48.8983 8.12382C49.1221 8.02144 49.3712 7.98346 49.6163 8.01434C49.8615 8.04523 50.0925 8.14368 50.2824 8.29819L65.8917 21.0034C66.0236 21.1108 66.1324 21.2427 66.2119 21.3914C66.2914 21.5401 66.3399 21.7027 66.3547 21.8699L72.8586 95.5599C72.8741 95.7353 72.8521 95.9119 72.794 96.0786C72.736 96.2452 72.6431 96.3982 72.5213 96.528C72.3995 96.6577 72.2514 96.7613 72.0864 96.8321C71.9215 96.903 71.7432 96.9397 71.563 96.9397ZM50.7507 94.3987H70.1452L63.8104 22.6144L50.7507 11.9865V94.3987Z" fill="#F4B32F"/>
<path d="M81.3188 96.9398H71.5631C71.2181 96.9398 70.8872 96.8059 70.6433 96.5677C70.3994 96.3294 70.2623 96.0062 70.2623 95.6693C70.2623 95.3323 70.3994 95.0091 70.6433 94.7709C70.8872 94.5326 71.2181 94.3987 71.5631 94.3987H79.901L78.8786 82.7672C78.8494 82.4316 78.9578 82.0984 79.18 81.8409C79.4023 81.5833 79.7201 81.4225 80.0636 81.3937C80.2341 81.3773 80.4062 81.3944 80.5697 81.444C80.7333 81.4936 80.8851 81.5746 81.0161 81.6824C81.1472 81.7901 81.2548 81.9224 81.3327 82.0713C81.4106 82.2203 81.4572 82.383 81.4697 82.5499L82.6144 95.5613C82.6297 95.7365 82.6076 95.913 82.5494 96.0795C82.4913 96.246 82.3984 96.3989 82.2766 96.5285C82.1548 96.658 82.0068 96.7615 81.8419 96.8323C81.6771 96.9031 81.4989 96.9397 81.3188 96.9398Z" fill="#F4B32F"/>
<path d="M49.45 96.9401H27.3369C27.1563 96.9407 26.9775 96.9046 26.8119 96.834C26.6463 96.7635 26.4976 96.66 26.3752 96.5302C26.2529 96.4004 26.1595 96.2471 26.1011 96.0801C26.0428 95.9131 26.0206 95.7361 26.0362 95.5603L32.54 21.8702C32.5548 21.7031 32.6033 21.5405 32.6828 21.3917C32.7623 21.243 32.8712 21.1111 33.0031 21.0037L48.6123 8.29854C48.8021 8.14247 49.0337 8.04268 49.2796 8.01094C49.5256 7.9792 49.7758 8.01684 50.0006 8.11941C50.2254 8.22198 50.4154 8.38521 50.5483 8.58984C50.6813 8.79447 50.7515 9.03196 50.7508 9.2743V95.6695C50.7508 96.0065 50.6137 96.3297 50.3698 96.5679C50.1258 96.8062 49.795 96.9401 49.45 96.9401ZM28.7548 94.399H48.1492V11.9869L35.0895 22.6147L28.7548 94.399Z" fill="#F4B32F"/>
<path d="M27.3369 96.9402H14.9796C14.7918 96.9402 14.6063 96.9005 14.4358 96.8238C14.2652 96.7471 14.1137 96.6353 13.9916 96.496C13.8695 96.3567 13.7797 96.1932 13.7284 96.0168C13.6771 95.8404 13.6655 95.6552 13.6944 95.474L20.1983 54.8174C20.2505 54.49 20.4316 54.1955 20.703 53.9967L30.7969 46.6022C30.9336 46.5021 31.0891 46.4293 31.2546 46.3879C31.42 46.3465 31.5922 46.3373 31.7613 46.3609C31.9304 46.3845 32.0931 46.4404 32.2401 46.5254C32.3871 46.6104 32.5155 46.7229 32.618 46.8564C32.7205 46.9898 32.7951 47.1417 32.8375 47.3033C32.8799 47.465 32.8892 47.6332 32.8651 47.7983C32.8409 47.9635 32.7837 48.1224 32.6967 48.266C32.6096 48.4096 32.4945 48.535 32.3578 48.6351L22.6866 55.7195L16.4989 94.3991H27.3369C27.6819 94.3991 28.0127 94.533 28.2567 94.7713C28.5006 95.0095 28.6376 95.3327 28.6376 95.6697C28.6376 96.0066 28.5006 96.3298 28.2567 96.5681C28.0127 96.8063 27.6819 96.9402 27.3369 96.9402Z" fill="#F4B32F"/>
<path d="M72.7781 96.9402H85.1354C85.3232 96.9402 85.5087 96.9005 85.6792 96.8238C85.8498 96.7471 86.0013 96.6353 86.1234 96.496C86.2455 96.3567 86.3353 96.1932 86.3866 96.0168C86.4379 95.8404 86.4495 95.6552 86.4206 95.474L79.9167 54.8174C79.8645 54.49 79.6834 54.1955 79.412 53.9967L69.3181 46.6022C69.1814 46.5021 69.0259 46.4293 68.8604 46.3879C68.695 46.3465 68.5228 46.3373 68.3537 46.3609C68.1846 46.3845 68.0219 46.4404 67.8749 46.5254C67.7279 46.6104 67.5995 46.7229 67.497 46.8564C67.3945 46.9898 67.3199 47.1417 67.2775 47.3033C67.2351 47.465 67.2258 47.6332 67.2499 47.7983C67.2741 47.9635 67.3313 48.1224 67.4183 48.266C67.5054 48.4096 67.6205 48.535 67.7572 48.6351L77.4284 55.7195L83.6161 94.3991H72.7781C72.4331 94.3991 72.1023 94.533 71.8583 94.7713C71.6144 95.0095 71.4773 95.3327 71.4773 95.6697C71.4773 96.0066 71.6144 96.3298 71.8583 96.5681C72.1023 96.8063 72.4331 96.9402 72.7781 96.9402Z" fill="#F4B32F"/>
<path d="M27.8455 91.2478C27.564 91.2481 27.29 91.1592 27.0646 90.9944C26.8392 90.8297 26.6747 90.5979 26.5956 90.334C26.5166 90.07 26.5274 89.7882 26.6263 89.5308C26.7253 89.2733 26.9071 89.0542 27.1444 88.9063L48.7502 75.4388C49.041 75.2575 49.3936 75.1965 49.7305 75.2692C50.0674 75.3418 50.3609 75.5422 50.5465 75.8263C50.7321 76.1104 50.7946 76.4548 50.7202 76.7838C50.6458 77.1129 50.4406 77.3996 50.1498 77.5809L28.544 91.0484C28.3354 91.1784 28.0931 91.2476 27.8455 91.2478Z" fill="#F4B32F"/>
<path d="M29.1203 76.8146C28.8388 76.8146 28.565 76.7255 28.3399 76.5606C28.1147 76.3957 27.9504 76.164 27.8715 75.9001C27.7926 75.6363 27.8035 75.3545 27.9025 75.0972C28.0015 74.8399 28.1832 74.6209 28.4204 74.473L48.7502 61.806C49.041 61.6247 49.3936 61.5637 49.7305 61.6363C50.0674 61.709 50.3609 61.9094 50.5465 62.1935C50.7321 62.4775 50.7946 62.822 50.7202 63.151C50.6458 63.4801 50.4406 63.7668 50.1498 63.9481L29.8188 76.6113C29.6105 76.7427 29.3682 76.8133 29.1203 76.8146Z" fill="#F4B32F"/>
<path d="M30.382 62.3944C30.1005 62.3947 29.8265 62.3058 29.6011 62.141C29.3757 61.9762 29.2111 61.7444 29.1321 61.4805C29.0531 61.2166 29.0639 60.9347 29.1628 60.6773C29.2618 60.4199 29.4436 60.2007 29.6809 60.0528L48.7502 48.1735C49.04 48.0116 49.3825 47.9647 49.7067 48.0427C50.0309 48.1206 50.312 48.3173 50.4918 48.592C50.6717 48.8668 50.7365 49.1985 50.6728 49.5187C50.6091 49.8388 50.4219 50.1228 50.1498 50.3118L31.0792 62.1911C30.8716 62.3227 30.6296 62.3933 30.382 62.3944Z" fill="#F4B32F"/>
<path d="M31.6568 47.9867C31.3753 47.987 31.1012 47.8981 30.8759 47.7333C30.6505 47.5685 30.4859 47.3368 30.4069 47.0728C30.3279 46.8089 30.3387 46.5271 30.4376 46.2696C30.5366 46.0122 30.7184 45.7931 30.9557 45.6452L48.7502 34.5535C48.8942 34.4638 49.0549 34.4026 49.2231 34.3735C49.3913 34.3444 49.5637 34.3479 49.7305 34.3839C49.8974 34.4199 50.0553 34.4876 50.1953 34.5832C50.3353 34.6788 50.4547 34.8004 50.5466 34.941C50.6385 35.0817 50.7011 35.2387 50.7309 35.4029C50.7607 35.5672 50.7571 35.7357 50.7202 35.8986C50.6834 36.0615 50.6141 36.2158 50.5162 36.3525C50.4183 36.4893 50.2938 36.6059 50.1498 36.6956L32.3553 47.7873C32.1466 47.9173 31.9043 47.9865 31.6568 47.9867Z" fill="#F4B32F"/>
<path d="M32.9302 33.5667C32.6487 33.567 32.3747 33.478 32.1493 33.3133C31.9239 33.1485 31.7594 32.9167 31.6804 32.6528C31.6013 32.3889 31.6121 32.107 31.7111 31.8496C31.81 31.5921 31.9918 31.373 32.2291 31.2251L48.7489 20.9339C48.8929 20.8441 49.0536 20.783 49.2218 20.7539C49.39 20.7247 49.5624 20.7283 49.7292 20.7643C49.896 20.8003 50.054 20.868 50.194 20.9636C50.334 21.0592 50.4534 21.1808 50.5452 21.3214C50.6372 21.4621 50.6998 21.619 50.7296 21.7833C50.7594 21.9476 50.7558 22.116 50.7189 22.279C50.6821 22.4419 50.6127 22.5961 50.5149 22.7329C50.417 22.8696 50.2925 22.9862 50.1485 23.076L33.6288 33.3672C33.4203 33.4977 33.1778 33.5669 32.9302 33.5667Z" fill="#F4B32F"/>
</g>
<path d="M6.62207 56.6098C7.00107 55.9148 7.99893 55.9148 8.37793 56.6098L9.60917 58.8674C9.753 59.1311 10.0078 59.3162 10.303 59.3715L12.8306 59.8449C13.6087 59.9906 13.917 60.9396 13.3732 61.5148L11.6066 63.3834C11.4002 63.6017 11.3029 63.9012 11.3415 64.1991L11.6724 66.7492C11.7743 67.5342 10.967 68.1208 10.2519 67.7813L7.92883 66.6786C7.65745 66.5497 7.34255 66.5497 7.07117 66.6786L4.74808 67.7813C4.03298 68.1208 3.2257 67.5342 3.32756 66.7493L3.65847 64.1991C3.69712 63.9012 3.59981 63.6017 3.39344 63.3834L1.62678 61.5148C1.08297 60.9396 1.39132 59.9906 2.16937 59.8449L4.69697 59.3715C4.99224 59.3162 5.247 59.1311 5.39083 58.8674L6.62207 56.6098Z" stroke="#F4B32F" stroke-width="2"/>
<defs>
<clipPath id="clip0_0_1">
<rect x="5" y="8" width="86" height="84" rx="42" fill="white"/>
</clipPath>
</defs>
</svg>
