<svg width="76" height="75" viewBox="0 0 76 75" fill="none" xmlns="http://www.w3.org/2000/svg">
<g clip-path="url(#clip0_207_1861)">
<path d="M46.2985 32.2556L39.0074 39.5467C38.6242 39.9299 38.1043 40.1453 37.5625 40.1453H25.4448" stroke="#F4B32F" stroke-width="2" stroke-miterlimit="10" stroke-linecap="round" stroke-linejoin="round"/>
<path d="M24.7644 36.0582H36.4452C36.6187 36.0582 36.7849 35.9894 36.9077 35.8666L45.45 27.3242" stroke="#F4B32F" stroke-width="2" stroke-miterlimit="10" stroke-linecap="round" stroke-linejoin="round"/>
<path d="M18.9078 29.4716L17.0016 18.7686" stroke="#F4B32F" stroke-width="2" stroke-miterlimit="10" stroke-linecap="round" stroke-linejoin="round"/>
<path d="M21.2612 47.9983L19.8198 39.8538" stroke="#F4B32F" stroke-width="2" stroke-miterlimit="10" stroke-linecap="round" stroke-linejoin="round"/>
<path d="M18.9263 34.8059L18.1353 30.3308C18.0562 29.8826 18.4019 29.4709 18.8574 29.4709H18.9073H22.7935H22.8594C23.2154 29.4709 23.5186 29.7258 23.5816 30.0759L26.4966 46.5554" stroke="#F4B32F" stroke-width="2" stroke-miterlimit="10" stroke-linecap="round" stroke-linejoin="round"/>
<path d="M30.263 67.8403L29.0583 61.0325" stroke="#F4B32F" stroke-width="2" stroke-miterlimit="10" stroke-linecap="round" stroke-linejoin="round"/>
<path d="M23.5679 61.0325L24.7725 67.8403" stroke="#F4B32F" stroke-width="2" stroke-miterlimit="10" stroke-linecap="round" stroke-linejoin="round"/>
<path d="M22.7941 29.4714L20.8821 18.7356" stroke="#F4B32F" stroke-width="2" stroke-miterlimit="10" stroke-linecap="round" stroke-linejoin="round"/>
<path d="M44.9539 18.4797L43.562 10.5977" stroke="#F4B32F" stroke-width="2" stroke-miterlimit="10" stroke-linecap="round" stroke-linejoin="round"/>
<path d="M52.624 36.0582L49.6268 19.0846C49.565 18.7347 49.2609 18.4795 48.9055 18.4795H44.9027C44.4472 18.4795 44.1023 18.8908 44.1814 19.3392L47.35 37.2834" stroke="#F4B32F" stroke-width="2" stroke-miterlimit="10" stroke-linecap="round" stroke-linejoin="round"/>
<path d="M58.2361 67.8404L57.569 64.0623" stroke="#F4B32F" stroke-width="2" stroke-miterlimit="10" stroke-linecap="round" stroke-linejoin="round"/>
<path d="M52.1965 64.73L52.7457 67.8403" stroke="#F4B32F" stroke-width="2" stroke-miterlimit="10" stroke-linecap="round" stroke-linejoin="round"/>
<path d="M39.6374 46.5885C41.2553 40.5825 46.74 36.1624 53.2571 36.1624C61.0465 36.1624 67.3612 42.477 67.3612 50.2665C67.3612 58.0559 61.0465 64.3706 53.2571 64.3706C48.1827 64.3706 43.7341 61.6908 41.2495 57.6692" stroke="#F4B32F" stroke-width="2" stroke-miterlimit="10" stroke-linecap="round" stroke-linejoin="round"/>
<path d="M45.749 56.5852C47.5493 58.7224 50.2446 60.0803 53.2578 60.0803C57.79 60.0803 61.606 57.0071 62.7324 52.8308" stroke="#F4B32F" stroke-width="2" stroke-miterlimit="10" stroke-linecap="round" stroke-linejoin="round"/>
<path d="M44.1216 46.6755C45.5542 43.0325 49.105 40.4529 53.2578 40.4529C57.79 40.4529 61.606 43.5261 62.7324 47.7039" stroke="#F4B32F" stroke-width="2" stroke-miterlimit="10" stroke-linecap="round" stroke-linejoin="round"/>
<path d="M27.0253 18.4796H13.9624C11.5438 18.4796 9.58307 16.5189 9.58307 14.1003C9.58307 13.2913 10.2389 12.6355 11.0479 12.6355H24.1108C26.5294 12.6355 28.4901 14.5962 28.4901 17.0148C28.4901 17.8238 27.8343 18.4796 27.0253 18.4796Z" stroke="#F4B32F" stroke-width="2" stroke-miterlimit="10" stroke-linecap="round" stroke-linejoin="round"/>
<path d="M52.8991 46.8174H25.5263C21.6009 46.8174 18.4187 49.9996 18.4187 53.925C18.4187 57.8504 21.6009 61.0325 25.5264 61.0325C26.9204 61.0325 28.3086 60.8521 29.6562 60.4955L53.8457 54.0962C55.4693 53.6667 56.6001 52.1978 56.6001 50.5183C56.6 48.4743 54.9431 46.8174 52.8991 46.8174Z" stroke="#F4B32F" stroke-width="2" stroke-miterlimit="10" stroke-linecap="round" stroke-linejoin="round"/>
<path d="M23.0081 55.5503L15.6307 60.1452" stroke="#F4B32F" stroke-width="2" stroke-miterlimit="10" stroke-linecap="round" stroke-linejoin="round"/>
<path d="M14.8982 62.4432H6.44153C6.03708 62.4432 5.70911 62.1152 5.70911 61.7108V58.5798C5.70911 58.1754 6.03708 57.8474 6.44153 57.8474H14.8984C15.3028 57.8474 15.6308 58.1754 15.6308 58.5798V61.7108C15.6306 62.1152 15.3028 62.4432 14.8982 62.4432Z" stroke="#F4B32F" stroke-width="2" stroke-miterlimit="10" stroke-linecap="round" stroke-linejoin="round"/>
<path d="M25.6434 56.7778C27.2279 56.7778 28.5123 55.4934 28.5123 53.9089C28.5123 52.3245 27.2279 51.04 25.6434 51.04C24.059 51.04 22.7745 52.3245 22.7745 53.9089C22.7745 55.4934 24.059 56.7778 25.6434 56.7778Z" stroke="#F4B32F" stroke-width="2" stroke-miterlimit="10" stroke-linecap="round" stroke-linejoin="round"/>
<path d="M48.8402 18.4795L47.4786 10.769" stroke="#F4B32F" stroke-width="2" stroke-miterlimit="10" stroke-linecap="round" stroke-linejoin="round"/>
<path d="M53.5962 9.01147H49.4961" stroke="#F4B32F" stroke-width="2" stroke-miterlimit="10" stroke-linecap="round" stroke-linejoin="round"/>
<path d="M49.4683 4.92466H60.3579C60.5308 4.92466 60.6978 4.85582 60.8193 4.73277L63.8252 1.72837C64.6206 0.932964 65.9258 0.872905 66.7358 1.65367C67.5605 2.44908 67.5693 3.76304 66.7622 4.57017L62.9199 8.41246C62.5361 8.79625 62.0176 9.01158 61.4756 9.01158H58.7231" stroke="#F4B32F" stroke-width="2" stroke-miterlimit="10" stroke-linecap="round" stroke-linejoin="round"/>
<path d="M47.8287 10.4566H42.7064C41.9954 10.4566 41.387 9.94595 41.2637 9.24561L40.4848 4.82002C40.3271 3.92324 41.017 3.10132 41.9276 3.10132H47.7764C48.5787 3.10132 49.2317 3.74658 49.2411 4.54888L49.2934 8.97446C49.303 9.79009 48.6444 10.4566 47.8287 10.4566Z" stroke="#F4B32F" stroke-width="2" stroke-miterlimit="10" stroke-linecap="round" stroke-linejoin="round"/>
<path d="M40.9985 68.0564H72.9365C73.7451 68.0564 74.4014 68.7126 74.4014 69.5212V72.4363C74.4014 73.2449 73.7451 73.9011 72.9365 73.9011H3.06348C2.25488 73.9011 1.59863 73.2449 1.59863 72.4363V69.5212C1.59863 68.7126 2.25488 68.0564 3.06348 68.0564H35.8716" stroke="#F4B32F" stroke-width="2" stroke-miterlimit="10" stroke-linecap="round" stroke-linejoin="round"/>
</g>
<defs>
<clipPath id="clip0_207_1861">
<rect width="75" height="75" fill="white" transform="translate(0.5)"/>
</clipPath>
</defs>
</svg>
