<svg width="76" height="75" viewBox="0 0 76 75" fill="none" xmlns="http://www.w3.org/2000/svg">
<g id="defrost" clip-path="url(#clip0_205_1058)">
<g id="Group">
<path id="Vector" d="M54.3476 23.5098C57.84 23.1422 61.3169 22.6608 64.6484 22.0663C66.2123 21.7873 67.7092 22.8188 68.0139 24.3778L74.3469 56.7865C74.6433 58.3038 73.7032 59.7874 72.2057 60.1713C49.4014 66.0194 26.5985 66.0194 3.79427 60.1713C2.29676 59.7872 1.35662 58.3036 1.6531 56.7865L7.98592 24.3777C8.29061 22.8187 9.78753 21.7871 11.3514 22.0662C12.6604 22.2998 13.9919 22.5159 15.338 22.7145" stroke="#F4B32F" stroke-width="2" stroke-miterlimit="10" stroke-linecap="round" stroke-linejoin="round"/>
<path id="Vector_2" d="M45.7864 24.1838C46.9361 24.1236 48.0961 24.0505 49.2614 23.9647" stroke="#F4B32F" stroke-width="2" stroke-miterlimit="10" stroke-linecap="round" stroke-linejoin="round"/>
<path id="Vector_3" d="M37.1844 24.3911C37.4576 24.3927 37.7294 24.3936 38 24.3936C38.8729 24.3936 39.7601 24.3851 40.659 24.3679" stroke="#F4B32F" stroke-width="2" stroke-miterlimit="10" stroke-linecap="round" stroke-linejoin="round"/>
<path id="Vector_4" d="M20.439 23.3772C24.3941 23.824 28.3884 24.1242 32.2326 24.2764" stroke="#F4B32F" stroke-width="2" stroke-miterlimit="10" stroke-linecap="round" stroke-linejoin="round"/>
<path id="Vector_5" d="M37.4275 28.7869C37.6188 28.7876 37.8097 28.7881 38 28.7881C41.6288 28.7881 45.4407 28.6428 49.2614 28.3672" stroke="#F4B32F" stroke-width="2" stroke-miterlimit="10" stroke-linecap="round" stroke-linejoin="round"/>
<path id="Vector_6" d="M20.439 27.7955C24.4508 28.2355 28.5604 28.5382 32.5597 28.6855" stroke="#F4B32F" stroke-width="2" stroke-miterlimit="10" stroke-linecap="round" stroke-linejoin="round"/>
<path id="Vector_7" d="M59.0063 58.4484C51.9922 59.588 44.9637 60.1628 38 60.1628C27.4685 60.1628 16.7891 58.848 6.23485 56.2533L12.0213 26.6412C13.0922 26.8199 14.1834 26.9885 15.2896 27.1467" stroke="#F4B32F" stroke-width="2" stroke-miterlimit="10" stroke-linecap="round" stroke-linejoin="round"/>
<path id="Vector_8" d="M54.2476 27.9344C57.582 27.5953 60.865 27.1608 63.9787 26.6414L69.765 56.2535C67.8642 56.7208 65.9595 57.1464 64.0522 57.5305" stroke="#F4B32F" stroke-width="2" stroke-miterlimit="10" stroke-linecap="round" stroke-linejoin="round"/>
<path id="Vector_9" d="M32.6126 44.2504L31.8172 43.1904C31.0619 42.1841 31.7799 40.7474 33.0382 40.7474L35.7018 40.7474C35.7018 37.4419 35.0175 35.8913 34.2254 34.0956C33.3507 32.1131 32.3593 29.8661 32.3593 25.5953C32.3593 21.3244 33.3507 19.0772 34.2254 17.0945C34.8343 15.7142 35.3795 14.4785 35.5991 12.4792C35.7264 11.32 36.7078 10.4425 37.8741 10.4425C39.2323 10.4425 40.2993 11.6194 40.1515 12.9695C39.8545 15.6823 39.0995 17.3935 38.4158 18.9432C37.6237 20.7389 36.9394 22.2897 36.9394 25.5952C36.9394 28.9004 37.6237 30.4511 38.4158 32.2467C39.2905 34.2292 40.2819 36.4763 40.2819 40.7472L42.9618 40.7472C44.2197 40.7472 44.9379 42.1831 44.1835 43.1895L39.2247 49.8052C38.6143 50.6197 37.3929 50.62 36.782 49.806L35.6994 48.3634" stroke="#F4B32F" stroke-width="2" stroke-miterlimit="10" stroke-linecap="round" stroke-linejoin="round"/>
<path id="Vector_10" d="M61.1296 43.1898L56.1708 49.8055C55.5604 50.6199 54.339 50.6202 53.728 49.8062L48.7632 43.1905C48.0079 42.1842 48.726 40.7475 49.9843 40.7475L52.656 40.7475C52.656 37.442 51.9718 35.8914 51.1796 34.0957C50.3051 32.1132 49.3135 29.8662 49.3135 25.5954C49.3135 21.3245 50.305 19.0773 51.1796 17.0946C51.7887 15.7143 52.3338 14.4786 52.5533 12.4793C52.6806 11.3201 53.6621 10.4426 54.8284 10.4426C56.1866 10.4426 57.2537 11.6195 57.1058 12.9696C56.8086 15.6824 56.0536 17.3936 55.3701 18.9433C54.5778 20.739 53.8937 22.2898 53.8937 25.5953C53.8937 28.9005 54.5779 30.4512 55.3701 32.2468C56.2446 34.2293 57.2362 36.4764 57.2362 40.7473L59.9079 40.7473C61.1659 40.7475 61.8841 42.1833 61.1296 43.1898Z" stroke="#F4B32F" stroke-width="2" stroke-miterlimit="10" stroke-linecap="round" stroke-linejoin="round"/>
<path id="Vector_11" d="M15.8999 30.2302C15.6073 28.9801 15.4131 27.486 15.4131 25.5953C15.4131 21.3244 16.4045 19.0772 17.2792 17.0945C17.8881 15.7142 18.4333 14.4785 18.6529 12.4792C18.7802 11.32 19.7616 10.4425 20.9279 10.4425C22.2861 10.4425 23.3531 11.6194 23.2053 12.9695C22.9081 15.6823 22.1533 17.3935 21.4695 18.9432C20.6773 20.7389 19.9931 22.2897 19.9931 25.5952C19.9931 28.9004 20.6773 30.4511 21.4695 32.2467C22.3442 34.2292 23.3356 36.4763 23.3356 40.7472L26.0153 40.7472C27.2736 40.7472 27.9917 42.1839 27.2364 43.1903L22.2716 49.806C21.6607 50.62 20.4394 50.6197 19.8289 49.8052L14.8701 43.1895C14.1157 42.183 14.8339 40.7472 16.0918 40.7472L18.7553 40.7472C18.7553 38.0299 18.2928 36.4984 17.6882 35.0418" stroke="#F4B32F" stroke-width="2" stroke-miterlimit="10" stroke-linecap="round" stroke-linejoin="round"/>
</g>
</g>
<defs>
<clipPath id="clip0_205_1058">
<rect width="75" height="75" fill="white" transform="translate(0.5)"/>
</clipPath>
</defs>
</svg>
