<svg width="76" height="75" viewBox="0 0 76 75" fill="none" xmlns="http://www.w3.org/2000/svg">
<g clip-path="url(#clip0_207_1890)">
<path d="M74.4014 46.9321V58.853C74.4014 59.7759 73.6528 60.5244 72.73 60.5244H68.0132" stroke="#F4B32F" stroke-width="2" stroke-miterlimit="10" stroke-linecap="round" stroke-linejoin="round"/>
<path d="M14.9756 7.32568V2.77002C14.9756 1.84717 15.7241 1.09863 16.647 1.09863H72.73C73.6528 1.09863 74.4014 1.84717 74.4014 2.77002V41.8052" stroke="#F4B32F" stroke-width="2" stroke-miterlimit="10" stroke-linecap="round" stroke-linejoin="round"/>
<path d="M33.875 7.78711H66.0415C66.9644 7.78711 67.7129 8.53564 67.7129 9.4585V65.5415C67.7129 66.4644 66.9644 67.2129 66.0415 67.2129H61.272" stroke="#F4B32F" stroke-width="2" stroke-miterlimit="10" stroke-linecap="round" stroke-linejoin="round"/>
<path d="M8.28711 14.1958V9.4585C8.28711 8.53564 9.03564 7.78711 9.9585 7.78711H28.748" stroke="#F4B32F" stroke-width="2" stroke-miterlimit="10" stroke-linecap="round" stroke-linejoin="round"/>
<path d="M59.353 14.4756H3.27002C2.34717 14.4756 1.59863 15.2241 1.59863 16.147V72.23C1.59863 73.1528 2.34717 73.9014 3.27002 73.9014H59.353C60.2759 73.9014 61.0244 73.1528 61.0244 72.23V16.147C61.0244 15.2241 60.2759 14.4756 59.353 14.4756Z" stroke="#F4B32F" stroke-width="2" stroke-miterlimit="10" stroke-linecap="round" stroke-linejoin="round"/>
<path d="M17.1304 14.606L1.74512 30.1377L10.1313 38.6689L16.5166 32.2837" stroke="#F4B32F" stroke-width="2" stroke-miterlimit="10" stroke-linecap="round" stroke-linejoin="round"/>
<path d="M34.1343 14.666L20.1421 28.6597" stroke="#F4B32F" stroke-width="2" stroke-miterlimit="10" stroke-linecap="round" stroke-linejoin="round"/>
<path d="M9.94924 55.5521L1.88586 47.4888" stroke="#F4B32F" stroke-width="2" stroke-miterlimit="10" stroke-linecap="round" stroke-linejoin="round"/>
<path d="M53.9304 14.5105L60.8782 21.6047L52.4926 30.137" stroke="#F4B32F" stroke-width="2" stroke-miterlimit="10" stroke-linecap="round" stroke-linejoin="round"/>
<path d="M36.8983 14.5427L60.8782 38.6691L52.4926 47.2014L27.2199 21.9289" stroke="#F4B32F" stroke-width="2" stroke-miterlimit="10" stroke-linecap="round" stroke-linejoin="round"/>
<path d="M27.0456 38.8189L35.3447 30.52" stroke="#F4B32F" stroke-width="2" stroke-miterlimit="10" stroke-linecap="round" stroke-linejoin="round"/>
<path d="M60.8782 55.7339L52.8734 63.8853" stroke="#F4B32F" stroke-width="2" stroke-miterlimit="10" stroke-linecap="round" stroke-linejoin="round"/>
<path d="M3.06873 14.5427L9.79031 21.2643" stroke="#F4B32F" stroke-width="2" stroke-miterlimit="10" stroke-linecap="round" stroke-linejoin="round"/>
<path d="M10.1309 38.6692L1.74512 47.2015" stroke="#F4B32F" stroke-width="2" stroke-miterlimit="10" stroke-linecap="round" stroke-linejoin="round"/>
<path d="M60.8782 55.7337L52.4926 47.2014" stroke="#F4B32F" stroke-width="2" stroke-miterlimit="10" stroke-linecap="round" stroke-linejoin="round"/>
<path d="M10.1309 72.7981L1.74512 64.2658L27.0456 38.8188L35.5779 47.3511L10.1309 72.7981Z" stroke="#F4B32F" stroke-width="2" stroke-miterlimit="10" stroke-linecap="round" stroke-linejoin="round"/>
<path d="M35.3447 64.6489L26.4179 73.5757" stroke="#F4B32F" stroke-width="2" stroke-miterlimit="10" stroke-linecap="round" stroke-linejoin="round"/>
<path d="M60.7651 72.5391L45.314 57.0879" stroke="#F4B32F" stroke-width="2" stroke-miterlimit="10" stroke-linecap="round" stroke-linejoin="round"/>
<path d="M41.6885 53.4624L35.5771 47.3511" stroke="#F4B32F" stroke-width="2" stroke-miterlimit="10" stroke-linecap="round" stroke-linejoin="round"/>
<path d="M44.8688 73.7067L27.0456 55.8835" stroke="#F4B32F" stroke-width="2" stroke-miterlimit="10" stroke-linecap="round" stroke-linejoin="round"/>
</g>
<defs>
<clipPath id="clip0_207_1890">
<rect width="75" height="75" fill="white" transform="translate(0.5)"/>
</clipPath>
</defs>
</svg>
