<svg width="72" height="73" viewBox="0 0 72 73" fill="none" xmlns="http://www.w3.org/2000/svg">
<g id="smart-house 1">
<g id="Group">
<path id="Vector" d="M51.8877 57.8301V48.7973L36 34.9487L20.1124 48.7973V70.2031H51.8877" stroke="#F4B32F" stroke-width="2.5" stroke-miterlimit="10" stroke-linecap="round" stroke-linejoin="round"/>
<path id="Vector_2" d="M56.5515 52.8627L36 34.9487L15.4485 52.8627" stroke="#F4B32F" stroke-width="2.5" stroke-miterlimit="10" stroke-linecap="round" stroke-linejoin="round"/>
<path id="Vector_3" d="M40.3781 58.531H31.6221V70.2032H40.3781V58.531Z" stroke="#F4B32F" stroke-width="2.5" stroke-miterlimit="10" stroke-linecap="round" stroke-linejoin="round"/>
<path id="Vector_4" d="M36.0001 51.6749C37.9562 51.6749 39.542 50.0891 39.542 48.133C39.542 46.1768 37.9562 44.5911 36.0001 44.5911C34.0439 44.5911 32.4581 46.1768 32.4581 48.133C32.4581 50.0891 34.0439 51.6749 36.0001 51.6749Z" stroke="#F4B32F" stroke-width="2.5" stroke-miterlimit="10" stroke-linecap="round" stroke-linejoin="round"/>
<path id="Vector_5" d="M36.0001 25.2029C42.2909 25.2029 47.3907 20.1031 47.3907 13.8123C47.3907 7.52139 42.2909 2.42163 36.0001 2.42163C29.7092 2.42163 24.6094 7.52139 24.6094 13.8123C24.6094 20.1031 29.7092 25.2029 36.0001 25.2029Z" stroke="#F4B32F" stroke-width="2.5" stroke-miterlimit="10" stroke-linecap="round" stroke-linejoin="round"/>
<path id="Vector_6" d="M12.7969 40.884C19.0877 40.884 24.1875 35.7843 24.1875 29.4934C24.1875 23.2025 19.0877 18.1028 12.7969 18.1028C6.50601 18.1028 1.40625 23.2025 1.40625 29.4934C1.40625 35.7843 6.50601 40.884 12.7969 40.884Z" stroke="#F4B32F" stroke-width="2.5" stroke-miterlimit="10" stroke-linecap="round" stroke-linejoin="round"/>
<path id="Vector_7" d="M59.2031 40.884C65.4939 40.884 70.5937 35.7843 70.5937 29.4934C70.5937 23.2025 65.4939 18.1028 59.2031 18.1028C52.9122 18.1028 47.8124 23.2025 47.8124 29.4934C47.8124 35.7843 52.9122 40.884 59.2031 40.884Z" stroke="#F4B32F" stroke-width="2.5" stroke-miterlimit="10" stroke-linecap="round" stroke-linejoin="round"/>
<path id="Vector_8" d="M36.0001 25.2031V34.9487" stroke="#F4B32F" stroke-width="2.5" stroke-miterlimit="10" stroke-linecap="round" stroke-linejoin="round"/>
<path id="Vector_9" d="M20.1124 38.2239L25.7617 43.8731" stroke="#F4B32F" stroke-width="2.5" stroke-miterlimit="10" stroke-linecap="round" stroke-linejoin="round"/>
<path id="Vector_10" d="M46.206 43.9057L51.8878 38.2239" stroke="#F4B32F" stroke-width="2.5" stroke-miterlimit="10" stroke-linecap="round" stroke-linejoin="round"/>
<path id="Vector_11" d="M37.5183 18.7783H35.2649C32.5002 18.7783 30.2589 16.537 30.2589 13.7723C30.2589 11.0076 32.5002 8.76636 35.2649 8.76636H37.5183V18.7783Z" stroke="#F4B32F" stroke-width="2.5" stroke-miterlimit="10" stroke-linecap="round" stroke-linejoin="round"/>
<g id="Group_2">
<path id="Vector_12" d="M37.5182 11.0159H41.37" stroke="#F4B32F" stroke-width="2.5" stroke-miterlimit="10" stroke-linecap="round" stroke-linejoin="round"/>
<path id="Vector_13" d="M37.5182 16.5293H41.37" stroke="#F4B32F" stroke-width="2.5" stroke-miterlimit="10" stroke-linecap="round" stroke-linejoin="round"/>
</g>
<path id="Vector_14" d="M30.2587 13.7725H24.6142" stroke="#F4B32F" stroke-width="2.5" stroke-miterlimit="10" stroke-linecap="round" stroke-linejoin="round"/>
<path id="Vector_15" d="M63.4245 28.5144H55.0365V34.5504H63.4245V28.5144Z" stroke="#F4B32F" stroke-width="2.5" stroke-miterlimit="10" stroke-linecap="round" stroke-linejoin="round"/>
<path id="Vector_16" d="M59.2305 22.9189C57.4855 22.9189 56.071 24.3335 56.071 26.0785V28.5144H62.3899V26.0785C62.3901 24.3335 60.9755 22.9189 59.2305 22.9189Z" stroke="#F4B32F" stroke-width="2.5" stroke-miterlimit="10" stroke-linecap="round" stroke-linejoin="round"/>
<path id="Vector_17" d="M10.6958 30.6122C11.8561 29.4519 13.7376 29.4519 14.8978 30.6122" stroke="#F4B32F" stroke-width="2.5" stroke-miterlimit="10" stroke-linecap="round" stroke-linejoin="round"/>
<path id="Vector_18" d="M7.10031 27.0168C10.2464 23.8707 15.3471 23.8707 18.4933 27.0168" stroke="#F4B32F" stroke-width="2.5" stroke-miterlimit="10" stroke-linecap="round" stroke-linejoin="round"/>
</g>
</g>
</svg>
