<svg width="76" height="76" viewBox="0 0 76 76" fill="none" xmlns="http://www.w3.org/2000/svg">
<g clip-path="url(#clip0_207_1912)">
<path d="M41.2582 37.3843C41.0538 37.0822 40.7131 36.9015 40.3485 36.9015H37.2742L39.0201 32.537C39.2455 31.9736 38.9714 31.3342 38.408 31.1089C37.8445 30.883 37.2053 31.1575 36.98 31.7209L34.6315 37.5921C34.4962 37.9307 34.5373 38.3143 34.7418 38.6161C34.9462 38.918 35.287 39.0987 35.6515 39.0987H38.7258L36.98 43.4633C36.7545 44.0266 37.0286 44.666 37.592 44.8913C37.7259 44.9449 37.8638 44.9703 37.9996 44.9703C38.4357 44.9703 38.8482 44.709 39.0201 44.2795L41.3685 38.4082C41.5038 38.0697 41.4627 37.686 41.2582 37.3843Z" fill="#F4B32F"/>
<path d="M69.4421 6.79342C65.5402 2.82999 60.3391 0.596097 54.7969 0.503226C49.2665 0.40889 43.987 2.55592 39.9319 6.54367C35.7672 10.6391 33.3788 16.3054 33.3788 22.0893V26.3333H29.7805C27.8797 26.3333 26.3334 27.8797 26.3334 29.7804V46.2196C26.3334 48.1204 27.8799 49.6667 29.7805 49.6667H33.3788V54.4393C33.3788 57.7537 31.968 60.939 29.5079 63.1783C27.0163 65.4463 23.7878 66.5206 20.4187 66.2035C14.4321 65.64 9.74288 60.3063 9.74288 54.0609C9.74288 53.4542 9.25098 52.9623 8.64424 52.9623C8.0375 52.9623 7.54561 53.4542 7.54561 54.0609C7.54561 57.6041 8.82281 61.022 11.1418 63.6851C13.4982 66.391 16.7196 68.0622 20.2127 68.391C20.6715 68.4342 21.1277 68.4556 21.5809 68.4556C25.0732 68.4556 28.3718 67.1838 30.9871 64.8031C33.9035 62.1482 35.5762 58.3708 35.5762 54.4393V49.6667H40.4244V53.9107C40.4244 59.1095 38.2752 64.2047 34.5278 67.8897C30.896 71.4611 26.1793 73.3826 21.2403 73.2998C16.2776 73.2167 11.6193 71.2156 8.12422 67.6651C4.62485 64.1105 2.69784 59.4135 2.69784 54.4392V39.1743C2.69784 39.1325 2.73168 39.0987 2.77343 39.0987H7.47031C7.51206 39.0987 7.5459 39.1325 7.5459 39.1743V49.3021C7.5459 49.9088 8.0378 50.4007 8.64454 50.4007C9.25127 50.4007 9.74317 49.9088 9.74317 49.3021V39.1743C9.74317 37.921 8.72364 36.9014 7.47031 36.9014H6.22036V30.9546C6.22036 30.3479 5.72846 29.856 5.12173 29.856C4.51499 29.856 4.02309 30.3479 4.02309 30.9546V36.9014H2.77328C1.51996 36.9014 0.500427 37.921 0.500427 39.1743V54.4392C0.500427 59.994 2.65185 65.2386 6.5583 69.2066C10.4602 73.17 15.6613 75.4041 21.2035 75.4968C21.3184 75.4987 21.4325 75.4997 21.547 75.4997C26.9523 75.4997 32.0975 73.3615 36.0684 69.4563C40.2331 65.3609 42.6215 59.6946 42.6215 53.9107V49.6667H46.2198C48.1205 49.6667 49.6668 48.1203 49.6668 46.2196V29.7805C49.6668 27.8797 48.1204 26.3335 46.2198 26.3335H42.6215V21.5608C42.6215 18.2465 44.0323 15.0612 46.4924 12.8219C48.9839 10.5538 52.2123 9.47981 55.5816 9.79665C61.5681 10.3602 66.2574 15.6938 66.2574 21.9392C66.2574 22.5459 66.7493 23.0378 67.356 23.0378C67.9628 23.0378 68.4547 22.5459 68.4547 21.9392C68.4547 18.396 67.1775 14.9781 64.8585 12.315C62.5021 9.60915 59.2806 7.93791 55.7875 7.6092C51.7936 7.23332 47.9679 8.50744 45.0132 11.197C42.0968 13.8519 40.4241 17.6293 40.4241 21.5608V26.3335H35.5757V22.0895C35.5757 16.8906 37.725 11.7954 41.4723 8.11047C45.1041 4.53902 49.8214 2.61876 54.7598 2.70035C59.7226 2.78341 64.3808 4.78453 67.8759 8.33503C71.3753 11.8896 73.3023 16.5867 73.3023 21.561V36.8259C73.3023 36.8676 73.2684 36.9014 73.2267 36.9014H68.5298C68.4881 36.9014 68.4542 36.8676 68.4542 36.8259V26.6981C68.4542 26.0913 67.9623 25.5994 67.3556 25.5994C66.7488 25.5994 66.257 26.0913 66.257 26.6981V36.8259C66.257 38.0792 67.2765 39.0987 68.5298 39.0987H69.7796V45.0455C69.7796 45.6523 70.2715 46.1442 70.8783 46.1442C71.485 46.1442 71.9769 45.6523 71.9769 45.0455V39.0987H73.2267C74.48 39.0987 75.4995 38.0792 75.4995 36.8259V21.5608C75.5 16.006 73.3486 10.7617 69.4421 6.79342ZM46.2198 28.5307C46.9088 28.5307 47.4696 29.0915 47.4696 29.7805V46.2198C47.4696 46.909 46.9088 47.4696 46.2198 47.4696H29.7805C29.0913 47.4696 28.5307 46.9088 28.5307 46.2198V29.7805C28.5307 29.0913 29.0914 28.5307 29.7805 28.5307H46.2198Z" fill="#F4B32F"/>
<path d="M3.75576 26.9407L2.58154 24.5923C2.31025 24.0495 1.65034 23.8294 1.10761 24.101C0.564886 24.3722 0.344866 25.0322 0.616302 25.5749L1.79052 27.9233C1.983 28.3083 2.3709 28.5308 2.77402 28.5308C2.93911 28.5308 3.10669 28.4934 3.26445 28.4146C3.80718 28.1433 4.0272 27.4834 3.75576 26.9407Z" fill="#F4B32F"/>
<path d="M9.13542 24.1009C8.59269 23.8293 7.93278 24.0497 7.66149 24.5922L6.48727 26.9407C6.21598 27.4834 6.43585 28.1433 6.97858 28.4146C7.13634 28.4936 7.30392 28.5308 7.46901 28.5308C7.87199 28.5308 8.26003 28.3081 8.45251 27.9233L9.62673 25.5749C9.89817 25.0321 9.67815 24.3722 9.13542 24.1009Z" fill="#F4B32F"/>
<path d="M75.3838 50.4253L74.2096 48.0769C73.9383 47.5342 73.2786 47.314 72.7357 47.5856C72.193 47.8569 71.9729 48.5168 72.2444 49.0595L73.4186 51.4079C73.6111 51.7929 73.999 52.0154 74.4021 52.0154C74.5672 52.0154 74.7348 51.9781 74.8925 51.8993C75.4353 51.628 75.6553 50.9681 75.3838 50.4253Z" fill="#F4B32F"/>
<path d="M69.0214 47.5855C68.4787 47.314 67.8189 47.5343 67.5475 48.0769L66.3733 50.4253C66.1019 50.968 66.3219 51.6279 66.8646 51.8992C67.0224 51.9782 67.1899 52.0154 67.355 52.0154C67.758 52.0154 68.146 51.7927 68.3385 51.4079L69.5128 49.0595C69.7842 48.5167 69.5642 47.8568 69.0214 47.5855Z" fill="#F4B32F"/>
</g>
<defs>
<clipPath id="clip0_207_1912">
<rect width="75" height="75" fill="white" transform="translate(0.5 0.5)"/>
</clipPath>
</defs>
</svg>
