<svg width="80" height="80" viewBox="0 0 80 80" fill="none" xmlns="http://www.w3.org/2000/svg">
<g clip-path="url(#clip0_504_268)">
<path d="M69.3333 20H72V38.6667H69.3333V20Z" fill="#F4B32F"/>
<path d="M0.182943 65.3119C0.242188 65.5684 0.320312 65.8203 0.417318 66.0651C0.455729 66.1582 0.514974 66.2396 0.558594 66.332C0.945312 67.1888 1.57161 67.916 2.36133 68.4264C2.55599 68.5488 2.75781 68.6589 2.9668 68.7559C3.06901 68.8066 3.16276 68.8731 3.26953 68.9186C3.50716 69.0104 3.7513 69.0853 4 69.1426C4.0931 69.1667 4.17839 69.2064 4.27344 69.2253C4.6224 69.2962 4.97721 69.3327 5.33333 69.3333H41.3333V66.6667H5.33333C5.1543 66.6667 4.97526 66.6484 4.80013 66.6133C4.73568 66.5996 4.67578 66.5729 4.61328 66.556C4.50781 66.53 4.4043 66.4981 4.30273 66.4596C4.21159 66.416 4.1224 66.3672 4.03581 66.3145C3.97591 66.28 3.91211 66.2533 3.85482 66.2155C3.71159 66.1178 3.57747 66.0065 3.45443 65.8835C3.33203 65.7611 3.22135 65.6276 3.1237 65.4837C3.07357 65.4076 3.03581 65.3223 2.99089 65.2409C2.94531 65.1595 2.90951 65.1074 2.87891 65.0319C2.83464 64.9199 2.79883 64.8047 2.77214 64.6875C2.75716 64.6354 2.73438 64.5866 2.72396 64.5319C2.56445 63.7481 2.76497 62.9336 3.27083 62.3138C3.77604 61.694 4.5332 61.334 5.33333 61.3333H9.33333C10.0697 61.3333 10.6667 60.7363 10.6667 60V13.3333H57.3333V10.6667H10.6667V4C10.6667 3.26302 10.0697 2.66666 9.33333 2.66666H5.33333C2.38802 2.66666 0 5.05403 0 8V64C0 64.3581 0.0364583 64.7155 0.108073 65.0664C0.125651 65.1491 0.161458 65.2279 0.182943 65.3119ZM2.66667 8C2.66667 6.52669 3.86068 5.33333 5.33333 5.33333H8V58.6667H5.33333C4.39648 58.6647 3.47656 58.9121 2.66667 59.3822V8Z" fill="#F4B32F"/>
<path d="M36.2851 30.2227L33.4414 26.6667H45.3333V24H30.6667C30.2715 24.002 29.8984 24.179 29.6465 24.4837C29.6465 24.4915 29.6308 24.4928 29.6256 24.5L18.959 37.8333C18.8893 37.9232 18.8307 38.0221 18.7851 38.1263C18.7851 38.1354 18.7747 38.1426 18.7708 38.1517C18.7129 38.2982 18.681 38.4538 18.6771 38.612C18.6771 38.6315 18.6667 38.6478 18.6667 38.6667V54.6667C18.6667 55.403 19.2637 56 20 56H54.6667V53.3333H42.6667V40H61.3333V48H64V38.6667C64 38.6478 63.9896 38.6315 63.9896 38.612C63.9857 38.4544 63.9544 38.2995 63.8958 38.153C63.8958 38.1413 63.8828 38.1328 63.8789 38.1224C63.8346 38.0195 63.7773 37.9225 63.7077 37.8346L59.7077 32.8288L57.6256 34.4928L59.8919 37.3333H41.9746L36.2851 30.2227ZM30.6667 27.4661L35.9277 34.0436L38.5586 37.3333H22.7747L30.6667 27.4661ZM21.3333 40H40V53.3333H36V44C36 43.263 35.403 42.6667 34.6667 42.6667H26.6667C25.9303 42.6667 25.3333 43.263 25.3333 44V53.3333H21.3333V40ZM28 53.3333V45.3333H33.3333V53.3333H28Z" fill="#F4B32F"/>
<path d="M49.3333 42.6667C48.597 42.6667 48 43.263 48 44V49.3333C48 50.0697 48.597 50.6667 49.3333 50.6667H54.6667C55.403 50.6667 56 50.0697 56 49.3333V44C56 43.263 55.403 42.6667 54.6667 42.6667H49.3333ZM53.3333 48H50.6667V45.3333H53.3333V48Z" fill="#F4B32F"/>
<path d="M79.1771 36.1009C78.6791 35.8945 78.1055 36.0091 77.724 36.3906L36.3906 77.724C36.0098 78.1048 35.8952 78.6784 36.1016 79.1764C36.308 79.6745 36.7943 79.9994 37.3333 80H78.6667C79.403 80 80 79.403 80 78.6667V37.3333C80 36.7936 79.6751 36.3073 79.1771 36.1009ZM77.3333 77.3333H40.5521L77.3333 40.5514V77.3333Z" fill="#F4B32F"/>
<path d="M56.1016 71.1771C56.3079 71.6751 56.7943 72 57.3333 72H70.6667C71.403 72 72 71.403 72 70.6667V57.3333C72 56.7936 71.6751 56.3079 71.1771 56.1016C70.679 55.8952 70.1055 56.0091 69.724 56.3906L56.3906 69.724C56.0091 70.1048 55.8952 70.6784 56.1016 71.1771ZM69.3333 60.5514V69.3333H60.5521L69.3333 60.5514Z" fill="#F4B32F"/>
<path d="M74.276 0.390625C73.7552 -0.130208 72.9115 -0.130208 72.3906 0.390625L48.3906 24.3906C48.2448 24.5371 48.1348 24.7155 48.069 24.9115L46.7357 28.9115C46.5762 29.3906 46.7005 29.9186 47.0573 30.2754L47.4479 30.6667L44.3906 33.724L46.276 35.6087L49.3333 32.5514L49.724 32.9421C49.974 33.1927 50.3132 33.3327 50.6667 33.3333C50.8099 33.3327 50.9518 33.3099 51.0879 33.265L55.0879 31.9316C55.2845 31.8659 55.4629 31.7559 55.6094 31.6087L79.6094 7.60872C80.1296 7.08854 80.1296 6.24414 79.6094 5.72396L74.276 0.390625ZM51.8854 24.6667L57.3333 19.2181L60.7812 22.6667L55.3333 28.1146L51.8854 24.6667ZM51.028 30.4746L49.5267 28.9733L50.2493 26.8008L53.1999 29.7507L51.028 30.4746ZM62.6667 20.7812L59.2188 17.3333L73.3333 3.2181L76.7812 6.66667L62.6667 20.7812Z" fill="#F4B32F"/>
<path d="M13.3333 56V60C13.3333 60.7363 13.9303 61.3333 14.6667 61.3333H18.6667V58.6667H16V56H13.3333Z" fill="#F4B32F"/>
<path d="M18.6667 16H14.6667C13.9303 16 13.3333 16.5964 13.3333 17.3333V21.3333H16V18.6667H18.6667V16Z" fill="#F4B32F"/>
</g>
<defs>
<clipPath id="clip0_504_268">
<rect width="80" height="80" fill="white"/>
</clipPath>
</defs>
</svg>
