<svg width="480" height="325" viewBox="0 0 480 325" fill="none" xmlns="http://www.w3.org/2000/svg">
<path d="M169.426 249.5C169.926 249.264 170.14 248.669 169.905 248.169L166.067 240.028C165.831 239.529 165.235 239.315 164.736 239.55C164.236 239.786 164.022 240.382 164.258 240.881L167.669 248.117L160.433 251.529C159.933 251.764 159.719 252.36 159.955 252.86C160.19 253.359 160.786 253.573 161.286 253.338L169.426 249.5ZM169.338 247.654C86.4193 217.868 27 137.492 27 43H25C25 138.345 84.9582 219.469 168.662 249.537L169.338 247.654Z" fill="url(#paint0_linear_504_543)"/>
<path d="M354.976 228.233C355.096 227.694 354.757 227.16 354.218 227.039L345.434 225.078C344.895 224.958 344.361 225.298 344.24 225.837C344.12 226.376 344.459 226.91 344.998 227.03L352.806 228.773L351.063 236.581C350.943 237.12 351.282 237.655 351.821 237.775C352.36 237.895 352.895 237.556 353.015 237.017L354.976 228.233ZM353.464 227.171C320.699 247.977 281.982 260 240.5 260V262C282.374 262 321.461 249.862 354.536 228.86L353.464 227.171Z" fill="white"/>
<path d="M455 43C455 92.4493 438.8 138.053 411.5 174.629" stroke="url(#paint1_linear_504_543)" stroke-width="2"/>
<path d="M129.651 36.7157L128.355 33.5596L127.049 36.7157L123.13 36.8022L126.239 38.8376L125.125 42.0455L128.355 40.1484L131.575 42.0455L130.461 38.8376L133.57 36.8022L129.651 36.7157Z" fill="#FFD101"/>
<path d="M130.655 22.5688L129.126 18.8602L127.597 22.5688L123 22.669L126.645 25.0616L125.339 28.8316L129.126 26.6016L132.913 28.8316L131.607 25.0616L135.253 22.669L130.655 22.5688Z" fill="#FDB812"/>
<path d="M141.813 10.8836L140.01 6.51189L138.208 10.8836L132.81 11.0021L137.094 13.8218L135.565 18.2662L140.01 15.6377L144.455 18.2662L142.926 13.8218L147.21 11.0021L141.813 10.8836Z" fill="#FAA533"/>
<path d="M162.561 5.13532L160.435 1.14441e-05L158.318 5.13532L151.959 5.27449L157.002 8.5871L155.199 13.808L160.435 10.7202L165.68 13.808L163.867 8.5871L168.92 5.27449L162.561 5.13532Z" fill="#F58023"/>
<path d="M186.934 6.37409L184.342 0.113869L181.75 6.37409L173.983 6.54703L180.15 10.5859L177.942 16.9517L184.342 13.1869L190.752 16.9517L188.534 10.5859L194.711 6.54703L186.934 6.37409Z" fill="#DD4F20"/>
<path d="M160.48 44.7687L161.84 45.713C161.688 45.9648 161.399 46.3552 160.971 46.884C160.568 47.3877 159.989 47.9291 159.233 48.5083C158.503 49.0623 157.596 49.5282 156.513 49.9059C155.431 50.3088 154.146 50.5103 152.661 50.5103C150.243 50.5103 148.115 49.9311 146.277 48.7727C144.464 47.6143 143.041 46.0404 142.008 44.051C141.001 42.0616 140.497 39.8077 140.497 37.2895C140.497 35.4511 140.787 33.7387 141.366 32.1522C141.945 30.5406 142.764 29.1429 143.821 27.9593C144.904 26.7506 146.189 25.8062 147.674 25.1263C149.185 24.4464 150.847 24.1064 152.661 24.1064C154.146 24.1064 155.431 24.3079 156.513 24.7108C157.596 25.0885 158.503 25.567 159.233 26.1462C159.989 26.7002 160.568 27.2416 160.971 27.7705C161.399 28.2741 161.688 28.6519 161.84 28.9037L160.48 29.848C160.329 29.6466 160.077 29.3318 159.724 28.9037C159.397 28.4756 158.918 28.0223 158.289 27.5438C157.684 27.0654 156.929 26.6624 156.022 26.3351C155.116 25.9825 154.02 25.8062 152.736 25.8062C150.596 25.8062 148.757 26.3225 147.221 27.355C145.685 28.3623 144.501 29.7347 143.67 31.4723C142.865 33.1847 142.462 35.1238 142.462 37.2895C142.462 39.43 142.877 41.3816 143.708 43.1444C144.539 44.882 145.723 46.267 147.259 47.2995C148.82 48.3068 150.684 48.8105 152.849 48.8105C154.033 48.8105 155.065 48.6468 155.947 48.3194C156.853 47.9669 157.609 47.5513 158.213 47.0729C158.843 46.5944 159.334 46.1411 159.686 45.713C160.064 45.2849 160.329 44.9701 160.48 44.7687ZM165.499 49.9059V24.7108H169.125V35.2497H182.913V24.7108H186.539V49.9059H182.913V38.4982H169.125V49.9059H165.499ZM190.92 49.9059V24.7108H195.68V49.9059H190.92ZM199.632 49.9059V24.7108H205.071L215.988 41.0668V24.7108H221.616V49.9059H216.441L205.26 33.2477V49.9059H199.632ZM223.086 49.9059L232.34 24.7108H240.009L248.923 49.9059H241.708L240.084 44.6931H231.661L229.999 49.9059H223.086ZM233.02 39.8203H238.724L235.929 30.5657L233.02 39.8203ZM140.648 94.9059V69.7108H158.213V75.5657H147.334V80.4386H155.758V85.9535H147.334V94.9059H140.648ZM160.099 94.9059V69.7108H166.785V94.9059H160.099ZM176.413 94.9059V75.5657H168.669V69.7108H190.842V75.5657H183.174V94.9059H176.413ZM210.546 95.5103C208.657 95.5103 206.907 95.1829 205.295 94.5282C203.709 93.8734 202.324 92.9543 201.14 91.7707C199.982 90.5619 199.075 89.1517 198.42 87.54C197.765 85.9283 197.438 84.1656 197.438 82.2517C197.438 80.3378 197.765 78.575 198.42 76.9634C199.075 75.3517 199.982 73.9541 201.14 72.7705C202.324 71.5869 203.709 70.6677 205.295 70.013C206.907 69.3582 208.657 69.0309 210.546 69.0309C212.434 69.0309 214.172 69.3582 215.758 70.013C217.37 70.6677 218.768 71.5869 219.951 72.7705C221.135 73.9541 222.041 75.3517 222.671 76.9634C223.326 78.575 223.653 80.3378 223.653 82.2517C223.653 84.1656 223.326 85.9283 222.671 87.54C222.041 89.1517 221.135 90.5619 219.951 91.7707C218.768 92.9543 217.37 93.8734 215.758 94.5282C214.172 95.1829 212.434 95.5103 210.546 95.5103ZM210.546 89.2398C211.88 89.2398 213.001 88.9251 213.907 88.2955C214.839 87.6659 215.544 86.8223 216.023 85.7647C216.501 84.707 216.741 83.536 216.741 82.2517C216.741 80.9674 216.501 79.7964 216.023 78.7387C215.544 77.6811 214.839 76.8375 213.907 76.2079C213.001 75.5783 211.88 75.2635 210.546 75.2635C209.236 75.2635 208.115 75.5783 207.184 76.2079C206.277 76.8375 205.572 77.6811 205.068 78.7387C204.59 79.7964 204.351 80.9674 204.351 82.2517C204.351 83.536 204.59 84.707 205.068 85.7647C205.572 86.8223 206.277 87.6659 207.184 88.2955C208.115 88.9251 209.236 89.2398 210.546 89.2398ZM225.909 85.0847V69.7108H232.595V84.4803C232.595 85.8654 232.91 86.9986 233.539 87.88C234.194 88.7614 235.264 89.2021 236.75 89.2021C238.236 89.2021 239.293 88.7614 239.923 87.88C240.553 86.9734 240.867 85.8402 240.867 84.4803V69.7108H247.629V85.0847C247.629 87.2252 247.163 89.0888 246.231 90.6753C245.299 92.2366 244.015 93.4453 242.378 94.3015C240.767 95.1326 238.903 95.5481 236.788 95.5481C234.672 95.5481 232.796 95.1326 231.159 94.3015C229.523 93.4705 228.238 92.2743 227.307 90.713C226.375 89.1265 225.909 87.2504 225.909 85.0847ZM257.092 94.9059V75.5657H249.348V69.7108H271.522V75.5657H263.854V94.9059H257.092ZM297.949 85.9913L302.444 90.222C299.623 93.7727 295.884 95.5481 291.225 95.5481C288.656 95.5481 286.377 94.9815 284.388 93.8482C282.424 92.715 280.888 91.1663 279.78 89.2021C278.672 87.2127 278.118 84.9336 278.118 82.365C278.118 79.7964 278.672 77.5174 279.78 75.528C280.888 73.5134 282.424 71.9269 284.388 70.7685C286.352 69.6101 288.631 69.0309 291.225 69.0309C293.391 69.0309 295.405 69.396 297.269 70.1263C299.158 70.8566 300.744 72.1283 302.028 73.9415L297.609 78.3988C296.904 77.4418 296.06 76.6738 295.078 76.0946C294.096 75.5154 292.975 75.2258 291.716 75.2258C290.306 75.2258 289.097 75.5406 288.09 76.1701C287.108 76.7745 286.352 77.6055 285.823 78.6632C285.295 79.6957 285.03 80.8667 285.03 82.1761C285.03 83.5108 285.295 84.7196 285.823 85.8024C286.377 86.8601 287.158 87.6911 288.165 88.2955C289.173 88.8999 290.344 89.2021 291.678 89.2021C293.164 89.2021 294.36 88.9377 295.267 88.4088C296.173 87.88 297.067 87.0742 297.949 85.9913ZM315.213 95.5103C313.324 95.5103 311.574 95.1829 309.962 94.5282C308.376 93.8734 306.991 92.9543 305.807 91.7707C304.649 90.5619 303.742 89.1517 303.088 87.54C302.433 85.9283 302.105 84.1656 302.105 82.2517C302.105 80.3378 302.433 78.575 303.088 76.9634C303.742 75.3517 304.649 73.9541 305.807 72.7705C306.991 71.5869 308.376 70.6677 309.962 70.013C311.574 69.3582 313.324 69.0309 315.213 69.0309C317.102 69.0309 318.839 69.3582 320.426 70.013C322.037 70.6677 323.435 71.5869 324.619 72.7705C325.802 73.9541 326.709 75.3517 327.338 76.9634C327.993 78.575 328.32 80.3378 328.32 82.2517C328.32 84.1656 327.993 85.9283 327.338 87.54C326.709 89.1517 325.802 90.5619 324.619 91.7707C323.435 92.9543 322.037 93.8734 320.426 94.5282C318.839 95.1829 317.102 95.5103 315.213 95.5103ZM315.213 89.2398C316.548 89.2398 317.668 88.9251 318.575 88.2955C319.507 87.6659 320.212 86.8223 320.69 85.7647C321.169 84.707 321.408 83.536 321.408 82.2517C321.408 80.9674 321.169 79.7964 320.69 78.7387C320.212 77.6811 319.507 76.8375 318.575 76.2079C317.668 75.5783 316.548 75.2635 315.213 75.2635C313.903 75.2635 312.783 75.5783 311.851 76.2079C310.944 76.8375 310.239 77.6811 309.736 78.7387C309.257 79.7964 309.018 80.9674 309.018 82.2517C309.018 83.536 309.257 84.707 309.736 85.7647C310.239 86.8223 310.944 87.6659 311.851 88.2955C312.783 88.9251 313.903 89.2398 315.213 89.2398ZM329.026 94.9059V88.0689H335.901V94.9059H329.026Z" fill="white"/>
<path d="M255.913 49.9059V24.7108H273.478V30.5657H262.599V35.4386H271.023V40.9535H262.599V49.9059H255.913ZM269.855 49.9059L279.109 24.7108H286.777L295.692 49.9059H288.477L286.853 44.6931H278.429L276.767 49.9059H269.855ZM279.789 39.8203H285.493L282.698 30.5657L279.789 39.8203ZM294.913 46.8085L298.955 41.9356C299.66 42.6408 300.579 43.2829 301.712 43.8621C302.871 44.4413 304.117 44.7309 305.452 44.7309C306.132 44.7309 306.787 44.5924 307.416 44.3154C308.046 44.0384 308.361 43.5096 308.361 42.7289C308.361 42.0742 308.021 41.5327 307.341 41.1046C306.661 40.6513 305.691 40.2232 304.432 39.8203L303.034 39.367C302.002 39.0145 300.969 38.5486 299.937 37.9694C298.93 37.365 298.086 36.597 297.406 35.6652C296.751 34.7334 296.424 33.5876 296.424 32.2278C296.424 30.6665 296.789 29.2688 297.519 28.0349C298.275 26.801 299.383 25.8314 300.844 25.1263C302.304 24.396 304.079 24.0309 306.17 24.0309C307.832 24.0309 309.267 24.2197 310.476 24.5975C311.71 24.9752 312.73 25.4159 313.536 25.9196C314.341 26.4232 314.933 26.8765 315.311 27.2794L311.911 31.5856C311.03 30.9309 310.111 30.4021 309.154 29.9991C308.197 29.571 307.215 29.357 306.207 29.357C305.553 29.357 304.923 29.5081 304.319 29.8103C303.74 30.0873 303.45 30.5783 303.45 31.2834C303.45 32.0641 303.802 32.6307 304.508 32.9833C305.213 33.3358 306.107 33.6884 307.19 34.0409L308.398 34.4187C309.254 34.6705 310.111 34.9979 310.967 35.4008C311.848 35.7785 312.654 36.2696 313.384 36.874C314.115 37.4783 314.694 38.2464 315.122 39.1782C315.575 40.0847 315.802 41.2054 315.802 42.54C315.802 44.0762 315.336 45.4486 314.404 46.6574C313.498 47.8661 312.264 48.8105 310.702 49.4904C309.166 50.1703 307.454 50.5103 305.565 50.5103C303.047 50.5103 300.932 50.1703 299.219 49.4904C297.532 48.8105 296.097 47.9165 294.913 46.8085ZM324.371 49.9059V30.5657H316.627V24.7108H338.8V30.5657H331.132V49.9059H324.371Z" fill="#FFD101"/>
<rect y="116" width="140" height="140" rx="70" fill="white"/>
<path d="M34.7066 181.888C38.1626 178.624 42.0266 175 42.0266 172.672C42.0266 171.352 40.9466 170.2 39.0746 170.2C38.0426 170.2 36.5306 170.536 35.5226 171.448L34.8266 168.424C35.7626 167.584 37.5386 166.744 39.9626 166.744C43.8266 166.744 46.0826 169.144 46.0826 171.832C46.0826 174.76 43.7546 177.472 40.2266 180.712H46.2746V184H34.7066V181.888ZM48.3998 175.624C48.3998 170.416 50.3918 166.744 55.3358 166.744C60.3038 166.744 62.2238 170.392 62.2238 175.624C62.2238 180.832 60.2078 184.336 55.2878 184.336C50.3198 184.336 48.3998 180.928 48.3998 175.624ZM58.2638 175.768V175.6C58.2638 172.24 57.6158 170.224 55.3118 170.224C52.9598 170.224 52.3358 172.264 52.3358 175.576C52.3358 178.96 52.9358 180.928 55.3118 180.928C57.5198 180.928 58.2638 179.008 58.2638 175.768ZM68.123 172.752H71.739C75.051 172.752 77.515 174.96 77.515 178.384C77.515 181.824 75.035 184 71.739 184H68.123V172.752ZM71.755 182.208C73.787 182.208 75.339 180.784 75.339 178.432C75.339 176.064 73.755 174.544 71.771 174.544H70.235V182.208H71.755ZM78.7483 179.776C78.7483 176.88 80.6523 175.312 82.9083 175.312C84.2043 175.312 85.2123 175.84 85.9323 176.848V175.536H87.9643V184H85.9323V182.464C85.2283 183.568 84.2363 184.192 82.9083 184.192C80.7163 184.192 78.7483 182.672 78.7483 179.776ZM85.9323 179.76V179.68C85.5163 178.048 84.4603 177.04 83.2123 177.04C81.9003 177.04 80.8923 177.952 80.8923 179.744C80.8923 181.472 81.9003 182.464 83.2123 182.464C84.5723 182.464 85.5483 181.344 85.9323 179.76ZM92.6313 184.048L89.1113 175.536H91.4793L93.7033 181.76L96.0233 175.536H98.2793L93.3033 187.36H91.1432L92.6313 184.048ZM98.685 183.456L99.037 181.792C99.757 182.256 100.877 182.64 101.885 182.64C102.909 182.64 103.549 182.336 103.549 181.648C103.549 179.968 98.797 181.44 98.797 178.032C98.797 176.384 100.109 175.296 102.317 175.296C103.421 175.296 104.525 175.6 105.309 176.016L104.941 177.664C104.189 177.232 103.293 176.912 102.413 176.912C101.485 176.912 100.829 177.28 100.829 177.904C100.829 179.712 105.581 178.256 105.581 181.44C105.581 183.104 103.997 184.208 101.821 184.208C100.541 184.208 99.373 183.824 98.685 183.456Z" fill="#F4B32F"/>
<path d="M20.2738 193.346H25.1158C27.5998 193.346 29.9038 194.804 29.9038 197.756C29.9038 200.618 27.5458 202.202 25.1158 202.202H23.2078V206H20.2738V193.346ZM24.3418 199.862C26.0518 199.862 26.9338 199.106 26.9338 197.81C26.9338 196.406 26.0698 195.686 24.3238 195.686H23.2078V199.862H24.3418ZM31.3614 196.406H34.2054V197.954C34.9434 196.91 35.9334 196.226 37.2474 196.226C37.5894 196.226 37.9134 196.244 38.1834 196.334L37.8234 198.728C37.5714 198.656 37.1934 198.62 36.9054 198.62C35.8434 198.62 34.8354 199.43 34.2054 200.96V206H31.3614V196.406ZM38.4687 201.23C38.4687 198.008 40.8627 196.082 43.9047 196.082C46.8747 196.082 49.3407 197.972 49.3407 201.194C49.3407 204.416 46.9287 206.27 43.8687 206.27C40.8447 206.27 38.4687 204.416 38.4687 201.23ZM46.3527 201.176C46.3527 199.394 45.3267 198.422 43.9227 198.422C42.5367 198.422 41.4747 199.358 41.4747 201.176C41.4747 202.94 42.4647 203.912 43.8867 203.912C45.3447 203.912 46.3527 202.922 46.3527 201.176ZM50.4754 201.194C50.4754 197.864 52.6714 196.118 55.2094 196.118C56.5594 196.118 57.6394 196.604 58.4314 197.594V193.346H61.2754V206H58.5034V204.416C57.7294 205.568 56.6314 206.234 55.2094 206.234C52.7974 206.234 50.4754 204.524 50.4754 201.194ZM58.5034 201.158C57.9814 199.376 56.9374 198.476 55.7314 198.476C54.4714 198.476 53.4634 199.43 53.4634 201.158C53.4634 202.868 54.4894 203.876 55.7494 203.876C57.0094 203.876 58.0354 202.778 58.5034 201.158ZM63.2631 201.86V196.406H66.1071V201.716C66.1071 203.174 66.5751 203.822 67.6551 203.822C68.7531 203.822 69.6171 203.084 70.2651 201.446V196.406H73.1271V206H70.2651V204.398C69.4191 205.55 68.3031 206.18 66.8991 206.18C64.6671 206.18 63.2631 205.046 63.2631 201.86ZM74.6972 201.32C74.6972 198.044 77.0192 196.1 80.0252 196.1C81.3572 196.1 82.3472 196.424 83.2112 196.964L82.5992 199.16C81.7892 198.728 81.1232 198.476 80.2592 198.476C78.7292 198.476 77.7032 199.484 77.7032 201.212C77.7032 202.868 78.6932 203.894 80.1872 203.894C80.9612 203.894 81.7532 203.75 82.6532 203.3L82.9772 205.514C82.2572 205.946 81.2132 206.252 79.8632 206.252C76.8932 206.252 74.6972 204.434 74.6972 201.32ZM85.3628 202.742V198.53H83.7248V196.406H85.3628V193.922H88.2068V196.406H91.7168V198.53H88.2068V201.986C88.2068 203.282 88.8008 203.822 89.6828 203.822C90.4388 203.822 90.9788 203.696 91.6628 203.426L92.0408 205.604C91.1588 206 90.0968 206.216 88.9448 206.216C86.6948 206.216 85.3628 205.1 85.3628 202.742ZM92.8965 193.526C92.8965 192.554 93.6705 191.924 94.5705 191.924C95.4705 191.924 96.2445 192.536 96.2445 193.526C96.2445 194.48 95.5065 195.128 94.5705 195.128C93.7245 195.128 92.8965 194.516 92.8965 193.526ZM93.1485 196.406H95.9925V206H93.1485V196.406ZM97.5839 201.23C97.5839 198.008 99.9779 196.082 103.02 196.082C105.99 196.082 108.456 197.972 108.456 201.194C108.456 204.416 106.044 206.27 102.984 206.27C99.9599 206.27 97.5839 204.416 97.5839 201.23ZM105.468 201.176C105.468 199.394 104.442 198.422 103.038 198.422C101.652 198.422 100.59 199.358 100.59 201.176C100.59 202.94 101.58 203.912 103.002 203.912C104.46 203.912 105.468 202.922 105.468 201.176ZM110.059 196.406H112.903V197.99C113.785 196.802 114.955 196.136 116.359 196.136C118.591 196.136 120.013 197.288 120.013 200.456V206H117.169V200.6C117.169 199.16 116.719 198.512 115.603 198.512C114.487 198.512 113.587 199.268 112.903 200.888V206H110.059V196.406Z" fill="#921B43"/>
<rect x="340" y="115" width="140" height="140" rx="70" fill="white"/>
<path d="M381.649 170.208L378.241 172.296L376.681 169.632L382.369 166.128H385.393V183H381.649V170.208ZM387.782 181.896L388.502 178.704C389.99 179.52 391.358 179.928 392.798 179.928C394.694 179.928 395.702 178.944 395.702 177.504C395.702 176.088 394.718 175.128 392.366 175.128C391.31 175.128 390.422 175.296 389.102 175.68L388.646 175.272L389.918 166.128H399.062V169.416H392.87L392.462 172.392C392.774 172.344 393.11 172.32 393.446 172.32C397.478 172.32 399.638 174.48 399.638 177.624C399.638 181.032 397.046 183.312 393.11 183.312C390.974 183.312 389.078 182.664 387.782 181.896ZM405.404 171.752H409.02C412.332 171.752 414.796 173.96 414.796 177.384C414.796 180.824 412.316 183 409.02 183H405.404V171.752ZM409.036 181.208C411.068 181.208 412.62 179.784 412.62 177.432C412.62 175.064 411.036 173.544 409.052 173.544H407.516V181.208H409.036ZM416.03 178.776C416.03 175.88 417.934 174.312 420.19 174.312C421.486 174.312 422.494 174.84 423.214 175.848V174.536H425.246V183H423.214V181.464C422.51 182.568 421.518 183.192 420.19 183.192C417.998 183.192 416.03 181.672 416.03 178.776ZM423.214 178.76V178.68C422.798 177.048 421.742 176.04 420.494 176.04C419.182 176.04 418.174 176.952 418.174 178.744C418.174 180.472 419.182 181.464 420.494 181.464C421.854 181.464 422.83 180.344 423.214 178.76ZM429.913 183.048L426.393 174.536H428.761L430.985 180.76L433.305 174.536H435.561L430.585 186.36H428.424L429.913 183.048ZM435.966 182.456L436.318 180.792C437.038 181.256 438.158 181.64 439.166 181.64C440.19 181.64 440.83 181.336 440.83 180.648C440.83 178.968 436.078 180.44 436.078 177.032C436.078 175.384 437.39 174.296 439.598 174.296C440.702 174.296 441.806 174.6 442.59 175.016L442.222 176.664C441.47 176.232 440.574 175.912 439.694 175.912C438.766 175.912 438.11 176.28 438.11 176.904C438.11 178.712 442.862 177.256 442.862 180.44C442.862 182.104 441.278 183.208 439.102 183.208C437.822 183.208 436.654 182.824 435.966 182.456Z" fill="#F4B32F"/>
<path d="M355.953 203.596H357.519V193.75H355.953V192.346H362.019V193.75H360.453V203.596H362.019V205H355.953V203.596ZM363.574 195.406H366.418V196.99C367.3 195.802 368.47 195.136 369.874 195.136C372.106 195.136 373.528 196.288 373.528 199.456V205H370.684V199.6C370.684 198.16 370.234 197.512 369.118 197.512C368.002 197.512 367.102 198.268 366.418 199.888V205H363.574V195.406ZM375.042 204.334L375.456 202.084C376.266 202.66 377.706 203.182 378.894 203.182C379.956 203.182 380.568 202.84 380.568 202.264C380.568 200.698 375.132 202.156 375.132 198.358C375.132 196.378 376.77 195.082 379.416 195.082C380.838 195.082 382.152 195.478 383.088 195.964L382.638 198.16C381.756 197.692 380.64 197.26 379.56 197.26C378.57 197.26 377.958 197.638 377.958 198.178C377.958 199.816 383.394 198.412 383.394 201.958C383.394 203.902 381.54 205.27 378.804 205.27C377.166 205.27 375.852 204.784 375.042 204.334ZM385.759 201.742V197.53H384.121V195.406H385.759V192.922H388.603V195.406H392.113V197.53H388.603V200.986C388.603 202.282 389.197 202.822 390.079 202.822C390.835 202.822 391.375 202.696 392.059 202.426L392.437 204.604C391.555 205 390.493 205.216 389.341 205.216C387.091 205.216 385.759 204.1 385.759 201.742ZM392.919 200.194C392.919 196.864 395.115 195.118 397.653 195.118C399.057 195.118 400.155 195.64 400.947 196.684V195.406H403.791V205H400.947V203.416C400.173 204.568 399.075 205.234 397.653 205.234C395.241 205.234 392.919 203.524 392.919 200.194ZM400.947 200.158C400.425 198.376 399.381 197.476 398.193 197.476C396.915 197.476 395.907 198.43 395.907 200.158C395.907 201.868 396.933 202.876 398.211 202.876C399.453 202.876 400.479 201.778 400.947 200.158ZM405.885 192.346H408.729V205H405.885V192.346ZM410.824 192.346H413.668V205H410.824V192.346ZM415.296 200.194C415.296 196.864 417.492 195.118 420.03 195.118C421.434 195.118 422.532 195.64 423.324 196.684V195.406H426.168V205H423.324V203.416C422.55 204.568 421.452 205.234 420.03 205.234C417.618 205.234 415.296 203.524 415.296 200.194ZM423.324 200.158C422.802 198.376 421.758 197.476 420.57 197.476C419.292 197.476 418.284 198.43 418.284 200.158C418.284 201.868 419.31 202.876 420.588 202.876C421.83 202.876 422.856 201.778 423.324 200.158ZM429.072 201.742V197.53H427.434V195.406H429.072V192.922H431.916V195.406H435.426V197.53H431.916V200.986C431.916 202.282 432.51 202.822 433.392 202.822C434.148 202.822 434.688 202.696 435.372 202.426L435.75 204.604C434.868 205 433.806 205.216 432.654 205.216C430.404 205.216 429.072 204.1 429.072 201.742ZM436.605 192.526C436.605 191.554 437.379 190.924 438.279 190.924C439.179 190.924 439.953 191.536 439.953 192.526C439.953 193.48 439.215 194.128 438.279 194.128C437.433 194.128 436.605 193.516 436.605 192.526ZM436.857 195.406H439.701V205H436.857V195.406ZM441.293 200.23C441.293 197.008 443.687 195.082 446.729 195.082C449.699 195.082 452.165 196.972 452.165 200.194C452.165 203.416 449.753 205.27 446.693 205.27C443.669 205.27 441.293 203.416 441.293 200.23ZM449.177 200.176C449.177 198.394 448.151 197.422 446.747 197.422C445.361 197.422 444.299 198.358 444.299 200.176C444.299 201.94 445.289 202.912 446.711 202.912C448.169 202.912 449.177 201.922 449.177 200.176ZM453.768 195.406H456.612V196.99C457.494 195.802 458.664 195.136 460.068 195.136C462.3 195.136 463.722 196.288 463.722 199.456V205H460.878V199.6C460.878 198.16 460.428 197.512 459.312 197.512C458.196 197.512 457.296 198.268 456.612 199.888V205H453.768V195.406Z" fill="#921B43"/>
<rect x="170" y="185" width="140" height="140" rx="70" fill="white"/>
<path d="M205.937 250.888C209.393 247.624 213.257 244 213.257 241.672C213.257 240.352 212.177 239.2 210.305 239.2C209.273 239.2 207.761 239.536 206.753 240.448L206.057 237.424C206.993 236.584 208.769 235.744 211.193 235.744C215.057 235.744 217.313 238.144 217.313 240.832C217.313 243.76 214.985 246.472 211.457 249.712H217.505V253H205.937V250.888ZM219.27 251.896L219.99 248.704C221.478 249.52 222.846 249.928 224.286 249.928C226.182 249.928 227.19 248.944 227.19 247.504C227.19 246.088 226.206 245.128 223.854 245.128C222.798 245.128 221.91 245.296 220.59 245.68L220.134 245.272L221.406 236.128H230.55V239.416H224.358L223.95 242.392C224.262 242.344 224.598 242.32 224.934 242.32C228.966 242.32 231.126 244.48 231.126 247.624C231.126 251.032 228.534 253.312 224.598 253.312C222.462 253.312 220.566 252.664 219.27 251.896ZM236.893 241.752H240.509C243.821 241.752 246.285 243.96 246.285 247.384C246.285 250.824 243.805 253 240.509 253H236.893V241.752ZM240.525 251.208C242.557 251.208 244.109 249.784 244.109 247.432C244.109 245.064 242.525 243.544 240.541 243.544H239.005V251.208H240.525ZM247.518 248.776C247.518 245.88 249.422 244.312 251.678 244.312C252.974 244.312 253.982 244.84 254.702 245.848V244.536H256.734V253H254.702V251.464C253.998 252.568 253.006 253.192 251.678 253.192C249.486 253.192 247.518 251.672 247.518 248.776ZM254.702 248.76V248.68C254.286 247.048 253.23 246.04 251.982 246.04C250.67 246.04 249.662 246.952 249.662 248.744C249.662 250.472 250.67 251.464 251.982 251.464C253.342 251.464 254.318 250.344 254.702 248.76ZM261.401 253.048L257.881 244.536H260.249L262.473 250.76L264.793 244.536H267.049L262.073 256.36H259.913L261.401 253.048ZM267.455 252.456L267.807 250.792C268.527 251.256 269.647 251.64 270.655 251.64C271.679 251.64 272.319 251.336 272.319 250.648C272.319 248.968 267.567 250.44 267.567 247.032C267.567 245.384 268.879 244.296 271.087 244.296C272.191 244.296 273.295 244.6 274.079 245.016L273.711 246.664C272.959 246.232 272.063 245.912 271.183 245.912C270.255 245.912 269.599 246.28 269.599 246.904C269.599 248.712 274.351 247.256 274.351 250.44C274.351 252.104 272.767 253.208 270.591 253.208C269.311 253.208 268.143 252.824 267.455 252.456Z" fill="#F4B32F"/>
<path d="M195.674 274.172L196.07 271.634C197.204 272.3 198.626 272.804 199.958 272.804C201.344 272.804 202.208 272.282 202.208 271.472C202.208 269.312 195.764 270.644 195.764 266.144C195.764 263.768 197.708 262.04 200.66 262.04C202.226 262.04 204.062 262.526 204.818 263.102L204.314 265.568C203.414 265.064 202.154 264.542 200.804 264.542C199.31 264.542 198.698 265.19 198.698 265.856C198.698 268.034 205.106 267.008 205.106 271.292C205.106 273.776 202.784 275.27 199.994 275.27C198.356 275.27 196.862 274.82 195.674 274.172ZM206.723 262.346H209.567V266.99C210.449 265.802 211.619 265.136 213.023 265.136C215.255 265.136 216.677 266.27 216.677 269.456V275H213.833V269.6C213.833 268.142 213.383 267.494 212.267 267.494C211.169 267.494 210.269 268.268 209.567 269.906V275H206.723V262.346ZM218.406 262.526C218.406 261.554 219.18 260.924 220.08 260.924C220.98 260.924 221.754 261.536 221.754 262.526C221.754 263.48 221.016 264.128 220.08 264.128C219.234 264.128 218.406 263.516 218.406 262.526ZM218.658 265.406H221.502V275H218.658V265.406ZM223.598 265.406H226.298V266.774C227.09 265.694 228.206 265.136 229.628 265.136C232.148 265.136 234.362 266.918 234.362 270.248C234.362 273.596 232.04 275.288 229.628 275.288C228.26 275.288 227.216 274.712 226.442 273.668V278.798H223.598V265.406ZM231.356 270.212C231.356 268.484 230.366 267.494 229.07 267.494C227.864 267.494 226.82 268.502 226.316 270.248C226.784 271.886 227.882 272.912 229.052 272.912C230.348 272.912 231.356 271.922 231.356 270.212ZM235.955 265.406H238.799V266.972C239.627 265.784 240.743 265.154 242.255 265.154C243.749 265.154 244.865 265.82 245.351 267.386C246.197 265.91 247.295 265.154 248.951 265.154C251.039 265.154 252.479 266.396 252.479 269.546V275H249.635V269.69C249.635 268.232 249.149 267.53 248.123 267.53C247.025 267.53 246.287 268.322 245.639 269.96V275H242.795V269.69C242.795 268.232 242.363 267.53 241.373 267.53C240.257 267.53 239.465 268.322 238.799 269.96V275H235.955V265.406ZM253.979 270.23C253.979 267.242 256.049 265.118 259.091 265.118C261.827 265.118 264.005 266.684 264.005 270.194C264.005 270.554 263.969 270.824 263.933 271.058H256.985C257.237 272.39 258.155 273.074 259.811 273.074C261.053 273.074 262.025 272.84 263.105 272.3L263.555 274.28C262.367 274.928 261.125 275.306 259.289 275.306C255.761 275.306 253.979 273.344 253.979 270.23ZM261.071 269.438C260.927 268.034 260.315 267.296 259.037 267.296C257.813 267.296 257.129 268.034 256.967 269.438H261.071ZM265.592 265.406H268.436V266.99C269.318 265.802 270.488 265.136 271.892 265.136C274.124 265.136 275.546 266.288 275.546 269.456V275H272.702V269.6C272.702 268.16 272.252 267.512 271.136 267.512C270.02 267.512 269.12 268.268 268.436 269.888V275H265.592V265.406ZM278.232 271.742V267.53H276.594V265.406H278.232V262.922H281.076V265.406H284.586V267.53H281.076V270.986C281.076 272.282 281.67 272.822 282.552 272.822C283.308 272.822 283.848 272.696 284.532 272.426L284.91 274.604C284.028 275 282.966 275.216 281.814 275.216C279.564 275.216 278.232 274.1 278.232 271.742Z" fill="#921B43"/>
<defs>
<linearGradient id="paint0_linear_504_543" x1="26" y1="48.5" x2="82" y2="160" gradientUnits="userSpaceOnUse">
<stop stop-color="white" stop-opacity="0"/>
<stop offset="1" stop-color="white"/>
</linearGradient>
<linearGradient id="paint1_linear_504_543" x1="455" y1="48.5" x2="471.835" y2="149.997" gradientUnits="userSpaceOnUse">
<stop stop-color="white" stop-opacity="0"/>
<stop offset="1" stop-color="white"/>
</linearGradient>
</defs>
</svg>
