<svg width="80" height="80" viewBox="0 0 80 80" fill="none" xmlns="http://www.w3.org/2000/svg">
<path d="M33.5955 59.3794C33.4794 59.2633 33.3416 59.1712 33.1899 59.1084C33.0383 59.0456 32.8757 59.0132 32.7116 59.0132C32.5474 59.0132 32.3849 59.0456 32.2332 59.1084C32.0815 59.1712 31.9437 59.2633 31.8277 59.3794L27.5027 63.7044C27.3547 63.8523 27.1541 63.9353 26.9449 63.9353C26.7357 63.9353 26.5351 63.8523 26.3872 63.7044L16.2956 53.6127C16.1477 53.4647 16.0647 53.2641 16.0647 53.0549C16.0647 52.8457 16.1477 52.6451 16.2956 52.4972L20.6206 48.1723C20.7367 48.0563 20.8288 47.9185 20.8916 47.7668C20.9544 47.6151 20.9868 47.4526 20.9868 47.2884C20.9868 47.1243 20.9544 46.9617 20.8916 46.8101C20.8288 46.6584 20.7367 46.5206 20.6206 46.4045L11.9708 37.7547C11.7502 37.5341 11.4551 37.4039 11.1435 37.3898C10.8319 37.3757 10.5262 37.4786 10.2866 37.6783L6.15125 41.125C4.62216 42.3969 3.5012 44.0907 2.92809 45.9953C2.35497 47.8999 2.35504 49.9311 2.92828 51.8356L5.32282 51.1169C4.89082 49.6816 4.89078 48.1509 5.3227 46.7156C5.75461 45.2803 6.59938 44.0038 7.75172 43.0453L11.0102 40.33L17.9688 47.2884L16.1327 49.125L10.5291 43.5213L8.76141 45.2891L14.3728 50.9005C13.826 51.5278 13.5378 52.3394 13.5666 53.1711C13.5954 54.0028 13.9391 54.7925 14.528 55.3805L24.6194 65.472C24.9248 65.7774 25.2873 66.0197 25.6863 66.185C26.0854 66.3503 26.513 66.4353 26.9449 66.4353C27.3768 66.4353 27.8045 66.3503 28.2035 66.185C28.6025 66.0197 28.9651 65.7774 29.2705 65.472L32.7116 62.0313L39.6705 68.9902L38.0013 70.9933L33.595 66.5881L31.8275 68.3563L36.3588 72.8866C34.9569 74.2258 33.098 74.9814 31.1594 75H31.0378C30.308 74.9956 29.5826 74.8869 28.8836 74.6772C23.8987 73.1817 19.3081 70.5976 15.4437 67.1116C11.5793 63.6256 8.53746 59.3247 6.53797 54.5197L4.22969 55.4803C7.79735 64.0569 14.4125 71.0099 22.8008 75H13.625C13.5234 75 13.4243 74.968 13.3419 74.9086C13.2595 74.8492 13.1978 74.7653 13.1656 74.6689L12.7061 73.2906C12.508 72.6965 12.1279 72.1798 11.6198 71.8136C11.1117 71.4474 10.5013 71.2504 9.875 71.2504C9.24871 71.2504 8.63828 71.4474 8.13018 71.8136C7.62207 72.1798 7.24205 72.6965 7.04391 73.2906L6.58453 74.6689C6.55237 74.7653 6.49068 74.8492 6.4082 74.9086C6.32573 74.968 6.22665 75 6.125 75H2.5V77.5H6.125C6.7515 77.5006 7.36226 77.3038 7.87049 76.9374C8.37873 76.5711 8.75859 76.0539 8.9561 75.4594L9.41563 74.0811C9.44781 73.9847 9.50949 73.9009 9.59195 73.8415C9.6744 73.7821 9.77345 73.7501 9.87508 73.7501C9.97671 73.7501 10.0758 73.7821 10.1582 73.8415C10.2407 73.9009 10.3024 73.9847 10.3345 74.0811L10.7939 75.4594C10.9914 76.0539 11.3713 76.5711 11.8795 76.9374C12.3878 77.3037 12.9985 77.5006 13.625 77.5L31.25 77.4972C32.7089 77.4741 34.1455 77.1361 35.4617 76.5064C36.7778 75.8767 37.9424 74.9702 38.8758 73.8488L42.3217 69.7134C42.5214 69.4738 42.6243 69.1681 42.6102 68.8565C42.5961 68.5449 42.4659 68.2498 42.2453 68.0292L33.5955 59.3794Z" fill="#F4B32F"/>
<path d="M66.5166 13.4834C61.4411 8.4083 55.0158 4.89635 48.0035 3.36462C40.9913 1.8329 33.6868 2.34576 26.9574 4.8423C20.228 7.33883 14.3565 11.7142 10.04 17.4487C5.72348 23.1833 3.14339 30.0362 2.60609 37.1936L5.09922 37.3781C5.78043 28.3504 9.93333 19.9378 16.6858 13.9071C23.4382 7.87643 32.2648 4.69689 41.3119 5.03623C50.3589 5.37557 58.9226 9.20739 65.2043 15.727C71.486 22.2465 74.997 30.9466 75 40C75.0155 45.3839 73.7761 50.6974 71.3802 55.5188L73.62 56.6289C77.0931 49.5969 78.2756 41.6534 77.0015 33.9147C75.7274 26.176 72.0607 19.0309 66.5166 13.4834Z" fill="#F4B32F"/>
<path d="M57.0022 70.5994C56.762 70.7331 56.5726 70.9423 56.4634 71.1945C56.3541 71.4468 56.331 71.728 56.3977 71.9947L57.0197 74.4825L47.2731 71.8242L54.3616 63.8498L54.8156 65.6664C54.8636 65.8583 54.9565 66.0361 55.0866 66.1851C55.2167 66.3342 55.3803 66.4502 55.5639 66.5237C55.7476 66.5972 55.9461 66.626 56.1431 66.6079C56.34 66.5897 56.5299 66.5251 56.697 66.4192C61.1633 63.6102 64.8421 59.7118 67.3878 55.0904C69.9335 50.4689 71.2625 45.2762 71.25 40C71.25 22.7688 57.2313 8.75 40 8.75C32.9714 8.75049 26.1481 11.1195 20.6315 15.4747C15.1149 19.8298 11.2268 25.9169 9.595 32.7534L12.0273 33.3316C13.524 27.1027 17.0493 21.5484 22.0484 17.5425C27.1325 13.4465 33.4712 11.2246 40 11.25C55.8528 11.25 68.75 24.1472 68.75 40C68.7613 44.5585 67.6835 49.0537 65.6064 53.1114C63.5292 57.1691 60.5127 60.6719 56.8081 63.3281L56.2127 60.9466C56.1575 60.7259 56.0432 60.5245 55.882 60.364C55.7209 60.2036 55.519 60.0901 55.2982 60.0358C55.0773 59.9816 54.8458 59.9886 54.6287 60.0562C54.4115 60.1237 54.2169 60.2493 54.0658 60.4192L44.0658 71.6692C43.9245 71.8282 43.826 72.0206 43.7799 72.2283C43.7337 72.4359 43.7412 72.6519 43.8018 72.8558C43.8625 73.0597 43.9741 73.2448 44.1262 73.3935C44.2783 73.5422 44.4659 73.6497 44.6711 73.7056L58.4211 77.4556C58.6315 77.513 58.8533 77.5143 59.0644 77.4595C59.2755 77.4046 59.4685 77.2955 59.6244 77.1429C59.7802 76.9903 59.8935 76.7996 59.9528 76.5898C60.0121 76.3799 60.0155 76.1582 59.9627 75.9466L59.0522 72.3047C64.3979 69.1425 68.8796 64.7086 72.0991 59.3972L69.9608 58.1022C66.7977 63.3209 62.3321 67.6275 57.0022 70.5994Z" fill="#F4B32F"/>
<path d="M38.75 13.75H41.25V16.25H38.75V13.75Z" fill="#F4B32F"/>
<path d="M25.7919 17.8914L27.9569 16.6414L29.2069 18.8064L27.0419 20.0564L25.7919 17.8914Z" fill="#F4B32F"/>
<path d="M16.6413 27.958L17.8913 25.793L20.0563 27.043L18.8063 29.208L16.6413 27.958Z" fill="#F4B32F"/>
<path d="M59.9419 52.9592L61.1919 50.7942L63.3569 52.0442L62.1069 54.2092L59.9419 52.9592Z" fill="#F4B32F"/>
<path d="M63.75 38.75H66.25V41.25H63.75V38.75Z" fill="#F4B32F"/>
<path d="M59.9415 27.0417L62.1065 25.7917L63.3565 27.9567L61.1915 29.2067L59.9415 27.0417Z" fill="#F4B32F"/>
<path d="M50.7921 18.8083L52.0421 16.6433L54.2071 17.8933L52.9571 20.0583L50.7921 18.8083Z" fill="#F4B32F"/>
<path d="M29.357 32.6574L28.143 34.8427L36.303 39.3759C36.174 40.1355 36.2823 40.9163 36.6131 41.612C36.9438 42.3078 37.481 42.8846 38.1515 43.2641C38.8219 43.6435 39.593 43.8071 40.3598 43.7325C41.1266 43.6579 41.8517 43.3488 42.4364 42.8472L57.8052 51.8595L59.0698 49.7033L43.6875 40.6824C43.7887 40.1397 43.7683 39.5813 43.6278 39.0474C43.4873 38.5135 43.2302 38.0174 42.875 37.5949L51.8594 22.2456L49.7031 20.9827L40.7234 36.3208C40.1583 36.2092 39.575 36.2298 39.0191 36.3808C38.4632 36.5319 37.9497 36.8093 37.5188 37.1916L29.357 32.6574ZM40 38.75C40.2472 38.75 40.4889 38.8233 40.6945 38.9607C40.9 39.098 41.0602 39.2933 41.1549 39.5217C41.2495 39.7501 41.2742 40.0014 41.226 40.2439C41.1778 40.4864 41.0587 40.7091 40.8839 40.8839C40.7091 41.0587 40.4863 41.1778 40.2439 41.226C40.0014 41.2742 39.7501 41.2495 39.5217 41.1549C39.2932 41.0602 39.098 40.9 38.9607 40.6945C38.8233 40.4889 38.75 40.2472 38.75 40C38.7504 39.6686 38.8822 39.3509 39.1165 39.1165C39.3509 38.8822 39.6686 38.7504 40 38.75Z" fill="#F4B32F"/>
</svg>
