<svg xmlns="http://www.w3.org/2000/svg" version="1.1" xmlns:xlink="http://www.w3.org/1999/xlink" xmlns:svgjs="http://svgjs.com/svgjs" width="53" height="53"><svg width="53" height="53" viewBox="0 0 53 53" fill="none" xmlns="http://www.w3.org/2000/svg">
<g id="SvgjsG1017">
<g id="SvgjsG1016">
<path id="SvgjsPath1015" fill-rule="evenodd" clip-rule="evenodd" d="M31.8768 43.5301L32.7023 38.4104L29.9902 37.0127L29.6542 37.6512L26.1346 44.4886L35.3457 49.2378L36.457 49.8096L39.1005 44.6917L31.8768 43.5301Z" fill="#D9511C"></path>
<path id="SvgjsPath1014" fill-rule="evenodd" clip-rule="evenodd" d="M20.1232 8.46986L19.2977 13.5882L22.0093 14.9873L22.3458 14.3469L25.8649 7.50953L16.6538 2.76221L15.5425 2.18859L12.899 7.30835L20.1232 8.46986Z" fill="#D9511C"></path>
<path id="SvgjsPath1013" fill-rule="evenodd" clip-rule="evenodd" d="M14.0265 11.9047L15.2064 17.0912L18.1178 17.3448L18.1684 16.6704L18.8102 8.95739L8.41968 8.09972L7.23976 7.9989L6.7688 13.5394L14.0265 11.9047Z" fill="#F3731E"></path>
<path id="SvgjsPath1012" fill-rule="evenodd" clip-rule="evenodd" d="M37.9712 40.0935L36.7936 34.8909L33.8983 34.6552L33.8297 35.3278L33.1894 43.0247L43.5803 43.9003L44.7745 44.0011L45.2312 38.4606L37.9712 40.0935Z" fill="#F3731E"></path>
<path id="SvgjsPath1011" fill-rule="evenodd" clip-rule="evenodd" d="M9.49695 17.6468L12.5612 21.9232L15.3897 21.0149L15.1544 20.2742L12.8309 13.016L3.08217 16.1309L1.76782 16.5535L3.48499 21.9412L9.49695 17.6468Z" fill="#F57F23"></path>
<path id="SvgjsPath1010" fill-rule="evenodd" clip-rule="evenodd" d="M42.5012 34.3532L39.4549 30.0588L36.608 30.9671L36.8456 31.7258L39.1672 38.984L48.9358 35.8512L50.2322 35.4465L48.515 30.0588L42.5012 34.3532Z" fill="#F57F23"></path>
<path id="SvgjsPath1009" fill-rule="evenodd" clip-rule="evenodd" d="M44.4057 27.7013L39.8417 24.7374L37.7032 26.5379L38.1747 27.1116L43.125 32.9541L51.0235 26.2861L52 25.4607L48.5311 21.3514L44.4057 27.7013Z" fill="#F38F1C"></path>
<path id="SvgjsPath1008" fill-rule="evenodd" clip-rule="evenodd" d="M7.59424 24.2987L12.1744 27.2626L14.2963 25.4607L13.8253 24.905L8.87453 19.0441L0.97644 25.7125L0 26.5559L3.46888 30.6467L7.59424 24.2987Z" fill="#F38F1C"></path>
<path id="SvgjsPath1007" fill-rule="evenodd" clip-rule="evenodd" d="M43.5803 20.3064L38.3597 19.4147L37.0127 22.0259L37.8041 22.4287L44.49 25.8654L49.1029 16.9061L49.8114 15.543L44.8426 12.9819L43.5803 20.3064Z" fill="#FAA633"></path>
<path id="SvgjsPath1006" fill-rule="evenodd" clip-rule="evenodd" d="M8.40173 31.6918L13.6403 32.5996L14.9868 29.9907L14.1959 29.5695L7.50954 26.1351L2.89711 35.0925L2.1886 36.457L7.15552 39.0162L8.40173 31.6918Z" fill="#FAA633"></path>
<path id="SvgjsPath1005" fill-rule="evenodd" clip-rule="evenodd" d="M11.9047 37.973L17.0912 36.8097L17.3444 33.8965L16.5696 33.8297L8.97534 33.1898L8.11584 43.4293L7.9989 44.7764L13.5555 45.2294L11.9047 37.973Z" fill="#FDB811"></path>
<path id="SvgjsPath1004" fill-rule="evenodd" clip-rule="evenodd" d="M40.0949 14.027L34.8909 15.2046L34.6552 18.1178L35.4286 18.1703L43.0247 18.8083L43.8823 8.57067L44.0011 7.24159L38.4444 6.76879L40.0949 14.027Z" fill="#FDB811"></path>
<path id="SvgjsPath1003" fill-rule="evenodd" clip-rule="evenodd" d="M17.512 42.4349L21.9071 39.3523L21.0149 36.6085L20.2742 36.8437L13.016 39.1672L16.1327 48.9339L16.5535 50.2322L21.8063 48.5652L17.512 42.4349Z" fill="#FFC223"></path>
<path id="SvgjsPath1002" fill-rule="evenodd" clip-rule="evenodd" d="M34.4701 9.56324L30.0911 12.6459L30.9667 15.392L31.724 15.1563L38.9817 12.8309L35.8494 3.06422L35.4286 1.76781L30.1937 3.45277L34.4701 9.56324Z" fill="#FFC223"></path>
<path id="SvgjsPath1001" fill-rule="evenodd" clip-rule="evenodd" d="M27.397 39.9945L25.4602 37.7032L25.0574 38.0577L24.2485 38.7303L19.0441 43.1255L23.8618 48.835L24.8544 50.013L26.5375 52L30.8824 48.3295L24.6366 44.438L27.397 39.9945Z" fill="#FFD100"></path>
<path id="SvgjsPath1000" fill-rule="evenodd" clip-rule="evenodd" d="M24.6026 12.0055L26.5375 14.2968L27.3307 13.6403L27.6327 13.3705L32.9541 8.87269L27.8684 2.84508L25.4602 0L25.2931 0.151002L21.1157 3.67052L27.3629 7.56017L24.6026 12.0055Z" fill="#FFD100"></path>
</g>
</g>
</svg><style>@media (prefers-color-scheme: light) { :root { filter: none; } }
</style></svg>