<svg width="80" height="80" viewBox="0 0 80 80" fill="none" xmlns="http://www.w3.org/2000/svg">
<g clip-path="url(#clip0_504_278)">
<path d="M45.3333 57.3333V74.6666C45.3333 76.1372 44.1373 77.3333 42.6666 77.3333H5.33328C3.86266 77.3333 2.66656 76.1373 2.66656 74.6666V25.3333C2.66656 23.8627 3.8625 22.6666 5.33328 22.6666H20V20H5.33328C2.39203 20 0 22.392 0 25.3333V74.6666C0 77.608 2.39203 80 5.33328 80H42.6666C45.608 80 47.9998 77.608 47.9998 74.6667V57.3333H45.3333Z" fill="#F4B32F"/>
<path d="M42.6667 20H28V22.6667H42.6667C44.1373 22.6667 45.3334 23.8627 45.3334 25.3334V49.3334H48V25.3334C48 22.392 45.608 20 42.6667 20Z" fill="#F4B32F"/>
<path d="M40 62.6667V72H8V28H13.3333V25.3333H6.66672C5.93078 25.3333 5.33344 25.9306 5.33344 26.6666V73.3333C5.33344 74.0706 5.93078 74.6666 6.66672 74.6666H41.3334C42.0708 74.6666 42.6667 74.0706 42.6667 73.3333V62.6666L40 62.6667Z" fill="#F4B32F"/>
<path d="M41.3333 25.3333H34.6666V28H40V54.6667H42.6667V26.6667C42.6667 25.9306 42.0706 25.3333 41.3333 25.3333Z" fill="#F4B32F"/>
<path d="M37.2814 30.3L34.6147 20.9667C34.452 20.3947 33.928 20 33.3333 20H29.3333V18.6667C29.3333 15.7253 26.9413 13.3334 24 13.3334C21.0586 13.3334 18.6667 15.7255 18.6667 18.6667V20H14.6667C14.072 20 13.5481 20.3947 13.3853 20.9667L10.7186 30.3C10.6027 30.7027 10.6839 31.1347 10.9359 31.4694C11.188 31.8041 11.5813 32 12 32H36C36.4186 32 36.812 31.8041 37.0641 31.4694C37.3159 31.1347 37.3959 30.7027 37.2814 30.3ZM13.768 29.3333L15.672 22.6666H20C20.7359 22.6666 21.3333 22.0692 21.3333 21.3333V18.6666C21.3333 17.1959 22.5292 15.9998 24 15.9998C25.4706 15.9998 26.6667 17.1958 26.6667 18.6666V21.3333C26.6667 22.0692 27.2641 22.6666 28 22.6666H32.328L34.2333 29.3333H13.768Z" fill="#F4B32F"/>
<path d="M36 38.6667H18.6667V41.3334H36V38.6667Z" fill="#F4B32F"/>
<path d="M14.932 35.2039L10.9335 40.5377L13.067 42.1371L17.0655 36.8033L14.932 35.2039Z" fill="#F4B32F"/>
<path d="M36 46.6667H18.6667V49.3334H36V46.6667Z" fill="#F4B32F"/>
<path d="M14.9298 43.1979L10.9313 48.5317L13.0638 50.1304L17.0623 44.7966L14.9298 43.1979Z" fill="#F4B32F"/>
<path d="M36 54.6667H18.6667V57.3334H36V54.6667Z" fill="#F4B32F"/>
<path d="M32 62.6667H18.6667V65.3334H32V62.6667Z" fill="#F4B32F"/>
<path d="M14.9292 51.1975L10.9307 56.5313L13.0632 58.1299L17.0617 52.7961L14.9292 51.1975Z" fill="#F4B32F"/>
<path d="M14.9283 59.1985L10.9298 64.5323L13.0622 66.1309L17.0607 60.7971L14.9283 59.1985Z" fill="#F4B32F"/>
<path d="M78.6667 0H36C35.2641 0 34.6667 0.597344 34.6667 1.33328V21.3333H37.3334V2.66672H77.3334V48H54.6667V50.6667H78.6667C79.4041 50.6667 80 50.0708 80 49.3334V1.33328C80 0.597344 79.4041 0 78.6667 0Z" fill="#F4B32F"/>
<path d="M78.6667 14.6667H36V17.3334H78.6667V14.6667Z" fill="#F4B32F"/>
<path d="M62.6667 0H52C51.2627 0 50.6667 0.597344 50.6667 1.33328V24C50.6667 24.7359 51.2627 25.3333 52 25.3333H62.6667C63.4041 25.3333 64 24.7359 64 24V1.33328C64 0.597344 63.4041 0 62.6667 0ZM61.3333 22.6667H53.3333V2.66672H61.3333V22.6667Z" fill="#F4B32F"/>
<path d="M74.6667 42.6667H72V45.3334H74.6667V42.6667Z" fill="#F4B32F"/>
<path d="M69.3334 42.6667H66.6667V45.3334H69.3334V42.6667Z" fill="#F4B32F"/>
<path d="M60.9427 43.0573L56.9427 39.0573C56.4213 38.5359 55.5786 38.5359 55.0573 39.0573L31.0573 63.0573C30.8067 63.3067 30.6667 63.6453 30.6667 64V68C30.6667 68.7373 31.2641 69.3333 32 69.3333H36C36.3533 69.3333 36.6933 69.1933 36.9427 68.9427L60.9427 44.9427C61.4641 44.4214 61.4641 43.5786 60.9427 43.0573ZM35.448 66.6667H33.3333V64.552L56 41.8853L58.1147 44L35.448 66.6667Z" fill="#F4B32F"/>
<path d="M52.9417 43.0579L51.0561 44.9436L55.0564 48.9439L56.9421 47.0582L52.9417 43.0579Z" fill="#F4B32F"/>
</g>
<defs>
<clipPath id="clip0_504_278">
<rect width="80" height="80" fill="white"/>
</clipPath>
</defs>
</svg>
