<svg width="80" height="80" viewBox="0 0 80 80" fill="none" xmlns="http://www.w3.org/2000/svg">
<g clip-path="url(#clip0_504_339)">
<path d="M0.253094 7.33858L5.58846 16.6749C5.76842 16.9904 6.06965 17.2187 6.4219 17.307L11.3995 18.5514L28.4717 35.6236L30.358 33.7378L13.0187 16.3989C12.848 16.2277 12.6341 16.1065 12.3998 16.0478L7.61692 14.8478L3.07441 6.89415L6.96893 2.99962L14.9259 7.54653L16.1264 12.3294C16.1846 12.5642 16.3064 12.7787 16.477 12.9494L33.8164 30.2887L35.7022 28.4024L18.63 11.3302L17.3856 6.35534C17.2973 6.00254 17.069 5.70077 16.7535 5.52025L7.41666 0.185442C6.89596 -0.110845 6.24084 -0.0230559 5.81616 0.399976L0.481345 5.73534C0.0522774 6.15727 -0.0409981 6.81349 0.253094 7.33858Z" fill="#F4B32F"/>
<path d="M55.7054 26.2867L26.3626 55.6301L24.4762 53.7437L53.8196 24.4009L55.7054 26.2867Z" fill="#F4B32F"/>
<path d="M21.2269 56.6682C20.9855 56.2666 20.552 56.0213 20.0835 56.0213H12.081C11.613 56.0213 11.179 56.2666 10.9381 56.6682L6.93656 63.3368C6.68252 63.7593 6.68252 64.2877 6.93656 64.7107L10.9381 71.3794C11.179 71.7805 11.613 72.0263 12.081 72.0263H20.0835C20.552 72.0263 20.9855 71.7805 21.2269 71.3794L25.2279 64.7107C25.4819 64.2877 25.4819 63.7593 25.2279 63.3368L21.2269 56.6682ZM19.329 69.3586H12.836L9.63497 64.0238L12.836 58.6884H19.329L22.53 64.0238L19.329 69.3586Z" fill="#F4B32F"/>
<path d="M64.098 32.0133C72.9071 32.0429 80.0728 24.9254 80.1024 16.1164C80.1068 14.7754 79.9422 13.4399 79.6125 12.1401C79.4347 11.4252 78.711 10.9901 77.9961 11.1678C77.7612 11.2265 77.5472 11.3478 77.3761 11.5184L69.0734 19.8156L62.486 17.6203L60.2891 11.0345L68.5917 2.73023C69.1124 2.20898 69.1118 1.36457 68.5906 0.843869C68.4189 0.672132 68.2027 0.550326 67.9662 0.492165C59.4233 -1.67128 50.7448 3.50003 48.5813 12.0424C48.2527 13.3384 48.0886 14.6706 48.093 16.0077C48.0963 17.0579 48.2044 18.1048 48.4173 19.133L19.2072 48.3425C18.179 48.1302 17.1321 48.0221 16.0825 48.0182C7.24272 48.0182 0.0769653 55.184 0.0769653 64.0238C0.0769653 72.863 7.24272 80.0288 16.0825 80.0288C24.9217 80.0288 32.0875 72.863 32.0875 64.0238C32.0842 62.9736 31.9756 61.9267 31.7632 60.8985L38.7561 53.9056L41.8145 56.9639C42.3357 57.4846 43.1796 57.4846 43.7008 56.9639L44.3675 56.2967C44.9524 55.7157 45.8978 55.7157 46.4826 56.2967C47.067 56.8794 47.0681 57.8254 46.4854 58.4097C46.4848 58.4102 46.4837 58.4113 46.4826 58.4124L45.816 59.0791C45.2953 59.5998 45.2953 60.4442 45.816 60.9649L61.7266 76.8755C65.9114 81.0987 72.7271 81.1294 76.9503 76.9446C81.1729 72.7599 81.2036 65.9436 77.0189 61.721C76.9964 61.6979 76.9733 61.6749 76.9503 61.6518L61.0397 45.7418C60.519 45.2211 59.6746 45.2211 59.1539 45.7418L58.4872 46.4084C57.9018 46.99 56.9569 46.99 56.3715 46.4084C55.7877 45.8257 55.7861 44.8798 56.3688 44.296C56.3699 44.2949 56.371 44.2944 56.3715 44.2933L57.0387 43.6261C57.5594 43.1054 57.5594 42.261 57.0387 41.7403L53.9804 38.6819L60.9733 31.689C62.0015 31.9013 63.0484 32.01 64.098 32.0133ZM69.3384 77.3616C68.3695 77.36 67.4087 77.185 66.5018 76.8442L76.9185 66.427C78.4904 70.6085 76.3753 75.2723 72.1938 76.8442C71.2813 77.1872 70.314 77.3627 69.3384 77.3616ZM54.2284 42.6966C52.7513 44.4584 52.9829 47.0844 54.7447 48.5609C56.293 49.8585 58.5498 49.8574 60.0965 48.5571L75.0645 63.5382C75.2269 63.7012 75.3789 63.8729 75.5259 64.0474L64.1221 75.4511C63.9471 75.3046 63.7754 75.1526 63.6124 74.9897L48.6329 60.0091C50.11 58.2473 49.8784 55.6213 48.1166 54.1448C46.5682 52.8466 44.311 52.8483 42.7642 54.1481L40.6304 52.0143L52.094 40.5677L54.2284 42.6966ZM59.6142 29.2819L29.3573 59.5328C29.0253 59.8642 28.892 60.3454 29.005 60.8003C30.8349 67.9864 26.4926 75.2953 19.306 77.1246C12.1199 78.9545 4.81097 74.6122 2.98113 67.4256C1.15183 60.2395 5.49408 52.9306 12.6807 51.1007C14.8546 50.5477 17.1321 50.5477 19.306 51.1007C19.7608 51.2121 20.2409 51.0788 20.5734 50.749L50.8232 20.4976C51.1547 20.1662 51.288 19.685 51.1739 19.2307C49.3566 12.1286 53.6407 4.89806 60.7428 3.08029C62.0849 2.73736 63.4731 2.60568 64.8557 2.69182L57.82 9.73028C57.4628 10.0869 57.3377 10.6153 57.4974 11.0943L60.1645 19.0973C60.2979 19.4951 60.6106 19.8079 61.0089 19.9401L69.012 22.6078C69.4904 22.7675 70.0188 22.6429 70.376 22.2863L77.4117 15.2506C77.4276 15.5051 77.4359 15.757 77.4359 16.0077C77.4732 23.3364 71.5628 29.3077 64.2341 29.3456C63.1011 29.3511 61.9719 29.2117 60.8745 28.9308C60.4197 28.8172 59.9385 28.95 59.6071 29.2814H59.6142V29.2819Z" fill="#F4B32F"/>
<path d="M69.0438 67.0816L67.1574 68.9679L53.8201 55.6306L55.7059 53.7443L69.0438 67.0816Z" fill="#F4B32F"/>
</g>
<defs>
<clipPath id="clip0_504_339">
<rect width="80" height="80" fill="white"/>
</clipPath>
</defs>
</svg>
