<svg width="85" height="72" viewBox="0 0 85 72" fill="none" xmlns="http://www.w3.org/2000/svg">
<path d="M84.2832 65.2223V13.9236C84.2953 13.7997 84.2953 13.6758 84.2832 13.5519C84.2918 13.4524 84.2918 13.353 84.2832 13.2535L84.098 12.9551L83.8765 12.6567H83.6187L83.2865 12.4333C81.2516 11.7092 79.1821 11.0879 77.0849 10.5714V1.86195C77.0849 0.834125 76.2578 0 75.2386 0C62.164 0.134367 49.9183 6.48105 42.2009 17.124C34.5561 6.47232 22.3484 0.116917 9.3102 0C8.29101 0 7.4639 0.834125 7.4639 1.86195V10.3131C5.35286 10.8349 3.27124 11.4683 1.22596 12.2117L0.857393 12.4351H0.599569L0.378083 12.7335L0.192935 13.0319C0.186014 13.1314 0.186014 13.2308 0.192935 13.3303C0.115069 13.4594 0.0527759 13.5955 0.00778661 13.7404V65.2624C-0.00259554 65.3741 -0.00259554 65.4858 0.00778661 65.5975C0.0372027 65.6865 0.0752706 65.7737 0.11853 65.8575C0.177362 65.9901 0.251767 66.1158 0.340015 66.2292V66.4525L0.635907 66.6759L0.931798 66.8626H2.26071C15.2886 62.4442 29.6021 64.2678 41.1315 71.8133L41.4637 72H42.9034C54.4345 64.5976 68.6598 62.8333 81.6271 67.1977H82.956L83.2882 66.9743L83.546 66.7876V66.5276C83.8489 66.3775 84.1049 66.1454 84.2849 65.8575C84.2936 65.758 84.2936 65.6586 84.2849 65.5591C84.2953 65.4474 84.2953 65.3357 84.2849 65.224L84.2832 65.2223ZM3.6623 62.7286V15.3004C4.81818 14.9026 6.0502 14.5309 7.35316 14.1836V51.8571C7.35143 52.8849 8.17681 53.719 9.19599 53.7225C9.23406 53.7225 9.27213 53.7225 9.3102 53.719L9.34653 53.7557C18.8947 53.7522 28.0552 57.5686 34.8174 64.3655C24.8782 60.4531 13.951 59.879 3.6623 62.7269V62.7286ZM40.3546 64.7756C33.132 55.9108 22.5526 50.5082 11.1928 49.8852V3.76054C23.0112 4.56675 33.7878 10.8681 40.3546 20.8112V64.7773V64.7756ZM44.0835 64.9239V20.8095C50.7125 10.9152 61.4736 4.63131 73.2833 3.7588H73.3196V50.0318C61.9425 50.667 51.3441 56.0661 44.0835 64.9221V64.9239ZM80.7031 62.7269C70.423 59.9017 59.5166 60.4758 49.5843 64.3655C56.3759 57.5599 65.5555 53.7348 75.1296 53.719C76.1488 53.719 76.9759 52.8849 76.9759 51.8571V14.1836C78.2062 14.5064 79.4485 14.8781 80.7048 15.3004V62.7286L80.7031 62.7269Z" fill="#F4B32F"/>
</svg>
