<svg width="50" height="40" viewBox="0 0 50 40" fill="none" xmlns="http://www.w3.org/2000/svg">
<path d="M49.7963 11.2533L41.4276 0.382213C41.1179 -0.0198557 40.5529 -0.119038 40.1245 0.153331L34.7214 3.58961H27.6745C27.5834 3.58961 27.4926 3.60906 27.4048 3.63462L21.941 5.20742L16.2716 3.65675L10.7628 0.153331C10.3417 -0.11446 9.78704 -0.0236705 9.47385 0.364665L0.217494 11.8301C-0.115147 12.2421 -0.0602157 12.8437 0.34109 13.1889L5.19262 17.3641L9.54519 23.2296C8.27222 24.5857 8.29702 26.7246 9.62148 28.0494C10.2086 28.6361 10.9551 28.9676 11.723 29.0447C11.6963 29.2186 11.6826 29.3953 11.6826 29.5745C11.6826 30.5 12.043 31.3701 12.6973 32.0243C13.3519 32.6789 14.222 33.0394 15.1474 33.0394C15.16 33.0394 15.1722 33.0387 15.1844 33.0383C15.1841 33.0619 15.1829 33.0852 15.1829 33.1089C15.1829 34.0343 15.5434 34.9044 16.1976 35.559C16.8522 36.2133 17.7224 36.5737 18.6478 36.5737C18.8305 36.5737 19.0114 36.5589 19.1887 36.5314C19.2639 37.302 19.5961 38.0519 20.1851 38.6409C20.8603 39.3165 21.7476 39.6541 22.6349 39.6541C23.5222 39.6541 24.4095 39.3165 25.0851 38.6409L25.615 38.1111L25.8374 38.2904C26.5072 38.9392 27.377 39.2635 28.2467 39.2635C29.134 39.2635 30.0213 38.9259 30.6965 38.2503C31.3858 37.561 31.7234 36.6512 31.7093 35.746C32.6142 35.7597 33.5244 35.4225 34.2137 34.7335C34.9022 34.0446 35.2398 33.1356 35.2265 32.2307C36.1691 32.2456 37.0633 31.8836 37.7304 31.2164C38.4198 30.5271 38.7574 29.6173 38.7432 28.712C39.6489 28.7258 40.5583 28.3886 41.2476 27.6992C42.424 26.5228 42.5755 24.7043 41.7031 23.3619L44.8811 16.7061L49.659 12.5946C50.0538 12.2547 50.1141 11.6657 49.7963 11.2533ZM10.4493 2.27773L14.4104 4.79658L5.79343 15.2946L2.34037 12.3226L10.4493 2.27773ZM11.0081 24.5357L12.2036 23.3402C12.2399 23.304 12.278 23.2696 12.3169 23.2376C12.5508 23.0468 12.8338 22.9332 13.1337 22.9061C13.1421 22.9053 13.1508 22.9053 13.1592 22.9049C13.202 22.9015 13.2447 22.8992 13.2878 22.8996C13.6975 22.9053 14.0782 23.0728 14.3605 23.3707C14.9144 23.9563 14.8846 24.913 14.2941 25.5035L13.1348 26.6628C12.5485 27.2491 11.5944 27.2491 11.0081 26.6628C10.4218 26.0761 10.4218 25.122 11.0081 24.5357ZM14.0839 30.6377C13.7997 30.3539 13.6433 29.9762 13.6433 29.5745C13.6433 29.1729 13.7997 28.7952 14.0839 28.511L16.4021 26.1928C16.8461 25.7488 17.5442 25.6271 18.1118 25.8976C18.697 26.1764 19.0262 26.8116 18.9404 27.4505C18.8946 27.7916 18.7359 28.1128 18.4926 28.3565L16.211 30.6377C15.9268 30.9219 15.5491 31.0783 15.1474 31.0783C14.7458 31.0783 14.3681 30.9219 14.0839 30.6377ZM17.5843 34.172C17.3001 33.8882 17.1437 33.5105 17.1437 33.1089C17.1437 32.7072 17.3001 32.3295 17.5843 32.0453L19.9021 29.7271C20.377 29.2526 21.1388 29.1504 21.7202 29.4887C22.2512 29.7977 22.5293 30.4042 22.4381 31.0085C22.3881 31.3408 22.2302 31.6532 21.9925 31.8908L19.7113 34.172C19.4272 34.4562 19.0495 34.6126 18.6478 34.6126C18.2461 34.6126 17.8685 34.4562 17.5843 34.172ZM21.5714 37.2543C20.9851 36.668 20.9851 35.7139 21.5714 35.1276L22.7669 33.9321C22.8032 33.8958 22.8409 33.8619 22.8798 33.8298C22.881 33.8291 22.8817 33.8283 22.8825 33.8275C23.0771 33.6696 23.3056 33.564 23.5493 33.5178C23.555 33.517 23.5608 33.5163 23.5665 33.5155C23.6084 33.5079 23.6512 33.5018 23.6939 33.498C23.7111 33.4964 23.7282 33.4964 23.7458 33.4953C23.7809 33.4934 23.8156 33.4911 23.8511 33.4915C24.2604 33.4972 24.6415 33.6643 24.9237 33.9626C24.9585 33.9992 24.9909 34.0374 25.0206 34.0766C25.4715 34.666 25.4109 35.5415 24.8513 36.1015L23.6981 37.2547C23.1118 37.841 22.1577 37.8406 21.5714 37.2543ZM39.8609 26.3126C39.2746 26.8993 38.3206 26.8989 37.7343 26.3126C37.7129 26.2912 37.6904 26.2714 37.6675 26.2527L31.3633 19.8822C30.9822 19.4973 30.3616 19.4942 29.9767 19.8753C29.5918 20.256 29.5887 20.8767 29.9694 21.2616L36.3419 27.7004C36.3427 27.7012 36.3434 27.7019 36.3442 27.7027C36.9305 28.289 36.9305 29.2434 36.3442 29.8297C36.06 30.1139 35.6823 30.2703 35.2806 30.2703C34.8786 30.2703 34.5009 30.1139 34.2171 29.8297L29.9542 25.5226C29.5735 25.1377 28.9528 25.1346 28.5679 25.5153C28.183 25.8964 28.18 26.5171 28.5607 26.902L32.7584 31.1431C32.7797 31.1699 32.8026 31.1954 32.827 31.2198C33.4134 31.8061 33.4134 32.7606 32.827 33.3469C32.2403 33.9332 31.2859 33.9328 30.6996 33.3465L28.373 30.9955C27.9919 30.6106 27.3713 30.6072 26.9864 30.9883C26.6015 31.369 26.5984 31.9896 26.9791 32.3745L29.2408 34.6595C29.2622 34.6862 29.2851 34.7122 29.3099 34.7366C29.8962 35.3229 29.8962 36.2773 29.3099 36.8637C28.7236 37.4504 27.7695 37.45 27.1832 36.8637C27.1157 36.7961 27.0363 36.7443 26.9608 36.6863C26.8967 36.6375 26.8799 36.6035 26.912 36.5257C26.9444 36.4467 26.9928 36.3754 27.0253 36.296C27.0611 36.2075 27.0901 36.1164 27.1183 36.0248C27.2686 35.5403 27.3129 35.0193 27.2454 34.5165C27.1157 33.5517 26.585 32.6812 25.7809 32.1304C25.3464 31.8332 24.8436 31.6383 24.3226 31.5651C24.5751 30.4512 24.2718 29.2434 23.4829 28.4099C22.8337 27.724 21.9567 27.3391 21.0133 27.3262C20.979 27.3258 20.9446 27.3258 20.9099 27.3262C20.9309 26.4259 20.6036 25.5314 19.983 24.8756C19.3333 24.1897 18.4563 23.8048 17.5133 23.7918C17.2329 23.788 16.9499 23.8178 16.6768 23.8807C16.56 23.0686 16.1507 22.3171 15.5308 21.7796C14.9148 21.2463 14.14 20.9503 13.3149 20.9388C12.4463 20.9263 11.5929 21.2467 10.9478 21.8292L7.15795 16.7225L16.2247 5.67663L19.1143 6.46703L15.3405 13.1263C14.8842 13.9316 14.769 14.8662 15.0158 15.7581C15.2627 16.6504 15.8417 17.3927 16.647 17.8489C16.6974 17.8775 16.7481 17.9046 16.7996 17.9306C16.8034 17.9325 16.8072 17.9344 16.8114 17.9363C16.9468 18.0038 17.0861 18.0618 17.2272 18.1106C17.8845 18.3384 18.5944 18.3632 19.2791 18.1739C20.171 17.9271 20.9134 17.3477 21.3696 16.5428L23.8221 12.215L28.201 12.5255L39.8613 24.1855C40.4473 24.7722 40.4473 25.7263 39.8609 26.3126ZM40.2672 21.8185L29.3286 10.8803C29.308 10.8593 29.2862 10.8394 29.2637 10.8207C29.1062 10.6895 28.9109 10.6102 28.7049 10.5957L23.3433 10.2154C22.9725 10.1898 22.604 10.387 22.4209 10.7101L19.6637 15.5761C19.4657 15.9256 19.1433 16.177 18.7561 16.2841C18.3693 16.3913 17.9635 16.341 17.6136 16.143C17.2642 15.945 17.0128 15.6227 16.9056 15.2355C16.7984 14.8483 16.8484 14.4424 17.0468 14.093L20.7276 7.59695L22.2191 7.16779C22.229 7.16474 22.2386 7.16093 22.2485 7.15787L27.8153 5.55036H34.5414L42.9383 16.2246L40.2672 21.8185ZM44.2227 14.6858L36.4575 4.80917L40.4206 2.2888L47.6765 11.7138L44.2227 14.6858Z" fill="#F4B32F"/>
</svg>
