<svg width="115" height="116" viewBox="0 0 115 116" fill="none" xmlns="http://www.w3.org/2000/svg">
<g id="Isolation_Mode" clip-path="url(#clip0_117_15253)">
<path id="Shape" d="M109.25 27.3341H76.6659C76.6659 24.8993 76.9152 23.098 75.2868 21.182L65.8577 10.1807C64.7481 8.93857 63.1534 8.24004 61.4868 8.26475H55.5841C52.4081 8.26475 49.8341 10.8388 49.8341 14.0147V27.4307H38.3341V19.6682C38.3341 9.08232 29.7518 0.5 19.1659 0.5C8.58008 0.5 0 9.08232 0 19.6659V96.3318C0 106.918 8.58232 115.498 19.1659 115.498H109.25C112.426 115.498 115 112.924 115 109.748V33.0841C115 29.9081 112.426 27.3341 109.25 27.3341ZM95.8341 94.4182H92V86.7523C92 83.5763 89.426 81.0023 86.25 81.0023C83.074 81.0023 80.5 83.5763 80.5 86.7523V94.4182H76.6659V58.0023C76.6659 56.9443 77.5239 56.0863 78.5818 56.0863H93.9159C94.9738 56.0863 95.8318 56.9443 95.8318 58.0023V94.4182H95.8341ZM88.1682 94.4182H84.3341V86.7523C84.3341 85.6943 85.1921 84.8363 86.25 84.8363C87.3079 84.8363 88.1659 85.6943 88.1659 86.7523V94.4182H88.1682ZM55.5841 12H61.4868C62.0461 12 62.5784 12.2448 62.9445 12.6716C73.1036 24.5354 72.8341 23.9425 72.8341 24.9195V94.4182H69V86.7523C69 83.5763 66.426 81.0023 63.25 81.0023C60.074 81.0023 57.5 83.5763 57.5 86.7523V94.4182H53.6659V79.0841H61.3318C62.3897 79.0841 63.2478 78.2261 63.2478 77.1682C63.2478 76.1103 62.3897 75.2523 61.3318 75.2523H53.6659V71.4182H61.3318C62.3897 71.4182 63.2478 70.5602 63.2478 69.5023C63.2478 68.4443 62.3897 67.5863 61.3318 67.5863H53.6659V63.7522H61.3318C62.3897 63.7522 63.2478 62.8942 63.2478 61.8363C63.2478 60.7784 62.3897 59.9204 61.3318 59.9204H53.6659V56.0863H61.3318C62.3897 56.0863 63.2478 55.2283 63.2478 54.1704C63.2478 53.1125 62.3897 52.2545 61.3318 52.2545H53.6659V48.4204H61.3318C62.3897 48.4204 63.2478 47.5624 63.2478 46.5045C63.2478 45.4466 62.3897 44.5886 61.3318 44.5886H53.6659V40.7545H61.3318C62.3897 40.7545 63.2478 39.8965 63.2478 38.8386C63.2478 37.7807 62.3897 36.9227 61.3318 36.9227H53.6659V33.0886H61.3318C62.3897 33.0886 63.2478 32.2306 63.2478 31.1727C63.2478 30.1147 62.3897 29.2567 61.3318 29.2567H53.6659V25.4227H61.3318C62.3897 25.4227 63.2478 24.5646 63.2478 23.5067C63.2478 22.4488 62.3897 21.5908 61.3318 21.5908H53.6659V13.9249C53.6659 12.867 54.5239 12.009 55.5818 12.009L55.5841 12ZM65.1682 94.4159H61.3341V86.75C61.3341 85.6921 62.1921 84.8341 63.25 84.8341C64.3079 84.8341 65.1659 85.6921 65.1659 86.75V94.4159H65.1682ZM3.83408 19.6659C3.83408 11.1981 10.6981 4.33184 19.1682 4.33184C27.6382 4.33184 34.5022 11.1959 34.5022 19.6659V84.8318C30.8613 80.0207 25.1675 77.2064 19.1345 77.2311C13.1015 77.258 7.43232 80.1218 3.83408 84.9644V19.6659ZM111.168 109.75C111.168 110.808 110.31 111.666 109.252 111.666H19.1659C10.6981 111.666 3.83184 104.802 3.83184 96.3318C3.83184 87.8618 10.6959 80.9978 19.1659 80.9978C27.6359 80.9978 34.5 87.8618 34.5 96.3318C34.5 97.3898 35.358 98.2478 36.4159 98.2478C37.4738 98.2478 38.3318 97.3898 38.3318 96.3318V31.1659H49.8318V94.4159H45.9978C44.9398 94.4159 44.0818 95.2739 44.0818 96.3318C44.0818 97.3898 44.9398 98.2478 45.9978 98.2478H103.498C104.556 98.2478 105.414 97.3898 105.414 96.3318C105.414 95.2739 104.556 94.4159 103.498 94.4159H99.6637V58C99.6637 54.824 97.0896 52.25 93.9137 52.25C77.3914 52.25 78.0428 52.1152 76.6637 52.5959V31.1682H109.248C110.306 31.1682 111.164 32.0262 111.164 33.0841V109.75H111.168Z" fill="#F4B32F"/>
</g>
<defs>
<clipPath id="clip0_117_15253">
<rect width="115" height="115" fill="white" transform="translate(0 0.5)"/>
</clipPath>
</defs>
</svg>
