<svg width="80" height="80" viewBox="0 0 80 80" fill="none" xmlns="http://www.w3.org/2000/svg">
<g id="Layer_1" clip-path="url(#clip0_121_76)">
<path id="Vector" d="M53.2084 80C52.5439 80 51.9686 79.6685 51.6324 79.09L34.8598 50.2454C34.4901 49.6096 34.5347 48.8191 34.9729 48.2279L40.525 40.7522C40.7943 40.3888 40.7577 39.8821 40.4374 39.5618C40.117 39.2414 39.6103 39.2048 39.2469 39.4741L31.7714 45.0263C31.4527 45.2637 31.075 45.3881 30.6766 45.3881C30.3531 45.3881 30.0344 45.302 29.7539 45.1394L0.909853 28.3665C0.267635 27.9936 -0.0686136 27.3291 0.0110661 26.588C0.0891522 25.847 0.557669 25.2669 1.26363 25.0359L77.5888 0.0940239C77.78 0.0318725 77.9761 0 78.1689 0C78.7458 0 79.3003 0.288446 79.6509 0.771315C79.8533 1.0502 80.1561 1.63506 79.9043 2.40956L54.963 78.7378C54.6586 79.6701 53.8283 80 53.2084 80ZM53.0921 25.0693C53.5829 25.0693 54.0435 25.2606 54.3909 25.6064C55.0299 26.2454 55.1048 27.2733 54.5662 27.9984L38.6398 49.4438L52.7463 73.7036L75.2924 4.70598L6.2962 27.2526L30.5539 41.3594L51.9989 25.4327C52.3176 25.1952 52.6953 25.0709 53.0921 25.0709V25.0693ZM24.315 76.2231C23.4146 76.2231 22.8505 75.6351 22.6226 75.0837C22.3293 74.3761 22.4776 73.6303 23.0178 73.09L29.9133 66.1944C30.2591 65.847 30.7212 65.6574 31.2104 65.6574C31.6997 65.6574 32.1618 65.8486 32.5076 66.1944C32.855 66.5418 33.0447 67.0024 33.0447 67.4916C33.0447 67.9809 32.8534 68.443 32.5076 68.7888L25.6122 75.6845C25.2663 76.0303 24.8042 76.2215 24.315 76.2215V76.2231ZM7.50096 74.3331C7.01013 74.3331 6.54958 74.1418 6.20377 73.796C5.85637 73.4486 5.66673 72.9881 5.66673 72.4988C5.66673 72.0096 5.85796 71.5474 6.20377 71.2016L23.6791 53.7259C24.0265 53.3801 24.4871 53.1888 24.9779 53.1888C25.4687 53.1888 25.9293 53.3801 26.2751 53.7259C26.6225 54.0733 26.8121 54.5339 26.8121 55.0231C26.8121 55.5124 26.6209 55.9745 26.2751 56.3203L8.79974 73.796C8.45393 74.1418 7.99178 74.3331 7.50255 74.3331H7.50096ZM5.61255 57.5187C5.12172 57.5187 4.66117 57.3275 4.31536 56.9817C3.96796 56.6343 3.77832 56.1737 3.77832 55.6845C3.77832 55.1952 3.96955 54.7331 4.31536 54.3873L11.2108 47.4916C11.5567 47.1458 12.0188 46.9546 12.508 46.9546C12.9973 46.9546 13.4594 47.1458 13.8052 47.4916C14.151 47.8375 14.3423 48.2996 14.3423 48.7888C14.3423 49.2781 14.151 49.7402 13.8052 50.0861L6.90973 56.9817C6.56392 57.3275 6.10178 57.5187 5.61255 57.5187Z" fill="#F4B32F"/>
</g>
<defs>
<clipPath id="clip0_121_76">
<rect width="80" height="80" fill="white"/>
</clipPath>
</defs>
</svg>
