<svg width="160" height="160" viewBox="0 0 160 160" fill="none" xmlns="http://www.w3.org/2000/svg">
<g id="house-plan">
<rect width="160" height="160" rx="80" fill="#FFF9ED"/>
<g id="Group">
<path id="Vector" d="M121.237 33H56.3295C55.5728 33 54.9595 33.6134 54.9595 34.37C54.9595 35.1266 55.5728 35.74 56.3295 35.74H121.237C121.801 35.74 122.26 36.1988 122.26 36.7627V59.3497H119.155V40.2152C119.155 39.4586 118.542 38.8453 117.785 38.8453H42.2152C41.4585 38.8453 40.8453 39.4586 40.8453 40.2152V100.508C40.8453 101.265 41.4585 101.878 42.2152 101.878H51.9047V104.983H38.7627C38.1988 104.983 37.74 104.524 37.74 103.961V36.7627C37.74 36.1988 38.1988 35.74 38.7627 35.74H50.8496C51.6064 35.74 52.2196 35.1266 52.2196 34.37C52.2196 33.6134 51.6064 33 50.8496 33H38.7627C36.688 33 35 34.688 35 36.7627V103.961C35 106.035 36.6878 107.723 38.7627 107.723H87.9811C88.5449 107.723 89.0038 108.182 89.0038 108.746V122.761C89.0038 124.836 90.6916 126.524 92.7665 126.524H103.438C104.194 126.524 104.808 125.911 104.808 125.154C104.808 124.398 104.194 123.784 103.438 123.784H92.7665C92.2026 123.784 91.7438 123.325 91.7438 122.761V108.746C91.7438 106.671 90.0559 104.983 87.9811 104.983H73.687V101.878H87.9811C91.7681 101.878 94.8491 104.959 94.8491 108.746V119.309C94.8491 120.065 95.4623 120.679 96.219 120.679H117.785C118.542 120.679 119.155 120.065 119.155 119.309V81.1321H122.26V122.761C122.26 123.325 121.801 123.784 121.237 123.784H107.091C106.334 123.784 105.721 124.398 105.721 125.154C105.721 125.911 106.334 126.524 107.091 126.524H121.237C123.312 126.524 125 124.836 125 122.761V36.7627C125 34.688 123.312 33 121.237 33ZM116.415 109.887H110.783C110.128 109.887 109.596 109.355 109.596 108.7V93.0997C109.596 92.445 110.128 91.9124 110.783 91.9124H116.415V109.887ZM110.22 41.5852V43.1297C110.22 44.4532 109.143 45.5299 107.82 45.5299H102.375C101.051 45.5299 99.9744 44.4531 99.9744 43.1297V41.5852H110.22ZM90.9846 41.9506V49.0891C90.9846 50.6109 89.7467 51.849 88.2249 51.849C86.7031 51.849 85.465 50.6109 85.465 49.0891V41.9506H90.9846ZM51.6442 47.6643H65.8041V64.3047H51.6442V47.6643ZM65.804 41.5852V44.9243H51.644V41.5852H65.804ZM66.3046 83.6452V92.3252H49.6645V83.6452H66.3046ZM46.9245 92.325H43.5854V83.645H46.9245V92.325ZM70.9471 104.983H54.6446V101.878H70.9471V104.983ZM97.589 117.939V108.746C97.589 103.448 93.2789 99.138 87.9811 99.138H84.1219V79.5168H100.914V79.9868C100.914 80.7433 101.527 81.3567 102.284 81.3567C103.041 81.3567 103.654 80.7433 103.654 79.9868V76.102C103.654 75.3454 103.041 74.732 102.284 74.732C101.527 74.732 100.914 75.3454 100.914 76.102V76.7768H82.7519C81.9953 76.7768 81.3819 77.3902 81.3819 78.1468V99.138H43.5852V95.065H66.5986C67.9473 95.065 69.0446 93.9677 69.0446 92.6189V83.3511C69.0446 82.0023 67.9473 80.905 66.5986 80.905H43.5852V77.5003H68.6793V77.833C68.6793 78.5896 69.2925 79.2029 70.0493 79.2029C70.806 79.2029 71.4193 78.5896 71.4193 77.833V74.3706C71.4193 73.614 70.806 73.0006 70.0493 73.0006C69.2925 73.0006 68.6793 73.614 68.6793 74.3706V74.7605H43.5852V41.5852H48.904V64.5986C48.904 65.9473 50.0013 67.0446 51.3501 67.0446H66.0979C67.4467 67.0446 68.5439 65.9473 68.5439 64.5986V41.5852H75.8735V64.3047H75.5409C74.7841 64.3047 74.1709 64.918 74.1709 65.6746C74.1709 66.4312 74.7841 67.0446 75.5409 67.0446H79.0035C79.7601 67.0446 80.3735 66.4312 80.3735 65.6746C80.3735 64.918 79.7601 64.3047 79.0035 64.3047H78.6135V41.5852H82.7249V49.0891C82.7249 52.1217 85.1921 54.5889 88.2247 54.5889C91.2573 54.5889 93.7244 52.1217 93.7244 49.0891V41.5852H97.2347V43.1297C97.2347 45.9641 99.5406 48.2698 102.375 48.2698H107.82C110.655 48.2698 112.96 45.9639 112.96 43.1297V41.5852H116.415V89.1726H110.783C108.617 89.1726 106.856 90.9344 106.856 93.0999V108.7C106.856 110.865 108.617 112.627 110.783 112.627H116.415V117.939H97.589ZM119.155 78.3921V62.0897H122.26V78.3921H119.155Z" fill="#F4B32F"/>
<path id="Vector_2" d="M110.464 61.814C110.464 59.1201 108.272 56.9285 105.578 56.9285C102.884 56.9285 100.693 59.1201 100.693 61.814C100.693 64.5078 102.884 66.6994 105.578 66.6994C108.272 66.6994 110.464 64.5078 110.464 61.814ZM105.578 63.9594C104.395 63.9594 103.433 62.9969 103.433 61.814C103.433 60.6309 104.395 59.6684 105.578 59.6684C106.761 59.6684 107.724 60.6309 107.724 61.814C107.724 62.9969 106.761 63.9594 105.578 63.9594Z" fill="#F4B32F"/>
</g>
</g>
</svg>
