<svg width="72" height="72" viewBox="0 0 72 72" fill="none" xmlns="http://www.w3.org/2000/svg">
<g id="Group">
<g id="Group_2">
<path id="Vector" d="M70.5938 69.1875H69.1875V33.4601C69.1875 32.6835 68.5578 32.0538 67.7812 32.0538H61.0491V13.938C61.0491 13.4175 60.7617 12.9395 60.3018 12.6957L36.6768 0.164017C36.2409 -0.0671701 35.7158 -0.0532483 35.2931 0.201283C34.8702 0.455674 34.6116 0.912986 34.6116 1.4063V15.75H20.3804C19.6038 15.75 18.9741 16.3798 18.9741 17.1563V31.7422C18.9741 32.5187 19.6038 33.1485 20.3804 33.1485C21.1569 33.1485 21.7866 32.5187 21.7866 31.7422V18.5625H40.9116V24.1788H36.0179C35.2413 24.1788 34.6116 24.8085 34.6116 25.5851C34.6116 26.3616 35.2413 26.9913 36.0179 26.9913H40.9116V32.0538H36.0179C35.2413 32.0538 34.6116 32.6835 34.6116 33.4601C34.6116 34.2366 35.2413 34.8663 36.0179 34.8663H40.9116V39.9288H36.0179C35.2413 39.9288 34.6116 40.5585 34.6116 41.3351C34.6116 42.1116 35.2413 42.7413 36.0179 42.7413H40.9116V47.8038H36.0179C35.2413 47.8038 34.6116 48.4335 34.6116 49.2101C34.6116 49.9866 35.2413 50.6163 36.0179 50.6163H40.9116V55.6788H36.0179C35.2413 55.6788 34.6116 56.3085 34.6116 57.0851C34.6116 57.8616 35.2413 58.4913 36.0179 58.4913H40.9116V63.5538H36.0179C35.2413 63.5538 34.6116 64.1835 34.6116 64.9601C34.6116 65.7366 35.2413 66.3663 36.0179 66.3663H40.9116V69.1875H33.75V43.3125C33.75 42.536 33.1203 41.9063 32.3438 41.9063H4.21875C3.44222 41.9063 2.8125 42.536 2.8125 43.3125V69.1875H1.40625C0.629719 69.1875 0 69.8173 0 70.5938C0 71.3703 0.629719 72.0001 1.40625 72.0001H70.5938C71.3703 72.0001 72 71.3703 72 70.5938C72 69.8173 71.3704 69.1875 70.5938 69.1875ZM30.9375 69.1875H5.625V44.7188H30.9375V69.1875ZM48.375 33.4601V69.1875H43.7241V17.1563C43.7241 16.3798 43.0944 15.75 42.3179 15.75H37.4241V3.74405L58.2366 14.784V32.0538H49.7812C49.0047 32.0538 48.375 32.6835 48.375 33.4601ZM66.375 39.9288H58.7812C58.0047 39.9288 57.375 40.5585 57.375 41.3351C57.375 42.1116 58.0047 42.7413 58.7812 42.7413H66.375V47.8038H58.7812C58.0047 47.8038 57.375 48.4335 57.375 49.2101C57.375 49.9866 58.0047 50.6163 58.7812 50.6163H66.375V55.6788H58.7812C58.0047 55.6788 57.375 56.3085 57.375 57.0851C57.375 57.8616 58.0047 58.4913 58.7812 58.4913H66.375V63.5538H62.1094C61.3329 63.5538 60.7032 64.1835 60.7032 64.9601C60.7032 65.7366 61.3329 66.3663 62.1094 66.3663H66.375V69.1875H51.1875V34.8663H66.375V39.9288Z" fill="#F4B32F"/>
</g>
</g>
</svg>
