<svg width="76" height="76" viewBox="0 0 76 76" fill="none" xmlns="http://www.w3.org/2000/svg">
<g clip-path="url(#clip0_207_1725)">
<path d="M72.2857 0.5H38H3.71431C1.94199 0.5 0.5 1.94199 0.5 3.71431V57.0436V63.719V72.2857C0.5 74.058 1.94199 75.5 3.71431 75.5H38H61.6004C62.2833 75.5 62.8367 74.9466 62.8367 74.2637C62.8367 73.5808 62.2833 73.0273 61.6004 73.0273H39.2363V64.9552H73.0275V72.2855C73.0275 72.6945 72.6947 73.0273 72.2857 73.0273H66.1334C65.4504 73.0273 64.897 73.5808 64.897 74.2637C64.897 74.9466 65.4504 75.5 66.1334 75.5H72.2857C74.058 75.5 75.5 74.058 75.5 72.2857V63.719V57.0436V3.71431C75.5 1.94199 74.058 0.5 72.2857 0.5ZM36.7637 73.0275H3.71431C3.30532 73.0275 2.97251 72.6947 2.97251 72.2857V64.9553H36.7637V73.0275ZM36.7637 55.8074H32.2613C31.5784 55.8074 31.025 56.3608 31.025 57.0437C31.025 57.7266 31.5784 58.28 32.2613 58.28H36.7637V62.483H2.97251V58.28H27.6463C28.3292 58.28 28.8827 57.7266 28.8827 57.0437C28.8827 56.3608 28.3292 55.8074 27.6463 55.8074H2.97251V3.71431C2.97251 3.30532 3.30532 2.97251 3.71431 2.97251H36.7637V55.8074ZM73.0275 62.4828H39.2363V58.2799H73.0275V62.4828ZM73.0275 55.8074H39.2363V2.97251H72.2858C72.6948 2.97251 73.0276 3.30532 73.0276 3.71431V55.8074H73.0275Z" fill="#F4B32F"/>
<path d="M66.9424 5.70117H45.3219C43.5496 5.70117 42.1076 7.14316 42.1076 8.91548V37.9264C42.1076 39.6987 43.5496 41.1407 45.3219 41.1407H66.9424C68.7147 41.1407 70.1567 39.6987 70.1567 37.9264V17.394C70.1567 16.7111 69.6033 16.1577 68.9204 16.1577C68.2375 16.1577 67.684 16.7111 67.684 17.394V37.9264C67.684 38.3354 67.3512 38.6682 66.9422 38.6682H45.3219C44.9129 38.6682 44.5801 38.3354 44.5801 37.9264V8.91548C44.5801 8.50649 44.9129 8.17368 45.3219 8.17368H66.9424C67.3514 8.17368 67.6842 8.50649 67.6842 8.91548V12.9439C67.6842 13.6269 68.2376 14.1803 68.9205 14.1803C69.6034 14.1803 70.1568 13.6269 70.1568 12.9439V8.91548C70.1567 7.14316 68.7147 5.70117 66.9424 5.70117Z" fill="#F4B32F"/>
<path d="M9.05775 41.1407H30.6784C32.4507 41.1407 33.8927 39.6987 33.8927 37.9264V8.91548C33.8927 7.14316 32.4507 5.70117 30.6784 5.70117H9.05775C7.28544 5.70117 5.84344 7.14316 5.84344 8.91548V37.9264C5.84344 39.6987 7.28544 41.1407 9.05775 41.1407ZM8.31595 8.91548C8.31595 8.50649 8.64877 8.17368 9.05775 8.17368H30.6784C31.0874 8.17368 31.4202 8.50649 31.4202 8.91548V37.9264C31.4202 38.3354 31.0874 38.6682 30.6784 38.6682H9.05775C8.64877 38.6682 8.31595 38.3354 8.31595 37.9264V8.91548Z" fill="#F4B32F"/>
<path d="M52.8355 44.8494H45.3219C43.5496 44.8494 42.1076 46.2914 42.1076 48.0637V48.6373C42.1076 50.4096 43.5496 51.8516 45.3219 51.8516H52.8355C54.6078 51.8516 56.0498 50.4096 56.0498 48.6373V48.0637C56.0498 46.2912 54.6078 44.8494 52.8355 44.8494ZM53.5773 48.6372C53.5773 49.0461 53.2445 49.379 52.8355 49.379H45.3219C44.9129 49.379 44.5801 49.0461 44.5801 48.6372V48.0635C44.5801 47.6545 44.9129 47.3217 45.3219 47.3217H52.8355C53.2445 47.3217 53.5773 47.6545 53.5773 48.0635V48.6372Z" fill="#F4B32F"/>
<path d="M30.6784 44.8494H23.1649C21.3926 44.8494 19.9506 46.2914 19.9506 48.0637V48.6373C19.9506 50.4096 21.3926 51.8516 23.1649 51.8516H30.6784C32.4507 51.8516 33.8927 50.4096 33.8927 48.6373V48.0637C33.8926 46.2912 32.4507 44.8494 30.6784 44.8494ZM31.4201 48.6372C31.4201 49.0461 31.0872 49.379 30.6783 49.379H23.1648C22.7558 49.379 22.423 49.0461 22.423 48.6372V48.0635C22.423 47.6545 22.7558 47.3217 23.1648 47.3217H30.6783C31.0872 47.3217 31.4201 47.6545 31.4201 48.0635V48.6372Z" fill="#F4B32F"/>
</g>
<defs>
<clipPath id="clip0_207_1725">
<rect width="75" height="75" fill="white" transform="translate(0.5 0.5)"/>
</clipPath>
</defs>
</svg>
