<svg width="72" height="72" viewBox="0 0 72 72" fill="none" xmlns="http://www.w3.org/2000/svg">
<g id="room">
<g id="Group 4">
<path id="Vector" d="M19.6986 57.9738C19.437 57.7121 19.0742 57.5618 18.7044 57.5618C18.3345 57.5618 17.9717 57.7121 17.7102 57.9738C17.4486 58.2354 17.2981 58.5982 17.2981 58.9694C17.2981 59.3393 17.4486 59.7007 17.7102 59.9622C17.9717 60.2252 18.3345 60.3757 18.7044 60.3757C19.0742 60.3757 19.437 60.2252 19.6986 59.9622C19.9602 59.7008 20.1106 59.3393 20.1106 58.9694C20.1106 58.598 19.9602 58.2366 19.6986 57.9738Z" fill="#F4B32F"/>
<path id="Vector_2" d="M70.5938 45.75H66.3751V42.3048H70.5845C71.0024 42.3048 71.3988 42.1189 71.6659 41.7976C71.9331 41.4761 72.0435 41.0524 71.967 40.6415L70.3503 31.9466C70.2264 31.2806 69.6452 30.7974 68.9677 30.7974H60.9697C60.2921 30.7974 59.7109 31.2806 59.587 31.9466L57.9704 40.6415C57.894 41.0524 58.0043 41.4761 58.2715 41.7976C58.5387 42.1189 58.935 42.3048 59.3529 42.3048H63.5622V45.75H59.3438C58.913 45.75 58.5281 45.9441 58.2701 46.2491C57.1846 45.2185 55.81 44.4909 54.2814 44.2022V37.0314C54.2814 34.085 51.8842 31.6878 48.9378 31.6878H39.9381C38.3812 31.6878 36.9783 32.3573 36.0007 33.4233C35.0231 32.3573 33.6201 31.6878 32.0633 31.6878H23.0636C20.1172 31.6878 17.72 34.085 17.72 37.0314V44.2019C16.1904 44.4903 14.8153 45.218 13.7295 46.2491C13.4717 45.9441 13.0868 45.75 12.6561 45.75H8.43722V42.3048H12.6465C13.0645 42.3048 13.4609 42.1189 13.728 41.7976C13.9951 41.4761 14.1055 41.0524 14.029 40.6415L12.4124 31.9466C12.2885 31.2806 11.7073 30.7974 11.0298 30.7974H3.03202C2.35448 30.7974 1.77328 31.2806 1.64939 31.9466L0.0327656 40.6414C-0.0435937 41.0523 0.0667969 41.476 0.333844 41.7975C0.601031 42.1188 0.997313 42.3047 1.41525 42.3047H5.62472V45.7499H1.40625C0.629578 45.7499 0 46.3796 0 47.1561V66.7962C0 67.5728 0.629578 68.2025 1.40625 68.2025H70.5938C71.3704 68.2025 72 67.5728 72 66.7962V47.1563C72 46.3796 71.3704 45.75 70.5938 45.75ZM3.10725 39.4923L4.20089 33.6097H9.86105L10.9547 39.4923H3.10725ZM11.2497 52.0077V65.3903H2.8125V48.5624H11.2497V52.0077ZM37.4071 37.0314C37.4071 35.6357 38.5426 34.5002 39.9383 34.5002H48.9381C50.3338 34.5002 51.4693 35.6357 51.4693 37.0314V44.0625H37.4072L37.4071 37.0314ZM20.5325 37.0314C20.5325 35.6357 21.6681 34.5002 23.0638 34.5002H32.0635C33.4592 34.5002 34.5947 35.6357 34.5947 37.0314V44.0625H20.5327L20.5325 37.0314ZM57.9379 57.5625H24.3072C23.5305 57.5625 22.9009 58.1922 22.9009 58.9688C22.9009 59.7453 23.5305 60.375 24.3072 60.375H57.9379V65.3903H14.0621V52.4999H23.3172C24.0938 52.4999 24.7234 51.8702 24.7234 51.0936C24.7234 50.3171 24.0938 49.6874 23.3172 49.6874H14.6188C15.4676 48.0203 17.1996 46.8749 19.1948 46.8749H36.0008H52.8051C55.6352 46.8749 57.9378 49.1775 57.9378 52.0075L57.9379 57.5625ZM61.0452 39.4923L62.1388 33.6097H67.7991L68.8927 39.4923H61.0452ZM69.1875 65.3901H60.7503V52.0075V48.5624H69.1875V65.3901Z" fill="#F4B32F"/>
<path id="Vector_3" d="M31.5647 3.79785H10.5542C9.77751 3.79785 9.14793 4.42757 9.14793 5.2041V19.8287C9.14793 20.6052 9.77751 21.2349 10.5542 21.2349H31.5647C32.3414 21.2349 32.9709 20.6052 32.9709 19.8287V5.2041C32.9709 4.42757 32.3414 3.79785 31.5647 3.79785ZM30.1586 18.4226H11.9604V6.61035H30.1586V18.4226Z" fill="#F4B32F"/>
<path id="Vector_4" d="M61.4476 3.79785H40.4371C39.6605 3.79785 39.0309 4.42757 39.0309 5.2041V19.8287C39.0309 20.6052 39.6605 21.2349 40.4371 21.2349H61.4476C62.2243 21.2349 62.8539 20.6052 62.8539 19.8287V5.2041C62.8539 4.42757 62.2243 3.79785 61.4476 3.79785ZM60.0414 18.4226H41.8432V6.61035H60.0414V18.4226Z" fill="#F4B32F"/>
</g>
<g id="Group">
<g id="Group_2">
<path id="Vector_5" d="M30.6868 50.0988C30.4252 49.8372 30.0624 49.6868 29.6926 49.6868C29.3213 49.6868 28.9599 49.8371 28.6969 50.0988C28.4354 50.3618 28.2863 50.7232 28.2863 51.093C28.2863 51.4629 28.4354 51.8257 28.6969 52.0871C28.9599 52.3501 29.3213 52.4993 29.6926 52.4993C30.0624 52.4993 30.4252 52.3501 30.6868 52.0871C30.9483 51.8257 31.0988 51.4641 31.0988 51.093C31.0988 50.7232 30.9483 50.3604 30.6868 50.0988Z" fill="#F4B32F"/>
</g>
</g>
</g>
</svg>
