<svg width="76" height="75" viewBox="0 0 76 75" fill="none" xmlns="http://www.w3.org/2000/svg">
<g clip-path="url(#clip0_207_1850)">
<path d="M72.8825 31.9911C72.2483 30.2075 70.2403 25.2257 66.0741 20.1945C63.0747 16.5724 59.5757 13.6843 55.6741 11.6102C52.5176 9.93225 49.0942 8.79304 45.4487 8.19539C45.1434 5.06737 42.4992 2.6145 39.2924 2.6145C36.0866 2.6145 33.443 5.06591 33.1364 8.19246C29.7713 8.74397 26.5959 9.75896 23.6472 11.2308C19.8328 13.1348 16.3819 15.806 13.3904 19.1701C12.4481 20.2298 14.0894 21.6905 15.0322 20.6304C20.2639 14.747 26.7464 11.2626 34.3495 10.2284C34.355 10.2277 34.3605 10.2279 34.366 10.227C41.214 9.29138 48.4581 10.2755 54.5991 13.5271C58.241 15.4554 61.5149 18.1491 64.33 21.5335C67.7419 25.6352 69.6556 29.785 70.492 31.8906H8.09226C8.75993 30.2077 10.1145 27.2206 12.3686 24.0039C13.1777 22.8493 11.3881 21.5743 10.5694 22.7427C7.70158 26.8349 6.22898 30.514 5.70281 31.9909C4.2015 32.361 3.08471 33.7181 3.08471 35.332C3.08471 37.2295 4.6285 38.7731 6.52605 38.7731H23.117L13.5136 51.1273H1.59863C0.991893 51.1273 0.5 51.6192 0.5 52.2259C0.5 52.2259 0.5 71.2035 0.5 71.2864C0.5 71.6062 0.645898 71.8999 0.873241 72.1031C1.0685 72.2777 1.32397 72.3853 1.59863 72.3853C1.64155 72.3853 1.68461 72.3828 1.72768 72.3777L14.1803 70.9053C14.7332 70.8399 15.1498 70.371 15.1498 69.8142V65.7333L41.236 59.2897C42.0393 59.1414 42.7694 58.7595 43.3497 58.1837C43.3635 58.1701 43.3768 58.1562 43.3899 58.1418L56.6956 43.4672C57.9561 42.1969 58.1992 40.2897 57.4223 38.7731H72.0587C73.9562 38.7731 75.5 37.2294 75.5 35.332C75.5 33.7183 74.3833 32.3613 72.8825 31.9911ZM42.8173 7.86111C41.3063 7.72547 39.788 7.67698 38.2714 7.71551C37.4763 7.73543 36.6825 7.7823 35.89 7.85042C35.7292 7.86433 35.5675 7.87635 35.4077 7.89217C35.8199 6.12879 37.4051 4.81176 39.2923 4.81176C41.1794 4.81176 42.7647 6.12879 43.1769 7.89217C43.0578 7.8803 42.9371 7.87181 42.8173 7.86111ZM12.9524 68.8379L2.69726 70.0505V53.3246H12.9524V68.8379ZM55.1256 41.9299C55.1119 41.9435 55.0985 41.9574 55.0856 41.9716L41.7837 56.642C41.5172 56.8993 41.1838 57.0687 40.8181 57.1324C40.7929 57.1368 40.768 57.1421 40.7432 57.1481L15.1497 63.47V52.6027C15.1497 52.6027 25.4982 39.2898 25.5083 39.2768C26.1111 38.5019 27.4557 38.6926 28.0767 39.3094C28.7147 39.9431 28.8054 40.937 28.2925 41.6726C28.1904 41.8191 22.5446 50.4942 22.5379 50.5047C22.0684 51.226 22.6098 52.1975 23.4621 52.1975H39.0844C39.3743 52.1975 39.6525 52.083 39.8583 51.8788C39.8583 51.8788 52.5107 39.3229 52.5246 39.309C53.24 38.599 54.4264 38.6043 55.1355 39.3189C55.8526 40.0416 55.848 41.2128 55.1256 41.9299ZM30.3708 38.7731H36.7571L25.5287 49.9159C25.5287 49.9159 29.99 43.0801 30.095 42.9293C30.9711 41.6726 31.0413 40.0747 30.3708 38.7731ZM32.0377 50.0003H28.5631L39.3367 39.309C39.6847 38.9636 40.1464 38.7733 40.637 38.7733C41.3359 38.7733 41.9974 39.187 42.2992 39.8171L32.0377 50.0003ZM45.9305 39.309C46.2787 38.9636 46.7404 38.7733 47.2308 38.7733C47.9329 38.7733 48.5899 39.1843 48.8931 39.8171L38.6316 50.0004H35.157L45.9305 39.309ZM72.0584 36.5759H6.52605C5.84007 36.5759 5.28196 36.0179 5.28196 35.332C5.28196 34.646 5.84007 34.088 6.52605 34.088H72.0584C72.7443 34.088 73.3024 34.6461 73.3024 35.332C73.3024 36.0178 72.7443 36.5759 72.0584 36.5759Z" fill="#F4B32F"/>
</g>
<defs>
<clipPath id="clip0_207_1850">
<rect width="75" height="75" fill="white" transform="translate(0.5)"/>
</clipPath>
</defs>
</svg>
