<svg width="76" height="76" viewBox="0 0 76 76" fill="none" xmlns="http://www.w3.org/2000/svg">
<g clip-path="url(#clip0_205_1006)">
<path d="M51.6504 15.249H33.4498V74.401H51.6504V15.249Z" stroke="#F4B32F" stroke-width="2" stroke-miterlimit="10" stroke-linecap="round" stroke-linejoin="round"/>
<path d="M49.3752 10.699H35.7248V15.2491H49.3752V10.699Z" stroke="#F4B32F" stroke-width="2" stroke-miterlimit="10" stroke-linecap="round" stroke-linejoin="round"/>
<path d="M44.825 6.14868H40.2749V10.6988H44.825V6.14868Z" stroke="#F4B32F" stroke-width="2" stroke-miterlimit="10" stroke-linecap="round" stroke-linejoin="round"/>
<path d="M42.55 1.59863V6.14873" stroke="#F4B32F" stroke-width="2" stroke-miterlimit="10" stroke-linecap="round" stroke-linejoin="round"/>
<path d="M37.1897 19.7993H37.9999" stroke="#F4B32F" stroke-width="2" stroke-miterlimit="10" stroke-linecap="round" stroke-linejoin="round"/>
<path d="M42.1449 19.7993H42.9551" stroke="#F4B32F" stroke-width="2" stroke-miterlimit="10" stroke-linecap="round" stroke-linejoin="round"/>
<path d="M47.1002 19.7993H47.9104" stroke="#F4B32F" stroke-width="2" stroke-miterlimit="10" stroke-linecap="round" stroke-linejoin="round"/>
<path d="M37.1897 28.8994H37.9999" stroke="#F4B32F" stroke-width="2" stroke-miterlimit="10" stroke-linecap="round" stroke-linejoin="round"/>
<path d="M42.1449 28.8994H42.9551" stroke="#F4B32F" stroke-width="2" stroke-miterlimit="10" stroke-linecap="round" stroke-linejoin="round"/>
<path d="M47.1002 28.8994H47.9104" stroke="#F4B32F" stroke-width="2" stroke-miterlimit="10" stroke-linecap="round" stroke-linejoin="round"/>
<path d="M37.1897 37.9998H37.9999" stroke="#F4B32F" stroke-width="2" stroke-miterlimit="10" stroke-linecap="round" stroke-linejoin="round"/>
<path d="M42.1449 37.9998H42.9551" stroke="#F4B32F" stroke-width="2" stroke-miterlimit="10" stroke-linecap="round" stroke-linejoin="round"/>
<path d="M47.1002 37.9998H47.9104" stroke="#F4B32F" stroke-width="2" stroke-miterlimit="10" stroke-linecap="round" stroke-linejoin="round"/>
<path d="M37.1897 47.1001H37.9999" stroke="#F4B32F" stroke-width="2" stroke-miterlimit="10" stroke-linecap="round" stroke-linejoin="round"/>
<path d="M42.1449 47.1001H42.9551" stroke="#F4B32F" stroke-width="2" stroke-miterlimit="10" stroke-linecap="round" stroke-linejoin="round"/>
<path d="M47.1002 47.1001H47.9104" stroke="#F4B32F" stroke-width="2" stroke-miterlimit="10" stroke-linecap="round" stroke-linejoin="round"/>
<path d="M37.1897 56.2004H37.9999" stroke="#F4B32F" stroke-width="2" stroke-miterlimit="10" stroke-linecap="round" stroke-linejoin="round"/>
<path d="M42.1449 56.2004H42.9551" stroke="#F4B32F" stroke-width="2" stroke-miterlimit="10" stroke-linecap="round" stroke-linejoin="round"/>
<path d="M47.1002 56.2004H47.9104" stroke="#F4B32F" stroke-width="2" stroke-miterlimit="10" stroke-linecap="round" stroke-linejoin="round"/>
<path d="M37.1897 65.3008H37.9999" stroke="#F4B32F" stroke-width="2" stroke-miterlimit="10" stroke-linecap="round" stroke-linejoin="round"/>
<path d="M42.1449 65.3008H42.9551" stroke="#F4B32F" stroke-width="2" stroke-miterlimit="10" stroke-linecap="round" stroke-linejoin="round"/>
<path d="M47.1002 65.3008H47.9104" stroke="#F4B32F" stroke-width="2" stroke-miterlimit="10" stroke-linecap="round" stroke-linejoin="round"/>
<path d="M51.6507 24.3489H44.9447" stroke="#F4B32F" stroke-width="2" stroke-miterlimit="10" stroke-linecap="round" stroke-linejoin="round"/>
<path d="M40.1561 24.3489H33.4501" stroke="#F4B32F" stroke-width="2" stroke-miterlimit="10" stroke-linecap="round" stroke-linejoin="round"/>
<path d="M33.4498 33.4497H51.6503" stroke="#F4B32F" stroke-width="2" stroke-miterlimit="10" stroke-linecap="round" stroke-linejoin="round"/>
<path d="M33.4498 42.55H51.6503" stroke="#F4B32F" stroke-width="2" stroke-miterlimit="10" stroke-linecap="round" stroke-linejoin="round"/>
<path d="M33.4498 51.6504H51.6503" stroke="#F4B32F" stroke-width="2" stroke-miterlimit="10" stroke-linecap="round" stroke-linejoin="round"/>
<path d="M33.4498 60.7507H51.6503" stroke="#F4B32F" stroke-width="2" stroke-miterlimit="10" stroke-linecap="round" stroke-linejoin="round"/>
<path d="M19.7992 44.9431V74.4013H33.4501V33.45H19.7992V40.156" stroke="#F4B32F" stroke-width="2" stroke-miterlimit="10" stroke-linecap="round" stroke-linejoin="round"/>
<path d="M24.3494 37.9998V40.2748" stroke="#F4B32F" stroke-width="2" stroke-miterlimit="10" stroke-linecap="round" stroke-linejoin="round"/>
<path d="M28.8995 37.9998V40.2748" stroke="#F4B32F" stroke-width="2" stroke-miterlimit="10" stroke-linecap="round" stroke-linejoin="round"/>
<path d="M24.3494 47.1001V49.3751" stroke="#F4B32F" stroke-width="2" stroke-miterlimit="10" stroke-linecap="round" stroke-linejoin="round"/>
<path d="M28.8995 47.1001V49.3751" stroke="#F4B32F" stroke-width="2" stroke-miterlimit="10" stroke-linecap="round" stroke-linejoin="round"/>
<path d="M24.3494 56.2004V58.4755" stroke="#F4B32F" stroke-width="2" stroke-miterlimit="10" stroke-linecap="round" stroke-linejoin="round"/>
<path d="M28.8995 56.2004V58.4755" stroke="#F4B32F" stroke-width="2" stroke-miterlimit="10" stroke-linecap="round" stroke-linejoin="round"/>
<path d="M24.3494 65.3008V67.5758" stroke="#F4B32F" stroke-width="2" stroke-miterlimit="10" stroke-linecap="round" stroke-linejoin="round"/>
<path d="M28.8995 65.3008V67.5758" stroke="#F4B32F" stroke-width="2" stroke-miterlimit="10" stroke-linecap="round" stroke-linejoin="round"/>
<path d="M65.4204 42.5496H74.4014V74.4013H51.6507V42.5496H60.6318" stroke="#F4B32F" stroke-width="2" stroke-miterlimit="10" stroke-linecap="round" stroke-linejoin="round"/>
<path d="M56.2005 47.0918H69.851" stroke="#F4B32F" stroke-width="2" stroke-miterlimit="10" stroke-linecap="round" stroke-linejoin="round"/>
<path d="M56.2005 51.6206H69.851" stroke="#F4B32F" stroke-width="2" stroke-miterlimit="10" stroke-linecap="round" stroke-linejoin="round"/>
<path d="M56.2005 56.1497H69.851" stroke="#F4B32F" stroke-width="2" stroke-miterlimit="10" stroke-linecap="round" stroke-linejoin="round"/>
<path d="M56.2005 60.7507H69.851" stroke="#F4B32F" stroke-width="2" stroke-miterlimit="10" stroke-linecap="round" stroke-linejoin="round"/>
<path d="M56.2005 65.3008H69.851" stroke="#F4B32F" stroke-width="2" stroke-miterlimit="10" stroke-linecap="round" stroke-linejoin="round"/>
<path d="M56.2005 69.8511H69.851" stroke="#F4B32F" stroke-width="2" stroke-miterlimit="10" stroke-linecap="round" stroke-linejoin="round"/>
<path d="M54.5691 28.1096C56.6492 25.7952 59.6683 24.3406 63.0257 24.3406C66.3831 24.3406 69.4021 25.7952 71.4822 28.1096" stroke="#F4B32F" stroke-width="2" stroke-miterlimit="10" stroke-linecap="round" stroke-linejoin="round"/>
<path d="M57.9881 31.1873C59.2112 29.7795 61.0145 28.8904 63.0257 28.8904C65.0369 28.8904 66.8401 29.7795 68.0633 31.1873" stroke="#F4B32F" stroke-width="2" stroke-miterlimit="10" stroke-linecap="round" stroke-linejoin="round"/>
<path d="M63.0257 38.0086C64.287 38.0086 65.3095 36.9861 65.3095 35.7248C65.3095 34.4634 64.287 33.4409 63.0257 33.4409C61.7644 33.4409 60.7419 34.4634 60.7419 35.7248C60.7419 36.9861 61.7644 38.0086 63.0257 38.0086Z" stroke="#F4B32F" stroke-width="2" stroke-miterlimit="10" stroke-linecap="round" stroke-linejoin="round"/>
<path d="M19.8077 56.1964C19.8077 61.2246 10.7031 74.4012 10.7031 74.4012C10.7031 74.4012 1.59863 61.2246 1.59863 56.1964C1.59863 51.1682 5.67485 47.0918 10.7032 47.0918C15.7316 47.0918 19.8077 51.168 19.8077 56.1964Z" stroke="#F4B32F" stroke-width="2" stroke-miterlimit="10" stroke-linecap="round" stroke-linejoin="round"/>
<path d="M10.699 60.7208C13.2119 60.7208 15.2491 58.6837 15.2491 56.1707C15.2491 53.6578 13.2119 51.6206 10.699 51.6206C8.18603 51.6206 6.14888 53.6578 6.14888 56.1707C6.14888 58.6837 8.18603 60.7208 10.699 60.7208Z" stroke="#F4B32F" stroke-width="2" stroke-miterlimit="10" stroke-linecap="round" stroke-linejoin="round"/>
<path d="M1.59863 74.4011H19.7993" stroke="#F4B32F" stroke-width="2" stroke-miterlimit="10" stroke-linecap="round" stroke-linejoin="round"/>
</g>
<defs>
<clipPath id="clip0_205_1006">
<rect width="75" height="75" fill="white" transform="translate(0.5 0.5)"/>
</clipPath>
</defs>
</svg>
