<svg width="76" height="75" viewBox="0 0 76 75" fill="none" xmlns="http://www.w3.org/2000/svg">
<path d="M26.6129 73.9014H7.21089C5.73623 73.9014 4.54077 72.706 4.54077 71.2313V18.1811C4.54077 16.7064 5.73623 15.511 7.21089 15.511H23.9428C25.4174 15.511 26.6129 16.7064 26.6129 18.1811V73.9014Z" stroke="#F4B32F" stroke-width="2" stroke-miterlimit="10" stroke-linecap="round" stroke-linejoin="round"/>
<path d="M15.5768 32.4561C18.3217 32.4561 20.547 30.2308 20.547 27.4858C20.547 24.7409 18.3217 22.5156 15.5768 22.5156C12.8318 22.5156 10.6065 24.7409 10.6065 27.4858C10.6065 30.2308 12.8318 32.4561 15.5768 32.4561Z" stroke="#F4B32F" stroke-width="2" stroke-miterlimit="10" stroke-linecap="round" stroke-linejoin="round"/>
<path d="M15.5768 49.6763C18.3217 49.6763 20.547 47.451 20.547 44.7061C20.547 41.9611 18.3217 39.7358 15.5768 39.7358C12.8318 39.7358 10.6065 41.9611 10.6065 44.7061C10.6065 47.451 12.8318 49.6763 15.5768 49.6763Z" stroke="#F4B32F" stroke-width="2" stroke-miterlimit="10" stroke-linecap="round" stroke-linejoin="round"/>
<path d="M15.5768 66.8967C18.3217 66.8967 20.547 64.6715 20.547 61.9265C20.547 59.1815 18.3217 56.9563 15.5768 56.9563C12.8318 56.9563 10.6065 59.1815 10.6065 61.9265C10.6065 64.6715 12.8318 66.8967 15.5768 66.8967Z" stroke="#F4B32F" stroke-width="2" stroke-miterlimit="10" stroke-linecap="round" stroke-linejoin="round"/>
<path d="M71.4592 64.4995V71.2313C71.4592 72.706 70.2638 73.9014 68.7891 73.9014H49.3873V18.1811C49.3873 16.7064 50.5827 15.511 52.0574 15.511H68.7893C70.2639 15.511 71.4594 16.7064 71.4594 18.1811V59.3482" stroke="#F4B32F" stroke-width="2" stroke-miterlimit="10" stroke-linecap="round" stroke-linejoin="round"/>
<path d="M31.912 37.6873H29.283C27.8084 37.6873 26.6129 38.8827 26.6129 40.3574V73.9013H49.3873V40.3574C49.3873 38.8827 48.1918 37.6873 46.7171 37.6873H37.06" stroke="#F4B32F" stroke-width="2" stroke-miterlimit="10" stroke-linecap="round" stroke-linejoin="round"/>
<path d="M60.4232 32.4561C63.1682 32.4561 65.3935 30.2308 65.3935 27.4858C65.3935 24.7409 63.1682 22.5156 60.4232 22.5156C57.6783 22.5156 55.453 24.7409 55.453 27.4858C55.453 30.2308 57.6783 32.4561 60.4232 32.4561Z" stroke="#F4B32F" stroke-width="2" stroke-miterlimit="10" stroke-linecap="round" stroke-linejoin="round"/>
<path d="M60.4232 49.6763C63.1682 49.6763 65.3935 47.451 65.3935 44.7061C65.3935 41.9611 63.1682 39.7358 60.4232 39.7358C57.6783 39.7358 55.453 41.9611 55.453 44.7061C55.453 47.451 57.6783 49.6763 60.4232 49.6763Z" stroke="#F4B32F" stroke-width="2" stroke-miterlimit="10" stroke-linecap="round" stroke-linejoin="round"/>
<path d="M60.4232 66.8967C63.1682 66.8967 65.3935 64.6715 65.3935 61.9265C65.3935 59.1815 63.1682 56.9563 60.4232 56.9563C57.6783 56.9563 55.453 59.1815 55.453 61.9265C55.453 64.6715 57.6783 66.8967 60.4232 66.8967Z" stroke="#F4B32F" stroke-width="2" stroke-miterlimit="10" stroke-linecap="round" stroke-linejoin="round"/>
<path d="M49.3873 56.8342H26.6129V63.523H49.3873V56.8342Z" stroke="#F4B32F" stroke-width="2" stroke-miterlimit="10" stroke-linecap="round" stroke-linejoin="round"/>
<path d="M49.3873 44.3496H26.6129V56.8345H49.3873V44.3496Z" stroke="#F4B32F" stroke-width="2" stroke-miterlimit="10" stroke-linecap="round" stroke-linejoin="round"/>
<path d="M32.2188 50.5918H38.9918" stroke="#F4B32F" stroke-width="2" stroke-miterlimit="10" stroke-linecap="round" stroke-linejoin="round"/>
<path d="M33.4039 56.8342V63.523" stroke="#F4B32F" stroke-width="2" stroke-miterlimit="10" stroke-linecap="round" stroke-linejoin="round"/>
<path d="M38 56.8342V63.523" stroke="#F4B32F" stroke-width="2" stroke-miterlimit="10" stroke-linecap="round" stroke-linejoin="round"/>
<path d="M42.5961 56.8342V63.523" stroke="#F4B32F" stroke-width="2" stroke-miterlimit="10" stroke-linecap="round" stroke-linejoin="round"/>
<path d="M7.67378 4.52295L11.169 9.5106" stroke="#F4B32F" stroke-width="2" stroke-miterlimit="10" stroke-linecap="round" stroke-linejoin="round"/>
<path d="M23.4799 4.52295L19.9846 9.5106" stroke="#F4B32F" stroke-width="2" stroke-miterlimit="10" stroke-linecap="round" stroke-linejoin="round"/>
<path d="M15.5768 5.09517V1.09863" stroke="#F4B32F" stroke-width="2" stroke-miterlimit="10" stroke-linecap="round" stroke-linejoin="round"/>
<path d="M52.5201 4.52295L56.0154 9.5106" stroke="#F4B32F" stroke-width="2" stroke-miterlimit="10" stroke-linecap="round" stroke-linejoin="round"/>
<path d="M68.3262 4.52295L64.8309 9.5106" stroke="#F4B32F" stroke-width="2" stroke-miterlimit="10" stroke-linecap="round" stroke-linejoin="round"/>
<path d="M60.4232 5.09517V1.09863" stroke="#F4B32F" stroke-width="2" stroke-miterlimit="10" stroke-linecap="round" stroke-linejoin="round"/>
</svg>
