<svg width="156" height="53" viewBox="0 0 156 53" fill="none" xmlns="http://www.w3.org/2000/svg">
<path fill-rule="evenodd" clip-rule="evenodd" d="M31.8768 43.5301L32.7023 38.4104L29.9902 37.0127L29.6542 37.6512L26.1346 44.4886L35.3457 49.2378L36.457 49.8096L39.1005 44.6917L31.8768 43.5301Z" fill="#D9511C"/>
<path fill-rule="evenodd" clip-rule="evenodd" d="M20.1232 8.46986L19.2977 13.5882L22.0093 14.9873L22.3458 14.3469L25.8649 7.50953L16.6538 2.76221L15.5425 2.18859L12.899 7.30835L20.1232 8.46986Z" fill="#D9511C"/>
<path fill-rule="evenodd" clip-rule="evenodd" d="M14.0265 11.9047L15.2064 17.0912L18.1178 17.3448L18.1684 16.6704L18.8102 8.95739L8.41968 8.09972L7.23976 7.9989L6.7688 13.5394L14.0265 11.9047Z" fill="#F3731E"/>
<path fill-rule="evenodd" clip-rule="evenodd" d="M37.9712 40.0935L36.7936 34.8909L33.8983 34.6552L33.8297 35.3278L33.1894 43.0247L43.5803 43.9003L44.7745 44.0011L45.2312 38.4606L37.9712 40.0935Z" fill="#F3731E"/>
<path fill-rule="evenodd" clip-rule="evenodd" d="M9.49695 17.6468L12.5612 21.9232L15.3897 21.0149L15.1544 20.2742L12.8309 13.016L3.08217 16.1309L1.76782 16.5535L3.48499 21.9412L9.49695 17.6468Z" fill="#F57F23"/>
<path fill-rule="evenodd" clip-rule="evenodd" d="M42.5012 34.3532L39.4549 30.0588L36.608 30.9671L36.8456 31.7258L39.1672 38.984L48.9358 35.8512L50.2322 35.4465L48.515 30.0588L42.5012 34.3532Z" fill="#F57F23"/>
<path fill-rule="evenodd" clip-rule="evenodd" d="M44.4057 27.7013L39.8417 24.7374L37.7032 26.5379L38.1747 27.1116L43.125 32.9541L51.0235 26.2861L52 25.4607L48.5311 21.3514L44.4057 27.7013Z" fill="#F38F1C"/>
<path fill-rule="evenodd" clip-rule="evenodd" d="M7.59424 24.2987L12.1744 27.2626L14.2963 25.4607L13.8253 24.905L8.87453 19.0441L0.97644 25.7125L0 26.5559L3.46888 30.6467L7.59424 24.2987Z" fill="#F38F1C"/>
<path fill-rule="evenodd" clip-rule="evenodd" d="M43.5803 20.3064L38.3597 19.4147L37.0127 22.0259L37.8041 22.4287L44.49 25.8654L49.1029 16.9061L49.8114 15.543L44.8426 12.9819L43.5803 20.3064Z" fill="#FAA633"/>
<path fill-rule="evenodd" clip-rule="evenodd" d="M8.40173 31.6918L13.6403 32.5996L14.9868 29.9907L14.1959 29.5695L7.50954 26.1351L2.89711 35.0925L2.1886 36.457L7.15552 39.0162L8.40173 31.6918Z" fill="#FAA633"/>
<path fill-rule="evenodd" clip-rule="evenodd" d="M11.9047 37.973L17.0912 36.8097L17.3444 33.8965L16.5696 33.8297L8.97534 33.1898L8.11584 43.4293L7.9989 44.7764L13.5555 45.2294L11.9047 37.973Z" fill="#FDB811"/>
<path fill-rule="evenodd" clip-rule="evenodd" d="M40.0949 14.027L34.8909 15.2046L34.6552 18.1178L35.4286 18.1703L43.0247 18.8083L43.8823 8.57067L44.0011 7.24159L38.4444 6.76879L40.0949 14.027Z" fill="#FDB811"/>
<path fill-rule="evenodd" clip-rule="evenodd" d="M17.512 42.4349L21.9071 39.3523L21.0149 36.6085L20.2742 36.8437L13.016 39.1672L16.1327 48.9339L16.5535 50.2322L21.8063 48.5652L17.512 42.4349Z" fill="#FFC223"/>
<path fill-rule="evenodd" clip-rule="evenodd" d="M34.4701 9.56324L30.0911 12.6459L30.9667 15.392L31.724 15.1563L38.9817 12.8309L35.8494 3.06422L35.4286 1.76781L30.1937 3.45277L34.4701 9.56324Z" fill="#FFC223"/>
<path fill-rule="evenodd" clip-rule="evenodd" d="M27.397 39.9945L25.4602 37.7032L25.0574 38.0577L24.2485 38.7303L19.0441 43.1255L23.8618 48.835L24.8544 50.013L26.5375 52L30.8824 48.3295L24.6366 44.438L27.397 39.9945Z" fill="#FFD100"/>
<path fill-rule="evenodd" clip-rule="evenodd" d="M24.6026 12.0055L26.5375 14.2968L27.3307 13.6403L27.6327 13.3705L32.9541 8.87269L27.8684 2.84508L25.4602 0L25.2931 0.151002L21.1157 3.67052L27.3629 7.56017L24.6026 12.0055Z" fill="#FFD100"/>
<path d="M61.98 20.91V1.07998C63.66 0.80998 65.85 0.62998 68.13 0.62998C72 0.62998 74.52 1.34998 76.44 2.78998C78.54 4.34998 79.86 6.83998 79.86 10.41C79.86 14.28 78.45 16.95 76.53 18.6C74.4 20.37 71.13 21.21 67.17 21.21C64.8 21.21 63.09 21.06 61.98 20.91ZM66.54 4.31998V17.55C66.93 17.64 67.59 17.64 68.13 17.64C72.3 17.67 75.03 15.39 75.03 10.56C75.03 6.35998 72.57 4.13998 68.61 4.13998C67.62 4.13998 66.93 4.22998 66.54 4.31998Z" fill="#446F31"/>
<path d="M81.6387 20.04L82.5687 16.29C83.7687 16.92 85.6887 17.55 87.6387 17.55C89.7387 17.55 90.8487 16.68 90.8487 15.36C90.8487 14.1 89.8887 13.38 87.4587 12.54C84.0987 11.34 81.8787 9.47998 81.8787 6.53998C81.8787 3.08998 84.7887 0.47998 89.5287 0.47998C91.8387 0.47998 93.4887 0.92998 94.6887 1.49998L93.6687 5.15998C92.8887 4.76998 91.4187 4.19998 89.4687 4.19998C87.4887 4.19998 86.5287 5.12998 86.5287 6.14998C86.5287 7.43998 87.6387 8.00998 90.2787 8.99998C93.8487 10.32 95.4987 12.18 95.4987 15.03C95.4987 18.42 92.9187 21.3 87.3687 21.3C85.0587 21.3 82.7787 20.67 81.6387 20.04Z" fill="#446F31"/>
<path d="M112.33 16.86L112.99 20.46C112.18 20.85 110.26 21.33 107.83 21.33C100.84 21.33 97.2399 16.95 97.2399 11.19C97.2399 4.28998 102.16 0.47998 108.28 0.47998C110.65 0.47998 112.45 0.92998 113.26 1.37998L112.3 4.97998C111.4 4.58998 110.11 4.22998 108.46 4.22998C104.86 4.22998 102.04 6.41998 102.04 10.92C102.04 14.97 104.44 17.52 108.49 17.52C109.9 17.52 111.4 17.25 112.33 16.86Z" fill="#446F31"/>
<path d="M128.813 16.86L129.473 20.46C128.663 20.85 126.743 21.33 124.313 21.33C117.323 21.33 113.723 16.95 113.723 11.19C113.723 4.28998 118.643 0.47998 124.763 0.47998C127.133 0.47998 128.933 0.92998 129.743 1.37998L128.783 4.97998C127.883 4.58998 126.593 4.22998 124.943 4.22998C121.343 4.22998 118.523 6.41998 118.523 10.92C118.523 14.97 120.923 17.52 124.973 17.52C126.383 17.52 127.883 17.25 128.813 16.86Z" fill="#446F31"/>
<path d="M65.819 34.999L66.006 35.769C65.665 35.945 64.95 36.121 64.048 36.121C61.958 36.121 60.396 34.801 60.396 32.359C60.396 30.027 61.969 28.465 64.268 28.465C65.181 28.465 65.775 28.663 66.028 28.795L65.786 29.576C65.434 29.4 64.917 29.268 64.301 29.268C62.563 29.268 61.408 30.379 61.408 32.326C61.408 34.152 62.453 35.307 64.246 35.307C64.84 35.307 65.434 35.186 65.819 34.999ZM70.4125 28.454C72.4475 28.454 73.7565 30.005 73.7565 32.216C73.7565 34.757 72.2055 36.121 70.3135 36.121C68.3445 36.121 66.9805 34.592 66.9805 32.348C66.9805 29.994 68.4325 28.454 70.4125 28.454ZM70.3795 29.235C68.7845 29.235 67.9925 30.709 67.9925 32.326C67.9925 33.921 68.8505 35.34 70.3685 35.34C71.8865 35.34 72.7445 33.943 72.7445 32.26C72.7445 30.775 71.9745 29.235 70.3795 29.235ZM76.3465 36H75.4445V28.586H76.5005L78.8655 32.337C79.4045 33.206 79.8445 33.987 80.1855 34.746L80.2185 34.735C80.1305 33.745 80.1085 32.843 80.1085 31.688V28.586H81.0105V36H80.0425L77.6885 32.238C77.1715 31.413 76.6765 30.566 76.3135 29.763L76.2805 29.774C76.3355 30.709 76.3465 31.6 76.3465 32.832V36ZM84.5327 36V29.4H82.2777V28.586H87.7667V29.4H85.5007V36H84.5327ZM89.0325 36V28.685C89.5165 28.597 90.2205 28.531 90.8695 28.531C91.8925 28.531 92.5635 28.729 93.0145 29.136C93.3775 29.466 93.5975 29.972 93.5975 30.555C93.5975 31.523 92.9815 32.172 92.2115 32.436V32.469C92.7725 32.667 93.1135 33.195 93.2895 33.965C93.5315 34.999 93.7075 35.714 93.8615 36H92.8715C92.7505 35.78 92.5855 35.153 92.3875 34.229C92.1675 33.206 91.7605 32.821 90.8915 32.788H89.9895V36H89.0325ZM89.9895 29.356V32.062H90.9685C91.9915 32.062 92.6405 31.501 92.6405 30.654C92.6405 29.697 91.9475 29.279 90.9355 29.279C90.4735 29.279 90.1545 29.312 89.9895 29.356ZM99.2732 33.668H96.6442L95.8742 36H94.8842L97.4142 28.586H98.5582L101.088 36H100.065L99.2732 33.668ZM96.8422 32.92H99.0862L98.3492 30.786C98.1842 30.302 98.0742 29.862 97.9642 29.433H97.9422C97.8322 29.862 97.7222 30.324 97.5682 30.775L96.8422 32.92ZM107.442 34.999L107.629 35.769C107.288 35.945 106.573 36.121 105.671 36.121C103.581 36.121 102.019 34.801 102.019 32.359C102.019 30.027 103.592 28.465 105.891 28.465C106.804 28.465 107.398 28.663 107.651 28.795L107.409 29.576C107.057 29.4 106.54 29.268 105.924 29.268C104.186 29.268 103.031 30.379 103.031 32.326C103.031 34.152 104.076 35.307 105.869 35.307C106.463 35.307 107.057 35.186 107.442 34.999ZM111 36V29.4H108.745V28.586H114.234V29.4H111.968V36H111ZM115.489 28.586H116.457V36H115.489V28.586ZM119.473 36H118.571V28.586H119.627L121.992 32.337C122.531 33.206 122.971 33.987 123.312 34.746L123.345 34.735C123.257 33.745 123.235 32.843 123.235 31.688V28.586H124.137V36H123.169L120.815 32.238C120.298 31.413 119.803 30.566 119.44 29.763L119.407 29.774C119.462 30.709 119.473 31.6 119.473 32.832V36ZM131.906 32.106V35.67C131.477 35.835 130.619 36.077 129.618 36.077C128.496 36.077 127.572 35.791 126.846 35.098C126.208 34.482 125.812 33.492 125.812 32.337C125.812 30.126 127.341 28.509 129.827 28.509C130.685 28.509 131.367 28.696 131.686 28.85L131.444 29.631C131.048 29.444 130.553 29.312 129.805 29.312C128.001 29.312 126.824 30.434 126.824 32.293C126.824 34.174 127.946 35.285 129.684 35.285C130.311 35.285 130.74 35.197 130.96 35.087V32.876H129.464V32.106H131.906ZM136.563 36V28.586H140.556V29.389H137.531V31.853H140.325V32.645H137.531V36H136.563ZM145.366 28.454C147.401 28.454 148.71 30.005 148.71 32.216C148.71 34.757 147.159 36.121 145.267 36.121C143.298 36.121 141.934 34.592 141.934 32.348C141.934 29.994 143.386 28.454 145.366 28.454ZM145.333 29.235C143.738 29.235 142.946 30.709 142.946 32.326C142.946 33.921 143.804 35.34 145.322 35.34C146.84 35.34 147.698 33.943 147.698 32.26C147.698 30.775 146.928 29.235 145.333 29.235ZM150.398 36V28.685C150.882 28.597 151.586 28.531 152.235 28.531C153.258 28.531 153.929 28.729 154.38 29.136C154.743 29.466 154.963 29.972 154.963 30.555C154.963 31.523 154.347 32.172 153.577 32.436V32.469C154.138 32.667 154.479 33.195 154.655 33.965C154.897 34.999 155.073 35.714 155.227 36H154.237C154.116 35.78 153.951 35.153 153.753 34.229C153.533 33.206 153.126 32.821 152.257 32.788H151.355V36H150.398ZM151.355 29.356V32.062H152.334C153.357 32.062 154.006 31.501 154.006 30.654C154.006 29.697 153.313 29.279 152.301 29.279C151.839 29.279 151.52 29.312 151.355 29.356ZM64.664 44.732V45.524H61.793V48.197H65.005V49H60.825V41.586H64.84V42.389H61.793V44.732H64.664ZM73.4441 49L73.2681 45.744C73.2131 44.71 73.1471 43.456 73.1471 42.543H73.1251C72.8611 43.401 72.5641 44.336 72.1901 45.359L70.8811 48.956H70.1551L68.9451 45.425C68.5931 44.369 68.3071 43.423 68.0981 42.543H68.0761C68.0541 43.467 67.9991 44.699 67.9331 45.821L67.7351 49H66.8221L67.3391 41.586H68.5601L69.8251 45.172C70.1331 46.085 70.3751 46.899 70.5731 47.669H70.5951C70.7931 46.921 71.0571 46.107 71.3871 45.172L72.7071 41.586H73.9281L74.3901 49H73.4441ZM76.6309 49V41.674C77.0929 41.597 77.6979 41.531 78.4679 41.531C79.4139 41.531 80.1069 41.751 80.5469 42.147C80.9429 42.499 81.1959 43.038 81.1959 43.698C81.1959 44.369 80.9979 44.897 80.6239 45.282C80.1069 45.821 79.2929 46.096 78.3579 46.096C78.0719 46.096 77.8079 46.085 77.5879 46.03V49H76.6309ZM77.5879 42.367V45.249C77.7969 45.304 78.0609 45.326 78.3799 45.326C79.5349 45.326 80.2389 44.754 80.2389 43.753C80.2389 42.763 79.5349 42.29 78.4899 42.29C78.0719 42.29 77.7529 42.323 77.5879 42.367ZM86.2474 41.454C88.2824 41.454 89.5914 43.005 89.5914 45.216C89.5914 47.757 88.0404 49.121 86.1484 49.121C84.1794 49.121 82.8154 47.592 82.8154 45.348C82.8154 42.994 84.2674 41.454 86.2474 41.454ZM86.2144 42.235C84.6194 42.235 83.8274 43.709 83.8274 45.326C83.8274 46.921 84.6854 48.34 86.2034 48.34C87.7214 48.34 88.5794 46.943 88.5794 45.26C88.5794 43.775 87.8094 42.235 86.2144 42.235ZM93.8204 49H92.8194L90.9384 41.586H91.9504L92.8304 45.337C93.0504 46.261 93.2484 47.185 93.3804 47.9H93.4024C93.5234 47.163 93.7544 46.283 94.0074 45.326L94.9974 41.586H95.9984L96.9004 45.348C97.1094 46.228 97.3074 47.108 97.4174 47.889H97.4394C97.5934 47.075 97.8024 46.25 98.0334 45.326L99.0124 41.586H99.9914L97.8904 49H96.8894L95.9544 45.139C95.7234 44.193 95.5694 43.467 95.4704 42.719H95.4484C95.3274 43.456 95.1514 44.182 94.8764 45.139L93.8204 49ZM105.51 44.732V45.524H102.639V48.197H105.851V49H101.671V41.586H105.686V42.389H102.639V44.732H105.51ZM107.866 49V41.685C108.35 41.597 109.054 41.531 109.703 41.531C110.726 41.531 111.397 41.729 111.848 42.136C112.211 42.466 112.431 42.972 112.431 43.555C112.431 44.523 111.815 45.172 111.045 45.436V45.469C111.606 45.667 111.947 46.195 112.123 46.965C112.365 47.999 112.541 48.714 112.695 49H111.705C111.584 48.78 111.419 48.153 111.221 47.229C111.001 46.206 110.594 45.821 109.725 45.788H108.823V49H107.866ZM108.823 42.356V45.062H109.802C110.825 45.062 111.474 44.501 111.474 43.654C111.474 42.697 110.781 42.279 109.769 42.279C109.307 42.279 108.988 42.312 108.823 42.356ZM119.943 49H118.887L116.456 41.586H117.501L118.656 45.238C118.964 46.239 119.239 47.141 119.448 48.01H119.47C119.679 47.152 119.976 46.217 120.317 45.249L121.571 41.586H122.594L119.943 49ZM127.367 46.668H124.738L123.968 49H122.978L125.508 41.586H126.652L129.182 49H128.159L127.367 46.668ZM124.936 45.92H127.18L126.443 43.786C126.278 43.302 126.168 42.862 126.058 42.433H126.036C125.926 42.862 125.816 43.324 125.662 43.775L124.936 45.92ZM131.034 49V41.586H132.002V48.197H135.17V49H131.034ZM136.595 41.586H137.563V45.986C137.563 47.636 138.3 48.34 139.29 48.34C140.379 48.34 141.094 47.614 141.094 45.986V41.586H142.062V45.92C142.062 48.197 140.863 49.121 139.257 49.121C137.739 49.121 136.595 48.263 136.595 45.953V41.586ZM148.326 44.732V45.524H145.455V48.197H148.667V49H144.487V41.586H148.502V42.389H145.455V44.732H148.326ZM150.308 48.637L150.561 47.834C150.99 48.109 151.606 48.318 152.266 48.318C153.245 48.318 153.817 47.801 153.817 47.053C153.817 46.371 153.421 45.964 152.42 45.59C151.21 45.15 150.462 44.512 150.462 43.478C150.462 42.323 151.419 41.465 152.86 41.465C153.608 41.465 154.169 41.641 154.488 41.828L154.224 42.609C153.993 42.466 153.498 42.257 152.827 42.257C151.815 42.257 151.43 42.862 151.43 43.368C151.43 44.061 151.881 44.402 152.904 44.798C154.158 45.282 154.785 45.887 154.785 46.976C154.785 48.12 153.949 49.121 152.2 49.121C151.485 49.121 150.704 48.901 150.308 48.637Z" fill="#343350"/>
</svg>
