<?xml version="1.0" encoding="utf-8"?>
<!-- Generator: Adobe Illustrator 27.5.0, SVG Export Plug-In . SVG Version: 6.00 Build 0)  -->
<svg version="1.1" id="Layer_1" xmlns="http://www.w3.org/2000/svg" xmlns:xlink="http://www.w3.org/1999/xlink" x="0px" y="0px"
	 viewBox="0 0 120 120" style="enable-background:new 0 0 120 120;" xml:space="preserve">
<g>
	<g>
		
			<rect x="44.53" y="29.61" transform="matrix(0.7072 -0.7071 0.7071 0.7072 -14.3062 55.6255)" style="fill:#004438;" width="30.95" height="30.95"/>
		<polygon style="fill:#CF8A00;" points="53.47,20.49 36.8,23.2 53.47,25.91 43.59,39.6 57.29,29.74 60,66.97 62.7,29.74 
			76.41,39.6 66.53,25.91 83.2,23.2 66.53,20.49 76.41,6.8 62.7,16.67 60,0 57.29,16.67 43.59,6.8 		"/>
		<polygon style="fill:#FFFFFF;" points="43.59,39.6 57.29,29.73 60,66.97 62.7,29.73 76.41,39.6 60,23.2 		"/>
	</g>
	<g>
		<path style="fill:#004438;" d="M104.11,75.44c-4.67,0-6.68,1.57-6.68,5.27v7.08h-15.5l3.29-5.63c1.93-3.53,0.54-6.72-4.16-6.72
			H70.62c-4.7,0-6.09,3.19-4.16,6.72l3.33,5.63H53.95V71.27l-5.62-0.02l-0.12,20.3l66.8,0V75.44H104.11z M70.88,79.15h9.91
			l-4.92,8.65h-0.05L70.88,79.15z M109.29,87.82h-6.06V81.5V81c0-1.3,0.08-1.86,1.88-1.86h4.19V87.82z"/>
		<path style="fill:#004438;" d="M37.83,75.44h-6.92v3.71h5.92c1.8,0,1.88,1.86,1.88,1.86v0.49v6.3h-9.97v3.74h15.77V80.71
			C44.51,77.01,42.5,75.44,37.83,75.44"/>
		<path style="fill:#004438;" d="M20.42,84.07c0,2.47-1.08,3.75-3.59,3.75H14.3c-2.51,0-3.58-1.28-3.58-3.75v-8.63H4.98v8.63
			c0,4.34,2.13,7.49,9.68,7.49h1.81c7.55,0,9.68-3.15,9.68-7.49v-8.63h-5.73V84.07z"/>
		<rect x="12.35" y="71.45" style="fill:#004438;" width="5.63" height="4.07"/>
	</g>
	<g>
		<path style="fill:#004438;" d="M21.81,104.76c-2.66,2.47-2.81,4.71-2.81,7.18v1.11V120h-5.74v-6.95v-1.11
			c0-2.47-0.15-4.7-2.81-7.18V120H4.64V99.97h7.71c1.56,1.32,2.86,3.12,3.78,5.3c0.88-2.15,2.22-3.97,3.79-5.3h7.71V120h-5.8V104.76
			z"/>
		<path style="fill:#004438;" d="M36.14,112.95c0.08-3.88,0.59-6.86,1.44-8.86c0.86,2,1.36,4.98,1.44,8.86H36.14z M30.39,120h5.75
			v-3.29h2.88V120h5.8v-3.9c0-6.85-1.15-12.12-4.61-16.13h-5.22c-3.45,3.98-4.6,9.25-4.6,16.13V120z"/>
		<path style="fill:#004438;" d="M58.21,112.95c0.08-3.88,0.58-6.86,1.44-8.86c0.86,2,1.36,4.98,1.44,8.86H58.21z M52.46,120h5.75
			v-3.29h2.88V120h5.8v-3.9c0-6.85-1.15-12.12-4.62-16.13h-5.22c-3.45,3.98-4.6,9.25-4.6,16.13V120z"/>
		<path style="fill:#004438;" d="M75.31,103.8h0.95c1.79,0,1.87,0.55,1.87,1.87v0.5v7.63v0.5c0,1.35-0.08,1.87-1.87,1.87h-0.95
			V103.8z M69.51,99.98v20.02h7.75c4.71,0,6.75-1.58,6.75-5.4v-9.21c0-3.79-2.04-5.4-6.75-5.4H69.51z"/>
		<polygon style="fill:#004438;" points="86.52,99.98 98.34,99.98 98.34,103.8 92.32,103.8 92.32,107.15 98.11,107.15 98.11,110.93 
			92.32,110.93 92.32,116.17 98.61,116.17 98.61,119.99 86.52,119.99 		"/>
		<path style="fill:#004438;" d="M106.38,99.97c1.03,1.26,2.13,3.03,3.23,5.27v-5.27h5.75V120h-5.75v-3.91
			c0-3.41-0.95-6.56-2.81-9.39V120H101V99.97H106.38z"/>
		<rect x="45.71" y="99.97" style="fill:#004438;" width="3.49" height="7.3"/>
	</g>
</g>
</svg>
