<?xml version="1.0" encoding="utf-8"?>
<!-- Generator: Adobe Illustrator 27.5.0, SVG Export Plug-In . SVG Version: 6.00 Build 0)  -->
<svg version="1.1" id="Layer_1" xmlns="http://www.w3.org/2000/svg" xmlns:xlink="http://www.w3.org/1999/xlink" x="0px" y="0px"
	 viewBox="0 0 120 120" style="enable-background:new 0 0 120 120;" xml:space="preserve">
<g>
	<polygon style="fill-rule:evenodd;clip-rule:evenodd;" points="15.93,98.57 15.93,98.23 15.37,98.23 15.37,92.65 15.93,92.65 
		15.93,92.31 13.35,92.31 13.35,92.67 13.92,92.67 13.92,95.14 11.52,95.14 11.52,92.65 12.08,92.65 12.08,92.31 9.51,92.31 
		9.51,92.65 10.05,92.65 10.05,98.23 9.51,98.23 9.51,98.57 12.07,98.57 12.07,98.23 11.52,98.23 11.52,95.49 13.92,95.49 
		13.92,98.23 13.35,98.23 13.35,98.57 15.93,98.57 	"/>
	<path style="fill-rule:evenodd;clip-rule:evenodd;" d="M23.39,95.49c0.07-1.94-1.07-3.34-3.07-3.34c-1.43,0-3.07,0.77-3.16,3.31
		c-0.05,1.23,0.8,3.27,3.16,3.27C22.71,98.73,23.34,96.63,23.39,95.49L23.39,95.49L23.39,95.49L23.39,95.49z M21.86,95.51
		c0,1.75-0.42,2.91-1.54,2.91c-1.18,0-1.59-1.5-1.59-2.91c0-1.45,0.31-3.18,1.59-3.18C21.56,92.32,21.86,94.12,21.86,95.51
		L21.86,95.51L21.86,95.51z"/>
	<path style="fill-rule:evenodd;clip-rule:evenodd;" d="M30.15,94.69v-2.39h-5.54v2.39h0.16c0-1.86,1.23-2.04,1.65-2.04h0.14v5.58
		h-0.57v0.34h2.58v-0.34h-0.56v-5.58h0.16c0.35,0,1.79,0.17,1.79,2.04H30.15L30.15,94.69L30.15,94.69z"/>
	<path style="fill-rule:evenodd;clip-rule:evenodd;" d="M37.05,98.57v-2.21h-0.2c0,1.23-0.99,1.86-1.68,1.86h-1.8V95.5h0.75
		c0.65,0.04,1.06,0.29,1.06,1.35h0.19v-2.92h-0.19c0,0.62-0.43,1.28-1.06,1.28h-0.75v-2.57h1.38c1.47,0,1.75,0.37,2,1.94h0.16v-2.27
		h-5.56v0.34h0.56v5.58c-0.2,0-0.34,0-0.56,0v0.34h5.69V98.57L37.05,98.57z"/>
	<path style="fill-rule:evenodd;clip-rule:evenodd;" d="M43.27,98.57v-2.49h-0.19c-0.17,0.96-0.5,2.15-2.11,2.15
		c-0.25,0-0.46,0-0.71,0v-5.58h0.57v-0.34h-2.58v0.34h0.56v5.58h-0.56v0.34H43.27L43.27,98.57L43.27,98.57z"/>
	<path style="fill-rule:evenodd;clip-rule:evenodd;" d="M49.85,96.57c0-1.26-0.88-2.09-2.26-2.14c-1.3-0.05-2.29-0.05-2.29-0.97
		c0-0.86,0.87-1.02,1.54-1.02c1.76,0,2.29,1.63,2.36,1.93h0.24v-2.05H49.2c-0.01,0.19,0,0.46-0.24,0.46c-0.31,0-0.89-0.62-2.21-0.62
		c-1.28,0-2.21,0.87-2.21,2.06c0,1.06,0.87,1.96,2.15,1.99C47.91,96.22,49,96.3,49,97.28c0,0.89-0.96,1.12-1.83,1.14
		c-1.52,0.01-2.19-0.99-2.47-2.09h-0.24v2.26h0.24c0,0,0.05-0.46,0.32-0.46c0.51,0,0.72,0.62,2.19,0.62
		C48.94,98.73,49.85,97.72,49.85,96.57L49.85,96.57L49.85,96.57z"/>
	<path style="fill-rule:evenodd;clip-rule:evenodd;" d="M59.38,96.88h-0.22c0,0.3-0.01,0.82-0.42,0.82s-0.83-0.62-0.83-0.62
		c0.11-0.19,0.42-0.8,0.42-1.94c0-0.19-0.04-0.36-0.06-0.53l-0.35,0.06c0.04,0.89,0.09,1.6-0.26,2.19l-2.01-2.04
		c0.3-0.19,1.09-0.58,1.09-1.4c0-0.57-0.34-1.28-1.39-1.28c-0.97,0-1.85,0.7-1.85,1.63c0,0.61,0.25,0.91,0.72,1.5
		c-0.34,0.16-1.5,0.72-1.5,1.85c0,0.66,0.48,1.6,2.09,1.6s2.1-0.5,2.19-0.57c0.14,0.12,0.4,0.37,0.98,0.37
		c1.21,0,1.35-0.82,1.38-1.11C59.39,97.2,59.38,96.88,59.38,96.88L59.38,96.88L59.38,96.88L59.38,96.88z M56.12,93.43
		c0,0.43-0.14,0.78-0.71,1.17c0,0-0.86-0.76-0.86-1.42c0-0.39,0.31-0.81,0.8-0.81C55.84,92.37,56.12,92.9,56.12,93.43L56.12,93.43
		L56.12,93.43L56.12,93.43z M56.78,97.95c-0.25,0.24-0.97,0.39-1.21,0.39c-0.85,0-1.49-0.77-1.49-1.68c0-0.34,0.14-0.89,0.45-1.07
		L56.78,97.95L56.78,97.95L56.78,97.95z"/>
	<path style="fill-rule:evenodd;clip-rule:evenodd;" d="M68.81,97.08H68.6c0,0.41-0.12,1.04-0.45,1.04c-0.4,0-0.31-0.4-0.37-1.27
		c-0.07-1.18-0.86-1.35-1.26-1.43c0.26-0.07,1.43-0.2,1.43-1.52c0-0.89-0.37-1.62-1.96-1.62h-3.74v0.34h0.56v5.58h-0.56v0.34h2.58
		v-0.34h-0.57v-2.65h0.97c0.97,0,0.97,0.42,0.97,1.6c0,1.23,0.67,1.55,1.32,1.55C68.54,98.73,68.81,98.09,68.81,97.08L68.81,97.08
		L68.81,97.08L68.81,97.08z M66.51,94.01c0,0.75-0.35,1.23-1.26,1.23h-0.97v-2.58h1.07C66.2,92.65,66.51,93.26,66.51,94.01
		L66.51,94.01L66.51,94.01z"/>
	<path style="fill-rule:evenodd;clip-rule:evenodd;" d="M75.72,98.57v-2.21h-0.2c0,1.23-0.99,1.86-1.68,1.86h-1.8V95.5h0.75
		c0.65,0.04,1.06,0.29,1.06,1.35h0.19v-2.92h-0.19c0,0.62-0.43,1.28-1.06,1.28h-0.75v-2.57h1.38c1.47,0,1.75,0.37,2,1.94h0.16v-2.27
		h-5.56v0.34h0.56v5.58c-0.2,0-0.35,0-0.56,0v0.34h5.69V98.57L75.72,98.57z"/>
	<path style="fill-rule:evenodd;clip-rule:evenodd;" d="M82.29,96.57c0-1.26-0.88-2.09-2.26-2.14c-1.3-0.05-2.29-0.05-2.29-0.97
		c0-0.86,0.87-1.02,1.54-1.02c1.76,0,2.29,1.63,2.36,1.93h0.25v-2.05h-0.25c-0.01,0.19,0,0.46-0.24,0.46
		c-0.31,0-0.89-0.62-2.21-0.62c-1.28,0-2.21,0.87-2.21,2.06c0,1.06,0.87,1.96,2.15,1.99c1.22,0.01,2.31,0.09,2.31,1.07
		c0,0.89-0.96,1.12-1.83,1.14c-1.52,0.01-2.19-0.99-2.47-2.09h-0.22v2.26h0.24c0,0,0.05-0.46,0.32-0.46c0.51,0,0.72,0.62,2.19,0.62
		C81.39,98.73,82.29,97.72,82.29,96.57L82.29,96.57L82.29,96.57z"/>
	<path style="fill-rule:evenodd;clip-rule:evenodd;" d="M89.73,95.49c0.07-1.94-1.07-3.34-3.07-3.34c-1.43,0-3.07,0.77-3.16,3.31
		c-0.05,1.23,0.8,3.27,3.16,3.27C89.04,98.73,89.68,96.63,89.73,95.49L89.73,95.49L89.73,95.49L89.73,95.49z M88.2,95.51
		c0,1.75-0.42,2.91-1.54,2.91c-1.18,0-1.59-1.5-1.59-2.91c0-1.45,0.31-3.18,1.59-3.18C87.9,92.32,88.2,94.12,88.2,95.51L88.2,95.51
		L88.2,95.51z"/>
	<path style="fill-rule:evenodd;clip-rule:evenodd;" d="M97.48,97.08h-0.21c0,0.41-0.12,1.04-0.45,1.04c-0.4,0-0.31-0.4-0.37-1.27
		c-0.07-1.18-0.86-1.35-1.26-1.43c0.26-0.07,1.43-0.2,1.43-1.52c0-0.89-0.37-1.62-1.96-1.62h-3.74v0.34h0.56v5.58h-0.56v0.34h2.58
		v-0.34h-0.55v-2.65h0.97c0.97,0,0.97,0.42,0.97,1.6c0,1.23,0.67,1.55,1.32,1.55C97.21,98.73,97.48,98.09,97.48,97.08L97.48,97.08
		L97.48,97.08L97.48,97.08z M95.18,94.01c0,0.75-0.35,1.23-1.26,1.23h-0.97v-2.58h1.07C94.87,92.65,95.18,93.26,95.18,94.01
		L95.18,94.01L95.18,94.01z"/>
	<path style="fill-rule:evenodd;clip-rule:evenodd;" d="M104.23,94.69v-2.39h-5.54v2.39h0.16c0-1.86,1.23-2.04,1.65-2.04h0.14v5.58
		h-0.57v0.34h2.58v-0.34h-0.56v-5.58h0.16c0.35,0,1.79,0.17,1.79,2.04H104.23L104.23,94.69L104.23,94.69z"/>
	<path style="fill-rule:evenodd;clip-rule:evenodd;" d="M110.82,96.57c0-1.26-0.88-2.09-2.26-2.14c-1.3-0.05-2.29-0.05-2.29-0.97
		c0-0.86,0.87-1.02,1.54-1.02c1.76,0,2.29,1.63,2.36,1.93h0.24v-2.05h-0.24c-0.01,0.19,0,0.46-0.24,0.46
		c-0.31,0-0.89-0.62-2.21-0.62c-1.28,0-2.21,0.87-2.21,2.06c0,1.06,0.87,1.96,2.15,1.99c1.22,0.01,2.31,0.09,2.31,1.07
		c0,0.89-0.96,1.12-1.83,1.14c-1.52,0.01-2.19-0.99-2.47-2.09h-0.24v2.26h0.24c0,0,0.05-0.46,0.32-0.46c0.51,0,0.72,0.62,2.19,0.62
		C109.91,98.73,110.82,97.72,110.82,96.57L110.82,96.57L110.82,96.57z"/>
	<path style="fill-rule:evenodd;clip-rule:evenodd;" d="M55.79,61.03c-1.21,0-2.19,0.48-2.85,0.66c-0.36,0.1-1.4,0.4-2.25,0
		c-0.16-0.06-0.68-0.1-0.06,0.58c0.16,0.2,0.48,0.4,0.88,0.58c2.09,1.02,3.95,0.58,6.2-0.42c0.56-0.26,1.47-0.22,1.47-0.52
		c-0.04-0.3-0.48-0.48-0.82-0.94c-1.24-1.76-2.77-3.23-4.64-3.91c-0.98-0.4-1.44-0.1-1.14,0.16c0.72,0.68,1.08,1.96,2.03,3.03
		C54.9,60.58,55.33,60.9,55.79,61.03L55.79,61.03L55.79,61.03z"/>
	<path style="fill-rule:evenodd;clip-rule:evenodd;" d="M58.98,60.08c0-0.68,1.04-1.73,1.24-2.35c0.22,0.62,1.24,1.67,1.24,2.35
		c0,0.68-0.56,1.24-1.24,1.24C59.54,61.32,58.98,60.77,58.98,60.08L58.98,60.08L58.98,60.08z"/>
	<path style="fill-rule:evenodd;clip-rule:evenodd;" d="M58.98,63.49c0,0.68,1.04,1.76,1.24,2.39c0.22-0.62,1.24-1.7,1.24-2.39
		s-0.56-1.24-1.24-1.24C59.54,62.24,58.98,62.79,58.98,63.49L58.98,63.49L58.98,63.49z"/>
	<path style="fill-rule:evenodd;clip-rule:evenodd;" d="M49.61,58.45c-1.11-0.4-2.15-0.3-2.85-0.36c-0.36-0.06-1.37-0.1-2.03-0.72
		c-0.14-0.12-0.58-0.36-0.26,0.52c0.06,0.2,0.3,0.46,0.58,0.78c1.6,1.63,3.43,1.86,5.78,1.67c0.62-0.04,1.63,0.2,1.7-0.1
		c0.06-0.26-0.42-0.52-0.58-1.01c-0.56-2.03-1.44-3.89-2.91-5.13c-0.75-0.66-1.3-0.52-1.11-0.2c0.42,0.85,0.32,2.13,0.85,3.43
		C48.96,57.73,49.25,58.16,49.61,58.45L49.61,58.45L49.61,58.45z"/>
	<path style="fill-rule:evenodd;clip-rule:evenodd;" d="M44.55,53.84c-0.88-0.68-1.89-0.88-2.49-1.11
		c-0.36-0.16-1.24-0.48-1.67-1.24c-0.1-0.16-0.46-0.48-0.42,0.4c0.04,0.2,0.16,0.52,0.36,0.94c0.98,1.89,2.61,2.65,4.83,3.11
		c0.56,0.16,1.44,0.62,1.57,0.4c0.16-0.2-0.26-0.58-0.22-1.11c0.04-1.99-0.26-3.95-1.28-5.49c-0.46-0.85-1.01-0.88-0.92-0.48
		c0.14,0.88-0.3,2.03-0.2,3.37C44.15,53.04,44.32,53.48,44.55,53.84L44.55,53.84L44.55,53.84z"/>
	<path style="fill-rule:evenodd;clip-rule:evenodd;" d="M41.48,48.29c-0.62-0.88-1.47-1.37-1.93-1.76c-0.3-0.22-1.01-0.82-1.14-1.63
		c-0.06-0.16-0.3-0.56-0.52,0.26c0,0.2,0,0.52,0.06,0.94c0.32,2.06,1.6,3.21,3.47,4.28c0.48,0.32,1.14,0.98,1.34,0.85
		c0.2-0.16-0.06-0.62,0.1-1.08c0.66-1.83,0.94-3.73,0.48-5.42c-0.2-0.92-0.68-1.08-0.68-0.72c-0.16,0.85-0.88,1.76-1.18,3.03
		C41.38,47.42,41.38,47.9,41.48,48.29L41.48,48.29L41.48,48.29z"/>
	<path style="fill-rule:evenodd;clip-rule:evenodd;" d="M40.44,41.99c-0.22-0.94-0.85-1.67-1.11-2.19c-0.14-0.3-0.58-1.04-0.42-1.83
		c0-0.14-0.06-0.58-0.52,0.06c-0.1,0.16-0.2,0.48-0.3,0.85c-0.4,1.89,0.36,3.33,1.6,4.93c0.32,0.42,0.66,1.27,0.85,1.18
		c0.22-0.06,0.2-0.56,0.48-0.88c1.14-1.4,2.06-2.97,2.19-4.61c0.14-0.85-0.22-1.21-0.32-0.88c-0.42,0.72-1.4,1.28-2.03,2.29
		C40.63,41.17,40.44,41.63,40.44,41.99L40.44,41.99L40.44,41.99z"/>
	<path style="fill-rule:evenodd;clip-rule:evenodd;" d="M41.25,36.08c0-0.94-0.36-1.76-0.48-2.29c-0.06-0.32-0.26-1.11,0.06-1.76
		c0.04-0.16,0.06-0.58-0.52-0.1c-0.1,0.14-0.26,0.4-0.46,0.72c-0.82,1.63-0.48,3.17,0.26,4.93c0.2,0.46,0.3,1.3,0.48,1.27
		c0.22,0,0.32-0.46,0.66-0.72c1.4-1.01,2.61-2.19,3.17-3.65c0.32-0.75,0.06-1.18-0.1-0.92c-0.56,0.56-1.57,0.82-2.41,1.63
		C41.61,35.36,41.35,35.75,41.25,36.08L41.25,36.08L41.25,36.08z"/>
	<path style="fill-rule:evenodd;clip-rule:evenodd;" d="M43.61,30.82c0.3-0.92,0.16-1.8,0.2-2.35c0-0.32,0.04-1.14,0.52-1.7
		c0.1-0.1,0.22-0.48-0.42-0.2c-0.16,0.06-0.4,0.26-0.66,0.56c-1.28,1.34-1.37,2.91-1.14,4.8c0.06,0.52-0.06,1.34,0.12,1.37
		c0.22,0.06,0.42-0.36,0.85-0.52c1.6-0.56,3.11-1.37,4.01-2.61c0.52-0.66,0.42-1.11,0.16-0.92c-0.68,0.36-1.73,0.36-2.77,0.88
		C44.15,30.23,43.79,30.53,43.61,30.82L43.61,30.82L43.61,30.82z"/>
	<path style="fill-rule:evenodd;clip-rule:evenodd;" d="M47.22,26.64c0.52-0.68,0.72-1.44,0.88-1.89c0.14-0.22,0.4-0.92,0.98-1.18
		c0.14-0.1,0.36-0.4-0.3-0.32c-0.14,0-0.42,0.1-0.72,0.22c-1.44,0.72-2.03,1.96-2.45,3.59c-0.1,0.42-0.46,1.08-0.3,1.18
		s0.46-0.16,0.82-0.16c1.54,0.04,3.03-0.16,4.15-0.92c0.62-0.36,0.68-0.75,0.42-0.68c-0.68,0.1-1.54-0.22-2.55-0.16
		C47.85,26.32,47.49,26.44,47.22,26.64L47.22,26.64L47.22,26.64z"/>
	<path style="fill-rule:evenodd;clip-rule:evenodd;" d="M51.34,23.87c0.56-0.46,0.85-1.08,1.11-1.44c0.12-0.16,0.48-0.72,1.04-0.85
		c0.12-0.04,0.36-0.26-0.2-0.32c-0.14-0.04-0.36,0-0.66,0.06c-1.37,0.32-2.13,1.3-2.77,2.68c-0.16,0.32-0.62,0.85-0.46,0.94
		c0.1,0.1,0.42-0.1,0.75,0c1.28,0.32,2.61,0.42,3.73-0.04c0.58-0.2,0.72-0.52,0.48-0.48c-0.62-0.06-1.28-0.48-2.19-0.62
		C51.93,23.73,51.57,23.77,51.34,23.87L51.34,23.87L51.34,23.87z"/>
	<path style="fill-rule:evenodd;clip-rule:evenodd;" d="M57.75,21.67c-0.42,0.92-1.5,1.21-1.83,1.3c-0.26,0.1-1.37,0.4-2.19-0.16
		c0.42-0.92,1.5-1.21,1.8-1.3C55.82,21.44,56.89,21.12,57.75,21.67L57.75,21.67L57.75,21.67z"/>
	<path style="fill-rule:evenodd;clip-rule:evenodd;" d="M66.96,30.98c0.72,0.26,1.34-0.06,1.6-0.66c0.12-0.26,0.2-0.42,0.2-0.68
		h0.94v7.68h-0.68c-1.18-3.21-4.11-6.3-7.54-7.06c-3.39-0.52-7.34-0.46-9.31,2.51c-0.56,0.82-0.26,2.49,0.78,3.07
		c3.49,2.13,7.32,1.14,11.96,1.8c2.35,0.32,4.93,1.67,5.98,4.28c1.01,2.51,0.82,5.1-0.2,6.8c-2.39,4.09-6.82,4.47-9.67,4.47
		c-2.97,0-5.94-1.37-8.3-2.22c-0.72-0.26-1.34,0.06-1.6,0.66c-0.14,0.26-0.2,0.46-0.2,0.68h-0.94c0-2.45,0-5.23,0-8.1
		c0.26,0,0.56,0,0.94,0.04c0.92,3.73,3.85,6.46,6.8,7.32c3.39,1.01,6.8,0.85,9.44-1.01c1.04-0.72,1.44-2.29,1.04-3.65
		c-0.58-2.06-3.75-2.61-6.04-2.65c-4.9-0.14-10.85-0.06-12.6-5.46c-0.68-2.58-0.26-5.42,1.6-7.34c3.07-3.01,8.23-3.11,12.15-1.89
		C64.7,29.85,65.65,30.59,66.96,30.98L66.96,30.98L66.96,30.98z"/>
	<path style="fill-rule:evenodd;clip-rule:evenodd;" d="M64.67,61.03c1.21,0,2.19,0.48,2.87,0.66c0.36,0.1,1.37,0.4,2.22,0
		c0.16-0.06,0.68-0.1,0.06,0.58c-0.16,0.2-0.48,0.4-0.88,0.58c-2.09,1.02-3.95,0.58-6.18-0.42c-0.58-0.26-1.5-0.22-1.47-0.52
		c0-0.3,0.46-0.48,0.78-0.94c1.24-1.76,2.77-3.23,4.64-3.91c0.98-0.4,1.44-0.1,1.14,0.16c-0.72,0.68-1.04,1.96-2.03,3.03
		C65.56,60.58,65.13,60.9,64.67,61.03L64.67,61.03L64.67,61.03z"/>
	<path style="fill-rule:evenodd;clip-rule:evenodd;" d="M70.85,58.45c1.11-0.4,2.15-0.3,2.85-0.36c0.36-0.06,1.4-0.1,2.03-0.72
		c0.12-0.12,0.58-0.36,0.26,0.52c-0.06,0.2-0.3,0.46-0.58,0.78c-1.6,1.63-3.43,1.86-5.78,1.67c-0.62-0.04-1.6,0.2-1.7-0.1
		c-0.06-0.26,0.42-0.52,0.58-1.01c0.56-2.03,1.44-3.89,2.91-5.13c0.75-0.66,1.3-0.52,1.11-0.2c-0.42,0.85-0.32,2.13-0.85,3.43
		C71.5,57.73,71.2,58.16,70.85,58.45L70.85,58.45L70.85,58.45z"/>
	<path style="fill-rule:evenodd;clip-rule:evenodd;" d="M75.91,53.84c0.88-0.68,1.89-0.88,2.49-1.11c0.36-0.16,1.28-0.48,1.67-1.24
		c0.1-0.16,0.46-0.48,0.42,0.4c-0.04,0.2-0.16,0.52-0.36,0.94c-0.98,1.89-2.61,2.65-4.83,3.11c-0.56,0.16-1.44,0.62-1.57,0.4
		c-0.14-0.2,0.26-0.58,0.22-1.11c-0.04-1.99,0.26-3.95,1.28-5.49c0.48-0.85,1.01-0.88,0.92-0.48c-0.14,0.88,0.3,2.03,0.2,3.37
		C76.29,53.04,76.13,53.48,75.91,53.84L75.91,53.84L75.91,53.84z"/>
	<path style="fill-rule:evenodd;clip-rule:evenodd;" d="M78.98,48.29c0.62-0.88,1.47-1.37,1.96-1.76c0.26-0.22,0.98-0.82,1.14-1.63
		c0.04-0.16,0.26-0.56,0.48,0.26c0.04,0.2,0,0.52-0.04,0.94c-0.32,2.06-1.63,3.21-3.49,4.28c-0.48,0.32-1.14,0.98-1.3,0.85
		c-0.2-0.16,0.04-0.62-0.14-1.08c-0.62-1.83-0.94-3.73-0.48-5.42c0.22-0.92,0.68-1.08,0.68-0.72c0.16,0.85,0.92,1.76,1.18,3.03
		C79.1,47.42,79.1,47.9,78.98,48.29L78.98,48.29L78.98,48.29z"/>
	<path style="fill-rule:evenodd;clip-rule:evenodd;" d="M80.02,41.99c0.26-0.94,0.85-1.67,1.11-2.19c0.14-0.3,0.58-1.04,0.42-1.83
		c0-0.14,0.1-0.58,0.56,0.06c0.1,0.16,0.16,0.48,0.26,0.85c0.4,1.89-0.36,3.33-1.57,4.93c-0.36,0.42-0.68,1.27-0.88,1.18
		c-0.22-0.06-0.16-0.56-0.46-0.88c-1.18-1.4-2.06-2.97-2.22-4.61c-0.14-0.85,0.22-1.21,0.32-0.88c0.42,0.72,1.4,1.28,2.03,2.29
		C79.86,41.17,80.02,41.63,80.02,41.99L80.02,41.99L80.02,41.99z"/>
	<path style="fill-rule:evenodd;clip-rule:evenodd;" d="M79.24,36.08c-0.04-0.94,0.32-1.76,0.46-2.29c0.06-0.32,0.3-1.11-0.04-1.76
		c-0.06-0.16-0.1-0.58,0.48-0.1c0.14,0.14,0.26,0.4,0.46,0.72c0.85,1.63,0.48,3.17-0.22,4.93c-0.2,0.46-0.32,1.3-0.52,1.27
		c-0.22,0-0.3-0.46-0.66-0.72c-1.37-1.01-2.61-2.19-3.17-3.65c-0.3-0.75-0.06-1.18,0.14-0.92c0.52,0.56,1.57,0.82,2.41,1.63
		C78.84,35.36,79.14,35.75,79.24,36.08L79.24,36.08L79.24,36.08z"/>
	<path style="fill-rule:evenodd;clip-rule:evenodd;" d="M76.85,30.82c-0.3-0.92-0.16-1.8-0.16-2.35c-0.04-0.32-0.06-1.14-0.56-1.7
		c-0.06-0.1-0.22-0.48,0.46-0.2c0.12,0.06,0.36,0.26,0.62,0.56c1.28,1.34,1.37,2.91,1.14,4.8c-0.06,0.52,0.06,1.34-0.14,1.37
		c-0.22,0.06-0.42-0.36-0.82-0.52c-1.63-0.56-3.13-1.37-4.05-2.61c-0.52-0.66-0.4-1.11-0.16-0.92c0.68,0.36,1.73,0.36,2.77,0.88
		C76.29,30.23,76.65,30.53,76.85,30.82L76.85,30.82L76.85,30.82z"/>
	<path style="fill-rule:evenodd;clip-rule:evenodd;" d="M73.3,26.6c-0.48-0.68-0.68-1.44-0.85-1.89c-0.12-0.22-0.42-0.92-0.98-1.18
		c-0.12-0.1-0.36-0.4,0.3-0.32c0.14,0,0.4,0.1,0.72,0.22c1.44,0.72,2.03,1.96,2.41,3.59c0.1,0.46,0.48,1.08,0.32,1.18
		c-0.16,0.14-0.46-0.16-0.85-0.16c-1.5,0.06-3.01-0.16-4.11-0.88c-0.66-0.4-0.68-0.78-0.46-0.72c0.72,0.1,1.57-0.22,2.58-0.16
		C72.68,26.28,73.06,26.42,73.3,26.6L73.3,26.6L73.3,26.6z"/>
	<path style="fill-rule:evenodd;clip-rule:evenodd;" d="M69.15,23.87c-0.56-0.46-0.85-1.08-1.11-1.47
		c-0.12-0.16-0.48-0.68-1.04-0.85c-0.14-0.04-0.36-0.22,0.2-0.3c0.14-0.04,0.4,0,0.66,0.06c1.37,0.32,2.13,1.3,2.77,2.65
		c0.16,0.36,0.62,0.85,0.46,0.94c-0.1,0.12-0.42-0.06-0.75,0.04c-1.27,0.32-2.61,0.4-3.69-0.04c-0.62-0.2-0.75-0.56-0.52-0.52
		c0.62-0.06,1.27-0.48,2.19-0.62C68.56,23.69,68.91,23.77,69.15,23.87L69.15,23.87L69.15,23.87z"/>
	<path style="fill-rule:evenodd;clip-rule:evenodd;" d="M62.71,21.67c0.42,0.92,1.5,1.21,1.83,1.3c0.26,0.1,1.37,0.4,2.19-0.16
		c-0.42-0.92-1.5-1.21-1.8-1.3C64.64,21.44,63.55,21.12,62.71,21.67L62.71,21.67L62.71,21.67z"/>
	<path style="fill-rule:evenodd;clip-rule:evenodd;" d="M15.92,80.97c0-3.7-2.62-6.2-6.69-6.35c-3.85-0.15-6.79-0.15-6.79-2.88
		c0-2.55,2.57-3.01,4.57-3.01c5.23,0,6.76,4.83,6.98,5.7h0.72v-6.08h-0.72c-0.02,0.57,0,1.35-0.7,1.35c-0.91,0-2.65-1.83-6.55-1.83
		c-3.8,0-6.55,2.57-6.55,6.1c0,3.13,2.6,5.83,6.38,5.88c3.6,0.05,6.86,0.25,6.86,3.16c0,2.65-2.83,3.33-5.43,3.38
		c-4.5,0.05-6.5-2.96-7.33-6.18H0v6.69h0.7c0,0,0.15-1.35,0.96-1.35c1.5,0,2.15,1.83,6.47,1.83C13.24,87.4,15.92,84.4,15.92,80.97
		L15.92,80.97L15.92,80.97z"/>
	<path style="fill-rule:evenodd;clip-rule:evenodd;" d="M33.9,86.93v-0.89h-1.58V78c0-2.37-1.9-4.65-5.18-4.65
		c-2.65,0-3.8,1.11-4.78,2.05v-7.06H16.5v0.89h1.5v16.79h-1.63v0.89h7.51v-0.89h-1.53v-7.61c0-1.85,1.03-3.8,3.16-3.8
		c1.38,0,2.27,1.33,2.27,2.55v8.86h-1.63v0.89L33.9,86.93L33.9,86.93L33.9,86.93z"/>
	<path style="fill-rule:evenodd;clip-rule:evenodd;" d="M47.76,80.24v-0.96c0-3.01-2.15-6.13-6.69-6.13c-4.13,0-7.18,2.5-7.18,7.23
		c0,4.69,3.38,7.01,7.46,7.01c2.62,0,5.9-1.16,6.33-5.21h-0.6c0,1.03-1.3,4.05-4.52,4.05c-3.85,0-4.35-2.88-4.35-6H47.76
		L47.76,80.24L47.76,80.24L47.76,80.24z M43.71,79.37H38.2c0,0-0.15-5.43,2.82-5.43C44.23,73.94,43.71,79.37,43.71,79.37
		L43.71,79.37L43.71,79.37z"/>
	<path style="fill-rule:evenodd;clip-rule:evenodd;" d="M61.11,76.34c0-1.38-0.89-3.01-2.7-3.01c-2.25,0-3.63,1.73-4,2.22v-1.93
		h-5.8v0.87h1.3v11.56h-1.63v0.89h7.56v-0.89h-1.58v-5.8c0-2.96,1.68-6.08,4.05-6.08c0.47,0,0.7,0.15,0.96,0.47
		c-0.87-0.27-2.27,0.6-2.27,2.05c0,1.16,1.11,1.98,2.1,1.98C60.22,78.65,61.11,77.49,61.11,76.34L61.11,76.34L61.11,76.34z"/>
	<path style="fill-rule:evenodd;clip-rule:evenodd;" d="M77.62,83.67v-1.01h-0.7c0,0.7,0,3.16-1.06,3.16
		c-0.67,0-1.03-0.42-1.03-1.06v-4.32c0-2.47,0.62-7.28-6.35-7.28c-4.1,0-6.18,1.63-6.18,3.53c0,0.6,0.27,2.08,2.08,2.08
		c0.85,0,1.95-0.91,1.95-2.05c0-1.43-1.33-2.03-1.33-2.03c0.65-0.32,1.26-0.57,2.17-0.57c1.68,0,3.21,0.99,3.21,2.7
		c0,4.55-8.86,0.94-8.86,6.84c0,1.55,0.89,3.75,4.35,3.75c3.41,0,4.05-1.35,4.7-2.32c0.8,1.33,1.4,2.27,3.26,2.27
		C76.62,87.35,77.62,86.04,77.62,83.67L77.62,83.67L77.62,83.67L77.62,83.67z M70.24,83.4c0,1.48-1.63,2.75-2.37,2.75
		c-1.21,0-2-1.3-2-2.6c0-3.06,2.62-2.83,4.37-4.32L70.24,83.4L70.24,83.4L70.24,83.4z"/>
	<path style="fill-rule:evenodd;clip-rule:evenodd;" d="M86.87,83.55v-0.8H86.2c0,0.96,0,3.01-1.6,3.01c-0.72,0-1.5-0.52-1.5-1.75
		v-9.53h2.47V73.6h-2.47V69h-0.65c-0.42,2.15-1.85,4.62-4.86,4.62v0.87h1.63v9.53c0,1.75,1.38,3.38,3.8,3.38
		C86.21,87.4,86.87,84.8,86.87,83.55L86.87,83.55L86.87,83.55z"/>
	<path style="fill-rule:evenodd;clip-rule:evenodd;" d="M102.28,80.39c0-3.7-2-7.23-7.58-7.23c-4.73,0-7.18,3.16-7.18,7.23
		c0,4.55,2.91,7.01,7.43,7.01C98.82,87.4,102.28,85.2,102.28,80.39L102.28,80.39L102.28,80.39L102.28,80.39z M98.08,80.16
		c0,2.6-0.5,6.3-3.28,6.3c-2.93,0-3.21-4.6-3.21-5.98c0-2.25,0.47-6.5,3.43-6.5C97.53,73.99,98.08,77.37,98.08,80.16L98.08,80.16
		L98.08,80.16z"/>
	<path style="fill-rule:evenodd;clip-rule:evenodd;" d="M120,86.93v-0.89h-1.48v-8.08c0-2.5-1.75-4.73-5.23-4.73
		c-2.7,0-4.05,1.26-4.83,2.25v-1.85h-5.85v0.87h1.5v11.56h-1.63v0.89h7.56v-0.89h-1.58v-7.33c0-1.85,1.11-4.03,3.11-4.03
		c1.11,0,2.37,0.7,2.37,2.22v9.13h-1.63v0.89H120V86.93L120,86.93z"/>
</g>
</svg>
