<svg width="201" height="200" viewBox="0 0 201 200" fill="none" xmlns="http://www.w3.org/2000/svg">
<path opacity="0.2" d="M151 45L186 80L151 115" stroke="#F4B32F" stroke-width="20"/>
<path opacity="0.2" d="M4 100L19 114L4 128" stroke="#F4B32F" stroke-width="10"/>
<path d="M29 134H104" stroke="#FDF0D5" stroke-width="5"/>
<path d="M77 143L104 143" stroke="#FDF0D5" stroke-width="5"/>
<path opacity="0.2" d="M31 35L53 55.5L31 76" stroke="#F4B32F" stroke-width="15"/>
<g clip-path="url(#clip0_270_5856)">
<path d="M150.978 87.0514C150.966 86.9251 150.941 86.8002 150.903 86.6793C150.863 86.4565 150.761 86.2493 150.609 86.0815C150.538 85.9797 150.457 85.8849 150.367 85.7992C150.336 85.7736 150.323 85.7369 150.292 85.7131L132.666 72.0191V57.8262C132.666 54.7885 130.203 52.3258 127.165 52.3258H107.296L99.3404 46.1489C97.3744 44.618 94.6198 44.618 92.6538 46.1489L84.6965 52.3258H64.8273C61.7897 52.3258 59.327 54.7883 59.327 57.8262V72.0191L41.7002 85.7131C41.6691 85.7369 41.6562 85.7736 41.625 85.7992C41.5352 85.8852 41.4542 85.9797 41.3831 86.0815C41.3137 86.1701 41.2525 86.2646 41.1998 86.3639C41.1566 86.4659 41.1223 86.5714 41.0971 86.6793C41.0589 86.7985 41.0337 86.9214 41.0219 87.046C41.0219 87.0845 41 87.1176 41 87.156V149.499C41.003 150.665 41.3794 151.799 42.0745 152.735C42.0855 152.752 42.0874 152.77 42.1001 152.786C42.113 152.803 42.1422 152.818 42.1587 152.838C43.1888 154.193 44.7907 154.992 46.4931 154.999H145.5C147.209 154.994 148.818 154.191 149.849 152.827C149.863 152.81 149.885 152.805 149.9 152.786C149.915 152.768 149.915 152.752 149.925 152.735C150.62 151.799 150.997 150.665 151 149.499V87.1614C151 87.123 150.98 87.0899 150.978 87.0514ZM94.8961 49.0422C95.5374 48.5362 96.442 48.5362 97.0833 49.0422L101.313 52.3258H90.679L94.8961 49.0422ZM46.9548 151.332L94.8961 114.093C95.5363 113.584 96.443 113.584 97.0833 114.093L145.037 151.332H46.9548ZM147.333 148.472L99.3404 111.2C97.3753 109.666 94.6189 109.666 92.6538 111.2L44.6595 148.472V89.9539L74.7043 113.283C75.5049 113.889 76.6445 113.739 77.2603 112.945C77.8761 112.152 77.7388 111.011 76.9522 110.386L46.4305 86.6849L59.327 76.6632V90.8286C59.327 91.8412 60.1479 92.662 61.1603 92.662C62.173 92.662 62.9937 91.841 62.9937 90.8286V57.8264C62.9937 56.8138 63.8145 55.993 64.8271 55.993H127.165C128.177 55.993 128.998 56.8138 128.998 57.8264V90.8286C128.998 91.8412 129.819 92.662 130.831 92.662C131.844 92.662 132.665 91.841 132.665 90.8286V76.6632L145.561 86.6849L114.987 110.428C114.186 111.049 114.041 112.201 114.661 113.001C115.282 113.802 116.434 113.948 117.235 113.327L147.333 89.9539V148.472Z" fill="#921B43"/>
<path fill-rule="evenodd" clip-rule="evenodd" d="M106.364 61.8395C110.084 62.8332 112.989 65.7383 113.983 69.4577C114.976 73.1773 113.907 77.1442 111.179 79.8607L106.13 84.9081C103.843 87.1884 100.655 88.3231 97.4422 88C94.2294 87.6768 91.3308 85.9298 89.5445 83.2398C88.9839 82.3965 89.2134 81.2583 90.0569 80.6978C90.9002 80.1372 92.0383 80.3667 92.5989 81.2102C93.7782 82.9826 95.6896 84.1334 97.8079 84.3463C99.926 84.5594 102.028 83.8124 103.537 82.3103L108.586 77.2609C110.47 75.4886 111.24 72.8314 110.595 70.3266C109.95 67.822 107.994 65.8666 105.488 65.2237C102.983 64.5809 100.327 65.3524 98.5556 67.2374L97.2925 68.4988V68.4969C96.832 68.9734 96.1503 69.1646 95.5094 68.9968C94.8684 68.829 94.3678 68.3286 94.2 67.6875C94.0322 67.0464 94.2234 66.3648 94.7 65.9044L95.9614 64.643C98.6779 61.9149 102.645 60.8458 106.364 61.8395ZM93.4368 92.4182L94.6999 91.1568C95.4193 90.4619 96.5627 90.472 97.2698 91.1789C97.9771 91.886 97.987 93.0297 97.2922 93.749L96.0307 95.0105C94.0175 97.0353 91.2774 98.1704 88.422 98.1622C84.0707 98.1614 80.148 95.5401 78.4826 91.5199C76.8173 87.4997 77.7371 82.8723 80.8132 79.7946L85.8626 74.7472C88.15 72.4695 91.3378 71.3365 94.5497 71.6597C97.7616 71.9828 100.66 73.7281 102.448 76.4158C103.008 77.2591 102.779 78.3972 101.935 78.9578C101.092 79.5183 99.9541 79.2889 99.3935 78.4453C98.2141 76.673 96.3028 75.5222 94.1845 75.3093C92.0664 75.0961 89.964 75.8432 88.4553 77.3453L83.4059 82.3946C81.5222 84.167 80.7524 86.8244 81.3972 89.329C82.042 91.8336 83.9987 93.789 86.5039 94.4318C89.0092 95.0747 91.6657 94.3031 93.4368 92.4182Z" fill="#921B43"/>
</g>
<defs>
<clipPath id="clip0_270_5856">
<rect width="110" height="110" fill="white" transform="translate(41 45)"/>
</clipPath>
</defs>
</svg>
