<svg width="160" height="160" viewBox="0 0 160 160" fill="none" xmlns="http://www.w3.org/2000/svg">
<g id="house-plan">
<rect width="160" height="160" rx="80" fill="#FFF9ED"/>
<g id="Group">
<path id="Vector" d="M114.341 101.163C115.806 99.4734 116.613 97.3091 116.613 95.0687C116.613 89.933 112.435 85.7549 107.3 85.7549C104.596 85.7549 102.03 86.9279 100.259 88.9734C98.794 90.6643 97.9873 92.829 97.9873 95.0687C97.9873 100.204 102.165 104.381 107.3 104.381C110.004 104.381 112.571 103.208 114.341 101.163ZM100.704 95.0687C100.704 93.4824 101.275 91.9494 102.313 90.7524C102.313 90.7522 102.313 90.7521 102.313 90.7521C103.567 89.303 105.385 88.472 107.3 88.472C110.937 88.472 113.896 91.4313 113.896 95.0688C113.896 96.6553 113.325 98.1878 112.287 99.3846C111.033 100.834 109.215 101.665 107.3 101.665C103.663 101.664 100.704 98.7055 100.704 95.0687Z" fill="#F4B32F"/>
<path id="Vector_2" d="M119.85 82.6174C116.601 79.3432 112.296 77.4805 107.727 77.373C102.914 77.2597 98.3719 79.0467 94.9336 82.4049C91.4945 85.7641 89.6003 90.2613 89.6003 95.0682C89.6003 97.3678 90.0385 99.6104 90.9028 101.733C91.1855 102.428 91.9783 102.762 92.6731 102.48C93.368 102.197 93.7021 101.404 93.4192 100.709C92.688 98.913 92.3175 97.0151 92.3175 95.0682C92.3175 90.9992 93.9208 87.1923 96.8321 84.3487C99.7425 81.5061 103.59 79.9917 107.663 80.0894C111.527 80.1803 115.17 81.7578 117.921 84.5311C120.672 87.3042 122.22 90.9601 122.282 94.8252C122.334 98.1591 121.315 101.33 119.323 104.01L111.936 114.196C110.605 116.032 109.687 118.086 109.208 120.302L108.655 122.861C108.518 123.494 107.949 123.953 107.301 123.953C106.653 123.953 106.083 123.494 105.946 122.86L105.393 120.302C104.914 118.086 103.996 116.031 102.665 114.196L96.2824 105.395C95.8421 104.787 94.9926 104.652 94.385 105.093C93.7778 105.533 93.6424 106.382 94.0829 106.99L100.466 115.791C101.574 117.32 102.339 119.03 102.737 120.876L103.29 123.435C103.695 125.31 105.382 126.671 107.3 126.671C109.219 126.671 110.905 125.31 111.31 123.435L111.863 120.876C112.262 119.031 113.026 117.32 114.135 115.791L121.513 105.617C123.855 102.466 125.06 98.7195 124.998 94.7819C124.926 90.2113 123.097 85.8913 119.85 82.6174Z" fill="#F4B32F"/>
<path id="Vector_3" d="M49.4425 56.2512C51.6861 56.2512 53.8158 55.2776 55.2842 53.5813C56.5 52.1789 57.1696 50.3831 57.1696 48.524C57.1696 47.396 56.9302 46.3063 56.4578 45.2847C56.1428 44.6036 55.3354 44.3068 54.6547 44.6217C53.9736 44.9365 53.6769 45.7439 53.9917 46.4248C54.2974 47.0864 54.4527 47.7928 54.4527 48.524C54.4527 49.7291 54.0188 50.8931 53.2306 51.8021C52.2778 52.9027 50.8972 53.5342 49.4425 53.5342C46.6799 53.5342 44.4325 51.2868 44.4325 48.5242C44.4325 47.3193 44.8663 46.1548 45.6546 45.2452C46.6073 44.1446 47.988 43.5131 49.4427 43.5131C49.6993 43.5131 49.9569 43.5326 50.2085 43.571C50.9502 43.685 51.6432 43.1754 51.7567 42.4336C51.8702 41.6921 51.3611 40.9987 50.6193 40.8854C50.2322 40.8262 49.8363 40.7961 49.4425 40.7961C47.1988 40.7961 45.0692 41.7697 43.6004 43.4666C42.3848 44.8697 41.7153 46.6659 41.7153 48.5242C41.7155 52.7847 45.1818 56.2512 49.4425 56.2512Z" fill="#F4B32F"/>
<path id="Vector_4" d="M43.7512 65.2746C44.6168 66.4679 45.2133 67.8033 45.5247 69.244L45.9674 71.2929C46.3185 72.9181 47.7801 74.0975 49.4429 74.0975C51.1057 74.0975 52.5673 72.9179 52.9184 71.2929L53.3611 69.2442C53.6725 67.8033 54.2692 66.4679 55.1346 65.2747L61.04 57.1316C62.9513 54.5608 63.9347 51.5033 63.8838 48.2903C63.8248 44.5606 62.333 41.0353 59.683 38.3642C57.0325 35.6926 53.5195 34.173 49.7906 34.085C45.8637 33.9918 42.1576 35.4508 39.3519 38.191C36.5457 40.9318 35 44.6013 35 48.5236C35 51.6509 35.9841 54.6275 37.8364 57.1188L43.7512 65.2746ZM41.2504 40.1345C43.46 37.9763 46.3585 36.7978 49.4409 36.7978C49.5356 36.7978 49.6313 36.7989 49.7263 36.8012C52.7497 36.8724 55.6006 38.107 57.7538 40.2775C59.9069 42.448 61.1191 45.3087 61.1668 48.3332C61.2081 50.9424 60.4101 53.4243 58.8499 55.5235L52.9351 63.6792C51.8473 65.1793 51.097 66.8585 50.7055 68.6699L50.2628 70.7186C50.1799 71.1021 49.8351 71.3803 49.4431 71.3803C49.051 71.3803 48.7061 71.1021 48.6233 70.7188L48.1806 68.6701C47.7891 66.8588 47.0391 65.1797 45.9509 63.6794L40.0267 55.5106C38.5161 53.4786 37.7175 51.0624 37.7175 48.5236C37.717 45.3393 38.972 42.3599 41.2504 40.1345Z" fill="#F4B32F"/>
<path id="Vector_5" d="M111.741 49.5593C111.235 50.1132 111.274 50.9726 111.828 51.4786C112.089 51.7168 112.417 51.8341 112.744 51.8341C113.112 51.8341 113.479 51.6851 113.747 51.3919L113.771 51.3666C113.803 51.3313 113.836 51.2958 113.866 51.2611C114.896 50.0735 115.463 48.5526 115.463 46.9785C115.463 43.3701 112.527 40.4343 108.919 40.4343C107.035 40.4343 105.241 41.2481 103.998 42.6671C103.503 43.2315 103.56 44.0898 104.124 44.5841C104.689 45.0785 105.547 45.0219 106.042 44.4574C106.769 43.6273 107.818 43.1511 108.919 43.1511C111.029 43.1511 112.746 44.868 112.746 46.9783C112.746 47.8987 112.415 48.7874 111.812 49.4829L111.741 49.5593Z" fill="#F4B32F"/>
<path id="Vector_6" d="M98.6852 41.3119C99.2944 41.7497 100.144 41.6103 100.581 41.0011C102.564 38.2403 105.775 36.6367 109.167 36.7198C111.813 36.782 114.308 37.8626 116.192 39.762C118.077 41.6616 119.137 44.1651 119.179 46.8115C119.215 49.0948 118.517 51.2669 117.15 53.1057L115.746 55.0422C115.306 55.6494 115.441 56.4988 116.048 56.9394C116.289 57.1142 116.568 57.1982 116.844 57.1982C117.265 57.1982 117.679 57.0035 117.945 56.6371L119.34 54.7135C121.058 52.403 121.941 49.6557 121.896 46.7684C121.843 43.4167 120.502 40.2487 118.121 37.8485C115.739 35.4481 112.582 34.0825 109.231 34.0035C104.94 33.9036 100.881 35.9257 98.3744 39.4161C98.2546 39.5832 97.8982 40.4342 98.4693 41.1182C98.533 41.1888 98.6047 41.2541 98.6852 41.3119Z" fill="#F4B32F"/>
<path id="Vector_7" d="M96.4637 115.352C96.4657 114.975 96.3136 114.6 96.0106 114.33C95.4506 113.831 94.5918 113.88 94.0926 114.44C93.2298 115.408 92.3304 116.294 91.4164 117.081C89.4992 117.744 87.5387 118.249 85.5421 118.598C87.057 115.338 88.3566 110.856 89.3494 105.428C89.4846 104.69 88.9955 103.983 88.2576 103.848C87.5206 103.713 86.812 104.201 86.6769 104.94C85.558 111.057 84.0023 116.017 82.2671 119.026C81.1332 119.125 79.9896 119.177 78.8367 119.177C77.6795 119.177 76.5353 119.123 75.4039 119.023C73.4026 115.56 71.7497 109.769 70.6246 102.684C73.3135 102.902 76.0598 103.015 78.8367 103.015C81.4085 103.015 84.0049 102.918 86.5535 102.726C87.3016 102.669 87.8625 102.017 87.8062 101.269C87.7497 100.521 87.0961 99.9614 86.3495 100.016C83.8686 100.203 81.341 100.298 78.8367 100.298C75.9157 100.298 73.0335 100.17 70.2219 99.9244C69.4887 94.4364 69.0584 88.3093 69.0045 81.9653H91.0348C91.7851 81.9653 92.3934 81.3572 92.3934 80.6067C92.3934 79.9783 91.9661 79.4511 91.3867 79.296C91.3375 73.0229 90.9362 67.0084 90.2399 61.5743C94.7741 62.1059 99.0842 62.9502 103.022 64.0719C103.858 67.0846 104.468 70.2464 104.825 73.4702C104.902 74.1652 105.49 74.6792 106.174 74.6792C106.223 74.6792 106.274 74.6765 106.325 74.6709C107.071 74.5884 107.608 73.9169 107.526 73.1712C107.219 70.3972 106.731 67.6647 106.079 65.0239C109.771 66.2779 113.056 67.7941 115.792 69.5384C116.475 71.8204 116.949 74.175 117.198 76.5759C117.27 77.2746 117.86 77.7942 118.547 77.7942C118.594 77.7942 118.642 77.7919 118.689 77.7868C119.436 77.7093 119.978 77.0416 119.901 76.2954C118.852 66.1982 114.116 56.8653 106.565 50.0161C98.9598 43.1183 89.1124 39.3193 78.8368 39.3193C74.6448 39.3193 70.5081 39.946 66.5418 41.1816C65.8255 41.4048 65.4256 42.1664 65.6488 42.8828C65.872 43.599 66.6331 43.9983 67.35 43.7759C68.9178 43.2874 70.5148 42.902 72.132 42.6186C70.3307 46.4999 68.8449 52.0898 67.821 58.7956C66.2736 58.9652 64.742 59.1666 63.235 59.4081C62.4942 59.5268 61.9899 60.2237 62.1087 60.9645C62.2274 61.7055 62.9242 62.2089 63.6651 62.0908C64.9054 61.8919 66.1618 61.7187 67.4311 61.5701C67.2139 63.2657 67.0247 65.0217 66.8664 66.8305C66.8009 67.5778 67.3536 68.237 68.101 68.3023C68.1413 68.3059 68.1813 68.3076 68.2211 68.3076C68.9178 68.3076 69.5109 67.7747 69.5728 67.0676C69.7473 65.0773 69.9622 63.1473 70.2116 61.2903C73.0397 61.044 75.9215 60.9153 78.8368 60.9153C81.7578 60.9153 84.64 61.0438 87.4516 61.289C88.1848 66.7771 88.6151 72.9042 88.669 79.2482H69.0065C69.0244 77.0843 69.0827 74.9225 69.1853 72.8039C69.2215 72.0544 68.6436 71.4175 67.8943 71.3813C67.1417 71.3471 66.5078 71.9232 66.4716 72.6723C66.367 74.8345 66.3076 77.0404 66.2897 79.248H52.4725C52.4814 78.8536 52.4935 78.4492 52.51 78.0272C52.5393 77.2775 51.9554 76.646 51.2057 76.6165C50.4595 76.5842 49.8244 77.1709 49.795 77.9207C49.7771 78.3796 49.7637 78.8196 49.7545 79.2478H40.2914C40.4164 75.653 41.036 72.1123 42.141 68.704C42.3723 67.9903 41.9812 67.2241 41.2675 66.9928C40.5536 66.7615 39.7877 67.1526 39.5563 67.8663C38.2249 71.9744 37.5498 76.2606 37.5498 80.6064C37.5498 91.6346 41.8443 102.003 49.6424 109.801C57.4407 117.599 67.8087 121.894 78.837 121.894C85.0666 121.894 91.0553 120.539 96.6363 117.869C97.3131 117.545 97.5993 116.734 97.2755 116.057C97.1071 115.707 96.8074 115.462 96.4637 115.352ZM89.8509 58.7992C88.8372 52.1544 87.3624 46.541 85.5443 42.624C87.5485 42.9764 89.5154 43.4863 91.4287 44.1464C94.8171 47.0662 97.815 51.1908 100.107 56.0973C100.836 57.6598 101.494 59.3046 102.077 61.0114C98.2561 60.0201 94.1427 59.2729 89.8509 58.7992ZM114.374 65.5932C111.658 64.1758 108.577 62.9363 105.217 61.899C104.473 59.4644 103.588 57.131 102.568 54.9476C101.204 52.0265 99.5958 49.36 97.8058 47.021C100.275 48.4176 102.603 50.0914 104.739 52.0294C108.942 55.841 112.21 60.4754 114.374 65.5932ZM78.8367 58.1989C76.0634 58.1989 73.3175 58.3107 70.6174 58.5281C71.7591 51.3926 73.4404 45.5956 75.4069 42.1889C76.544 42.0888 77.6879 42.0368 78.8367 42.0368C79.9874 42.0368 81.1323 42.0891 82.2687 42.1901C84.2704 45.6528 85.9236 51.4451 87.0489 58.5312C84.3598 58.3129 81.6139 58.1989 78.8367 58.1989ZM72.13 118.593C70.1084 118.237 68.1411 117.722 66.2403 117.063C61.6357 113.096 57.9794 107.194 55.5926 100.204C59.4143 101.196 63.53 101.941 67.8224 102.415C68.8364 109.061 70.3117 114.675 72.13 118.593ZM67.4334 99.6397C62.8966 99.108 58.5843 98.2629 54.6449 97.1403C53.3359 92.4116 52.5813 87.2765 52.4711 81.9657H66.2872C66.3382 88.2215 66.7391 94.2194 67.4334 99.6397ZM40.293 81.9657H49.7541C49.8531 86.8989 50.4893 91.6972 51.5981 96.1914C47.9085 94.9385 44.6248 93.4234 41.8889 91.6807C40.9602 88.5864 40.4101 85.3304 40.293 81.9657ZM43.3119 95.6281C46.0254 97.0431 49.1054 98.2794 52.4618 99.315C54.1926 104.975 56.6994 110.048 59.8379 114.163C52.4899 109.987 46.6393 103.468 43.3119 95.6281Z" fill="#F4B32F"/>
</g>
</g>
</svg>
