<?xml version="1.0" encoding="utf-8"?>
<!-- Generator: Adobe Illustrator 27.5.0, SVG Export Plug-In . SVG Version: 6.00 Build 0)  -->
<svg version="1.1" id="Layer_1" xmlns="http://www.w3.org/2000/svg" xmlns:xlink="http://www.w3.org/1999/xlink" x="0px" y="0px"
	 viewBox="0 0 120 120" style="enable-background:new 0 0 120 120;" xml:space="preserve">
<path style="fill:#482F82;" d="M100,120H20c-11.05,0-20-8.95-20-20V20C0,8.95,8.95,0,20,0h80c11.05,0,20,8.95,20,20v80
	C120,111.05,111.05,120,100,120z"/>
<g>
	<path style="fill-rule:evenodd;clip-rule:evenodd;fill:#FEFEFE;" d="M101.27,69.88l-7.43-2.43c-0.51,0.91-0.59,1.59-1.2,2.37
		c-0.54,0.7-1.08,1.28-1.89,1.8c-1.57,1.01-3.81,1.43-6.02,0.96c-3.8-0.82-6.2-3.96-6.3-8.41c-0.11-4.65,2.12-7.96,5.81-8.91
		c4.71-1.22,8.27,1.27,9.19,5l7.67-2.51c-0.75-3.79-3.72-6.92-6.22-8.43c-9.67-5.84-25.03-0.26-25,14.58
		c0.03,14.64,15.64,20.32,25.05,14.5c1.54-0.95,2.92-2.24,3.9-3.49C99.69,73.78,101,71.69,101.27,69.88"/>
	<path style="fill-rule:evenodd;clip-rule:evenodd;fill:#FEFEFE;" d="M26.04,69.3l-7.31,1.53c0.53,6.45,7.68,9.92,14.09,9.76
		c3.59-0.09,6.85-1.27,8.95-2.98c4.83-3.93,4.8-12.08-1.58-15.49c-5.52-2.95-12.16-1.55-12.76-5.01c-0.67-3.88,6.84-4.97,9.41-1.48
		c0.59,0.8,0.51,1.29,0.91,2.1l6.94-1.58c0.03-0.01,0.07-0.03,0.1-0.05c-0.42-6.19-8.02-9.58-14.47-8.95
		c-11.93,1.17-14.75,14.4-4.65,18.57c2.92,1.2,6.48,1.43,9.23,2.53c3.61,1.43,2.58,5.39-1.66,5.77
		C29.37,74.35,26.47,72.67,26.04,69.3"/>
	<path style="fill-rule:evenodd;clip-rule:evenodd;fill:#FEFEFE;" d="M58.81,56.24l-8.47,0c-0.16,3.43-0.02,7.19-0.02,10.65
		c0,3.44-0.24,6.81,1.36,9.44c3.3,5.44,12.02,5.08,15.55,2.41l0.05-6.95c-1.71,0.78-2.87,1.48-5.28,1.16
		c-2.06-0.27-3.02-1.37-3.19-3.49C58.69,67.64,58.8,58.72,58.81,56.24"/>
	<polygon style="fill-rule:evenodd;clip-rule:evenodd;fill:#FEFEFE;" points="58.81,48.01 58.81,39.37 50.33,39.37 50.33,48 	"/>
	<rect x="58.81" y="48.01" style="fill-rule:evenodd;clip-rule:evenodd;fill:#FEFEFE;" width="8.48" height="8.22"/>
</g>
</svg>
