<svg width="76" height="76" viewBox="0 0 76 76" fill="none" xmlns="http://www.w3.org/2000/svg">
<g clip-path="url(#clip0_207_1743)">
<mask id="mask0_207_1743" style="mask-type:luminance" maskUnits="userSpaceOnUse" x="0" y="0" width="76" height="76">
<path d="M0.5 0.500008H75.5V75.5H0.5V0.500008Z" fill="white"/>
</mask>
<g mask="url(#mask0_207_1743)">
<path d="M16.2263 3.13643V4.89087" stroke="#F4B32F" stroke-width="2" stroke-miterlimit="10" stroke-linecap="round" stroke-linejoin="round"/>
</g>
<path d="M16.2263 22.3708V24.1252" stroke="#F4B32F" stroke-width="2" stroke-miterlimit="10" stroke-linecap="round" stroke-linejoin="round"/>
<path d="M26.7207 13.6309H24.9663" stroke="#F4B32F" stroke-width="2" stroke-miterlimit="10" stroke-linecap="round" stroke-linejoin="round"/>
<path d="M7.48619 13.6309H5.73175" stroke="#F4B32F" stroke-width="2" stroke-miterlimit="10" stroke-linecap="round" stroke-linejoin="round"/>
<path d="M23.647 6.21011L22.4064 7.45068" stroke="#F4B32F" stroke-width="2" stroke-miterlimit="10" stroke-linecap="round" stroke-linejoin="round"/>
<path d="M10.0461 19.8109L8.80552 21.0515" stroke="#F4B32F" stroke-width="2" stroke-miterlimit="10" stroke-linecap="round" stroke-linejoin="round"/>
<path d="M23.647 21.0515L22.4064 19.8109" stroke="#F4B32F" stroke-width="2" stroke-miterlimit="10" stroke-linecap="round" stroke-linejoin="round"/>
<path d="M10.0461 7.45068L8.80552 6.21011" stroke="#F4B32F" stroke-width="2" stroke-miterlimit="10" stroke-linecap="round" stroke-linejoin="round"/>
<path d="M11.4148 46.616V33.919" stroke="#F4B32F" stroke-width="2" stroke-miterlimit="10" stroke-linecap="round" stroke-linejoin="round"/>
<path d="M11.4148 37.3972L14.2563 35.462" stroke="#F4B32F" stroke-width="2" stroke-miterlimit="10" stroke-linecap="round" stroke-linejoin="round"/>
<path d="M11.4148 42.3867L14.2563 40.4515" stroke="#F4B32F" stroke-width="2" stroke-miterlimit="10" stroke-linecap="round" stroke-linejoin="round"/>
<path d="M11.4148 37.3972L8.57344 35.462" stroke="#F4B32F" stroke-width="2" stroke-miterlimit="10" stroke-linecap="round" stroke-linejoin="round"/>
<path d="M11.4148 42.3867L8.57344 40.4515" stroke="#F4B32F" stroke-width="2" stroke-miterlimit="10" stroke-linecap="round" stroke-linejoin="round"/>
<path d="M24.0193 45.0461V32.0625" stroke="#F4B32F" stroke-width="2" stroke-miterlimit="10" stroke-linecap="round" stroke-linejoin="round"/>
<path d="M24.0193 35.5408L26.8607 33.6056" stroke="#F4B32F" stroke-width="2" stroke-miterlimit="10" stroke-linecap="round" stroke-linejoin="round"/>
<path d="M24.0193 40.5303L26.8607 38.5952" stroke="#F4B32F" stroke-width="2" stroke-miterlimit="10" stroke-linecap="round" stroke-linejoin="round"/>
<path d="M24.0193 35.5408L21.1778 33.6056" stroke="#F4B32F" stroke-width="2" stroke-miterlimit="10" stroke-linecap="round" stroke-linejoin="round"/>
<path d="M24.0193 40.5303L21.1778 38.5952" stroke="#F4B32F" stroke-width="2" stroke-miterlimit="10" stroke-linecap="round" stroke-linejoin="round"/>
<mask id="mask1_207_1743" style="mask-type:luminance" maskUnits="userSpaceOnUse" x="0" y="0" width="76" height="76">
<path d="M0.5 0.500008H75.5V75.5H0.5V0.500008Z" fill="white"/>
</mask>
<g mask="url(#mask1_207_1743)">
<path d="M72.3843 72.8635H3.61565C2.50179 72.8635 1.59871 72.0475 1.59871 71.0408V49.9676C1.59871 49.1247 2.23812 48.3916 3.14471 48.1941C26.0533 43.2032 49.9468 43.2032 72.8553 48.1941C73.7619 48.3916 74.4014 49.1247 74.4014 49.9676V71.0408C74.4014 72.0475 73.4982 72.8635 72.3843 72.8635Z" stroke="#F4B32F" stroke-width="2" stroke-miterlimit="10" stroke-linecap="round" stroke-linejoin="round"/>
<path d="M10.5821 57.203C7.49127 58.4347 4.49611 59.8661 1.65534 61.5264L1.59865 61.6216" stroke="#F4B32F" stroke-width="2" stroke-miterlimit="10" stroke-linecap="round" stroke-linejoin="round"/>
<path d="M74.4014 51.2769C74.3993 51.2767 42.5803 46.6334 15.4873 55.4348" stroke="#F4B32F" stroke-width="2" stroke-miterlimit="10" stroke-linecap="round" stroke-linejoin="round"/>
<path d="M7.06091 72.8635L7.10441 72.8178C30.869 53.9864 74.3919 54.7926 74.4014 54.7928" stroke="#F4B32F" stroke-width="2" stroke-miterlimit="10" stroke-linecap="round" stroke-linejoin="round"/>
<path d="M54.5017 72.8635L54.5474 72.8178C64.9174 66.4567 74.3991 63.0866 74.4014 63.0857" stroke="#F4B32F" stroke-width="2" stroke-miterlimit="10" stroke-linecap="round" stroke-linejoin="round"/>
<path d="M59.1467 62.1516C51.3159 64.3844 41.615 67.8267 32.9059 72.8634" stroke="#F4B32F" stroke-width="2" stroke-miterlimit="10" stroke-linecap="round" stroke-linejoin="round"/>
<path d="M74.4014 58.6571C74.3983 58.6576 70.2799 59.2853 64.1275 60.8206" stroke="#F4B32F" stroke-width="2" stroke-miterlimit="10" stroke-linecap="round" stroke-linejoin="round"/>
<path d="M42.1725 22.9209L38.8264 25.1123V28.1355C38.8264 28.8768 38.2255 29.4778 37.484 29.4778H35.3088C34.5675 29.4778 33.9665 28.8768 33.9665 28.1355V23.2446C33.9665 22.7919 34.1947 22.3696 34.5733 22.1216L53.4486 9.76055C53.8951 9.46802 54.4727 9.46802 54.9194 9.76055L73.7944 22.1216C74.1732 22.3696 74.4014 22.7919 74.4014 23.2446V28.1355C74.4014 28.8768 73.8004 29.4778 73.0592 29.4778H70.8837C70.1424 29.4778 69.5415 28.8768 69.5415 28.1355V25.1123L54.9194 15.5363C54.4728 15.2439 53.8952 15.2439 53.4486 15.5363L46.4708 20.106" stroke="#F4B32F" stroke-width="2" stroke-miterlimit="10" stroke-linecap="round" stroke-linejoin="round"/>
<path d="M38.8304 28.1356V44.4531" stroke="#F4B32F" stroke-width="2" stroke-miterlimit="10" stroke-linecap="round" stroke-linejoin="round"/>
<path d="M69.5375 47.5076V28.1356" stroke="#F4B32F" stroke-width="2" stroke-miterlimit="10" stroke-linecap="round" stroke-linejoin="round"/>
<path d="M61.6203 46.157V34.4344C61.6203 33.7583 61.0723 33.2104 60.3964 33.2104H47.9715C47.2956 33.2104 46.7476 33.7583 46.7476 34.4344V44.6836" stroke="#F4B32F" stroke-width="2" stroke-miterlimit="10" stroke-linecap="round" stroke-linejoin="round"/>
<path d="M57.4105 24.078C57.4105 25.86 55.966 27.3044 54.184 27.3044C52.402 27.3044 50.9574 25.86 50.9574 24.078C50.9574 22.296 52.402 20.8515 54.184 20.8515C55.966 20.8515 57.4105 22.296 57.4105 24.078Z" stroke="#F4B32F" stroke-width="2" stroke-miterlimit="10" stroke-linecap="round" stroke-linejoin="round"/>
<path d="M21.2264 13.6309C21.2264 16.3924 18.9878 18.6311 16.2263 18.6311C13.4648 18.6311 11.2261 16.3924 11.2261 13.6309C11.2261 10.8693 13.4648 8.63062 16.2263 8.63062C18.9878 8.63062 21.2264 10.8693 21.2264 13.6309Z" stroke="#F4B32F" stroke-width="2" stroke-miterlimit="10" stroke-linecap="round" stroke-linejoin="round"/>
</g>
</g>
<defs>
<clipPath id="clip0_207_1743">
<rect width="75" height="75" fill="white" transform="translate(0.5 0.5)"/>
</clipPath>
</defs>
</svg>
