<svg width="76" height="75" viewBox="0 0 76 75" fill="none" xmlns="http://www.w3.org/2000/svg">
<g clip-path="url(#clip0_207_1734)">
<path d="M69.9752 27.3858H66.8467V18.1572H71.4639C73.6895 18.1572 75.5001 16.3465 75.5001 14.1209C75.5001 11.8954 73.6895 10.0847 71.4639 10.0847H61.8737C61.2657 10.0847 60.7729 10.5776 60.7729 11.1855C60.7729 11.7935 61.2657 12.2864 61.8737 12.2864H71.4639C72.4755 12.2864 73.2985 13.1093 73.2985 14.1209C73.2985 15.1326 72.4755 15.9555 71.4639 15.9555H8.57246V12.2864H57.4706C58.0786 12.2864 58.5714 11.7935 58.5714 11.1855C58.5714 10.5776 58.0786 10.0847 57.4706 10.0847H8.57246V4.03623C8.57246 1.81069 6.76191 0 4.53623 0C2.31055 0 0.5 1.81069 0.5 4.03623V72.4315C0.5 73.8478 1.65225 75 3.06846 75H6.00386C7.42007 75 8.57231 73.8478 8.57231 72.4315V18.1572H22.8601V27.3858H19.7316C16.6968 27.3858 14.2278 29.8548 14.2278 32.8897V53.1762C14.2278 56.211 16.6968 58.68 19.7316 58.68H23.3721C23.9801 58.68 24.4729 58.1871 24.4729 57.5792C24.4729 56.9713 23.9801 56.4784 23.3721 56.4784H19.7316C17.9107 56.4784 16.4293 54.997 16.4293 53.176V32.8897C16.4293 31.0687 17.9108 29.5874 19.7316 29.5874H46.4272C47.0353 29.5874 47.5281 29.0944 47.5281 28.4865C47.5281 27.8786 47.0353 27.3857 46.4272 27.3857H29.8146V18.157H59.8922V27.3857H50.8304C50.2224 27.3857 49.7296 27.8786 49.7296 28.4865C49.7296 29.0944 50.2224 29.5874 50.8304 29.5874H69.9752C71.796 29.5874 73.2775 31.0687 73.2775 32.8897V53.1762C73.2775 54.9971 71.7961 56.4785 69.9752 56.4785H27.7754C27.1673 56.4785 26.6746 56.9714 26.6746 57.5793C26.6746 58.1873 27.1673 58.6802 27.7754 58.6802H69.9752C73.0101 58.6802 75.479 56.2112 75.479 53.1763V32.8897C75.479 29.8548 73.0101 27.3858 69.9752 27.3858ZM6.3708 72.4315C6.3708 72.6338 6.2063 72.7985 6.00386 72.7985H3.06846C2.86602 72.7985 2.70151 72.6338 2.70151 72.4315V4.03623C2.70151 3.02461 3.52446 2.20166 4.53608 2.20166C5.54771 2.20166 6.37065 3.02461 6.37065 4.03623L6.3708 72.4315ZM27.6131 27.3858H25.0618V18.1572H27.6131V27.3858ZM62.0938 18.1572H64.6451V27.3858H62.0938V18.1572Z" fill="#F4B32F"/>
<path d="M68.2899 47.1448C67.4718 47.1494 66.5926 47.1527 65.9334 47.1532V38.3672C65.9334 37.7604 65.4417 37.2686 64.8348 37.2686C64.2279 37.2686 63.7361 37.7604 63.7361 38.3672V48.2435C63.7361 48.7786 64.1217 49.2359 64.649 49.3263C64.7287 49.3399 64.7935 49.351 65.8713 49.351C66.3988 49.351 67.1689 49.3482 68.3022 49.3421C68.909 49.3387 69.3981 48.844 69.3947 48.2373C69.3913 47.6304 68.8985 47.1434 68.2899 47.1448Z" fill="#F4B32F"/>
<path d="M28.8458 37.2498C28.2389 37.2498 27.7471 37.7416 27.7471 38.3484V42.0225H23.1042V38.3484C23.1042 37.7416 22.6124 37.2498 22.0055 37.2498C21.3986 37.2498 20.9069 37.7416 20.9069 38.3484V48.2329C20.9069 48.8396 21.3986 49.3315 22.0055 49.3315C22.6124 49.3315 23.1042 48.8396 23.1042 48.2329V44.2198H27.7471V48.2329C27.7471 48.8396 28.2389 49.3315 28.8458 49.3315C29.4526 49.3315 29.9444 48.8396 29.9444 48.2329V38.3484C29.9444 37.7416 29.4525 37.2498 28.8458 37.2498Z" fill="#F4B32F"/>
<path d="M60.0896 39.511C60.6963 39.511 61.1882 39.0191 61.1882 38.4124C61.1882 37.8056 60.6963 37.3137 60.0896 37.3137H55.9625C55.3556 37.3137 54.8639 37.8056 54.8639 38.4124V48.2067C54.8639 48.8135 55.3556 49.3054 55.9625 49.3054H60.0896C60.6963 49.3054 61.1882 48.8135 61.1882 48.2067C61.1882 47.6 60.6963 47.1081 60.0896 47.1081H57.0611V44.4083H59.7853C60.3922 44.4083 60.8839 43.9164 60.8839 43.3096C60.8839 42.7029 60.3922 42.211 59.7853 42.211H57.0611V39.511H60.0896Z" fill="#F4B32F"/>
<path d="M51.4782 37.2686H46.0193C45.4124 37.2686 44.9207 37.7604 44.9207 38.3672C44.9207 38.9739 45.4124 39.4658 46.0193 39.4658H47.6391V48.2518C47.6391 48.8585 48.1309 49.3504 48.7377 49.3504C49.3446 49.3504 49.8364 48.8585 49.8364 48.2518V39.4658H51.4782C52.0851 39.4658 52.5768 38.9739 52.5768 38.3672C52.5768 37.7604 52.0849 37.2686 51.4782 37.2686Z" fill="#F4B32F"/>
<path d="M38.0753 37.2686C34.7442 37.2686 32.0343 39.9785 32.0343 43.3096C32.0343 46.6405 34.7442 49.3504 38.0753 49.3504C41.4062 49.3504 44.1162 46.6405 44.1162 43.3096C44.1162 39.9785 41.4062 37.2686 38.0753 37.2686ZM38.0753 47.1532C35.9558 47.1532 34.2316 45.4289 34.2316 43.3096C34.2316 41.1901 35.9558 39.4658 38.0753 39.4658C40.1948 39.4658 41.9189 41.1901 41.9189 43.3096C41.9189 45.4289 40.1946 47.1532 38.0753 47.1532Z" fill="#F4B32F"/>
</g>
<defs>
<clipPath id="clip0_207_1734">
<rect width="75" height="75" fill="white" transform="translate(0.5)"/>
</clipPath>
</defs>
</svg>
