<svg width="76" height="75" viewBox="0 0 76 75" fill="none" xmlns="http://www.w3.org/2000/svg">
<g clip-path="url(#clip0_206_1265)">
<path d="M68.5171 7.92239H73.6681C74.678 7.92239 75.4991 7.10071 75.4991 6.09134V3.88207C75.4991 2.87271 74.678 2.05103 73.6681 2.05103H2.33105C1.32111 2.05103 0.5 2.87271 0.5 3.88207V6.09134C0.5 7.10071 1.32111 7.92239 2.33105 7.92239H7.48201C7.8362 9.96058 9.5282 11.5444 11.6167 11.7298V39.0628L8.98919 45.5773H7.45798C6.04464 45.5773 4.89451 46.7274 4.89451 48.1408V48.622C4.89451 49.4511 5.29162 50.187 5.90445 50.6562L0.602996 65.867C0.410164 66.4072 0.491989 67.0103 0.822722 67.48C1.15345 67.9498 1.69361 68.2302 2.2681 68.2302H7.13468C7.55296 70.9367 9.89613 73.0161 12.7154 73.0161C15.5346 73.0161 17.8778 70.9373 18.2955 68.2302H23.1632C23.7348 68.2302 24.2739 67.9515 24.6052 67.4846C24.9353 67.0183 25.02 66.418 24.8346 65.8865L19.6259 50.5778C20.182 50.1074 20.5362 49.4053 20.5362 48.622V48.1408C20.5362 46.7274 19.3867 45.5773 17.9728 45.5773H16.4416L13.814 39.0628V11.7298C15.9025 11.5444 17.5951 9.96058 17.9487 7.92239H32.767C33.1207 9.96058 34.8127 11.5444 36.9012 11.7298V39.0628L34.2742 45.5773H32.7424C31.3291 45.5773 30.179 46.7274 30.179 48.1408V48.622C30.179 49.4511 30.5767 50.187 31.1889 50.6562L25.8875 65.867C25.6946 66.4072 25.7765 67.0103 26.1072 67.4795C26.4373 67.9492 26.9781 68.2302 27.5526 68.2302H32.4197C32.8374 70.9373 35.1806 73.0161 37.9998 73.0161C40.8191 73.0161 43.1628 70.9373 43.5805 68.2302H48.4477C49.0199 68.2302 49.5583 67.9515 49.8896 67.4846C50.2198 67.0183 50.305 66.418 50.1196 65.8865L46.9308 56.5161C46.7356 55.9416 46.1119 55.6343 45.5369 55.83C44.9624 56.0251 44.6551 56.6494 44.8508 57.2239L45.1043 57.9683H30.9669L33.3307 51.1854H42.7955L43.2046 52.3882C43.4003 52.9627 44.024 53.27 44.5985 53.0743C45.173 52.8786 45.4802 52.2549 45.2845 51.6804L44.9097 50.5783C45.4659 50.1074 45.8201 49.4059 45.8201 48.622V48.1408C45.8201 46.7274 44.6706 45.5773 43.2567 45.5773H41.7254L39.0985 39.0628V11.7298C41.187 11.5444 42.879 9.96058 43.2326 7.92239H51.0363C51.6434 7.92239 52.1349 7.4303 52.1349 6.82376C52.1349 6.21666 51.6434 5.72514 51.0363 5.72514H2.69726V4.24828H73.3018V5.72514H56.1632C55.5567 5.72514 55.0646 6.21666 55.0646 6.82376C55.0646 7.4303 55.5567 7.92239 56.1632 7.92239H58.0509C58.4046 9.96058 60.0966 11.5444 62.1857 11.7298V39.0628L59.5581 45.5773H58.0263C56.613 45.5773 55.4634 46.7274 55.4634 48.1408V48.622C55.4634 49.4511 55.8606 50.187 56.4728 50.6562L51.1719 65.867C50.9791 66.4072 51.0609 67.0103 51.3911 67.4795C51.7218 67.9492 52.262 68.2302 52.8365 68.2302H57.7036C58.1219 70.9373 60.4651 73.0161 63.2843 73.0161C66.1035 73.0161 68.4467 70.9373 68.8644 68.2302H73.7316C74.3038 68.2302 74.8428 67.9515 75.1735 67.4846C75.5042 67.0183 75.5889 66.418 75.4035 65.8865L70.1948 50.5783C70.751 50.1074 71.1052 49.4059 71.1052 48.622V48.1408C71.1052 46.7274 69.955 45.5773 68.5417 45.5773H67.0099L64.3829 39.0628V11.7298C66.4715 11.5444 68.1635 9.96058 68.5171 7.92239ZM37.9998 70.8188C36.396 70.8188 35.045 69.7174 34.6599 68.2302H41.3392C40.9541 69.7174 39.6031 70.8188 37.9998 70.8188ZM46.8478 63.0947L47.848 66.0329H28.1562L29.1799 63.0947H46.8478ZM45.851 60.165L46.1005 60.8974H29.9461L30.2013 60.165H45.851ZM43.2572 47.7746C43.4558 47.7746 43.6234 47.9422 43.6234 48.1408V48.622C43.6234 48.8205 43.4558 48.9882 43.2572 48.9882H32.7424C32.5439 48.9882 32.3762 48.8205 32.3762 48.622V48.1408C32.3762 47.9422 32.5439 47.7746 32.7424 47.7746H43.2572ZM39.3565 45.5773H36.6431L37.9998 42.2133L39.3565 45.5773ZM40.969 7.92239C40.6405 8.86939 39.7433 9.55202 38.6876 9.55202H37.3115C36.2558 9.55202 35.3586 8.86939 35.0301 7.92239H40.969ZM12.7154 70.8188C11.1121 70.8188 9.76052 69.7174 9.37543 68.2302H16.0547C15.6696 69.7174 14.3187 70.8188 12.7154 70.8188ZM20.816 60.8974H18.5175C17.9104 60.8974 17.4189 61.3895 17.4189 61.9961C17.4189 62.6032 17.9104 63.0947 18.5175 63.0947H21.5639L22.5635 66.0329H2.87178L3.89602 63.0947H13.3906C13.9971 63.0947 14.4892 62.6032 14.4892 61.9961C14.4892 61.3895 13.9971 60.8974 13.3906 60.8974H4.66163L4.91683 60.165H20.5671L20.816 60.8974ZM19.8193 57.9678H5.68243L8.04677 51.1854H17.5116L19.8193 57.9678ZM17.9728 47.7746C18.1713 47.7746 18.339 47.9422 18.339 48.1408V48.622C18.339 48.8205 18.1713 48.9882 17.9728 48.9882H7.45798C7.25942 48.9882 7.09177 48.8205 7.09177 48.622V48.1408C7.09177 47.9422 7.25942 47.7746 7.45798 47.7746H17.9728ZM14.0721 45.5773H11.3587L12.7154 42.2133L14.0721 45.5773ZM15.6851 7.92239C15.3561 8.86939 14.4589 9.55202 13.4032 9.55202H12.0276C10.9719 9.55202 10.0747 8.86939 9.74564 7.92239H15.6851ZM63.2837 70.8188C61.6804 70.8188 60.3294 69.7174 59.9444 68.2302H66.6237C66.2386 69.7174 64.887 70.8188 63.2837 70.8188ZM73.1319 66.0329H53.4407L54.4644 63.0947H72.1328L73.1319 66.0329ZM71.385 60.8974H55.23L55.4858 60.165H71.1355L71.385 60.8974ZM70.3876 57.9678H56.2514L58.6151 51.1854H68.0799L70.3876 57.9678ZM68.5411 47.7746C68.7397 47.7746 68.9073 47.9422 68.9073 48.1408V48.622C68.9073 48.8205 68.7397 48.9882 68.5411 48.9882H58.0263C57.8278 48.9882 57.6601 48.8205 57.6601 48.622V48.1408C57.6601 47.9422 57.8278 47.7746 58.0263 47.7746H68.5411ZM64.6404 45.5773H61.927L63.2843 42.2133L64.6404 45.5773ZM63.9715 9.55202H62.5959C61.5402 9.55202 60.643 8.86939 60.3146 7.92239H66.2535C65.925 8.86939 65.0272 9.55202 63.9715 9.55202Z" fill="#F4B32F"/>
</g>
<defs>
<clipPath id="clip0_206_1265">
<rect width="75" height="75" fill="white" transform="translate(0.5)"/>
</clipPath>
</defs>
</svg>
