<svg width="76" height="75" viewBox="0 0 76 75" fill="none" xmlns="http://www.w3.org/2000/svg">
<g clip-path="url(#clip0_207_1854)">
<path d="M22.6626 41.0225C22.6626 40.4148 22.1694 39.9216 21.5617 39.9216H20.3143V38.6742C20.3143 38.0665 19.8211 37.5732 19.2134 37.5732C18.6051 37.5732 18.1125 38.0665 18.1125 38.6742V39.9216H16.8651C16.2568 39.9216 15.7641 40.4148 15.7641 41.0225C15.7641 41.6302 16.2568 42.1234 16.8651 42.1234H18.1125V43.3708C18.1125 43.9785 18.6051 44.4717 19.2134 44.4717C19.8211 44.4717 20.3143 43.9785 20.3143 43.3708V42.1234H21.5617C22.17 42.1234 22.6626 41.6302 22.6626 41.0225Z" fill="#F4B32F"/>
<path d="M35.6517 42.1234H36.8991V43.3708C36.8991 43.9785 37.3923 44.4717 38 44.4717C38.6077 44.4717 39.1009 43.9785 39.1009 43.3708V42.1234H40.3483C40.956 42.1234 41.4492 41.6302 41.4492 41.0225C41.4492 40.4148 40.956 39.9216 40.3483 39.9216H39.1009V38.6742C39.1009 38.0665 38.6077 37.5732 38 37.5732C37.3923 37.5732 36.8991 38.0665 36.8991 38.6742V39.9216H35.6517C35.044 39.9216 34.5508 40.4148 34.5508 41.0225C34.5508 41.6302 35.044 42.1234 35.6517 42.1234Z" fill="#F4B32F"/>
<path d="M74.7927 72.9401L66.6938 68.3773V20.9885H74.3991C75.0777 20.9885 75.6064 20.3522 75.4811 19.6844L71.9586 0.897789C71.8613 0.377083 71.4064 0 70.8766 0H56.7866C56.2568 0 55.8024 0.377083 55.7046 0.897789L52.1821 19.6844C52.0573 20.3522 52.5855 20.9885 53.2641 20.9885H56.8599V24.6574H56.7866C56.1789 24.6574 55.6857 25.1501 55.6857 25.7584C55.6857 26.366 56.1789 26.8593 56.7866 26.8593H56.8599V30.455C56.8599 31.0627 57.3531 31.5559 57.9608 31.5559C58.569 31.5559 59.0617 31.0627 59.0617 30.455V26.8593H59.1349C59.7432 26.8593 60.2359 26.366 60.2359 25.7584C60.2359 25.1501 59.7432 24.6574 59.1349 24.6574H59.0617V20.9885H60.9694V68.4345L56.7134 70.9385V52.7641C56.7134 48.9201 53.5857 45.7924 49.7416 45.7924C49.717 45.7924 49.693 45.7941 49.6684 45.7947V37.5C49.6684 33.0082 46.0143 29.3541 41.5225 29.3541H15.6909C11.1991 29.3541 7.54498 33.0082 7.54498 37.5V45.7947C7.52038 45.7941 7.49635 45.7924 7.47174 45.7924C3.62767 45.7924 0.5 48.9201 0.5 52.7641V73.8991C0.5 74.5073 0.992668 75 1.60092 75H74.2526C74.7395 75 75.179 74.667 75.3117 74.1983C75.4479 73.7154 75.2305 73.1867 74.7927 72.9401ZM2.70184 52.7641C2.70184 50.1343 4.84132 47.9942 7.47174 47.9942C10.1016 47.9942 12.2416 50.1343 12.2416 52.7641V72.7982H2.70184V52.7641ZM14.4435 63.2584H18.0879C18.6961 63.2584 19.1888 62.7657 19.1888 62.1574C19.1888 61.5498 18.6961 61.0565 18.0879 61.0565H14.4435V52.7641C14.4435 49.7166 12.4768 47.121 9.74683 46.1758V37.5C9.74683 34.2224 12.4133 31.5559 15.6909 31.5559H41.5225C44.8001 31.5559 47.4665 34.2224 47.4665 37.5V46.1758C44.7366 47.121 42.7699 49.7166 42.7699 52.7641V61.0565H23.2743C22.6661 61.0565 22.1734 61.5498 22.1734 62.1574C22.1734 62.7657 22.6661 63.2584 23.2743 63.2584H42.7705V72.7982H14.4435V63.2584ZM54.5115 72.7982H44.9717V52.7641C44.9717 50.1343 47.1118 47.9942 49.7416 47.9942C52.3721 47.9942 54.5115 50.1343 54.5115 52.7641V72.7982ZM57.7004 2.20184H69.9633L73.0727 18.7866H54.5905L57.7004 2.20184ZM64.4919 20.9885V68.1015H63.1713V20.9885H64.4919ZM57.8938 72.7982L62.1356 70.3033H65.5928C65.6037 70.3033 65.614 70.3022 65.6243 70.3016L70.056 72.7982H57.8938Z" fill="#F4B32F"/>
<path d="M14.5167 23.3368H42.6967C43.3043 23.3368 43.7976 22.8436 43.7976 22.2359V1.10092C43.7976 0.492668 43.3043 0 42.6967 0H14.5167C13.9085 0 13.4158 0.492668 13.4158 1.10092V22.2359C13.4158 22.8436 13.9085 23.3368 14.5167 23.3368ZM15.6176 2.20184H41.5957V21.1349H15.6176V2.20184Z" fill="#F4B32F"/>
<path d="M39.1742 3.52246H18.0392C17.431 3.52246 16.9383 4.01513 16.9383 4.62338V18.7133C16.9383 19.321 17.431 19.8143 18.0392 19.8143H39.1742C39.7818 19.8143 40.2751 19.321 40.2751 18.7133V4.62338C40.2751 4.01513 39.7824 3.52246 39.1742 3.52246ZM38.0732 17.6124H19.1401V5.7243H38.0732V17.6124Z" fill="#F4B32F"/>
<path d="M28.0505 16.1407C28.3904 16.3398 28.823 16.3398 29.1629 16.1407C30.3925 15.4203 34.4043 12.8843 34.4043 10.4942C34.4043 9.48884 33.883 8.19509 32.718 7.57139C31.9186 7.14395 30.5797 6.90935 28.6067 8.02686C26.6337 6.90877 25.2942 7.14395 24.4954 7.57139C23.3304 8.19509 22.8091 9.48884 22.8091 10.4942C22.8091 12.8849 26.8208 15.4203 28.0505 16.1407ZM25.5345 9.51288C25.657 9.44707 25.8052 9.41503 25.9768 9.41503C26.4838 9.41503 27.1893 9.6977 27.9961 10.2356C28.3658 10.4822 28.8476 10.4822 29.2172 10.2356C30.2964 9.51631 31.1942 9.25252 31.6789 9.5123C32.0399 9.70571 32.2024 10.203 32.2024 10.4942C32.2024 11.1208 30.5493 12.6663 28.6061 13.9011C26.6629 12.668 25.011 11.1225 25.011 10.4942C25.011 10.203 25.1735 9.70571 25.5345 9.51288Z" fill="#F4B32F"/>
</g>
<defs>
<clipPath id="clip0_207_1854">
<rect width="75" height="75" fill="white" transform="translate(0.5)"/>
</clipPath>
</defs>
</svg>
