<svg width="72" height="73" viewBox="0 0 72 73" fill="none" xmlns="http://www.w3.org/2000/svg">
<g id="smart-house 1">
<g id="Group">
<path id="Vector" d="M29.7248 7.90894H1.40625V13.0467C1.40625 15.5695 3.45136 17.6146 5.97417 17.6146H66.0258C68.5486 17.6146 70.5938 15.5695 70.5938 13.0467V7.90894H42.0587" stroke="#F4B32F" stroke-width="2.5" stroke-miterlimit="10" stroke-linecap="round" stroke-linejoin="round"/>
<path id="Vector_2" d="M6.16669 17.6145C6.73284 22.7932 8.26341 27.8343 10.6945 32.4718L13.1268 37.1117H19.0474C21.7003 37.1117 24.1843 35.8101 25.6942 33.6289C28.0353 30.2468 31.8867 28.2287 36 28.2287C40.1133 28.2287 43.9647 30.2468 46.3057 33.6289C47.8156 35.8101 50.2996 37.1117 52.9526 37.1117H58.8732L61.3055 32.472C63.7366 27.8343 65.2672 22.7933 65.8333 17.6145H6.16669Z" stroke="#F4B32F" stroke-width="2.5" stroke-miterlimit="10" stroke-linecap="round" stroke-linejoin="round"/>
<path id="Vector_3" d="M60.0494 44.0418C60.0494 57.3239 49.2822 68.0912 36 68.0912C22.7179 68.0912 11.9506 57.3239 11.9506 44.0418C11.9506 41.56 12.3267 39.1667 13.0233 36.9142L13.1275 37.1116H19.0482C20.1162 37.1116 21.1572 36.9 22.1177 36.505C23.5426 35.9205 24.7921 34.9315 25.6942 33.6283C26.8647 31.9365 28.4129 30.5875 30.1821 29.6602C33.7808 27.7768 38.2178 27.7759 41.8182 29.6602C43.5875 30.5875 45.1356 31.9365 46.3062 33.6283C47.0613 34.7199 48.0596 35.5903 49.2002 36.1874C49.423 36.3043 49.6504 36.4102 49.8827 36.505C50.8431 36.8998 51.8842 37.1116 52.9521 37.1116H58.8728L58.977 36.9142C59.6735 39.1667 60.0494 41.56 60.0494 44.0418Z" stroke="#F4B32F" stroke-width="2.5" stroke-miterlimit="10" stroke-linecap="round" stroke-linejoin="round"/>
<path id="Vector_4" d="M51.7939 44.0417C51.7939 52.7648 44.7216 59.8356 36 59.8356C27.2784 59.8356 20.2061 52.7648 20.2061 44.0417C20.2061 41.312 20.898 38.7434 22.1175 36.5049C23.5424 35.9205 24.7919 34.9314 25.694 33.6283C26.8646 31.9364 28.4127 30.5874 30.1819 29.6601C33.7694 27.7826 38.2303 27.7825 41.8181 29.6601C43.5873 30.5874 45.1354 31.9364 46.306 33.6283C47.0611 34.7198 48.0594 35.5903 49.2 36.1874C49.4228 36.3042 49.6502 36.4101 49.8825 36.5049C51.102 38.7434 51.7939 41.3119 51.7939 44.0417Z" stroke="#F4B32F" stroke-width="2.5" stroke-miterlimit="10" stroke-linecap="round" stroke-linejoin="round"/>
<path id="Vector_5" d="M36 48.1504C38.269 48.1504 40.1085 46.3109 40.1085 44.0419C40.1085 41.7728 38.269 39.9333 36 39.9333C33.7309 39.9333 31.8915 41.7728 31.8915 44.0419C31.8915 46.3109 33.7309 48.1504 36 48.1504Z" stroke="#F4B32F" stroke-width="2.5" stroke-miterlimit="10" stroke-linecap="round" stroke-linejoin="round"/>
</g>
</g>
</svg>
