<svg width="74" height="74" viewBox="0 0 74 74" fill="none" xmlns="http://www.w3.org/2000/svg">
<g id="air-conditioning" clip-path="url(#clip0_205_992)">
<g id="Group">
<g id="Page-1_40_">
<g id="_x30_41---AC-Cold-Air">
<path id="Shape_275_" d="M69.85 6.5835H4.15C2.13423 6.5835 0.5 8.21773 0.5 10.2335V32.1335C0.5 32.8055 1.04479 33.3501 1.71662 33.3501C2.38845 33.3501 2.93324 32.8053 2.93324 32.1335V10.2335C2.93324 9.56153 3.47803 9.01688 4.14986 9.01688H6.58324V18.7501C6.58324 21.4379 8.76212 23.6167 11.4499 23.6167H62.5499C65.2376 23.6167 67.4165 21.4379 67.4165 18.7501V9.01673H69.85C70.522 9.01673 71.0666 9.56153 71.0666 10.2334V35.7834C71.0626 39.1414 68.3414 41.8626 64.9832 41.8667H61.3332V39.4334C61.3332 36.7456 59.1544 34.5667 56.4666 34.5667H42.913C42.241 34.5667 41.6964 35.1115 41.6964 35.7834C41.6964 36.4553 42.241 37 42.913 37H56.4666C57.8106 37 58.9 38.0894 58.9 39.4334V41.8667H45.249C44.577 41.8667 44.0324 42.4114 44.0324 43.0834C44.0324 43.7553 44.5772 44.3 45.249 44.3H64.9834C69.6848 44.2946 73.4947 40.4847 73.5 35.7834V10.2334C73.5 8.21758 71.8659 6.5835 69.85 6.5835ZM64.9834 18.7501C64.9834 20.0941 63.8939 21.1835 62.55 21.1835H11.45C10.1061 21.1835 9.01662 20.0941 9.01662 18.7501V9.01673H64.9832V18.7501H64.9834Z" fill="#F4B32F"/>
<path id="Shape_274_" d="M12.6666 18.7501H61.3332C62.0052 18.7501 62.5499 18.2055 62.5499 17.5335C62.5499 16.8615 62.0052 16.3169 61.3332 16.3169H12.6666C11.9947 16.3169 11.45 16.8615 11.45 17.5335C11.45 18.2055 11.9948 18.7501 12.6666 18.7501Z" fill="#F4B32F"/>
<path id="Shape_273_" d="M12.6666 13.8834H61.3332C62.0052 13.8834 62.5499 13.3386 62.5499 12.6668C62.5499 11.995 62.0052 11.4502 61.3332 11.4502H12.6666C11.9947 11.4502 11.45 11.995 11.45 12.6668C11.45 13.3386 11.9948 13.8834 12.6666 13.8834Z" fill="#F4B32F"/>
<path id="Oval_10_" d="M61.3334 32.1334C62.0053 32.1334 62.55 31.5887 62.55 30.9168C62.55 30.2449 62.0053 29.7002 61.3334 29.7002C60.6615 29.7002 60.1168 30.2449 60.1168 30.9168C60.1168 31.5887 60.6615 32.1334 61.3334 32.1334Z" fill="#F4B32F"/>
<path id="Oval_9_" d="M66.2 32.1334C66.8719 32.1334 67.4166 31.5887 67.4166 30.9168C67.4166 30.2449 66.8719 29.7002 66.2 29.7002C65.5281 29.7002 64.9834 30.2449 64.9834 30.9168C64.9834 31.5887 65.5281 32.1334 66.2 32.1334Z" fill="#F4B32F"/>
<path id="Shape_272_" d="M44.3 63.7666C44.3 64.4386 44.8448 64.9833 45.5166 64.9833C46.1886 64.9833 46.7332 64.4385 46.7332 63.7666C46.7446 63.0592 47.0728 62.3942 47.6275 61.955C48.6073 61.0708 49.1665 59.8128 49.1665 58.493C49.1665 57.1731 48.6073 55.9151 47.6275 55.0309C47.064 54.5997 46.7335 53.9306 46.7335 53.2211C46.7335 52.5117 47.064 51.8425 47.6275 51.4114C48.602 50.5236 49.1602 49.2683 49.1666 47.95C49.1666 47.278 48.622 46.7334 47.95 46.7334C47.278 46.7334 46.7334 47.278 46.7334 47.95C46.7221 48.6568 46.3937 49.3211 45.8391 49.7592C44.8595 50.643 44.3003 51.9006 44.3003 53.22C44.3003 54.5394 44.8595 55.7969 45.8391 56.6808C46.4027 57.1127 46.7332 57.7823 46.7332 58.4924C46.7332 59.2024 46.4027 59.8721 45.8391 60.304C44.8652 61.1928 44.3073 62.4482 44.3 63.7666Z" fill="#F4B32F"/>
<path id="Shape_271_" d="M52.8166 63.7666C52.8166 64.4386 53.3614 64.9833 54.0332 64.9833C54.7052 64.9833 55.2499 64.4385 55.2499 63.7666C55.2613 63.0592 55.5895 62.3942 56.1441 61.955C57.1239 61.0708 57.6831 59.8128 57.6831 58.493C57.6831 57.1731 57.1239 55.9151 56.1441 55.0309C55.5806 54.5997 55.2501 53.9306 55.2501 53.2211C55.2501 52.5117 55.5806 51.8425 56.1441 51.4114C57.1186 50.5236 57.6768 49.2683 57.6832 47.95C57.6832 47.278 57.1386 46.7334 56.4666 46.7334C55.7946 46.7334 55.25 47.278 55.25 47.95C55.2387 48.6568 54.9104 49.3211 54.3557 49.7592C53.3761 50.643 52.8169 51.9006 52.8169 53.22C52.8169 54.5394 53.3761 55.7969 54.3557 56.6808C54.9194 57.1127 55.2499 57.7823 55.2499 58.4924C55.2499 59.2024 54.9194 59.8721 54.3557 60.304C53.3819 61.1928 52.8239 62.4482 52.8166 63.7666Z" fill="#F4B32F"/>
<path id="Shape_270_" d="M60.1166 63.7666C60.1166 64.4386 60.6613 64.9833 61.3332 64.9833C62.0052 64.9833 62.5498 64.4385 62.5498 63.7666C62.5613 63.0592 62.8895 62.3942 63.4441 61.955C64.4239 61.0708 64.9831 59.8128 64.9831 58.493C64.9831 57.1731 64.4239 55.9151 63.4441 55.0309C62.8806 54.5997 62.5501 53.9306 62.5501 53.2211C62.5501 52.5117 62.8806 51.8425 63.4441 51.4114C64.4186 50.5236 64.9768 49.2683 64.9832 47.95C64.9832 47.278 64.4384 46.7334 63.7666 46.7334C63.0946 46.7334 62.55 47.278 62.55 47.95C62.5387 48.6568 62.2104 49.3211 61.6557 49.7592C60.6761 50.643 60.1169 51.9006 60.1169 53.22C60.1169 54.5394 60.6761 55.7969 61.6557 56.6808C62.2194 57.1127 62.5498 57.7823 62.5498 58.4924C62.5498 59.2024 62.2194 59.8721 61.6557 60.304C60.6819 61.1928 60.1239 62.4482 60.1166 63.7666Z" fill="#F4B32F"/>
<path id="Shape_269_" d="M21.1834 67.4167C32.6065 67.4167 41.8668 58.1564 41.8668 46.7333C41.8668 35.3102 32.6065 26.05 21.1834 26.05C9.76031 26.05 0.5 35.3104 0.5 46.7334C0.512689 58.1512 9.76558 67.404 21.1834 67.4167ZM21.1834 28.4834C31.2625 28.4834 39.4334 36.6543 39.4334 46.7334C39.4334 56.8126 31.2625 64.9834 21.1834 64.9834C11.1042 64.9834 2.93338 56.8126 2.93338 46.7334C2.94479 36.6589 11.1088 28.4948 21.1834 28.4834Z" fill="#F4B32F"/>
<path id="Shape_268_" d="M14.7959 46.0558L19.2148 47.4903L16.4859 51.2461L9.83673 52.2998C9.40258 52.3626 9.03573 52.6543 8.8769 53.0633C8.71807 53.4722 8.79164 53.935 9.06952 54.2745C9.34741 54.6139 9.78655 54.7776 10.2188 54.7026L14.4638 54.0335L12.1801 57.1688C11.7851 57.7124 11.9054 58.4734 12.4491 58.8685C12.9927 59.2636 13.7536 59.1432 14.1487 58.5996L16.4385 55.4618L17.1101 59.7055C17.2033 60.2961 17.7119 60.7314 18.3097 60.7324C18.3742 60.7325 18.4385 60.7273 18.5019 60.7166C19.1653 60.6119 19.6184 59.9894 19.5142 59.3259L18.4606 52.6767L21.1835 48.9234L23.9125 52.6804L22.8588 59.3296C22.7546 59.9931 23.2077 60.6155 23.8711 60.7203C23.9346 60.731 23.999 60.7362 24.0633 60.7361C24.6612 60.7351 25.1697 60.2998 25.263 59.7093L25.9345 55.4656L28.2145 58.6033C28.4707 58.9556 28.8954 59.1444 29.3287 59.0986C29.7619 59.0528 30.1379 58.7794 30.3148 58.3814C30.4917 57.9835 30.443 57.5211 30.1868 57.1688L27.9031 54.0335L32.1481 54.7063C32.5804 54.7812 33.0195 54.6176 33.2974 54.2782C33.5753 53.9387 33.6489 53.4759 33.49 53.067C33.3312 52.6581 32.9643 52.3663 32.5302 52.3035L25.8811 51.2498L23.1521 47.494L27.571 46.0595L33.5656 49.1146C33.9544 49.3277 34.4283 49.3123 34.8026 49.0748C35.1769 48.8371 35.3923 48.4146 35.3648 47.9722C35.3373 47.5297 35.0712 47.1373 34.6704 46.9478L30.8441 45.0012L34.5367 43.8028C34.9697 43.685 35.3026 43.3384 35.403 42.9011C35.5034 42.4639 35.3549 42.0068 35.0167 41.7119C34.6785 41.417 34.2055 41.3322 33.786 41.4912L30.0874 42.6908L32.034 38.8583C32.3394 38.2597 32.1016 37.5267 31.5029 37.2213C30.9042 36.9159 30.1712 37.1537 29.8658 37.7524L26.8084 43.7529L22.4004 45.1764V40.5288L27.16 35.7692C27.5853 35.2873 27.5623 34.5579 27.1078 34.1035C26.6531 33.6493 25.9237 33.6269 25.4421 34.0525L22.4 37.0938V33.2078C22.4 32.5359 21.8552 31.9912 21.1834 31.9912C20.5114 31.9912 19.9668 32.536 19.9668 33.2078V37.0914L16.925 34.0498C16.6195 33.7335 16.1672 33.6066 15.7418 33.718C15.3163 33.8293 14.9842 34.1615 14.8729 34.5868C14.7615 35.0123 14.8884 35.4646 15.2047 35.7701L19.9666 40.5285V45.1761L15.5525 43.7429L12.4951 37.7422C12.1897 37.1436 11.4569 36.9057 10.858 37.2111C10.2593 37.5165 10.0215 38.2494 10.3269 38.8482L12.2797 42.6807L8.58105 41.4811C8.16144 41.3221 7.68851 41.4069 7.35032 41.7018C7.01212 41.9966 6.8637 42.4537 6.96407 42.891C7.06445 43.3283 7.39737 43.6749 7.83038 43.7927L11.523 44.9911L7.69664 46.9378C7.11977 47.2539 6.89877 47.9714 7.19747 48.5574C7.49617 49.1434 8.20664 49.3859 8.80133 49.1047L14.7959 46.0558Z" fill="#F4B32F"/>
</g>
</g>
</g>
</g>
<defs>
<clipPath id="clip0_205_992">
<rect width="73" height="73" fill="white" transform="translate(0.5 0.5)"/>
</clipPath>
</defs>
</svg>
