<svg version="1.2" baseProfile="tiny-ps" xmlns="http://www.w3.org/2000/svg" viewBox="0 0 1569 1569" width="1569" height="1569">
	<title>Saudi_Aramco_logo-svg</title>
	<defs>
		<clipPath clipPathUnits="userSpaceOnUse" id="cp1">
			<path d="M0.7 0.43L1567.19 0.43L1567.19 1566.35L0.7 1566.35L0.7 0.43Z" />
		</clipPath>
		<clipPath clipPathUnits="userSpaceOnUse" id="cp2">
			<path d="M682.42 2342.85L2343.64 885.01L885.48 -775.84L-775.74 681.99L682.42 2342.85Z" />
		</clipPath>
		<radialGradient id="grd1" gradientUnits="userSpaceOnUse"  cx="-730.073" cy="2038.158" r="3026.468">
			<stop offset="0" stop-color="#73c52a"  />
			<stop offset="0.25" stop-color="#73c52a"  />
			<stop offset="0.273" stop-color="#73c52a"  />
			<stop offset="0.293" stop-color="#72c52b"  />
			<stop offset="0.297" stop-color="#72c52b"  />
			<stop offset="0.301" stop-color="#71c52b"  />
			<stop offset="0.305" stop-color="#70c42b"  />
			<stop offset="0.309" stop-color="#6fc42c"  />
			<stop offset="0.313" stop-color="#6fc42c"  />
			<stop offset="0.316" stop-color="#6ec42c"  />
			<stop offset="0.32" stop-color="#6dc42c"  />
			<stop offset="0.324" stop-color="#6dc32c"  />
			<stop offset="0.328" stop-color="#6cc32d"  />
			<stop offset="0.332" stop-color="#6bc32d"  />
			<stop offset="0.336" stop-color="#6ac32d"  />
			<stop offset="0.34" stop-color="#6ac32d"  />
			<stop offset="0.344" stop-color="#69c22e"  />
			<stop offset="0.348" stop-color="#68c22e"  />
			<stop offset="0.352" stop-color="#68c22e"  />
			<stop offset="0.355" stop-color="#67c22e"  />
			<stop offset="0.359" stop-color="#66c12e"  />
			<stop offset="0.363" stop-color="#65c12f"  />
			<stop offset="0.367" stop-color="#65c12f"  />
			<stop offset="0.371" stop-color="#64c12f"  />
			<stop offset="0.375" stop-color="#63c12f"  />
			<stop offset="0.379" stop-color="#63c030"  />
			<stop offset="0.383" stop-color="#62c030"  />
			<stop offset="0.387" stop-color="#61c030"  />
			<stop offset="0.391" stop-color="#60c030"  />
			<stop offset="0.395" stop-color="#60c030"  />
			<stop offset="0.398" stop-color="#5fbf31"  />
			<stop offset="0.402" stop-color="#5ebf31"  />
			<stop offset="0.406" stop-color="#5ebf31"  />
			<stop offset="0.41" stop-color="#5dbf31"  />
			<stop offset="0.414" stop-color="#5cbe32"  />
			<stop offset="0.418" stop-color="#5bbe32"  />
			<stop offset="0.422" stop-color="#5bbe32"  />
			<stop offset="0.426" stop-color="#5abe32"  />
			<stop offset="0.43" stop-color="#59be32"  />
			<stop offset="0.434" stop-color="#58bd33"  />
			<stop offset="0.438" stop-color="#58bd33"  />
			<stop offset="0.441" stop-color="#56bd33"  />
			<stop offset="0.445" stop-color="#55bc34"  />
			<stop offset="0.449" stop-color="#54bb34"  />
			<stop offset="0.453" stop-color="#52bb34"  />
			<stop offset="0.457" stop-color="#51ba34"  />
			<stop offset="0.461" stop-color="#50b935"  />
			<stop offset="0.465" stop-color="#4eb935"  />
			<stop offset="0.469" stop-color="#4db835"  />
			<stop offset="0.473" stop-color="#4cb836"  />
			<stop offset="0.477" stop-color="#4ab736"  />
			<stop offset="0.48" stop-color="#49b636"  />
			<stop offset="0.484" stop-color="#48b636"  />
			<stop offset="0.488" stop-color="#46b537"  />
			<stop offset="0.492" stop-color="#45b437"  />
			<stop offset="0.496" stop-color="#44b437"  />
			<stop offset="0.5" stop-color="#42b338"  />
			<stop offset="0.504" stop-color="#41b338"  />
			<stop offset="0.508" stop-color="#40b238"  />
			<stop offset="0.512" stop-color="#3fb138"  />
			<stop offset="0.516" stop-color="#3db139"  />
			<stop offset="0.52" stop-color="#3cb039"  />
			<stop offset="0.523" stop-color="#3baf39"  />
			<stop offset="0.527" stop-color="#39af3a"  />
			<stop offset="0.531" stop-color="#38ae3a"  />
			<stop offset="0.535" stop-color="#37ae3a"  />
			<stop offset="0.539" stop-color="#36ad3a"  />
			<stop offset="0.543" stop-color="#34ac3b"  />
			<stop offset="0.547" stop-color="#33ac3b"  />
			<stop offset="0.551" stop-color="#32ab3b"  />
			<stop offset="0.555" stop-color="#31ab3b"  />
			<stop offset="0.559" stop-color="#2faa3c"  />
			<stop offset="0.563" stop-color="#2ea93c"  />
			<stop offset="0.566" stop-color="#2da93c"  />
			<stop offset="0.57" stop-color="#2ca83d"  />
			<stop offset="0.574" stop-color="#2aa73d"  />
			<stop offset="0.578" stop-color="#29a73d"  />
			<stop offset="0.582" stop-color="#28a63d"  />
			<stop offset="0.586" stop-color="#27a63e"  />
			<stop offset="0.59" stop-color="#25a53e"  />
			<stop offset="0.594" stop-color="#24a43e"  />
			<stop offset="0.598" stop-color="#23a43e"  />
			<stop offset="0.602" stop-color="#22a33f"  />
			<stop offset="0.605" stop-color="#20a33f"  />
			<stop offset="0.609" stop-color="#1fa23f"  />
			<stop offset="0.613" stop-color="#1ea13f"  />
			<stop offset="0.617" stop-color="#1da140"  />
			<stop offset="0.621" stop-color="#1ca040"  />
			<stop offset="0.625" stop-color="#1aa040"  />
			<stop offset="0.629" stop-color="#199f40"  />
			<stop offset="0.633" stop-color="#189f41"  />
			<stop offset="0.637" stop-color="#179e41"  />
			<stop offset="0.641" stop-color="#169d41"  />
			<stop offset="0.645" stop-color="#159d41"  />
			<stop offset="0.648" stop-color="#139c42"  />
			<stop offset="0.652" stop-color="#129c42"  />
			<stop offset="0.656" stop-color="#119b42"  />
			<stop offset="0.66" stop-color="#109a42"  />
			<stop offset="0.664" stop-color="#0f9a42"  />
			<stop offset="0.668" stop-color="#0e9943"  />
			<stop offset="0.672" stop-color="#0c9943"  />
			<stop offset="0.676" stop-color="#0b9843"  />
			<stop offset="0.68" stop-color="#0a9843"  />
			<stop offset="0.684" stop-color="#0b944d"  />
			<stop offset="0.688" stop-color="#0e8c63"  />
			<stop offset="0.691" stop-color="#12827b"  />
			<stop offset="0.695" stop-color="#167791"  />
			<stop offset="0.699" stop-color="#1a6aa4"  />
			<stop offset="0.703" stop-color="#1c61b0"  />
			<stop offset="0.707" stop-color="#1d5fb5"  />
			<stop offset="0.711" stop-color="#1d60b6"  />
			<stop offset="0.715" stop-color="#1c62b7"  />
			<stop offset="0.719" stop-color="#1c63b8"  />
			<stop offset="0.723" stop-color="#1c65b9"  />
			<stop offset="0.727" stop-color="#1b66ba"  />
			<stop offset="0.73" stop-color="#1b67bb"  />
			<stop offset="0.734" stop-color="#1b69bc"  />
			<stop offset="0.738" stop-color="#1a6abd"  />
			<stop offset="0.742" stop-color="#1a6cbe"  />
			<stop offset="0.746" stop-color="#1a6dbf"  />
			<stop offset="0.75" stop-color="#196fc0"  />
			<stop offset="0.754" stop-color="#1970c1"  />
			<stop offset="0.758" stop-color="#1971c2"  />
			<stop offset="0.762" stop-color="#1873c3"  />
			<stop offset="0.766" stop-color="#1874c4"  />
			<stop offset="0.77" stop-color="#1876c5"  />
			<stop offset="0.773" stop-color="#1777c6"  />
			<stop offset="0.777" stop-color="#1778c7"  />
			<stop offset="0.781" stop-color="#177ac8"  />
			<stop offset="0.785" stop-color="#167bca"  />
			<stop offset="0.789" stop-color="#167dcb"  />
			<stop offset="0.793" stop-color="#167ecc"  />
			<stop offset="0.797" stop-color="#1580cd"  />
			<stop offset="0.801" stop-color="#1581ce"  />
			<stop offset="0.805" stop-color="#1583cf"  />
			<stop offset="0.809" stop-color="#1584d0"  />
			<stop offset="0.813" stop-color="#1485d1"  />
			<stop offset="0.816" stop-color="#1487d2"  />
			<stop offset="0.82" stop-color="#1488d3"  />
			<stop offset="0.824" stop-color="#138ad4"  />
			<stop offset="0.828" stop-color="#138bd5"  />
			<stop offset="0.832" stop-color="#138dd6"  />
			<stop offset="0.836" stop-color="#128ed7"  />
			<stop offset="0.84" stop-color="#1290d8"  />
			<stop offset="0.844" stop-color="#1291d9"  />
			<stop offset="0.848" stop-color="#1193da"  />
			<stop offset="0.852" stop-color="#1194db"  />
			<stop offset="0.855" stop-color="#1196dd"  />
			<stop offset="0.859" stop-color="#1197de"  />
			<stop offset="0.863" stop-color="#1099df"  />
			<stop offset="0.867" stop-color="#109ae0"  />
			<stop offset="0.871" stop-color="#109ce1"  />
			<stop offset="0.875" stop-color="#0f9de2"  />
			<stop offset="0.879" stop-color="#0f9fe3"  />
			<stop offset="0.883" stop-color="#0fa0e4"  />
			<stop offset="0.887" stop-color="#0fa2e5"  />
			<stop offset="0.891" stop-color="#0ea3e6"  />
			<stop offset="0.895" stop-color="#0ea5e7"  />
			<stop offset="0.898" stop-color="#0ea6e8"  />
			<stop offset="0.902" stop-color="#0ea6e8"  />
			<stop offset="0.906" stop-color="#0da7e9"  />
			<stop offset="0.91" stop-color="#0da7e9"  />
			<stop offset="0.914" stop-color="#0da7e9"  />
			<stop offset="0.918" stop-color="#0da7e9"  />
			<stop offset="0.922" stop-color="#0da8e9"  />
			<stop offset="0.926" stop-color="#0da8ea"  />
			<stop offset="0.93" stop-color="#0da8ea"  />
			<stop offset="0.934" stop-color="#0da9ea"  />
			<stop offset="0.938" stop-color="#0da9ea"  />
			<stop offset="0.941" stop-color="#0da9eb"  />
			<stop offset="0.945" stop-color="#0caaeb"  />
			<stop offset="0.949" stop-color="#0caaeb"  />
			<stop offset="0.953" stop-color="#0caaeb"  />
			<stop offset="0.957" stop-color="#0cabeb"  />
			<stop offset="0.961" stop-color="#0cabec"  />
			<stop offset="0.965" stop-color="#0cabec"  />
			<stop offset="0.969" stop-color="#0cabec"  />
			<stop offset="0.973" stop-color="#0cacec"  />
			<stop offset="0.977" stop-color="#0caced"  />
			<stop offset="0.98" stop-color="#0caced"  />
			<stop offset="0.984" stop-color="#0baded"  />
			<stop offset="0.988" stop-color="#0baded"  />
			<stop offset="0.992" stop-color="#0baded"  />
			<stop offset="0.996" stop-color="#0baeee"  />
			<stop offset="1" stop-color="#0baeee"  />
		</radialGradient>
	</defs>
	<style>
		tspan { white-space:pre }
		.shp0 { fill: url(#grd1) } 
		.shp1 { fill: #ffffff } 
	</style>
	<g id="layer1">
		<g id="g10769">
			<g id="Clip-Path: g7265" clip-path="url(#cp1)">
				<g id="g7265">
					<g id="Clip-Path: g7263" clip-path="url(#cp2)">
						<g id="g7263">
							<path id="path7261" class="shp0" d="M682.42 2342.85L-775.74 681.99L885.48 -775.84L2343.64 885.01L682.42 2342.85Z" />
						</g>
					</g>
				</g>
			</g>
			<path id="path7317" class="shp1" d="M864.85 657.52C883.44 666.81 895.68 685.62 893.41 701.03C890.47 716.66 873.92 721.65 854.66 712.36C835.39 702.84 823.15 683.58 826.1 667.94C829.51 653 846.27 648.46 864.85 657.52" />
			<path id="path7319" class="shp1" d="M920.15 356.17C935.12 364.32 945.76 377.69 944.63 387.21C942.82 396.96 929.89 398.31 914.03 390.38C898.62 382.23 887.97 368.4 889.56 358.66C891.6 349.37 904.74 348.23 920.15 356.16" />
			<path id="path7321" class="shp1" d="M925.14 326.26C937.84 333.05 946.67 343.93 945.76 351.86C944.45 359.57 933.53 360.25 920.61 353.67C907.47 346.88 898.62 335.54 899.76 327.84C901.57 320.13 912.45 319.69 925.14 326.2" />
			<path id="path7323" class="shp1" d="M929.9 296.35C941.69 302.7 949.84 312.89 949.16 319.69C947.85 326.71 937.83 327.17 925.82 321C913.81 314.43 905.42 304.23 906.55 297.21C908.2 290.42 918.12 290.19 929.9 296.22" />
			<path id="path7325" class="shp1" d="M934.43 267.35C945.3 273.23 953.02 282.52 952.34 288.65C951.18 294.99 941.91 295.22 930.8 289.3C919.7 283.42 912 273.9 912.9 267.78C914.22 261.66 923.56 261.66 934.43 267.28" />
			<path id="path7327" class="shp1" d="M938.74 240.61C948.93 246.05 955.96 254.44 955.28 260.1C954.46 265.54 945.99 265.75 935.56 260.1C925.37 254.65 918.11 246.05 919.02 240.38C920.17 235.17 928.77 235.17 938.74 240.55" />
			<path id="path7329" class="shp1" d="M942.82 216.36C952.11 221.58 958.69 229.29 958.23 234.27C957.4 239.02 949.4 239.02 939.87 233.77C930.35 228.56 923.79 220.86 924.46 215.87C925.61 211.12 933.29 211.33 942.82 216.36" />
			<path id="path7331" class="shp1" d="M946.44 193.03C955.06 197.78 961.18 203.9 960.49 209.11C959.83 214.32 952.77 213.19 943.94 208.45C935.33 203.7 928.98 197.35 929.67 192.37C930.82 187.16 937.83 188.29 946.44 193.03" />
			<path id="path7333" class="shp1" d="M950.07 169.24C957.55 173.54 962.98 178.76 962.54 183.06C961.55 187.37 955.74 186.24 948.03 182.08C940.55 178 935.12 172.56 935.56 168.03C936.55 163.96 942.59 165.09 950.07 169.19" />
			<path id="path7335" class="shp1" d="M953.69 147.03C960.5 150.88 965.49 155.65 965.03 159.49C964.37 163.34 958.91 162.44 952.1 158.51C945.08 154.43 940.09 149.68 940.54 145.81C941.2 141.97 946.89 143.1 953.68 146.96" />
			<path id="path7337" class="shp1" d="M957.09 125.05C962.98 128.45 967.29 132.3 966.85 135.71C966.35 139.11 961.63 137.97 955.75 134.55C949.86 131.15 945.32 127.07 945.78 123.9C946.44 120.5 951.22 121.63 957.11 125.05" />
			<path id="path7339" class="shp1" d="M960.49 104.43C965.71 107.38 969.33 110.78 969.11 113.72C968.62 116.67 964.36 115.53 959.15 112.57C953.93 109.63 950.08 105.99 950.53 103.05C951.02 100.34 955.28 101.41 960.49 104.37" />
			<path id="path7341" class="shp1" d="M845.36 762.88C829.49 754.96 819.3 738.41 821.8 725.04C824.51 711.91 838.79 707.6 854.43 715.08C869.84 722.79 880.04 738.87 878 752.24C875.5 765.84 861.45 770.37 845.36 762.89" />
			<path id="path7343" class="shp1" d="M833.13 827.23C817.49 819.52 807.52 802.99 810.24 789.17C813.18 775.8 827.01 771.04 842.42 778.3C857.6 785.78 867.57 801.86 865.31 815.46C862.59 829.5 848.76 834.49 833.13 827.25" />
			<path id="path7345" class="shp1" d="M819.98 894.08C804.8 886.82 795.51 870.28 798 856.24C801.17 842.41 814.77 837.43 829.73 844.23C844.46 851.71 853.98 867.8 851.71 881.62C849 895.66 835.4 901.1 819.98 894.08" />
			<path id="path7347" class="shp1" d="M805.7 967.71C790.74 960.69 781.68 944.15 784.4 929.88C787.57 915.83 801.17 910.39 815.45 916.97C829.95 923.99 839.24 939.85 836.53 954.13C833.81 968.4 820.44 974.29 805.7 967.73" />
			<path id="path7349" class="shp1" d="M790.74 1041.13C778.05 1035.01 770.12 1020.51 772.61 1007.37C775.56 994.44 787.35 989.24 800.04 994.9C812.73 1000.79 820.44 1015.3 818.17 1028.21C815.46 1041.14 803.66 1046.79 790.74 1041.14" />
			<path id="path7351" class="shp1" d="M772.61 1130.17C760.15 1124.52 752.9 1110.01 755.39 1096.41C758.56 1083.51 769.9 1077.61 782.36 1083.05C794.37 1088.49 801.85 1102.76 799.36 1116.13C796.64 1129.49 785.08 1135.61 772.61 1130.17" />
			<path id="path7353" class="shp1" d="M752.45 1226.47C741.11 1221.49 734.77 1208.12 737.48 1195.43C740.42 1182.97 750.85 1177.08 761.73 1181.6C772.6 1186.59 778.95 1199.73 776.69 1212.19C773.98 1224.88 763.55 1231 752.44 1226.46" />
			<path id="path7355" class="shp1" d="M732.27 1322.77C722.75 1318.69 717.54 1306.9 720.04 1295.35C722.75 1284.02 731.83 1278.36 741.34 1281.99C750.63 1286.06 755.85 1297.62 753.58 1308.95C750.86 1320.28 741.78 1326.4 732.27 1322.78" />
			<path id="path7357" class="shp1" d="M930.58 693.78C945.08 701.26 955.28 716.43 953.69 728.9C951.89 741.59 939.19 745.44 924.01 738.19C908.83 730.48 898.85 715.08 900.66 702.39C902.93 690.15 915.84 686.52 930.58 693.77" />
			<path id="path7359" class="shp1" d="M995.62 720.96C1013.53 730.48 1026.22 749.74 1024.86 765.38C1023.21 781.46 1007.86 786.68 989.28 777.38C970.69 767.63 958 747.92 959.59 732.06C962.09 716.42 977.26 711.9 995.62 720.96" />
			<path id="path7361" class="shp1" d="M1445.49 697.17C1438.01 692.64 1433.02 694 1433.93 700.58C1434.75 707.37 1441.41 716.21 1448.89 721.2C1456.38 725.73 1461.36 724.37 1460.46 717.56C1459.3 710.77 1452.74 701.93 1445.51 697.17" />
			<path id="path7363" class="shp1" d="M1393.14 661.37C1383.38 655.49 1376.36 657.3 1377.27 665.68C1378.42 674.07 1386.79 685.39 1396.76 691.74C1406.72 697.63 1413.3 695.82 1412.4 687.2C1411.25 678.59 1402.87 667.49 1393.13 661.37" />
			<path id="path7365" class="shp1" d="M1246.96 1149.66C1234.26 1141.97 1224.52 1147.16 1224.29 1162.35C1224.29 1177.53 1234.05 1195.66 1246.73 1203.82C1259.66 1211.97 1269.17 1206.09 1269.17 1190.68C1269 1175.5 1259.43 1157.6 1246.96 1149.67" />
			<path id="path7367" class="shp1" d="M1184.63 1025.95C1169.9 1017.56 1158.34 1023.23 1157.44 1039.08C1157.27 1055.16 1168.33 1074.66 1183.27 1083.49C1198.01 1092.11 1209.56 1085.99 1210.02 1069.67C1210.02 1053.59 1198.92 1034.55 1184.63 1025.93" />
			<path id="path7369" class="shp1" d="M1118.91 919C1104.4 911.29 1092.85 916.29 1091.71 930.79C1091.06 945.29 1101.68 963.19 1116.42 971.57C1131.15 979.5 1142.71 974.07 1143.61 959.11C1143.78 944.61 1133.19 927.16 1118.91 919.01" />
			<path id="path7371" class="shp1" d="M1078.57 480.56C1065.43 473.77 1055 475.12 1054.09 484.41C1053.6 493.7 1063.39 506.39 1076.76 513.64C1090.13 520.66 1100.55 518.85 1101.01 509.56C1101.17 500.27 1091.48 487.81 1078.57 480.56" />
			<path id="path7373" class="shp1" d="M1346.45 674.97C1336.25 669.08 1329 670.89 1329.45 679.72C1330.44 688.55 1338.97 700.34 1349.4 706.68C1359.59 712.8 1366.85 710.53 1366.17 701.7C1365.02 692.87 1356.64 681.08 1346.45 674.97" />
			<path id="path7375" class="shp1" d="M1293.64 643.25C1282.77 636.9 1274.83 638.94 1275.06 648C1275.72 657.06 1284.81 669.07 1295.68 675.64C1306.78 681.99 1314.49 679.72 1314.04 670.66C1313.38 661.6 1304.29 649.59 1293.64 643.24" />
			<path id="path7377" class="shp1" d="M1188.03 625.35C1175.34 618.33 1165.6 620.6 1165.37 630.79C1165.53 641.21 1175.57 654.81 1188.26 662.28C1201.4 669.07 1210.92 666.59 1210.92 656.17C1210.76 645.74 1200.73 632.37 1188.03 625.35" />
			<path id="path7379" class="shp1" d="M1241.29 611.07C1229.29 604.5 1220.22 606.32 1220.22 616.06C1220.71 625.81 1230.41 638.94 1242.88 646.19C1255.11 652.98 1264.18 650.5 1263.73 640.75C1263.07 630.78 1253.53 618.09 1241.29 611.07" />
			<path id="path7381" class="shp1" d="M1185.77 578.9C1172.17 571.65 1161.52 573.68 1161.29 584.11C1161.29 594.76 1172.16 609.26 1185.99 616.96C1200.04 624.44 1210.47 622.18 1210.24 611.31C1209.75 600.65 1199.14 586.61 1185.77 578.91" />
			<path id="path7383" class="shp1" d="M1131.83 592.49C1117.78 585.01 1106.45 587.51 1105.77 598.38C1105.6 609.71 1116.42 624.44 1130.7 632.37C1145.2 640.08 1156.3 637.35 1156.76 626.02C1156.76 614.92 1145.89 600.19 1131.83 592.49" />
			<path id="path7385" class="shp1" d="M1056.36 816.81C1041.41 809.1 1028.94 813.64 1027.58 827.24C1026.43 841.28 1037.33 858.28 1052.51 866.66C1067.46 874.37 1079.7 869.6 1081.06 855.56C1081.72 841.52 1071.1 824.75 1056.36 816.82" />
			<path id="path7387" class="shp1" d="M1060.67 757.9C1044.8 749.51 1031.43 753.82 1029.84 768.09C1028.86 782.6 1040.5 800.5 1057.04 809.33C1073.35 817.95 1086.5 813.18 1087.63 798.46C1088.29 783.96 1076.76 766.52 1060.67 757.91" />
			<path id="path7389" class="shp1" d="M1064.74 702.16C1047.29 693.33 1033.02 697.41 1031.43 712.12C1030.61 727.09 1043.22 746.11 1060.89 755.85C1078.57 764.91 1092.85 760.39 1093.98 745.2C1094.64 730.02 1081.98 711.44 1064.74 702.15" />
			<path id="path7391" class="shp1" d="M1068.37 650.27C1051.6 641.66 1037.78 645.06 1036.19 658.89C1035.2 672.72 1047.75 690.84 1064.97 700.13C1082.2 708.96 1095.79 705.11 1096.93 690.84C1097.42 676.8 1084.92 659.34 1068.37 650.28" />
			<path id="path7393" class="shp1" d="M1070.86 605.18C1055.91 597.7 1043.9 600.2 1042.76 611.76C1042.1 623.76 1052.96 638.95 1067.92 647.11C1083.1 655.03 1094.89 651.86 1096.02 640.08C1096.18 628.3 1085.36 613.12 1070.86 605.19" />
			<path id="path7395" class="shp1" d="M1074.04 559.41C1058.17 551.03 1045.25 553.52 1043.9 565.53C1043.24 577.76 1055.23 594.08 1071.32 602.91C1087.63 611.53 1100.55 608.57 1101.46 596.12C1101.62 583.89 1089.9 568.03 1074.04 559.42" />
			<path id="path7397" class="shp1" d="M1076.53 517.72C1060.89 509.56 1048.43 511.6 1047.29 522.93C1046.64 534.26 1058.39 549.89 1074.26 558.51C1090.13 566.89 1102.59 564.39 1103.27 552.62C1103.44 541.29 1091.94 526.11 1076.53 517.72" />
			<path id="path7399" class="shp1" d="M975.68 389.93C964.58 384.48 955.51 385.39 954.38 392.2C953.55 399.22 961.17 409.19 972.28 415.08C983.38 420.75 992.68 419.83 993.58 412.81C994.24 405.79 986.56 396.05 975.68 389.93Z" />
			<path id="path7401" class="shp1" d="M977.72 357.53C967.75 352.31 959.36 352.99 958.45 358.84C957.8 365.19 964.8 374.02 975 379.46C984.96 384.9 993.36 384 994.26 377.82C994.76 371.7 987.68 362.87 977.72 357.42" />
			<path id="path7403" class="shp1" d="M979.53 326.71C970.7 322.17 963.45 322.63 962.76 327.7C962.1 332.91 968.43 340.62 977.04 345.37C985.87 349.91 992.91 349.45 993.81 344.22C994.3 339.01 988.13 331.53 979.53 326.77" />
			<path id="path7405" class="shp1" d="M980.66 297.03C972.74 292.95 966.39 292.49 965.7 297.52C965.04 302.73 970.91 308.85 978.62 313.16C986.78 317.24 993.13 317.7 993.8 312.67C994.3 307.45 988.36 301.34 980.66 297.03Z" />
			<path id="path7407" class="shp1" d="M982.25 269.38C975 265.54 969.11 264.85 968.42 269.38C967.93 274.14 973.4 279.81 980.66 283.89C987.91 287.73 993.8 288.19 994.49 283.72C994.98 278.97 989.5 273.3 982.25 269.45" />
			<path id="path7409" class="shp1" d="M983.61 241.52C977.03 238.11 971.82 237.44 971.37 241.35C970.88 245.43 975.68 250.18 982.24 253.82C988.59 257.45 993.81 257.89 994.25 253.82C994.41 249.97 989.94 245.2 983.59 241.58" />
			<path id="path7411" class="shp1" d="M984.74 216.82C978.62 213.64 973.87 212.97 973.41 216.32C972.92 220.17 977.49 224.48 983.38 227.88C989.5 231.06 994.25 231.96 994.71 228.05C994.87 224.43 990.63 220.12 984.74 216.72" />
			<path id="path7413" class="shp1" d="M985.88 191.67C980.43 188.72 976.36 187.82 975.91 191.01C975.75 194.18 979.53 198.03 984.97 200.97C990.19 203.92 994.5 204.61 994.73 201.47C994.89 198.29 991.11 194.68 985.89 191.72" />
			<path id="path7415" class="shp1" d="M916.53 790.53C928.32 795.97 938.28 792.56 939.64 782.6C940.96 772.41 933.3 760.4 921.97 754.5C910.4 749.06 900.66 752.23 898.62 762.22C897.31 772.18 904.97 784.42 916.53 790.54" />
			<path id="path7417" class="shp1" d="M906.78 854.88C917.88 860.32 927.41 856.69 929.22 846.49C930.37 836.53 923.1 824.74 912.22 819.08C901.12 813.86 891.6 817.27 889.78 827.23C888.47 837.19 895.67 849.21 906.78 854.88" />
			<path id="path7419" class="shp1" d="M891.37 921.04C902.47 926.25 911.77 922.35 913.58 911.98C914.9 901.55 907.92 889.55 897.27 884.11C886.4 879.13 876.87 882.96 874.83 893.17C873.19 903.59 880.5 915.6 891.37 921.04" />
			<path id="path7421" class="shp1" d="M877.32 993.09C887.52 997.84 896.58 993.75 898.17 983.57C899.49 973.61 892.96 962.05 882.99 957.06C872.79 952.31 863.95 956.08 862.14 966.35C860.5 976.55 867.12 988.1 877.32 993.09" />
			<path id="path7423" class="shp1" d="M860.32 1065.14C869.84 1069.45 878.45 1065.31 880.04 1055.39C881.35 1045.43 875.5 1034.32 866.21 1029.79C856.69 1025.48 848.08 1029.63 846.27 1039.31C844.62 1049.27 850.79 1060.61 860.31 1065.14" />
			<path id="path7425" class="shp1" d="M840.38 1150.79C849.44 1154.87 857.38 1150.3 859.19 1140.6C860.5 1130.86 855.11 1120.21 846.28 1116.13C837.43 1112.05 829.51 1116.29 827.47 1125.88C825.82 1135.84 831.55 1146.72 840.38 1150.8" />
			<path id="path7427" class="shp1" d="M1130.7 549.9C1117.55 542.87 1107.35 544.68 1106.67 554.65C1106.51 564.61 1116.64 577.99 1129.79 585.46C1143.39 592.25 1153.58 590.22 1153.81 580.02C1153.81 570.06 1143.85 556.91 1130.7 549.89" />
			<path id="path7429" class="shp1" d="M1127.97 639.85C1116.2 633.73 1106.67 636 1106.22 645.51C1106.05 655.26 1114.84 667.71 1126.84 674.51C1138.85 680.86 1148.15 678.36 1148.6 668.39C1148.6 658.87 1139.54 646.41 1127.97 639.84" />
			<path id="path7431" class="shp1" d="M1126.84 686.52C1113.47 679.27 1102.59 682.22 1101.91 693.55C1101.42 705.1 1111.67 719.83 1125.48 727.53C1139.31 734.78 1149.73 731.38 1150.19 719.82C1150.19 708.49 1140.22 693.77 1126.84 686.51" />
			<path id="path7433" class="shp1" d="M1120.27 853.52C1106.9 846.5 1096.25 850.57 1095.34 863.25C1094.85 875.94 1104.63 891.57 1118 899.05C1131.6 906.3 1142.03 901.99 1142.71 889.09C1142.87 876.16 1133.18 860.99 1120.27 853.51" />
			<path id="path7435" class="shp1" d="M1342.14 629.2C1331.04 622.85 1323.11 624.66 1323.79 633.74C1324.77 643.03 1333.98 655.26 1345.32 662.06C1356.65 668.64 1364.13 666.6 1363.45 657.31C1362.3 648.02 1353.02 635.78 1342.14 629.21" />
			<path id="path7437" class="shp1" d="M1179.88 1106.16C1167.64 1099.14 1158.12 1104.35 1157.21 1118.16C1157.05 1132.43 1166.27 1148.97 1178.52 1156.45C1190.98 1163.47 1200.5 1158.26 1201.18 1143.99C1201.18 1129.72 1192.12 1113.4 1179.88 1106.15" />
			<path id="path7439" class="shp1" d="M1247.64 1232.82C1236.08 1225.57 1227.24 1231.01 1226.79 1245.51C1226.79 1260.24 1235.85 1277.68 1247.41 1285.62C1259.2 1292.87 1268.03 1287.43 1268.26 1272.48C1268.1 1257.53 1259.2 1240.3 1247.64 1232.83" />
			<path id="path7441" class="shp1" d="M1113.47 988.79C1100.1 981.54 1089.22 986.52 1088.09 1000.58C1087.43 1014.85 1097.38 1031.85 1110.98 1039.55C1124.58 1046.8 1135.45 1041.59 1136.36 1027.09C1136.85 1012.81 1126.84 996.27 1113.47 988.8" />
			<path id="path7443" class="shp1" d="M1050.92 884.79C1037.55 878 1026.67 882.29 1025.08 895.21C1024.1 908.12 1033.7 923.76 1047.07 931.24C1060.67 938.03 1071.77 933.27 1072.9 920.14C1073.56 907.23 1064.07 892.04 1050.92 884.79" />
			<path id="path7445" class="shp1" d="M990.18 783.5C975.45 776.25 963.21 780.33 961.4 793.25C959.76 806.62 970.02 822.71 984.74 830.41C999.71 837.89 1011.94 833.36 1013.53 819.99C1014.68 806.85 1004.46 790.98 990.18 783.51" />
			<path id="path7447" class="shp1" d="M1122.54 796.87C1110.3 790.29 1100.33 793.7 1099.65 805.03C1099.15 816.36 1108.48 830.63 1120.95 837.65C1133.65 844.23 1143.16 840.6 1143.84 829.04C1144 817.71 1135.01 803.66 1122.54 796.86" />
			<path id="path7449" class="shp1" d="M1080.38 444.99C1068.82 438.87 1059.53 440 1059.08 447.7C1058.59 455.41 1067.24 466.51 1079.02 472.85C1090.58 478.97 1099.65 477.6 1100.33 469.91C1100.33 461.98 1091.71 451.33 1080.38 444.98" />
			<path id="path7451" class="shp1" d="M1290.7 602.24C1281.64 597.02 1274.83 598.62 1275.29 605.64C1275.78 612.89 1283.45 622.86 1292.51 628.3C1301.8 633.51 1308.38 631.92 1307.92 624.45C1307.26 617.2 1299.77 607.68 1290.7 602.25" />
			<path id="path7453" class="shp1" d="M1188.49 724.82C1178.06 719.16 1170.13 721.64 1169.9 730.7C1169.9 739.76 1177.83 751.55 1188.26 757.44C1198.92 763.1 1206.84 760.61 1206.84 751.32C1206.68 742.26 1198.69 730.71 1188.49 724.81" />
			<path id="path7455" class="shp1" d="M1183.5 957.52C1170.59 950.27 1160.61 954.81 1159.93 967.94C1159.93 981.54 1169.45 997.85 1182.37 1005.56C1195.51 1012.81 1205.48 1008.27 1205.71 994.46C1205.71 981.09 1196.19 965 1183.5 957.52" />
			<path id="path7457" class="shp1" d="M1124.8 742.49C1113.01 736.14 1103.27 739.09 1102.59 749.74C1102.43 760.4 1111.21 773.99 1123.44 780.56C1135.45 787.13 1144.97 783.96 1145.65 773.08C1145.65 762.42 1136.82 749.29 1124.8 742.49" />
			<path id="path7459" class="shp1" d="M1248.09 812.05C1236.53 805.48 1227.92 808.42 1227.69 819.53C1227.86 830.63 1237.22 844.68 1249 851.71C1260.79 858.5 1269.39 855.11 1269.17 843.78C1268.67 832.68 1259.65 818.86 1248.09 812.06" />
			<path id="path7461" class="shp1" d="M1298.18 1374.66C1288.88 1368.08 1281.86 1372.85 1281.63 1386.22C1281.8 1399.58 1289.35 1415.22 1298.63 1422.47C1308.15 1429.26 1314.95 1424.28 1314.95 1410.68C1314.78 1397.31 1307.46 1381.68 1298.17 1374.65" />
			<path id="path7463" class="shp1" d="M1243.33 657.98C1232.46 651.86 1224.52 653.9 1224.52 662.96C1225.01 672.02 1233.58 683.8 1244.24 690.15C1255.34 696.26 1263.28 693.99 1262.82 684.93C1262.33 675.87 1253.99 664.09 1243.33 657.97" />
			<path id="path7465" class="shp1" d="M1026.22 417.34C1015.79 411.9 1007.18 412.81 1006.27 419.61C1005.62 426.63 1013.53 436.38 1023.95 442.27C1034.61 447.71 1043.22 446.58 1043.9 439.56C1044.06 432.77 1036.64 423.02 1026.22 417.35" />
			<path id="path7467" class="shp1" d="M1132.28 439.55C1122.32 434.34 1114.6 435.24 1114.38 441.82C1114.38 448.61 1122.09 458.13 1132.06 463.57C1142.25 469.01 1150.19 468.11 1150.19 461.3C1150.02 454.51 1142.26 445.22 1132.28 439.55" />
			<path id="path7469" class="shp1" d="M1239.71 573.91C1231.32 569.16 1225.2 570.51 1225.43 576.86C1225.6 583.2 1232.45 592.03 1240.84 596.8C1249.23 601.33 1255.35 599.97 1255.12 593.62C1254.62 587.05 1248.09 578.45 1239.71 573.91" />
			<path id="path7471" class="shp1" d="M1185.99 778.29C1175.34 772.4 1167.18 775.12 1166.73 784.87C1166.73 794.62 1174.89 806.85 1185.77 813.19C1196.43 819.08 1204.58 816.14 1204.8 806.17C1204.64 796.42 1196.42 784.19 1185.99 778.3" />
			<path id="path7473" class="shp1" d="M1244.92 758.58C1235.63 753.37 1228.83 755.64 1228.83 764.02C1229 772.18 1236.32 783.05 1245.61 788.49C1254.9 793.7 1261.69 791.21 1261.48 782.84C1260.98 774.45 1253.78 764.03 1244.93 758.59" />
			<path id="path7475" class="shp1" d="M1304.98 847.85C1294.78 841.74 1287.3 844.68 1287.52 854.87C1288.02 865.07 1296.36 877.99 1306.56 884.56C1316.99 890.67 1324.24 887.73 1324.01 877.3C1323.36 867.11 1314.95 854.19 1304.98 847.85" />
			<path id="path7477" class="shp1" d="M1396.99 709.18C1389.06 704.43 1383.85 706.01 1384.52 712.82C1385.18 719.84 1391.78 729.13 1399.7 734.12C1407.42 738.87 1412.84 737.29 1412.17 730.27C1411.35 723.25 1404.46 714.19 1396.99 709.2" />
			<path id="path7479" class="shp1" d="M1132.51 408.28C1123.89 403.53 1116.87 403.97 1116.64 409.6C1116.8 415.25 1123.66 423.64 1132.51 428.63C1141.34 433.38 1148.15 432.48 1148.38 426.82C1148.22 421.16 1141.36 412.99 1132.51 408.24" />
			<path id="path7481" class="shp1" d="M1132.06 475.58C1122.76 470.59 1115.51 471.73 1115.28 478.08C1115.28 484.42 1122.31 493.25 1131.6 498.47C1141.12 503.45 1148.14 502.54 1148.37 495.97C1148.21 489.39 1141.12 480.79 1132.06 475.58Z" />
			<path id="path7483" class="shp1" d="M1308.15 1288.33C1297.49 1281.08 1289.57 1286.29 1289.34 1300.33C1289.83 1314.6 1298.17 1331.83 1308.83 1339.53C1319.7 1347.23 1327.64 1342.03 1327.41 1327.3C1326.92 1313.03 1318.58 1296.03 1308.15 1288.32" />
			<path id="path7485" class="shp1" d="M1081.74 413.49C1072.68 408.51 1065.43 409.41 1064.97 415.14C1064.81 421.25 1071.55 429.64 1080.84 434.85C1089.9 439.6 1097.39 438.7 1097.61 432.81C1097.78 426.92 1090.82 418.54 1081.74 413.55" />
			<path id="path7487" class="shp1" d="M1185.77 675.42C1176.71 670.67 1169.67 672.48 1169.67 679.96C1169.67 687.66 1176.69 697.63 1185.77 702.85C1194.83 707.83 1201.85 705.79 1201.85 698.09C1201.85 690.38 1194.83 680.65 1185.77 675.43" />
			<path id="path7489" class="shp1" d="M1185.09 545.36C1177.6 541.29 1171.95 542.42 1171.72 547.86C1171.88 553.54 1177.83 561.23 1185.55 565.54C1193.26 569.85 1198.92 568.48 1198.92 562.82C1198.75 557.15 1192.8 549.46 1185.09 545.38" />
			<path id="path7491" class="shp1" d="M1184.41 896.34C1175.58 891.13 1168.32 894.07 1168.09 903.13C1167.93 912.19 1174.89 923.52 1183.96 928.74C1193.26 933.95 1200.28 931.01 1200.51 921.72C1200.51 912.66 1193.49 901.55 1184.42 896.34" />
			<path id="path7493" class="shp1" d="M1248.54 1073.76C1238.35 1067.41 1230.19 1071.49 1229.96 1083.51C1229.96 1095.51 1238.12 1110.02 1248.54 1116.81C1259.2 1123.16 1267.13 1118.85 1267.13 1106.62C1266.96 1094.62 1258.97 1080.33 1248.54 1073.76" />
			<path id="path7495" class="shp1" d="M1131.38 516.81C1124.35 513.2 1119.14 514.1 1118.91 519.08C1118.91 524.06 1124.12 530.87 1130.92 534.72C1137.94 538.57 1143.38 537.43 1143.61 532.45C1143.45 527.47 1138.17 520.66 1131.38 516.81" />
			<path id="path7497" class="shp1" d="M1243.33 1317.79C1234.95 1312.57 1228.6 1316.64 1228.15 1327.75C1228.15 1338.85 1234.5 1351.77 1242.89 1357.43C1251.28 1362.64 1257.62 1358.42 1257.85 1347.24C1257.85 1336.14 1251.51 1323.22 1243.35 1317.78" />
			<path id="path7499" class="shp1" d="M1296.82 692.42C1288.2 687.43 1281.85 689.24 1282.08 696.72C1282.74 704.2 1289.79 713.94 1298.4 719.38C1307.23 724.36 1313.36 722.55 1312.9 714.84C1312.41 707.36 1305.42 697.62 1296.82 692.41" />
			<path id="path7501" class="shp1" d="M1184.63 437.74C1176.71 433.43 1170.8 433.89 1170.8 439.05C1170.97 444.26 1177.15 451.96 1185.08 456.27C1193.24 460.58 1199.12 459.91 1198.91 454.63C1198.75 449.42 1192.33 441.93 1184.63 437.64" />
			<path id="path7503" class="shp1" d="M1496.93 732.07C1490.59 727.99 1486.51 729.13 1487.2 735.01C1488.35 740.9 1493.78 748.84 1500.12 753.36C1506.47 757.44 1510.55 756.08 1509.65 749.96C1508.5 744.07 1503.07 736.13 1496.95 732.06" />
			<path id="path7505" class="shp1" d="M1362.77 885.92C1353.71 880.25 1347.36 882.98 1347.8 892.27C1348.46 901.79 1355.96 913.79 1365.03 920.14C1374.09 925.81 1380.67 923.08 1379.99 913.56C1379.33 903.81 1371.83 891.81 1362.77 885.92" />
			<path id="path7507" class="shp1" d="M1334.89 1466.65C1327.41 1460.53 1321.75 1464.84 1321.75 1477.08C1322.24 1489.54 1328.33 1504.26 1335.8 1510.84C1343.51 1517.41 1348.94 1512.88 1348.71 1500.41C1348.21 1487.95 1342.36 1473.22 1334.87 1466.65" />
			<path id="path7509" class="shp1" d="M1177.16 1190.67C1168.09 1185.46 1160.84 1189.69 1160.16 1200.64C1159.99 1211.74 1166.74 1224.43 1176.03 1230.09C1185.32 1235.54 1192.34 1231.24 1192.8 1219.9C1192.96 1209.03 1186.22 1196.33 1177.16 1190.67" />
			<path id="path7511" class="shp1" d="M1302.48 796.64C1296.14 792.8 1291.38 794.38 1291.61 800.72C1291.78 806.84 1297.06 814.76 1303.62 818.85C1310.2 822.7 1314.95 820.89 1314.72 814.77C1314.23 808.43 1309.05 800.5 1302.48 796.65" />
			<path id="path7513" class="shp1" d="M1181.69 405.56C1174.9 401.93 1169.9 401.71 1169.9 406.55C1170.06 411.3 1175.34 417.2 1182.13 420.82C1188.92 424.67 1193.92 424.67 1193.92 419.83C1193.76 415.08 1188.27 409.18 1181.69 405.56Z" />
			<path id="path7515" class="shp1" d="M1229.73 434.34C1224.06 431.16 1220 431.16 1220.21 435.32C1220.7 439.4 1224.96 444.15 1230.41 447.33C1235.85 450.27 1240.16 450.27 1239.93 446.18C1239.44 442.33 1235.18 437.33 1229.73 434.39" />
			<path id="path7517" class="shp1" d="M1110.07 1074.89C1101.91 1070.35 1095.12 1073.74 1094.43 1082.81C1094.27 1091.87 1100.11 1102.3 1108.26 1107.06C1116.42 1111.37 1123.21 1108.04 1123.67 1098.9C1124.17 1089.84 1118.25 1079.42 1110.07 1074.89" />
			<path id="path7519" class="shp1" d="M1042.76 962.28C1034.6 958.43 1027.8 961.29 1027.12 969.53C1026.46 977.68 1032.1 987.43 1040.26 991.73C1048.42 995.81 1055.21 992.88 1055.9 984.71C1056.39 976.33 1050.69 966.81 1042.76 962.28" />
			<path id="path7521" class="shp1" d="M980.44 858.05C972.51 854.2 965.7 856.9 964.57 864.17C963.91 871.65 969.32 880.71 977.26 885.01C985.42 888.86 992.23 886.16 993.13 878.66C993.79 871.18 988.38 862.35 980.44 858.05" />
			<path id="path7523" class="shp1" d="M1226.56 403.75C1220.67 400.58 1216.36 400.35 1216.59 404.41C1217.09 408.71 1221.81 413.7 1227.7 417.1C1233.58 420.27 1237.89 420.5 1237.66 416.11C1237.17 412.04 1232.45 407.05 1226.56 403.65" />
			<path id="path7525" class="shp1" d="M1264.41 404.65C1259.2 401.94 1255.58 401.71 1255.58 405.31C1256.07 408.95 1260.12 413.24 1265.1 416.18C1270.31 418.89 1274.16 419.12 1273.93 415.52C1273.44 411.89 1269.39 407.6 1264.41 404.64" />
			<path id="path7527" class="shp1" d="M1419.88 929.65C1414.21 925.8 1410.13 927.61 1410.59 933.96C1411.25 940.3 1416.03 948.46 1421.69 952.54C1427.58 956.15 1431.44 954.58 1430.98 948C1430.49 941.65 1425.77 933.73 1419.88 929.65" />
			<path id="path7529" class="shp1" d="M1367.07 944.15C1360.05 939.61 1354.61 941.88 1355.07 949.81C1355.56 957.73 1361.42 967.71 1368.9 972.69C1376.15 977.67 1381.37 975.19 1380.91 967.02C1380.41 959.09 1374.33 949.12 1367.07 944.13" />
			<path id="path7531" class="shp1" d="M1308.15 907.44C1301.36 903.14 1296.36 905.17 1296.36 912.43C1296.85 919.45 1302.24 928.29 1309.05 932.59C1315.84 936.9 1320.84 934.63 1320.61 927.38C1320.12 920.36 1314.73 911.51 1308.15 907.44" />
			<path id="path7533" class="shp1" d="M1247.64 871.64C1241.29 868.01 1236.54 869.83 1236.54 876.18C1236.54 882.3 1241.52 890.22 1247.87 894.08C1254.22 897.72 1258.74 895.73 1258.74 889.54C1258.74 883.2 1253.76 875.5 1247.64 871.64Z" />
			<path id="path7535" class="shp1" d="M1185.77 835.84C1179.19 832.23 1174.21 834.2 1173.98 840.15C1174.14 846.27 1178.96 853.98 1185.54 857.6C1191.89 861.23 1196.87 859.41 1196.87 853.29C1196.87 847.17 1192.12 839.46 1185.77 835.84" />
			<path id="path7537" class="shp1" d="M1423.05 984.94C1417.16 980.86 1413.3 982.9 1413.53 989.69C1414.19 996.26 1419.2 1004.86 1424.86 1009.17C1430.53 1013.25 1434.6 1011.21 1434.15 1004.42C1433.66 997.63 1428.94 989.01 1423.05 984.94Z" />
			<path id="path7539" class="shp1" d="M1481.52 1029.12C1476.31 1025.27 1472.9 1027.08 1473.37 1033.43C1474.02 1039.77 1478.35 1047.7 1483.56 1051.78C1488.78 1055.86 1492.18 1054.05 1491.72 1047.47C1491.06 1041.13 1486.51 1032.97 1481.52 1029.12Z" />
			<path id="path7541" class="shp1" d="M1183.73 471.95C1177.38 468.32 1172.4 468.55 1172.4 473.27C1172.56 478.25 1177.61 484.13 1184.19 487.77C1190.54 491.17 1195.52 490.94 1195.52 485.96C1195.35 481.21 1190.31 475.3 1183.73 471.92" />
			<path id="path7543" class="shp1" d="M796.41 626.93C781.23 619.91 767.4 623.3 764 635.32C761.29 647.55 771.03 662.74 786.44 670.21C802.08 677.46 815.9 673.62 818.85 661.38C821.12 649.15 811.6 634.42 796.41 626.94" />
			<path id="path7545" class="shp1" d="M730.46 589.77C711.2 580.94 693.07 585.24 688.31 599.74C684.23 614.91 696.02 633.73 715.73 643.24C735.67 652.07 753.81 647.32 757.88 632.14C761.5 617.2 749.5 599.06 730.46 589.77" />
			<path id="path7547" class="shp1" d="M288.3 123.01C298.73 126.65 303.71 132.98 300.31 137.96C296.23 142.71 285.34 143.84 274.7 140.46C264.04 137.05 258.82 130.72 262.69 125.51C266.77 120.76 277.87 119.63 288.3 123.01" />
			<path id="path7549" class="shp1" d="M361.28 145.67C373.51 150.42 379.86 158.58 375.78 164.93C371.47 170.82 358.56 171.95 345.87 167.43C333.17 162.68 326.83 154.51 331.13 148.17C335.67 142.28 348.81 141.15 361.27 145.67" />
			<path id="path7551" class="shp1" d="M333.63 722.78C345.19 727.53 350.85 737.95 346.77 747.7C342.24 757.22 329.77 761.07 317.53 756.76C305.74 752.01 300.08 741.12 304.62 731.61C309.16 722.09 321.84 718.47 333.63 722.78" />
			<path id="path7553" class="shp1" d="M438.11 670.44C453.75 677.01 462.13 691.51 457.14 704.43C451.7 717.12 435.16 722.1 418.84 715.75C402.53 708.96 394.36 694 399.8 681.09C405.48 668.62 422.01 664.09 438.11 670.43" />
			<path id="path7555" class="shp1" d="M542.81 640.08C559.58 647.56 568.65 662.96 564.34 676.33C559.13 689.47 542.58 694.23 525.36 687.2C508.36 679.72 499.07 663.86 504.06 650.49C509.5 637.58 526.26 633.27 542.81 640.06" />
			<path id="path7557" class="shp1" d="M738.85 305.41C752.89 312.43 761.96 324.45 759.47 332.83C756.97 341.45 743.83 342.56 729.33 335.77C714.82 328.52 705.76 316.51 708.48 307.9C711.65 299.75 724.56 298.84 738.85 305.4" />
			<path id="path7559" class="shp1" d="M407.06 205.04C420.2 210.25 427.23 219.31 423.37 226.33C418.83 233.13 405.47 234.72 391.87 229.97C378.5 224.76 371.47 215.47 375.56 208.44C380.31 201.65 393.91 200.29 407.06 205.04" />
			<path id="path7561" class="shp1" d="M474.59 230.87C487.96 236.31 495.44 246.27 491.59 253.75C487.51 261 474.14 262.58 460.31 257.15C446.48 251.5 439.01 241.52 443.09 234.04C447.17 226.79 460.99 225.43 474.59 230.87" />
			<path id="path7563" class="shp1" d="M586.78 321.5C601.51 328.29 609.89 340.08 606.49 349.14C602.64 357.99 588.14 359.8 573.18 353.22C558 346.43 549.61 334.64 553.23 325.35C557.54 316.96 572.05 315.16 586.78 321.5" />
			<path id="path7565" class="shp1" d="M539.86 256.24C554.14 262.59 562.3 273.69 558.9 282.07C554.82 290 540.54 291.59 525.58 285.48C510.85 278.9 502.47 267.8 506.55 259.42C510.86 251.5 525.36 250.13 539.86 256.25" />
			<path id="path7567" class="shp1" d="M604.91 284.34C620.09 291.36 628.93 303.37 625.76 312.44C621.91 321.28 606.95 322.86 591.31 316.07C575.67 308.82 566.6 296.58 570.46 287.52C574.77 278.9 589.5 277.56 604.91 284.35" />
			<path id="path7569" class="shp1" d="M651.14 349.37C667.01 356.85 676.52 369.99 673.35 379.96C669.5 389.92 654.31 392.19 638 384.71C621.68 377 612.16 363.64 615.79 353.44C619.86 343.92 635.28 342.11 651.14 349.36" />
			<path id="path7571" class="shp1" d="M640.03 613.56C656.35 621.28 665.87 636.68 662.25 649.59C658.17 662.52 642.07 666.81 625.08 659.56C608.31 651.84 598.79 635.99 602.87 623.07C607.62 610.38 623.49 606.54 640.03 613.55" />
			<path id="path7573" class="shp1" d="M656.8 559.41C674.48 567.8 684.91 583.88 681.05 597.25C676.75 610.62 659.75 614.92 641.62 606.77C623.49 598.39 613.06 581.62 617.15 568.25C622.13 555.33 639.13 551.49 656.8 559.41" />
			<path id="path7575" class="shp1" d="M671.99 508.43C690.8 517.49 702.13 534.49 698.28 548.31C693.97 562.14 675.62 566.21 656.13 557.6C636.64 548.31 625.08 530.64 629.61 516.81C634.59 503.45 652.95 499.82 671.99 508.43" />
			<path id="path7577" class="shp1" d="M687.17 460.85C705.53 469.46 716.64 485.77 713.01 498.69C708.93 511.59 691.48 515 672.44 506.61C653.63 497.55 642.53 480.78 646.61 467.87C651.36 455.17 668.82 452.23 687.17 460.85" />
			<path id="path7579" class="shp1" d="M700.32 419.38C716.19 427.1 726.15 441.14 723.21 452.01C719.59 462.67 704.4 465.38 688.08 457.68C671.54 449.97 661.79 435.48 665.19 424.6C669.04 414.18 684.23 411.91 700.32 419.39" />
			<path id="path7581" class="shp1" d="M715.28 377.47C732.5 386.08 743.15 400.8 740.21 412.13C736.59 423.46 720.26 425.5 702.59 417.35C684.68 408.73 673.8 393.55 677.43 382.23C681.74 371.36 697.83 369.3 715.28 377.47" />
			<path id="path7583" class="shp1" d="M728.2 339.4C744.97 347.79 755.39 361.83 752.45 372.48C749.04 382.9 733.63 384.71 716.18 376.79C698.96 368.4 688.31 353.68 691.71 343.03C695.56 333.06 711.2 331.47 728.2 339.41" />
			<path id="path7585" class="shp1" d="M861.68 330.79C872.78 336.46 880.49 346.2 879.13 352.99C877.49 359.79 867.8 360.71 856.24 355.03C844.91 349.15 837.43 339.4 838.79 332.38C840.6 325.8 850.58 324.89 861.68 330.73" />
			<path id="path7587" class="shp1" d="M870.75 299.97C880.71 305.42 887.75 314.02 886.62 320.14C885.3 326.03 876.42 326.72 865.99 321.46C855.57 316.01 848.54 307.18 849.91 301.06C851.55 295.18 860.33 294.72 870.76 299.91" />
			<path id="path7589" class="shp1" d="M879.36 271.43C888.19 276.18 894.31 283.66 893.19 288.65C892.04 293.63 884.57 293.86 875.51 289.3C866.45 284.55 860.55 277.07 861.47 271.86C862.78 267.1 870.53 266.87 879.37 271.36" />
			<path id="path7591" class="shp1" d="M887.29 243.78C895.22 248.09 900.89 254.21 899.99 259.19C898.84 264.17 892.06 263.73 884.12 259.35C875.96 255.05 870.29 248.93 871.42 243.95C872.57 238.96 879.35 239.64 887.29 243.78Z" />
			<path id="path7593" class="shp1" d="M895 218.86C902.25 222.93 907.46 228.38 906.79 232.9C905.64 237.44 899.54 236.75 891.82 232.9C884.34 228.82 879.13 223.15 880.03 218.86C881.35 214.32 887.51 215.01 895 218.86Z" />
			<path id="path7595" class="shp1" d="M901.8 195.29C908.37 198.7 912.9 203.45 912.22 207.53C911.4 211.37 905.87 210.7 899.31 207.36C892.73 203.51 887.98 198.75 888.89 194.9C889.87 191.05 895.23 191.73 901.8 195.39" />
			<path id="path7597" class="shp1" d="M907.91 175.13C913.8 178.53 918.11 182.84 917.65 186.46C916.83 189.86 911.76 189.17 905.65 185.8C899.3 182.39 895.22 178.09 895.89 174.7C896.55 171.08 901.78 171.99 907.9 175.19" />
			<path id="path7599" class="shp1" d="M914.03 154.73C919.48 157.68 923.33 161.53 922.65 164.7C921.99 167.64 917.67 166.74 912.23 164.04C907.01 160.87 902.93 157.25 903.61 154.08C904.27 151.13 908.82 152.04 914.03 154.73Z" />
			<path id="path7601" class="shp1" d="M774.2 720.51C762.2 714.86 754.94 702.84 757.2 692.87C759.7 683.35 770.58 680.41 782.36 685.85C794.15 691.52 801.4 703.3 799.58 713.04C797.08 723 786.21 726.18 774.2 720.52" />
			<path id="path7603" class="shp1" d="M761.51 783.5C749.95 778.06 742.93 766.28 745.2 756.54C747.91 746.79 758.12 743.4 769.67 748.61C780.77 754.06 787.8 765.61 785.76 775.35C783.26 785.1 772.83 788.72 761.51 783.51" />
			<path id="path7605" class="shp1" d="M749.27 850.12C737.94 844.91 731.14 832.9 733.4 822.7C736.11 812.74 746.54 809.1 757.88 814.08C768.75 819.3 775.56 831.08 773.52 841.27C771.02 851.24 760.59 855.32 749.27 850.12" />
			<path id="path7607" class="shp1" d="M738.17 922.4C727.51 917.65 721.4 906.09 723.66 896.11C726.16 886.36 736.13 882.29 746.78 887.05C756.97 891.81 763.09 903.14 761.05 913.11C758.78 923.08 748.82 927.15 738.16 922.4" />
			<path id="path7609" class="shp1" d="M723.66 1001.02C713.7 996.48 708.02 985.39 710.29 975.42C713 965.9 722.3 961.82 732.05 966.13C741.8 970.67 747.46 981.53 745.42 991.28C742.92 1000.8 733.63 1005.11 723.66 1001.03" />
			<path id="path7611" class="shp1" d="M708.25 1090.3C698.96 1086.22 693.98 1075.56 696.25 1065.83C698.75 1056.31 707.58 1052 716.87 1055.86C725.93 1059.94 731.15 1070.36 729.11 1080.11C726.61 1089.84 717.55 1094.15 708.26 1090.3" />
			<path id="path7613" class="shp1" d="M667.23 313.34C681.74 320.36 690.57 332.38 687.86 341.44C684.45 350.05 670.63 351.86 655.67 344.84C640.49 337.82 631.65 325.58 634.82 316.52C638.67 307.9 652.5 306.56 667.23 313.35" />
			<path id="path7615" class="shp1" d="M634.37 391.97C647.51 398.08 655.44 409.41 652.5 418.02C649.33 426.64 636.63 428.68 623.04 422.78C609.44 416.43 601.51 404.88 604.68 396.27C608.31 387.88 620.99 386.07 634.37 391.96" />
			<path id="path7617" class="shp1" d="M619.18 433.43C634.36 440.45 642.98 453.6 639.81 464.02C635.96 474.21 621.22 476.94 605.59 470.14C589.95 462.89 581.11 449.52 584.74 439.1C589.05 429.13 603.77 426.86 619.18 433.42" />
			<path id="path7619" class="shp1" d="M563.43 582.52C578.4 589.31 586.78 602.92 582.92 614.47C578.84 626.03 563.66 629.65 548.25 623.3C532.84 616.51 524.45 602.46 528.53 590.9C533.07 579.57 548.25 576.17 563.43 582.51" />
			<path id="path7621" class="shp1" d="M428.81 169.24C442.86 175.12 450.34 184.87 446.04 192.12C441.5 199.37 427 200.51 412.72 194.62C398.22 188.96 390.74 178.98 395.27 171.73C400.25 164.71 414.76 163.58 428.81 169.24" />
			<path id="path7623" class="shp1" d="M410.46 740.68C425.19 747.02 432.66 761.07 427.68 773.53C422.47 786.23 406.83 791.43 391.64 785.54C376.47 779.19 368.98 764.92 374.19 752C379.85 739.77 395.5 735.01 410.46 740.67" />
			<path id="path7625" class="shp1" d="M305.75 782.6C320.7 788.48 327.51 802.54 322.06 815.45C315.95 828.37 299.63 834.03 283.99 828.37C268.81 822.49 261.78 807.98 267.91 795.07C274.25 782.37 290.57 777.17 305.75 782.6" />
			<path id="path7627" class="shp1" d="M519.01 705.33C534.42 712.12 542.81 726.86 538.5 740C533.52 752.92 517.88 757.9 501.79 751.33C486.15 744.31 477.76 729.12 482.3 715.98C487.51 703.52 503.37 698.76 519.01 705.33" />
			<path id="path7629" class="shp1" d="M619.86 676.56C634.37 683.13 642.75 697.4 639.36 709.41C635.28 721.41 621 725.95 606.04 719.37C590.86 712.58 582.47 698.07 586.32 685.84C590.63 674.05 604.91 669.97 619.86 676.55" />
			<path id="path7631" class="shp1" d="M713.01 648.23C728.19 655.48 737.71 670.44 734.77 682.9C731.13 695.59 716.41 699.89 700.55 692.65C684.68 685.17 675.39 669.99 678.79 657.3C682.64 645.07 697.37 641.22 713.01 648.24" />
			<path id="path7633" class="shp1" d="M582.47 529.96C596.3 536.53 604.45 548.99 600.83 559.19C597.21 569.38 583.38 572.55 568.87 566.44C554.6 560.09 546.66 547.18 550.29 536.98C554.6 527.02 568.42 524.06 582.47 529.96" />
			<path id="path7635" class="shp1" d="M749.5 272.78C761.73 279.13 769.44 289.32 767.63 296.58C765.36 303.6 754.03 304.5 741.11 298.38C728.65 292.04 720.72 281.62 722.98 274.37C725.48 267.58 737.03 266.89 749.5 272.72" />
			<path id="path7637" class="shp1" d="M494.54 199.6C505.64 204.58 511.53 212.74 508.58 218.63C505.18 224.52 493.85 225.21 482.52 220.44C471.19 215.46 465.29 207.3 468.47 201.18C472.09 195.51 483.42 194.83 494.53 199.54" />
			<path id="path7639" class="shp1" d="M550.06 407.37C562.07 412.82 569.1 422.55 565.93 430.49C562.53 438.41 550.52 440.45 538.28 435.47C525.82 429.81 519.02 419.83 522.2 411.68C525.83 404.19 538.07 402.16 550.07 407.37" />
			<path id="path7641" class="shp1" d="M463.26 608.35C478.44 614.93 486.6 628.52 482.07 640.3C477.09 652.3 461.45 656.38 445.58 650.27C429.94 643.69 422.01 629.65 426.77 617.64C432.22 606.31 447.85 602.23 463.26 608.35" />
			<path id="path7643" class="shp1" d="M599.92 483.51C613.52 489.62 621.45 501.63 618.28 511.15C614.43 520.67 601.28 523.38 587.46 517.27C573.63 511.15 565.7 498.91 569.1 489.4C573.18 480.11 586.32 477.61 599.92 483.51" />
			<path id="path7645" class="shp1" d="M458.27 421.88C472.32 427.76 480.03 439.1 475.95 448.61C471.43 457.9 456.92 460.62 442.41 454.96C427.91 448.84 420.2 437.28 424.73 427.99C429.49 418.94 444 416.21 458.27 421.88" />
			<path id="path7647" class="shp1" d="M214.64 827.46C225.3 831.31 229.82 841.29 225.3 850.57C220.32 859.86 208.3 864.17 197.43 860.53C186.77 856.46 182.25 846.49 187 836.97C192.21 827.91 204.22 823.83 214.65 827.45" />
			<path id="path7649" class="shp1" d="M519.69 294.54C532.62 300.19 539.86 310.17 536.46 317.87C532.83 325.35 519.92 326.93 506.77 321.72C493.63 316.06 486.38 305.85 489.78 298.16C493.86 290.91 506.77 289.31 519.69 294.52" />
			<path id="path7651" class="shp1" d="M806.61 302.92C817.48 308.59 824.74 317.88 823.15 324.45C821.34 331.02 811.59 331.7 800.26 326.25C789.16 320.6 781.91 311.08 783.72 304.5C785.53 298.16 795.51 297.48 806.61 302.86" />
			<path id="path7653" class="shp1" d="M645.93 193.71C654.31 197.11 659.76 203 658.85 207.53C657.54 211.84 650.02 212.98 641.63 209.8C633.01 206.4 627.59 200.51 628.7 195.98C630.02 191.44 637.53 190.53 645.93 193.71Z" />
			<path id="path7655" class="shp1" d="M555.73 225.2C565.48 229.51 571.14 236.99 568.65 242.42C565.94 247.63 556.42 248.54 546.44 244.23C536.25 239.92 530.8 232.23 533.3 227.01C536.02 221.57 545.77 220.89 555.74 225.2" />
			<path id="path7657" class="shp1" d="M528.98 454.73C541.45 460.17 548.47 470.81 545.07 479.43C541.66 487.58 528.98 490.08 516.29 484.87C503.59 479.43 496.57 468.56 500.2 460.17C504.05 451.79 516.52 449.52 528.98 454.73Z" />
			<path id="path7659" class="shp1" d="M480.26 379.96C491.13 384.71 497.48 393.56 494.3 400.58C490.9 407.6 479.57 409.41 468.24 405.12C456.91 400.13 450.79 391.29 454.2 384.27C457.6 377.48 468.93 375.65 480.26 379.96" />
			<path id="path7661" class="shp1" d="M383.94 396.05C397.08 401.03 403.66 411.22 399.58 419.38C395.06 427.77 381.45 430.25 367.85 425.5C354.71 420.29 347.68 410.09 351.98 401.71C356.73 393.78 370.56 391.29 383.94 396.05" />
			<path id="path7663" class="shp1" d="M338.61 183.74C349.04 187.35 354.48 194.39 351.08 199.6C347.23 205.05 336.57 206.4 325.92 202.78C315.27 198.93 309.84 192.35 313.23 186.7C317.08 181.72 328.18 180.35 338.61 183.75" />
			<path id="path7665" class="shp1" d="M660.2 165.16C669.27 168.79 675.17 174.91 674.04 179.66C672.88 184.41 664.74 185.32 655.45 181.7C646.39 178.06 640.5 171.73 641.63 166.97C642.95 162.43 651.16 161.52 660.22 165.16" />
			<path id="path7667" class="shp1" d="M692.16 246.5C703.26 251.94 710.06 261 708.03 267.12C705.76 273.47 695.33 274.14 683.78 268.76C672.68 263.32 665.88 254.26 667.91 247.92C670.62 241.8 681.05 241.34 692.16 246.6" />
			<path id="path7669" class="shp1" d="M705.08 215.69C714.82 220.67 721.16 228.59 719.58 234.04C717.94 239.69 708.93 239.92 698.96 235.02C689.21 230.27 682.88 222.12 684.46 216.45C686.49 211.23 695.33 211 705.08 215.79" />
			<path id="path7671" class="shp1" d="M567.06 367.27C577.49 372.02 583.37 380.64 580.89 387.21C577.95 394.01 567.75 395.59 557.09 390.84C546.22 386.09 540.32 377.47 543.05 370.68C545.99 364.33 556.42 362.75 567.07 367.27" />
			<path id="path7673" class="shp1" d="M618.73 254.88C627.35 258.96 632.56 265.75 630.74 270.75C628.47 275.5 620.08 276.19 611.25 272.07C602.63 267.99 597.41 261.2 599.45 256.2C601.72 251.45 610.11 250.76 618.72 254.88" />
			<path id="path7675" class="shp1" d="M485.92 556.24C496.79 560.78 502.47 570.28 499.52 578.22C496.12 586.14 485.02 588.87 474.14 584.33C463.04 579.58 457.37 570.06 460.54 562.13C464.16 554.2 475.05 551.7 485.92 556.24" />
			<path id="path7677" class="shp1" d="M677.43 283.43C685.14 287.28 689.9 293.4 688.53 297.94C686.72 302.47 679.47 302.92 671.53 299.58C663.82 295.73 659.07 289.39 660.66 284.85C662.47 280.54 669.72 280.1 677.43 283.53" />
			<path id="path7679" class="shp1" d="M757.88 244.01C766.5 248.55 772.16 255.57 771.02 260.55C769.71 265.53 761.96 265.99 752.89 261.7C744.27 256.95 738.62 249.7 739.75 244.71C741.4 239.95 749.04 239.49 757.88 244.05" />
			<path id="path7681" class="shp1" d="M451.02 269.38C461.68 273.69 467.57 281.85 464.62 287.96C461.01 293.85 450.12 295.22 439.24 291.14C428.14 286.6 422.24 278.67 425.64 272.33C429.04 266.44 440.15 265.08 451.02 269.39" />
			<path id="path7683" class="shp1" d="M216 99.45C224.84 102.16 228.93 107.14 225.53 111.22C222.12 115.07 212.6 115.97 203.54 113.49C194.71 110.78 190.62 105.57 194.02 101.72C197.64 97.87 207.39 96.74 216 99.45Z" />
			<path id="path7685" class="shp1" d="M307.56 369.76C319.8 374.07 325.92 382.9 321.84 390.38C317.32 397.63 304.39 400.12 291.7 396.04C279.23 391.73 273.11 382.67 277.42 375.19C282.17 367.94 295.1 365.67 307.56 369.75" />
			<path id="path7687" class="shp1" d="M188.58 895.89C198.33 899.52 202.18 909.03 197.64 918.09C192.66 927.15 181.56 931.46 171.58 928.06C161.61 924.21 157.98 914.46 162.75 905.4C167.5 896.55 178.83 892.48 188.59 895.88" />
			<path id="path7689" class="shp1" d="M111.98 935.77C120.6 938.71 123.99 946.64 119.69 954.57C115.15 962.28 104.96 966.36 96.12 963.42C87.29 960.48 83.89 952.09 88.43 944.38C92.95 936.67 103.16 932.83 112 935.77" />
			<path id="path7691" class="shp1" d="M383.26 808.65C394.15 813.41 399.8 824.06 395.96 834.26C391.65 844.01 379.64 848.53 368.31 844.01C356.97 839.25 351.54 828.14 355.61 818.18C360.15 808.43 371.92 804.35 383.26 808.66" />
			<path id="path7693" class="shp1" d="M278.33 853.52C289.43 858.06 294.87 868.92 291.02 878.89C286.72 888.86 274.94 893.17 263.38 888.86C252.27 884.11 246.83 872.99 250.91 863.03C255.22 853.28 267.22 849.2 278.33 853.51" />
			<path id="path7695" class="shp1" d="M407.28 354.81C415.67 357.98 419.98 364.33 417.48 369.31C414.53 374.29 406.15 375.89 397.76 372.71C389.14 369.31 384.83 362.96 387.56 357.98C390.28 353 398.9 351.63 407.28 354.81" />
			<path id="path7697" class="shp1" d="M622.81 122.33C630.06 125.28 634.6 129.58 633.47 133.66C632.15 137.28 625.75 137.51 618.73 134.65C611.48 131.71 606.96 127.4 608.08 123.55C609.72 119.7 616 119.7 622.81 122.4" />
			<path id="path7699" class="shp1" d="M493.86 773.99C503.38 778.06 508.36 787.35 505.42 795.97C502.24 804.12 492.49 807.52 482.98 803.68C473.23 799.37 468.25 789.85 471.42 781.47C474.59 773.32 484.35 770.14 493.86 773.99" />
			<path id="path7701" class="shp1" d="M597.2 739.09C606.03 743.17 611.03 752.02 608.76 759.71C606.26 767.19 597.43 770.37 588.37 766.5C579.3 762.19 574.32 753.36 576.57 745.43C579.29 737.95 588.14 735.24 597.2 739.08" />
			<path id="path7703" class="shp1" d="M692.84 717.79C701.46 721.64 706.44 730.03 704.63 737.28C702.59 744.3 694.44 747.03 685.82 743.17C677.2 739.32 672.22 730.47 674.26 723.45C676.3 716.43 684.23 713.93 692.84 717.8" />
			<path id="path7705" class="shp1" d="M225.3 348.46C233.45 350.96 237.3 356.62 234.36 361.39C231.18 366.14 222.35 367.73 213.96 365.23C205.57 362.73 201.5 357.08 204.67 352.31C207.84 347.56 216.91 345.73 225.29 348.46" />
			<path id="path7707" class="shp1" d="M279.46 408.05C289.43 411.67 294.41 418.92 290.79 425.28C286.94 431.39 276.52 433.66 266.09 430.26C256.12 426.85 251.12 419.39 254.76 413.26C258.61 407.15 269.49 404.88 279.46 408.05" />
			<path id="path7709" class="shp1" d="M357.42 442.72C366.25 446.12 370.56 452.92 367.85 458.8C364.67 464.47 355.61 466.28 346.55 463.11C337.71 459.71 333.18 452.92 336.12 447.03C339.29 441.59 348.59 439.55 357.42 442.72Z" />
			<path id="path7711" class="shp1" d="M434.25 473.54C441.96 476.71 446.04 483.06 443.77 488.48C441.27 493.47 433.35 495.27 425.42 492.33C417.49 488.93 413.41 482.58 415.89 477.15C418.39 472.17 426.32 470.58 434.25 473.52" />
			<path id="path7713" class="shp1" d="M507.68 504.58C515.16 507.75 519.24 514.33 517.2 519.76C514.93 524.97 507.24 526.55 499.53 523.39C491.83 520.22 487.75 513.64 489.79 508.21C492.29 503 499.99 501.42 507.69 504.58" />
			<path id="path7715" class="shp1" d="M673.12 141.59C679.91 144.54 684.68 148.84 683.78 152.69C682.63 156.32 676.76 156.54 669.73 153.84C662.94 151.13 658.17 146.82 659.31 142.74C660.46 139.11 666.33 139.11 673.14 141.59" />
			<path id="path7717" class="shp1" d="M636.86 99.9C643.21 102.4 647.29 106.48 646.15 109.86C645.17 113.04 639.81 113.27 633.69 110.52C627.57 108.02 623.49 103.95 624.4 100.56C625.55 97.15 630.74 97.15 636.86 99.9Z" />
			<path id="path7719" class="shp1" d="M599.02 63.42C604.46 65.69 608.31 69.08 607.63 72.25C606.48 75.19 601.75 75.42 596.3 73.24C590.64 70.97 586.78 67.57 587.47 64.39C588.62 61.22 593.36 61.22 599.03 63.41" />
			<path id="path7721" class="shp1" d="M715.05 190.76C722.07 194.38 726.84 199.82 725.71 204.13C724.06 208.44 717.99 208.21 710.53 204.62C703.27 200.99 698.52 195.56 699.66 191.02C701.3 186.95 707.58 187.18 715.07 190.86" />
			<path id="path7723" class="shp1" d="M198.33 384.72C206.94 387.43 210.79 393.33 207.62 398.31C204.21 403.3 195.15 405.34 186.54 402.85C177.92 400.14 173.84 394.24 177.25 389.25C180.65 384.27 189.72 382.23 198.32 384.72" />
			<path id="path7725" class="shp1" d="M122.63 364.1C130.56 366.14 134.19 371.12 131.25 375.89C127.63 380.42 119.01 382.23 110.63 380.42C102.47 378.15 99.06 373.17 102.24 368.63C105.64 364.1 114.47 362.29 122.63 364.1" />
			<path id="path7727" fill-rule="evenodd" class="shp1" d="M765.57 335.88C768.75 326.13 783.26 324.78 799.57 332.7C815.44 341.09 826.77 354.46 824.5 364.43C827.22 354.45 841.04 354 856.91 361.93C870.05 368.73 879.57 379.37 881.61 388.89C886.82 382.14 899.51 381.91 914.25 389.39C928.75 397.09 939.17 409.1 941.44 419.52C946.2 413.93 957.3 413.93 970 420.51C983.15 427.53 993.11 438.87 995.15 448.83C999.01 441.88 1010.11 441.65 1023.48 448.67C1038.66 456.82 1049.81 471.09 1049.32 481.75C1048.19 490.81 1038.89 493.54 1025.98 489C1039.8 498.51 1049.36 512.33 1048.87 522.99C1047.73 532.54 1039.81 536.12 1028.02 533.85C1039.12 543.6 1046.12 555.39 1045.47 565.35C1044.33 576.93 1033.46 580.76 1018.5 575.77C1032.78 586.2 1042.6 601.16 1041.61 613.16C1040.48 623.35 1032.78 628.07 1021.22 626.76C1031.86 637.18 1038.35 649.42 1037.53 660.29C1036.4 672.08 1027.1 677.29 1013.96 674.79C1026.21 685.67 1033.82 700.4 1033 712.63C1031.41 729.17 1015.09 734.16 995.15 724.19C980.88 716.72 969.99 704.04 965.24 691.11C957.98 698.18 945.29 698.63 930.79 691.61C916.73 684.58 906.09 672.35 901.55 659.88C893.62 666.3 880.93 666.74 866.42 659.72C852.37 652.7 841.73 640.68 837.19 628.45C829.03 634.54 815.88 634.98 801.38 627.96C784.39 619.8 772.82 605.08 770.78 591.25C762.85 600.31 746.99 601.89 729.76 593.96C708.69 583.77 695.99 564.28 700.3 548.65C703.93 537.09 715.93 532.32 730.9 534.82C718.22 524.17 711.64 510.8 714.81 499.93C717.76 489.95 727.95 485.36 740.88 487C730.45 477.26 725.02 465.71 727.74 456.19C731.36 444.91 744.97 441.24 761.05 446.22C746.32 436.25 737.94 422.21 740.88 411.56C743.83 402.58 754.03 399.09 767.17 401.59C756.05 392.07 750.16 380.98 752.43 372.36C755.61 362.4 768.53 359.9 783.71 365.11C770.79 356.5 763.31 344.72 765.58 336.11M882.31 405.95C875.96 402.84 870.53 403.05 869.38 407.59C868.69 411.9 873 417.33 879.34 420.73C885.69 423.84 891.22 423.39 892.04 419.08C892.72 414.56 888.64 409.35 882.29 405.95L882.31 405.95ZM937.83 434.43C931.48 431.32 926.19 431.54 925.36 436.07C924.69 440.6 929.21 446.04 935.56 449.44C941.91 452.62 947.14 452.17 947.8 447.63C948.49 443.11 943.95 437.67 937.83 434.5L937.83 434.43ZM979.31 463.89C978.63 468.64 983.84 475.21 990.64 479.06C997.89 482.47 1003.51 481.77 1004.01 477.02C1004.68 472.04 999.7 465.69 992.68 461.85C985.65 458.44 979.96 459.13 979.31 463.89ZM811.81 415.4C805.24 411.99 799.08 412.67 797.76 417.21C796.86 421.97 801.15 427.63 807.96 431.03C814.77 434.44 820.64 433.75 821.79 428.99C822.92 424.46 818.4 418.8 811.82 415.4L811.81 415.4ZM989.94 506.03C983.36 502.63 978.13 503.32 977.47 508.07C977.03 513.05 981.55 518.94 988.13 522.34C994.48 525.75 999.94 525.05 1000.6 520.07C1000.81 515.09 996.29 509.43 989.94 506.03ZM787.33 458.22C786.19 463.21 790.72 469.32 797.53 472.96C804.55 476.13 810.88 475.21 812.03 470.46C813.17 465.71 808.63 459.59 801.83 455.96C794.81 452.78 788.64 453.69 787.33 458.22ZM972.03 551.11C971.57 555.87 976.32 562.44 982.9 566.06C989.48 569.46 995.17 568.1 995.82 563.35C996.28 558.37 991.53 552.02 984.95 548.4C978.37 545.23 973.01 546.13 972.03 551.11ZM790.97 499.69C783.95 496.28 777.55 497.42 776.24 502.4C774.87 507.38 779.41 513.96 786.43 517.57C793.69 520.98 800.3 519.61 801.61 514.63C802.75 509.65 797.98 503.09 790.96 499.69L790.97 499.69ZM966.39 596.89C965.7 602.33 970.47 609.12 977.26 612.75C984.05 616.16 989.97 614.79 990.63 609.58C991.09 604.14 986.32 597.58 979.53 593.94C972.74 590.54 967.05 591.9 966.39 596.89ZM792.32 560.19C793.46 554.07 788.47 546.36 780.31 542.51C772.16 538.66 764.96 540.26 763.32 545.92C761.74 552.03 766.95 559.74 775.11 563.82C783.27 567.66 790.69 566.07 792.33 560.18L792.32 560.19ZM833.34 580.13C832.42 585.57 837.19 592.36 844.21 596C851.46 599.38 857.63 598.04 858.94 592.59C859.86 587.15 855.1 580.34 848.07 576.73C841.05 573.34 834.65 574.69 833.34 580.13ZM910.4 607.78C903.37 604.4 897.27 605.75 896.12 611.19C895.22 616.4 900.2 623.64 907.22 627.27C914.25 630.66 920.28 629.08 921.27 623.64C921.96 618.19 917.19 611.17 910.4 607.77L910.4 607.78ZM971.81 637.46C964.12 633.62 957.23 635.19 956.4 641.54C955.73 647.66 961.16 655.59 968.87 659.67C976.8 663.75 983.46 661.94 984.28 655.82C984.72 649.47 979.53 641.54 971.81 637.47L971.81 637.46ZM821.78 374.45C814.53 370.89 808.14 371.56 806.83 376.1C805.92 380.64 810.68 386.98 817.93 390.83C825.18 394.23 831.84 393.56 832.67 389.02C833.8 384.27 829.05 378.15 821.8 374.52L821.78 374.45Z" />
		</g>
		<g id="g7785">
		</g>
	</g>
</svg>