<svg width="174" height="256" viewBox="0 0 174 256" fill="none" xmlns="http://www.w3.org/2000/svg">
<g clip-path="url(#clip0_8_94)">
<path fill-rule="evenodd" clip-rule="evenodd" d="M105.596 144.329L108.331 127.37L99.3466 122.74L98.2333 124.855L86.5745 147.505L117.087 163.237L120.769 165.131L129.525 148.177L105.596 144.329Z" fill="#D9511C"/>
<path fill-rule="evenodd" clip-rule="evenodd" d="M66.6605 28.1877L63.9261 45.143L72.9086 49.7776L74.0234 47.6563L85.6807 25.0065L55.1679 9.28038L51.4865 7.3802L42.7297 24.3401L66.6605 28.1877Z" fill="#D9511C"/>
<path fill-rule="evenodd" clip-rule="evenodd" d="M46.4647 39.5659L50.3734 56.7469L60.0177 57.5872L60.1854 55.353L62.3113 29.8026L27.8914 26.9615L23.9827 26.6275L22.4226 44.9812L46.4647 39.5659Z" fill="#F3731E"/>
<path fill-rule="evenodd" clip-rule="evenodd" d="M125.785 132.945L121.884 115.711L112.293 114.93L112.065 117.158L109.944 142.655L144.366 145.556L148.321 145.89L149.834 127.536L125.785 132.945Z" fill="#F3731E"/>
<path fill-rule="evenodd" clip-rule="evenodd" d="M31.4599 58.5876L41.6105 72.7536L50.9803 69.7447L50.2011 67.291L42.5042 43.2473L10.2102 53.5657L5.8562 54.9657L11.5446 72.8131L31.4599 58.5876Z" fill="#F57F23"/>
<path fill-rule="evenodd" clip-rule="evenodd" d="M140.791 113.93L130.7 99.7041L121.269 102.713L122.056 105.226L129.746 129.27L162.106 118.892L166.401 117.552L160.712 99.7041L140.791 113.93Z" fill="#F57F23"/>
<path fill-rule="evenodd" clip-rule="evenodd" d="M147.1 91.8943L131.981 82.0762L124.897 88.0406L126.459 89.9408L142.857 109.295L169.022 87.2064L172.257 84.472L160.766 70.8596L147.1 91.8943Z" fill="#F38F1C"/>
<path fill-rule="evenodd" clip-rule="evenodd" d="M25.1569 80.6229L40.3294 90.441L47.3583 84.472L45.7982 82.6313L29.398 63.2161L3.23458 85.3062L0 88.1001L11.4911 101.651L25.1569 80.6229Z" fill="#F38F1C"/>
<path fill-rule="evenodd" clip-rule="evenodd" d="M144.365 67.3978L127.072 64.4438L122.609 73.0937L125.231 74.4281L147.379 85.8125L162.66 56.1339L165.007 51.6183L148.547 43.1345L144.365 67.3978Z" fill="#FAA633"/>
<path fill-rule="evenodd" clip-rule="evenodd" d="M27.8318 105.113L45.1851 108.121L49.6459 99.4783L47.0258 98.083L24.8763 86.7062L9.59702 116.379L7.25 120.899L23.7036 129.377L27.8318 105.113Z" fill="#FAA633"/>
<path fill-rule="evenodd" clip-rule="evenodd" d="M39.4357 125.921L56.6167 122.067L57.4554 112.417L54.8888 112.196L29.7319 110.076L26.8847 143.996L26.4973 148.458L44.9044 149.958L39.4357 125.921Z" fill="#FDB811"/>
<path fill-rule="evenodd" clip-rule="evenodd" d="M132.819 46.5964L115.58 50.4975L114.8 60.1479L117.362 60.3217L142.525 62.4354L145.366 28.5218L145.759 24.119L127.352 22.5528L132.819 46.5964Z" fill="#FDB811"/>
<path fill-rule="evenodd" clip-rule="evenodd" d="M58.0106 140.702L72.5701 130.49L69.6146 121.401L67.1608 122.18L43.1172 129.877L53.4417 162.23L54.8355 166.531L72.2361 161.009L58.0106 140.702Z" fill="#FFC223"/>
<path fill-rule="evenodd" clip-rule="evenodd" d="M114.187 31.8096L99.6807 42.0212L102.581 51.118L105.09 50.3372L129.132 42.6343L118.756 10.2808L117.362 5.98627L100.021 11.5679L114.187 31.8096Z" fill="#FFC223"/>
<path fill-rule="evenodd" clip-rule="evenodd" d="M90.7561 132.617L84.3403 125.027L83.0059 126.201L80.3264 128.429L63.0859 142.989L79.0454 161.902L82.3333 165.805L87.9089 172.387L102.302 160.228L81.612 147.337L90.7561 132.617Z" fill="#FFD100"/>
<path fill-rule="evenodd" clip-rule="evenodd" d="M81.4991 39.9L87.9088 47.4901L90.5364 45.3154L91.5368 44.4218L109.165 29.5222L92.3176 9.55497L84.3402 0.130268L83.7866 0.630482L69.9485 12.2893L90.6432 25.1743L81.4991 39.9Z" fill="#FFD100"/>
</g>
<path d="M41.348 236.908L41.564 237.736C41.18 237.928 40.412 238.12 39.428 238.12C37.148 238.12 35.432 236.68 35.432 234.028C35.432 231.496 37.148 229.78 39.656 229.78C40.664 229.78 41.3 229.996 41.576 230.14L41.324 230.992C40.928 230.8 40.364 230.656 39.692 230.656C37.796 230.656 36.536 231.868 36.536 233.992C36.536 235.972 37.676 237.244 39.644 237.244C40.28 237.244 40.928 237.112 41.348 236.908ZM46.3711 229.78C48.5791 229.78 50.0071 231.472 50.0071 233.872C50.0071 236.656 48.3151 238.132 46.2511 238.132C44.1151 238.132 42.6151 236.476 42.6151 234.028C42.6151 231.46 44.2111 229.78 46.3711 229.78ZM46.3231 230.632C44.5951 230.632 43.7311 232.228 43.7311 234.004C43.7311 235.732 44.6671 237.28 46.3111 237.28C47.9671 237.28 48.9031 235.756 48.9031 233.92C48.9031 232.312 48.0631 230.632 46.3231 230.632ZM52.8326 238H51.8486V229.912H52.9886L55.5806 234.004C56.1806 234.952 56.6486 235.804 57.0326 236.632L57.0566 236.62C56.9606 235.54 56.9366 234.556 56.9366 233.296V229.912H57.9206V238H56.8646L54.2966 233.896C53.7326 232.996 53.1926 232.072 52.7846 231.196L52.7486 231.208C52.8086 232.228 52.8326 233.2 52.8326 234.544V238ZM61.763 238V230.8H59.303V229.912H65.291V230.8H62.819V238H61.763ZM66.6718 238V230.02C67.1998 229.912 67.9558 229.852 68.6758 229.852C69.7918 229.852 70.5118 230.056 71.0158 230.512C71.4238 230.872 71.6518 231.424 71.6518 232.048C71.6518 233.116 70.9798 233.824 70.1278 234.112V234.148C70.7518 234.364 71.1238 234.94 71.3158 235.78C71.5798 236.908 71.7718 237.688 71.9398 238H70.8598C70.7278 237.772 70.5478 237.076 70.3198 236.068C70.0798 234.952 69.6478 234.532 68.6998 234.496H67.7158V238H66.6718ZM67.7158 230.752V233.704H68.7838C69.8998 233.704 70.6078 233.092 70.6078 232.168C70.6078 231.124 69.8518 230.668 68.7478 230.656C68.2438 230.656 67.8838 230.704 67.7158 230.752ZM77.8435 235.456H74.9755L74.1355 238H73.0555L75.8035 229.912H77.0635L79.8235 238H78.7075L77.8435 235.456ZM75.1915 234.64H77.6275L76.8355 232.312C76.6555 231.784 76.5355 231.304 76.4155 230.836H76.3915C76.2715 231.316 76.1395 231.808 75.9835 232.3L75.1915 234.64ZM86.7553 236.908L86.9713 237.736C86.5873 237.928 85.8193 238.12 84.8353 238.12C82.5553 238.12 80.8393 236.68 80.8393 234.028C80.8393 231.496 82.5553 229.78 85.0633 229.78C86.0713 229.78 86.7073 229.996 86.9833 230.14L86.7313 230.992C86.3353 230.8 85.7713 230.656 85.0993 230.656C83.2033 230.656 81.9433 231.868 81.9433 233.992C81.9433 235.972 83.0833 237.244 85.0513 237.244C85.6873 237.244 86.3353 237.112 86.7553 236.908ZM90.6361 238V230.8H88.1761V229.912H94.1641V230.8H91.6921V238H90.6361ZM95.545 229.912H96.589V238H95.545V229.912ZM99.8801 238H98.8961V229.912H100.036L102.628 234.004C103.228 234.952 103.696 235.804 104.08 236.632L104.104 236.62C104.008 235.54 103.984 234.556 103.984 233.296V229.912H104.968V238H103.912L101.344 233.896C100.78 232.996 100.24 232.072 99.8321 231.196L99.7961 231.208C99.8561 232.228 99.8801 233.2 99.8801 234.544V238ZM113.431 233.752V237.64C112.963 237.808 112.039 238.084 110.947 238.084C109.723 238.084 108.715 237.772 107.923 237.016C107.227 236.344 106.795 235.264 106.795 234.004C106.807 231.592 108.463 229.828 111.175 229.828C112.111 229.828 112.843 230.032 113.191 230.2L112.939 231.052C112.507 230.86 111.967 230.704 111.151 230.704C109.183 230.704 107.899 231.928 107.899 233.956C107.899 236.008 109.135 237.22 111.019 237.22C111.703 237.22 112.171 237.124 112.411 237.004V234.592H110.767V233.752H113.431ZM118.535 238V229.912H122.891V230.788H119.579V233.476H122.639V234.34H119.579V238H118.535ZM128.139 229.78C130.347 229.78 131.775 231.472 131.775 233.872C131.775 236.656 130.083 238.132 128.019 238.132C125.883 238.132 124.383 236.476 124.383 234.028C124.383 231.46 125.979 229.78 128.139 229.78ZM128.091 230.632C126.363 230.632 125.499 232.228 125.499 234.004C125.499 235.732 126.435 237.28 128.079 237.28C129.735 237.28 130.671 235.756 130.671 233.92C130.671 232.312 129.831 230.632 128.091 230.632ZM133.616 238V230.02C134.144 229.912 134.9 229.852 135.62 229.852C136.736 229.852 137.456 230.056 137.96 230.512C138.368 230.872 138.596 231.424 138.596 232.048C138.596 233.116 137.924 233.824 137.072 234.112V234.148C137.696 234.364 138.068 234.94 138.26 235.78C138.524 236.908 138.716 237.688 138.884 238H137.804C137.672 237.772 137.492 237.076 137.264 236.068C137.024 234.952 136.592 234.532 135.644 234.496H134.66V238H133.616ZM134.66 230.752V233.704H135.728C136.844 233.704 137.552 233.092 137.552 232.168C137.552 231.124 136.796 230.668 135.692 230.656C135.188 230.656 134.828 230.704 134.66 230.752ZM40.1 247.344V248.208H36.956V251.124H40.46V252H35.912V243.912H40.28V244.788H36.956V247.344H40.1ZM49.6783 252L49.4743 248.448C49.4143 247.32 49.3423 245.964 49.3543 244.956H49.3183C49.0423 245.904 48.7063 246.912 48.2983 248.028L46.8703 251.952H46.0783L44.7703 248.1C44.3863 246.96 44.0623 245.916 43.8343 244.956H43.8103C43.7863 245.964 43.7263 247.32 43.6543 248.532L43.4383 252H42.4423L43.0063 243.912H44.3383L45.7183 247.824C46.0543 248.82 46.3303 249.708 46.5343 250.548H46.5703C46.7743 249.732 47.0623 248.844 47.4223 247.824L48.8623 243.912H50.1943L50.6983 252H49.6783ZM53.1428 252V244.008C53.6468 243.924 54.3068 243.852 55.1468 243.852C56.1788 243.852 56.9348 244.092 57.4148 244.524C57.8588 244.908 58.1228 245.496 58.1228 246.216C58.1228 246.948 57.9068 247.524 57.4988 247.944C56.9468 248.532 56.0468 248.832 55.0268 248.832C54.7148 248.832 54.4268 248.82 54.1868 248.76V252H53.1428ZM54.1868 244.764V247.908C54.4148 247.968 54.7028 247.992 55.0508 247.992C56.3108 247.992 57.0788 247.38 57.0788 246.264C57.0788 245.196 56.3228 244.68 55.1708 244.68C54.7148 244.68 54.3668 244.716 54.1868 244.764ZM63.6455 243.78C65.8535 243.78 67.2815 245.472 67.2815 247.872C67.2815 250.656 65.5895 252.132 63.5255 252.132C61.3895 252.132 59.8895 250.476 59.8895 248.028C59.8895 245.46 61.4855 243.78 63.6455 243.78ZM63.5975 244.632C61.8695 244.632 61.0055 246.228 61.0055 248.004C61.0055 249.732 61.9415 251.28 63.5855 251.28C65.2415 251.28 66.1775 249.756 66.1775 247.92C66.1775 246.312 65.3375 244.632 63.5975 244.632ZM71.8949 252H70.8029L68.7509 243.912H69.8549L70.8149 248.004C71.0549 249.012 71.2709 250.02 71.4149 250.8H71.4389C71.5709 249.996 71.8229 249.036 72.0989 247.992L73.1789 243.912H74.2709L75.2549 248.016C75.4829 248.976 75.6989 249.936 75.8189 250.788H75.8429C76.0109 249.9 76.2389 249 76.4909 247.992L77.5589 243.912H78.6269L76.3349 252H75.2429L74.2229 247.788C73.9709 246.756 73.8029 245.964 73.6949 245.148H73.6709C73.5269 245.952 73.3469 246.744 73.0469 247.788L71.8949 252ZM84.6594 247.344V248.208H81.5154V251.124H85.0194V252H80.4714V243.912H84.8394V244.788H81.5154V247.344H84.6594ZM87.2176 252V244.02C87.7456 243.912 88.5016 243.852 89.2216 243.852C90.3376 243.852 91.0576 244.056 91.5616 244.512C91.9696 244.872 92.1976 245.424 92.1976 246.048C92.1976 247.116 91.5256 247.824 90.6736 248.112V248.148C91.2976 248.364 91.6696 248.94 91.8616 249.78C92.1256 250.908 92.3176 251.688 92.4856 252H91.4056C91.2736 251.772 91.0936 251.076 90.8656 250.068C90.6256 248.952 90.1936 248.532 89.2456 248.496H88.2616V252H87.2176ZM88.2616 244.752V247.704H89.3296C90.4456 247.704 91.1536 247.092 91.1536 246.168C91.1536 245.124 90.3976 244.668 89.2936 244.656C88.7896 244.656 88.4296 244.704 88.2616 244.752ZM100.392 252H99.24L96.6 243.912H97.728L98.988 247.896C99.336 248.988 99.636 249.972 99.852 250.92H99.876C100.104 249.984 100.44 248.964 100.8 247.908L102.168 243.912H103.284L100.392 252ZM108.492 249.456H105.624L104.784 252H103.704L106.452 243.912H107.712L110.472 252H109.356L108.492 249.456ZM105.84 248.64H108.276L107.484 246.312C107.304 245.784 107.184 245.304 107.064 244.836H107.04C106.92 245.316 106.788 245.808 106.632 246.3L105.84 248.64ZM112.503 252V243.912H113.547V251.124H117.003V252H112.503ZM118.558 243.912H119.614V248.7C119.614 250.512 120.418 251.28 121.498 251.28C122.698 251.28 123.466 250.488 123.466 248.7V243.912H124.522V248.628C124.522 251.112 123.214 252.132 121.462 252.132C119.806 252.132 118.558 251.184 118.558 248.676V243.912ZM131.368 247.344V248.208H128.224V251.124H131.728V252H127.18V243.912H131.548V244.788H128.224V247.344H131.368ZM133.518 251.604L133.782 250.728C134.25 251.016 134.934 251.256 135.654 251.256C136.722 251.256 137.346 250.692 137.346 249.876C137.346 249.12 136.914 248.688 135.822 248.268C134.502 247.8 133.686 247.116 133.686 245.976C133.686 244.716 134.73 243.78 136.302 243.78C137.13 243.78 137.73 243.972 138.09 244.176L137.802 245.028C137.538 244.884 136.998 244.644 136.266 244.644C135.162 244.644 134.742 245.304 134.742 245.856C134.742 246.612 135.234 246.984 136.35 247.416C137.718 247.944 138.414 248.604 138.414 249.792C138.414 251.04 137.49 252.12 135.582 252.12C134.802 252.12 133.95 251.892 133.518 251.604Z" fill="#343350"/>
<path d="M48.6781 216.113V193.087C50.626 192.774 53.1651 192.6 55.8433 192.6C60.2955 192.6 63.1825 193.4 65.4433 195.104C67.8781 196.913 69.4086 199.8 69.4086 203.939C69.4086 208.426 67.7738 211.522 65.5129 213.435C63.0433 215.487 59.2868 216.461 54.6955 216.461C51.9477 216.461 49.9999 216.287 48.6781 216.113ZM53.9999 196.878V212.217C54.452 212.322 55.1825 212.322 55.8433 212.322C60.6433 212.356 63.7738 209.713 63.7738 204.113C63.8086 199.243 60.9564 196.669 56.3999 196.669C55.2173 196.669 54.452 196.774 53.9999 196.878ZM71.2969 215.139L72.3751 210.756C73.8012 211.487 75.9925 212.217 78.2534 212.217C80.6882 212.217 81.9751 211.209 81.9751 209.678C81.9751 208.217 80.8621 207.383 78.0447 206.374C74.149 205.017 71.6099 202.861 71.6099 199.452C71.6099 195.452 74.949 192.391 80.4795 192.391C83.123 192.391 85.0708 192.948 86.4621 193.574L85.2795 197.852C84.3404 197.4 82.6708 196.739 80.3751 196.739C78.0795 196.739 76.9664 197.783 76.9664 199C76.9664 200.496 78.2882 201.156 81.3143 202.304C85.4534 203.835 87.4012 205.991 87.4012 209.296C87.4012 213.226 84.3751 216.565 77.9404 216.565C75.2621 216.565 72.6186 215.869 71.2969 215.139ZM106.707 211.417L107.507 215.556C106.533 216.043 104.342 216.565 101.49 216.565C93.3852 216.565 89.2113 211.522 89.2113 204.843C89.2113 196.843 94.9156 192.391 102.011 192.391C104.759 192.391 106.846 192.948 107.785 193.435L106.707 197.643C105.629 197.191 104.133 196.774 102.255 196.774C98.0461 196.774 94.7765 199.313 94.7765 204.53C94.7765 209.226 97.5591 212.183 102.29 212.183C103.89 212.183 105.663 211.835 106.707 211.417ZM125.644 211.417L126.444 215.556C125.471 216.043 123.279 216.565 120.427 216.565C112.323 216.565 108.149 211.522 108.149 204.843C108.149 196.843 113.853 192.391 120.949 192.391C123.697 192.391 125.784 192.948 126.723 193.435L125.644 197.643C124.566 197.191 123.071 196.774 121.192 196.774C116.984 196.774 113.714 199.313 113.714 204.53C113.714 209.226 116.497 212.183 121.227 212.183C122.827 212.183 124.601 211.835 125.644 211.417Z" fill="#446F31"/>
<defs>
<clipPath id="clip0_8_94">
<rect width="173.913" height="173.913" fill="white" transform="translate(0 0.130371)"/>
</clipPath>
</defs>
</svg>
