<svg width="160" height="160" viewBox="0 0 160 160" fill="none" xmlns="http://www.w3.org/2000/svg">
<g id="house-plan">
<rect width="160" height="160" rx="80" fill="#FFF9ED"/>
<g id="Group 13">
<g id="Group">
<g id="Group_2">
<path id="Vector" d="M129.345 66.7665L97.9979 35.4196C97.4381 34.8601 96.5308 34.8601 95.9712 35.4196L83 48.3908C82.4403 48.9506 82.4403 49.8579 83 50.4176L86.6666 54.0841L76.8059 63.945L69.7044 56.8436C69.1446 56.2841 68.2373 56.2841 67.6776 56.8436C67.118 57.4034 67.118 58.3107 67.6776 58.8703L74.7791 65.9718L67.0113 73.7398C65.3538 75.3968 65.3538 78.1628 67.0111 79.8201L80.1173 92.9263C80.6772 93.4858 81.5845 93.4858 82.1441 92.9263L85.6572 89.4133C88.451 86.6195 88.451 82.0734 85.6572 79.2798L82.0766 75.699L83.2913 74.4843L106.102 97.2949C107.332 98.5241 107.332 100.525 106.102 101.754C104.873 102.983 102.874 102.983 101.644 101.755C101.644 101.754 101.644 101.754 101.644 101.754L98.4007 98.5108C97.8409 97.9514 96.9336 97.9514 96.3739 98.5108C95.8143 99.0707 95.8143 99.978 96.3739 100.538C96.3739 100.538 99.522 103.73 99.5945 103.803C100.824 105.032 100.824 107.032 99.5947 108.262C98.4199 109.436 96.5434 109.486 95.3066 108.416C95.2621 108.354 91.9155 104.996 91.9155 104.996C91.3557 104.437 90.4484 104.437 89.8887 104.996C89.3291 105.556 89.3291 106.464 89.8887 107.023C89.8887 107.023 92.5999 109.65 93.422 110.601C94.4457 111.786 94.2456 113.611 93.1314 114.725C91.9165 115.94 89.8892 115.94 88.6739 114.726C88.6735 114.725 88.6733 114.725 88.673 114.725C88.673 114.725 85.286 111.352 85.2072 111.3C85.3601 110.748 85.4393 110.174 85.4336 109.595C85.4182 107.966 84.7752 106.459 83.6229 105.35C82.4928 104.262 81.0292 103.708 79.558 103.682C79.6479 103.252 79.6938 102.811 79.6898 102.367C79.6743 100.739 79.0315 99.2316 77.8794 98.1226C77.8794 98.1224 77.8794 98.1224 77.8793 98.1224C76.6642 96.9528 75.0636 96.4004 73.483 96.4584C73.5256 96.1563 73.5463 95.8501 73.5433 95.5427C73.5279 93.9145 72.8849 92.4071 71.7326 91.2979C70.6023 90.2098 69.1389 89.6563 67.6679 89.6305C67.7578 89.2002 67.8037 88.7593 67.7994 88.3153C67.784 86.687 67.1412 85.1796 65.9891 84.0706C65.9891 84.0704 65.9891 84.0704 65.9889 84.0704C63.6438 81.8127 59.8623 81.8497 57.5594 84.1516L51.3438 90.3672L42.2336 81.2573C41.6738 80.6978 40.7665 80.6978 40.2069 81.2573C39.6472 81.8171 39.6472 82.7244 40.2069 83.284L49.317 92.394L48.7768 92.9342C47.1009 94.6103 47.1009 97.338 48.777 99.0145L51.209 101.447C51.9876 102.225 52.9931 102.637 54.0146 102.693C54.0709 103.753 54.5058 104.743 55.2626 105.5L57.695 107.932C58.4734 108.711 59.4789 109.122 60.5005 109.178C60.5569 110.239 60.9917 111.229 61.7485 111.986L64.1806 114.418C64.9372 115.174 65.9274 115.609 66.9882 115.666C67.0437 116.687 67.4559 117.692 68.2343 118.471L70.6663 120.903C71.4782 121.715 72.5578 122.162 73.7064 122.162C74.8549 122.162 75.9346 121.715 76.7465 120.903L77.2866 120.363L80.1609 123.237C81.3343 124.411 82.8757 124.997 84.417 124.997C85.9584 124.997 87.4999 124.411 88.6733 123.237C89.9699 121.94 90.5499 120.194 90.4138 118.495C92.1662 118.637 93.9155 117.995 95.1587 116.752C96.4441 115.466 97.0355 113.73 96.9051 112.031C98.5955 112.159 100.332 111.579 101.622 110.289C102.926 108.985 103.505 107.227 103.361 105.519C105.068 105.662 106.826 105.085 108.13 103.781C109.267 102.644 109.893 101.132 109.893 99.5243C109.893 97.9168 109.267 96.4054 108.13 95.2683L105.857 92.9955L109.438 89.4138C112.232 86.62 112.232 82.074 109.438 79.2801L109.1 78.9422L110.312 77.73L114.348 81.7652C114.9 82.3172 115.822 82.3172 116.374 81.7652L129.346 68.794C129.905 68.2334 129.905 67.3263 129.345 66.7665ZM53.2356 99.4196L50.8033 96.9877C50.2445 96.4288 50.2445 95.5193 50.8033 94.9609L59.5856 86.1784C60.5255 85.2385 62.0089 84.9983 63.2029 85.5782C64.4018 86.1605 65.0689 87.4581 64.9091 88.7721C64.8209 89.4986 64.4899 90.1921 63.9719 90.7101L55.2626 99.4196C54.7033 99.9783 53.7942 99.9783 53.2356 99.4196ZM59.721 105.905L57.2887 103.473C56.7364 102.921 56.7364 101.998 57.2888 101.447L65.3296 93.4057C65.9405 92.7946 66.7501 92.4881 67.5601 92.4881C68.8218 92.4881 70.004 93.2605 70.4635 94.4433C70.9248 95.6308 70.6138 97.0393 69.7152 97.9374L61.7478 105.905C61.1889 106.464 60.2798 106.464 59.721 105.905ZM68.2332 112.391C67.681 112.943 66.7587 112.943 66.2068 112.391L63.7742 109.959C63.222 109.406 63.222 108.484 63.7744 107.932L71.4761 100.23C72.4387 99.2675 73.9728 99.0379 75.1726 99.6805C76.246 100.255 76.8961 101.426 76.8165 102.641C76.7647 103.433 76.424 104.2 75.862 104.762L68.2332 112.391ZM74.7186 118.876C74.4483 119.147 74.0882 119.296 73.7055 119.296C73.3228 119.296 72.9627 119.147 72.692 118.876L70.26 116.444C69.7016 115.886 69.7012 114.977 70.2591 114.418C70.2595 114.418 70.2598 114.418 70.26 114.418L77.22 107.458C78.4121 106.266 80.4198 106.245 81.6348 107.414C82.9062 108.639 82.8335 110.762 81.6056 111.989L74.7186 118.876ZM86.6458 121.21C85.4161 122.44 83.4159 122.44 82.1868 121.21L79.3125 118.336C79.3125 118.336 83.7229 113.921 83.7676 113.874L86.6455 116.751C86.6456 116.752 86.646 116.752 86.6464 116.752C87.8747 117.982 87.8745 119.981 86.6458 121.21ZM115.36 78.7242L108.325 71.6891C107.766 71.1296 106.858 71.1296 106.299 71.6891C105.739 72.2489 105.739 73.1562 106.299 73.7158L108.285 75.7024L106.06 77.9279C105.5 78.4877 105.5 79.395 106.06 79.9547L107.411 81.3058C109.087 82.982 109.087 85.7095 107.411 87.3856L103.83 90.9664L84.3062 71.4426C83.7541 70.891 82.8314 70.891 82.2794 71.4426L79.0363 74.6854C78.4767 75.2452 78.4767 76.1525 79.0363 76.7119L83.6302 81.3062C85.3065 82.9823 85.3065 85.7099 83.6302 87.386L81.1306 89.8857L69.0379 77.7928C68.4855 77.2408 68.4855 76.3184 69.0379 75.7664L88.6935 56.1107L100.603 68.02C101.162 68.5793 102.07 68.5797 102.63 68.02C103.189 67.4602 103.189 66.5529 102.63 65.9932L86.0403 49.4039L96.9845 38.4597L126.305 67.7798L115.36 78.7242Z" fill="#F4B32F"/>
</g>
</g>
<g id="Group_3">
<g id="Group_4">
<path id="Vector_2" d="M63.5516 46.4774C62.5785 46.348 60.1268 45.8066 58.376 43.5745C57.1321 41.9875 56.8336 40.2664 56.7664 39.382C56.7098 38.6346 56.0869 38.0574 55.3376 38.0574C54.588 38.0574 53.9653 38.6346 53.9084 39.382C53.8412 40.2667 53.5427 41.9877 52.2989 43.5743C50.5481 45.8066 48.0963 46.3481 47.1232 46.4774C46.4111 46.572 45.8789 47.1794 45.8789 47.8981C45.8789 48.6167 46.4111 49.2239 47.1234 49.3186C48.0963 49.448 50.5481 49.9897 52.2989 52.2214C53.5428 53.8084 53.8414 55.5295 53.9085 56.414C53.9653 57.1612 54.5882 57.7386 55.3377 57.7386C56.0873 57.7386 56.71 57.1613 56.7669 56.414C56.8341 55.5292 57.1326 53.8082 58.3764 52.2216C60.1273 49.9892 62.579 49.4476 63.5521 49.3186C64.264 49.2239 64.7962 48.6167 64.7962 47.8981C64.7962 47.1794 64.264 46.572 63.5516 46.4774ZM55.3376 51.6011C55.1121 51.2179 54.8525 50.8335 54.5545 50.4533L54.5544 50.4531C53.6549 49.3061 52.6253 48.4854 51.6192 47.8979C52.6253 47.3106 53.6552 46.4894 54.5547 45.3425C54.8529 44.9622 55.1122 44.5777 55.3377 44.1946C56.2376 45.7231 57.5249 47.0035 59.0562 47.8979C57.5251 48.7919 56.2365 50.0725 55.3376 51.6011Z" fill="#F4B32F"/>
</g>
</g>
<g id="Group_5">
<g id="Group_6">
<path id="Vector_3" d="M56.6727 113.738C55.6996 113.609 53.2479 113.068 51.4971 110.835C50.2532 109.249 49.9547 107.527 49.8875 106.643C49.8309 105.896 49.208 105.318 48.4585 105.318C47.7091 105.318 47.0862 105.896 47.0293 106.643C46.9621 107.528 46.6636 109.249 45.4198 110.835C43.6689 113.068 41.2172 113.609 40.2441 113.738C39.5322 113.833 39 114.441 39 115.159C39 115.878 39.5322 116.485 40.2445 116.58C41.2173 116.709 43.6692 117.251 45.42 119.483C46.6639 121.07 46.9625 122.791 47.0296 123.675C47.0864 124.423 47.7093 125 48.4588 125C49.2083 125 49.8311 124.423 49.888 123.675C49.9552 122.791 50.2537 121.07 51.4975 119.483C53.2484 117.251 55.7001 116.709 56.6732 116.58C57.3851 116.485 57.9173 115.878 57.9173 115.159C57.9173 114.441 57.3851 113.833 56.6727 113.738ZM49.2417 117.714C48.9435 118.095 48.6841 118.479 48.4587 118.862C48.2332 118.479 47.9736 118.095 47.6756 117.714L47.6755 117.714C46.776 116.567 45.7462 115.747 44.7401 115.159C46.2713 114.265 47.5592 112.985 48.4587 111.456C49.3585 112.984 50.6459 114.265 52.1772 115.159C51.1709 115.747 50.1412 116.568 49.2417 117.714Z" fill="#F4B32F"/>
</g>
</g>
<g id="Group_7">
<g id="Group_8">
<path id="Vector_4" d="M128.52 101.509C127.547 101.38 125.095 100.839 123.344 98.6065C122.1 97.0195 121.802 95.2984 121.735 94.414C121.678 93.6667 121.055 93.0894 120.306 93.0894C119.556 93.0894 118.933 93.6666 118.876 94.414C118.809 95.2987 118.511 97.0197 117.267 98.6063C115.516 100.839 113.064 101.38 112.091 101.509C111.379 101.604 110.847 102.211 110.847 102.93C110.847 103.649 111.379 104.256 112.091 104.351C113.064 104.48 115.516 105.022 117.267 107.254C118.511 108.841 118.809 110.562 118.876 111.446C118.933 112.193 119.556 112.771 120.306 112.771C121.055 112.771 121.678 112.194 121.735 111.446C121.802 110.561 122.1 108.84 123.344 107.254C125.095 105.021 127.547 104.48 128.52 104.351C129.232 104.256 129.764 103.649 129.764 102.93C129.764 102.211 129.232 101.604 128.52 101.509ZM121.089 105.485C120.791 105.866 120.531 106.25 120.306 106.633C120.08 106.25 119.821 105.866 119.523 105.485L119.522 105.485C118.623 104.338 117.593 103.518 116.587 102.93C118.118 102.036 119.406 100.756 120.306 99.2268C121.206 100.755 122.493 102.036 124.024 102.93C123.018 103.518 121.988 104.339 121.089 105.485Z" fill="#F4B32F"/>
</g>
</g>
</g>
</g>
</svg>
