<svg width="51" height="50" viewBox="0 0 51 50" fill="none" xmlns="http://www.w3.org/2000/svg">
<path d="M46.8107 19.6183C47.7298 18.7225 48.0542 17.4077 47.6577 16.1871C47.2611 14.9665 46.2258 14.0936 44.9557 13.9092L33.85 12.2954C33.632 12.2638 33.4435 12.1269 33.346 11.9292L28.3794 1.86586C27.8115 0.714937 26.6613 0 25.3779 0C24.0944 0 22.9443 0.714937 22.3764 1.86586L17.4098 11.9293C17.3121 12.1269 17.1238 12.2638 16.9057 12.2955L5.80019 13.9092C4.53011 14.0936 3.49488 14.9665 3.09816 16.1871C2.70143 17.4077 3.02599 18.7225 3.94514 19.6183L11.9812 27.4516C12.139 27.6055 12.211 27.827 12.1738 28.0442L10.2767 39.1049C10.0598 40.37 10.5699 41.6243 11.6082 42.3787C12.6465 43.1333 13.9975 43.2307 15.1333 42.6336L25.0664 37.4115C25.2615 37.3089 25.4944 37.3089 25.6896 37.4115L35.6227 42.6336C36.1168 42.8934 36.6514 43.0217 37.1835 43.0216C37.8744 43.0216 38.561 42.8051 39.1476 42.3786C40.1859 41.6241 40.6961 40.3697 40.4791 39.1048L38.582 28.0441C38.5448 27.8269 38.6168 27.6054 38.7745 27.4515L46.8107 19.6183ZM35.943 28.497L37.8401 39.5579C37.9036 39.928 37.6751 40.1391 37.5738 40.2125C37.4725 40.2859 37.2011 40.4383 36.8688 40.2634L26.9356 35.0412C26.448 34.785 25.9131 34.6567 25.3781 34.6567C24.8431 34.6567 24.3081 34.785 23.8205 35.0411L13.8874 40.2632C13.555 40.438 13.2836 40.2858 13.1824 40.2123C13.0812 40.1389 12.8526 39.9278 12.9161 39.5577L14.8132 28.497C14.9995 27.411 14.6397 26.3035 13.8506 25.5343L5.81446 17.701C5.54552 17.4387 5.60638 17.1337 5.64514 17.0148C5.68371 16.8957 5.81387 16.6131 6.18551 16.5591L17.2909 14.9454C18.3813 14.787 19.3235 14.1026 19.8112 13.1143L24.7778 3.05087C24.9441 2.71412 25.253 2.67774 25.3782 2.67774C25.5032 2.67774 25.8121 2.71403 25.9784 3.05087V3.05097L30.945 13.1144C31.4326 14.1027 32.3748 14.7871 33.4651 14.9455L44.5708 16.5592C44.9424 16.6132 45.0725 16.8958 45.1111 17.0149C45.1498 17.1339 45.2107 17.439 44.9417 17.7011L36.9056 25.5344C36.1165 26.3035 35.7568 27.411 35.943 28.497Z" fill="#F4B32F"/>
<path d="M41.019 1.86514C40.4206 1.43054 39.5834 1.56318 39.1488 2.16134L37.7276 4.11741C37.293 4.71557 37.4255 5.55293 38.0238 5.98753C38.2616 6.16011 38.5369 6.24328 38.8097 6.24328C39.2238 6.24328 39.632 6.05186 39.8939 5.69142L41.3152 3.73535C41.7498 3.1371 41.6172 2.29973 41.019 1.86514Z" fill="#F4B32F"/>
<path d="M13.0219 4.10945L11.6007 2.15339C11.1662 1.55543 10.3289 1.42279 9.73056 1.85718C9.1324 2.29178 8.99976 3.12914 9.43435 3.7273L10.8556 5.68336C11.1176 6.0441 11.5258 6.23543 11.94 6.23543C12.2129 6.23543 12.4883 6.15226 12.7258 5.97957C13.324 5.54508 13.4566 4.70771 13.0219 4.10945Z" fill="#F4B32F"/>
<path d="M4.91215 30.0387C4.68365 29.3356 3.92837 28.9507 3.22503 29.1792L0.925473 29.9264C0.222134 30.1549 -0.162596 30.9104 0.0659025 31.6135C0.249692 32.1795 0.774594 32.5391 1.33895 32.5391C1.47605 32.5391 1.61553 32.5178 1.75302 32.4731L4.05258 31.7259C4.75582 31.4974 5.14065 30.7421 4.91215 30.0387Z" fill="#F4B32F"/>
<path d="M25.3782 44.9042C24.6388 44.9042 24.0393 45.5037 24.0393 46.2431V48.6611C24.0393 49.4005 24.6388 50 25.3782 50C26.1176 50 26.717 49.4005 26.717 48.6611V46.2431C26.717 45.5036 26.1177 44.9042 25.3782 44.9042Z" fill="#F4B32F"/>
<path d="M49.8299 29.9283L47.5303 29.1811C46.8273 28.9528 46.0717 29.3374 45.8432 30.0407C45.6147 30.7441 45.9994 31.4993 46.7028 31.7278L49.0023 32.4751C49.1398 32.5197 49.2792 32.5409 49.4163 32.5409C49.9807 32.5409 50.5056 32.1812 50.6894 31.6153C50.9179 30.9121 50.5331 30.1568 49.8299 29.9283Z" fill="#F4B32F"/>
</svg>
