<svg width="47" height="50" viewBox="0 0 47 50" fill="none" xmlns="http://www.w3.org/2000/svg">
<path d="M46.0909 8.35253C45.8678 6.9515 44.6411 5.90596 43.2261 5.90596C43.2191 5.90596 43.2052 5.90596 43.1982 5.90596C34.4017 5.99657 25.9189 9.1332 19.1786 14.7513C18.9695 12.2838 18.2655 9.87902 17.1015 7.67641C15.5122 4.67222 13.1214 2.16291 10.2009 0.420342C9.02289 -0.283657 7.55216 -0.0884898 6.63208 0.894321C2.25474 5.55744 -0.101218 11.6495 0.00333634 18.0482C0.10092 24.2099 2.47082 30.0092 6.69481 34.4632C6.29751 35.9828 5.99778 37.5302 5.79565 39.1054C5.712 39.7537 6.16507 40.3462 6.82028 40.4368C6.86907 40.4437 6.92483 40.4437 6.97362 40.4437C7.55913 40.4437 8.06796 40.0116 8.14463 39.4121C8.36071 37.7741 8.68135 36.1709 9.1135 34.6166C9.1623 34.512 9.19018 34.4075 9.20412 34.2959C13.4769 19.3168 27.292 8.44314 43.24 8.27586C43.24 8.27586 43.24 8.27586 43.247 8.27586C43.4979 8.27586 43.7349 8.478 43.7767 8.72196C44.655 14.2633 44.6829 19.8814 43.8604 25.4297C43.8464 25.4716 43.8325 25.5134 43.8255 25.5552C42.1875 32.5882 37.615 38.5966 31.2651 42.033C25.6679 45.072 19.1507 45.8666 13.0378 44.3262C15.101 42.967 17.0805 41.4753 18.9695 39.8513C23.9532 35.5645 28.1424 30.4971 31.4184 24.8024C31.746 24.2378 31.5509 23.5129 30.9793 23.1853C30.4147 22.8577 29.6898 23.0529 29.3622 23.6244C24.5806 31.8842 17.7427 38.7848 9.61536 43.6501C9.58051 43.664 9.55263 43.6849 9.51778 43.7058C6.91089 45.2602 4.17854 46.5985 1.33466 47.7137C0.728247 47.9507 0.421554 48.6408 0.665514 49.2472C0.846741 49.7142 1.29284 50 1.76682 50C1.9132 50 2.05957 49.9721 2.19898 49.9164C5.01497 48.8151 7.71944 47.5046 10.3124 45.9921C13.1981 46.9679 16.1953 47.4558 19.1856 47.4558C23.7441 47.4558 28.2818 46.3336 32.3664 44.1101C39.2391 40.388 44.2159 33.9056 46.0491 26.315C46.0909 26.2174 46.1257 26.1128 46.1397 26.0013C47.0388 20.1463 47.0179 14.2076 46.0909 8.35253ZM11.9016 22.8228C11.8877 21.5543 11.8319 20.3763 11.7343 19.2471C11.5183 16.8354 11.107 14.2982 10.4797 11.4752C10.3403 10.834 9.70598 10.4366 9.06471 10.5761C8.42344 10.7155 8.02614 11.3498 8.16554 11.991C8.77196 14.7094 9.16926 17.149 9.3714 19.4562C9.56657 21.6658 9.58748 24.0984 9.42717 27.0887C8.67438 28.6082 8.01917 30.1765 7.47549 31.7936C0.337911 23.2759 0.581871 10.7782 8.34677 2.51143C8.50012 2.34414 8.76499 2.32323 8.98107 2.4487C14.0624 5.4738 17.0527 10.9524 16.8645 16.8354C14.9964 18.6686 13.3375 20.676 11.9016 22.8228Z" fill="#F4B32F"/>
</svg>
