<svg version="1.2" xmlns="http://www.w3.org/2000/svg" viewBox="0 0 1570 447" width="1570" height="447">
	<title>default-svg</title>
	<style>
		.s0 { fill: #ed1c24 } 
		.s1 { fill: #000000 } 
		.s2 { fill: #ffffff } 
	</style>
	<g id="Layer">
		<path id="Layer" fill-rule="evenodd" class="s0" d="m1129.3 0h439.5l0.2 446h-439.7z"/>
		<path id="Layer" fill-rule="evenodd" class="s1" d="m554.7 371.6c0-0.1 0 0 0 0zm-378.2-368.1v49.8h-97.4v33.4h94.4v49.7h-94.4v73.7h-79.1v-206.6zm194 206.6h-176.2v-206.6h79.1v145.7h97.1zm6.8-103.3c0-69.3 42.2-106.9 114.2-106.9 72 0 115.1 37.6 115.1 106.9 0 70.4-43 106.8-115.1 106.8-72 0-114.2-36.4-114.2-106.8zm82.7 0c0 22.1 3.2 57.1 31.5 57.1 31.3 0 32.2-35 32.5-57.1-0.3-19.3-2.4-57.2-32.5-57.2-29.2 0-31.5 37.9-31.5 57.2zm159.7 0c0-69.3 42.2-106.9 114.2-106.9 72 0 115.1 37.6 115.1 106.9 0 70.4-43.1 106.8-115.1 106.8-72 0-114.2-36.4-114.2-106.8zm82.6 0c0 22.1 3.3 57.1 31.6 57.1 31.3 0 32.2-35 32.5-57.1-0.3-19.3-2.4-57.2-32.5-57.2-29.2 0-31.6 37.9-31.6 57.2zm244.4 103.3h-79.1v-206.7h127.8c49.2 0 79.7 15.5 79.7 55.1 0 31.7-19.8 47.7-49.3 54.8v0.5c17.1 3 27.4 11.3 34.8 22.3 12.1 21.9 11.2 53.8 19.4 74h-82.3c-3.5-14.9-4.4-47.1-10.9-59.6-4.7-9.4-12.7-10.6-22.4-10.6h-17.7c0 0 0 70.2 0 70.2zm-3.6-116.4h20.7c16.2 0 32.2-1.7 32.2-22.8 0-18.6-15.1-21.3-31-21.3h-21.9c0 0 0 44.1 0 44.1zm-827.7 348.2h-112.7v-206.5h116c59 0 100.6 20.1 100.6 103.8 0 78.2-44.9 102.7-103.9 102.7zm-13.9-51.5c28.7 0 35.2-18.9 35.2-53.2 0-35.6-7.1-53.9-35.5-53.9h-19.4v107.1c-0.1 0 19.7 0 19.7 0zm215.9-105.3v29.3h96.8v49.7h-96.8v28.1h103.3v49.7h-180.6v-206.5h178.5v49.7zm115.2 50.6c0-69.3 57.3-103.9 123.4-103.9 21.8 0 34.8 2.7 56.1 6.5v54.5c-13-4.2-26.3-7.7-39.6-7.7-33.6 0-59 18-59 51.8 0 35.5 23.6 53.5 56.4 53.5 14.4 0 28.3-2.9 42.8-8v54.8c-14.8 4.1-36.6 8.3-56.7 8.3-68.5 0-123.4-36.1-123.4-109.8zm418.6 3c0 70.4-43.1 106.8-115.1 106.8-72 0-114.2-36.4-114.2-106.8 0-69.3 42.2-106.9 114.2-106.9 72 0 115.1 37.6 115.1 106.9zm-82.6 0c-0.3-19.3-2.4-57.2-32.5-57.2-29.2 0-31.6 37.9-31.6 57.2 0 22.1 3.3 57 31.6 57 31.3 0 32.2-34.9 32.5-57zm198 33.1h-17.7v70.1h-79.1v-206.5h127.8c49.3 0 79.7 15.3 79.7 55 0 31.7-19.8 47.6-49.3 54.8v0.5c17.1 3 27.4 11.3 34.8 22.2 12.1 21.9 11.2 53.9 19.5 74h-82.4c-3.5-14.8-4.4-47-10.9-59.5-4.7-9.4-12.7-10.6-22.4-10.6zm-0.6-46.2c16.2 0 32.2-1.8 32.2-22.8 0-18.6-15.1-21.3-31-21.3h-21.8v44.1z"/>
		<path id="Layer" fill-rule="evenodd" class="s2" d="m1516 215.1c-10 18.9-40.7 77.8-83.4 131.3 49.5 54.3 75.5 55.9 98.2 59.1 20.8 2.9 32.7-3.8 38.2-8.2v35.8c-6.8 4.7-16.1 9.2-24.5 12.9h-88.4c-28.7-15.6-66.3-50.7-66.3-50.7l-0.5-1.6c-23.2 21.6-48.5 38.8-74.8 46.7-7.4 2.3-14.7 3.9-21.8 5.6h-106.4-0.2c-24.9-9.3-44.5-26.9-56.8-55v-90.7c29.8-53.3 107-93.8 128.1-106.2-13-20.4-38.9-78.2-21.7-132.6 9.6-30.5 36.7-50.9 61.9-61.5h70.9c67.4 24.9 70.7 77 52.7 115.1-20.2 42.8-97.2 74.7-97.2 74.7 0 0 17.2 33.8 56.9 91.6 12.2 17 23.4 31.5 33.6 44 5-5.4 61.5-69.5 62.5-115.6 0.9-41.3-44.1-33.9-44.1-33.9v-15.4h136v15.1c-6 1.3-36.8 9.1-52.9 39.5zm-202.8-44.7c0 0 69.7-30.5 79.5-82.1 9.7-51.1-34.4-66.2-45.3-68-11-1.6-57.7 2.2-63.1 56.3-2.5 25.2 28.9 93.8 28.9 93.8zm55.9 206.3c0 0-40.1-42.7-100.3-156.2 0 0-91.2 40.4-78.3 121.8 14 88.7 113.7 93.6 178.6 34.4z"/>
	</g>
</svg>