<?xml version="1.0" encoding="utf-8"?>
<!-- Generator: Adobe Illustrator 27.5.0, SVG Export Plug-In . SVG Version: 6.00 Build 0)  -->
<svg version="1.1" id="Layer_1" xmlns="http://www.w3.org/2000/svg" xmlns:xlink="http://www.w3.org/1999/xlink" x="0px" y="0px"
	 viewBox="0 0 120 120" style="enable-background:new 0 0 120 120;" xml:space="preserve">
<g>
	<g>
		<g>
			
				<linearGradient id="SVGID_1_" gradientUnits="userSpaceOnUse" x1="14.8941" y1="70.2671" x2="0.5809" y2="62.9741" gradientTransform="matrix(1 0 0 -1 0 120)">
				<stop  offset="0" style="stop-color:#A19FC5"/>
				<stop  offset="0.71" style="stop-color:#807DAE"/>
				<stop  offset="1" style="stop-color:#6E6CA2"/>
			</linearGradient>
			<path style="fill:url(#SVGID_1_);" d="M0,59.16c1.05-0.27,2.15-0.41,3.28-0.41c2.02,0,3.93,0.46,5.63,1.25
				c2.82-1.32,5.1-3.6,6.42-6.42c-0.8-1.72-1.25-3.63-1.25-5.65s0.45-3.93,1.25-5.65c0,0,0,0,0-0.01L0,51.14V59.16z"/>
			
				<linearGradient id="SVGID_00000124876249354360425000000014729204433151489977_" gradientUnits="userSpaceOnUse" x1="29.5756" y1="63.2303" x2="15.5572" y2="70.373" gradientTransform="matrix(1 0 0 -1 0 120)">
				<stop  offset="0" style="stop-color:#A19FC5"/>
				<stop  offset="0.71" style="stop-color:#807DAE"/>
				<stop  offset="1" style="stop-color:#6E6CA2"/>
			</linearGradient>
			<path style="fill:url(#SVGID_00000124876249354360425000000014729204433151489977_);" d="M16.59,47.94
				c0,2.02-0.45,3.93-1.25,5.65c1.33,2.81,3.6,5.1,6.42,6.42c1.71-0.8,3.63-1.25,5.63-1.25c1.13,0,2.23,0.15,3.28,0.41v-8.01
				l-15.33-8.86v0.01C16.14,44.01,16.59,45.92,16.59,47.94z"/>
			
				<linearGradient id="SVGID_00000180351622726553536170000011531610537217926588_" gradientUnits="userSpaceOnUse" x1="1.2186" y1="57.2036" x2="15.0156" y2="49.5557" gradientTransform="matrix(1 0 0 -1 0 120)">
				<stop  offset="0" style="stop-color:#A19FC5"/>
				<stop  offset="0.71" style="stop-color:#807DAE"/>
				<stop  offset="1" style="stop-color:#6E6CA2"/>
			</linearGradient>
			<path style="fill:url(#SVGID_00000180351622726553536170000011531610537217926588_);" d="M14.08,72.06
				c0-2.02,0.45-3.93,1.25-5.65c-1.32-2.82-3.6-5.1-6.42-6.42c-1.71,0.8-3.61,1.25-5.63,1.25c-1.14,0-2.23-0.15-3.28-0.4v8.01
				l15.33,8.86c0,0,0,0,0-0.01C14.54,75.99,14.08,74.08,14.08,72.06z"/>
			
				<linearGradient id="SVGID_00000029761038155789381430000003148140494985921922_" gradientUnits="userSpaceOnUse" x1="15.9924" y1="49.733" x2="29.7706" y2="57.3704" gradientTransform="matrix(1 0 0 -1 0 120)">
				<stop  offset="0" style="stop-color:#A19FC5"/>
				<stop  offset="0.71" style="stop-color:#807DAE"/>
				<stop  offset="1" style="stop-color:#6E6CA2"/>
			</linearGradient>
			<path style="fill:url(#SVGID_00000029761038155789381430000003148140494985921922_);" d="M30.67,60.85
				c-1.05,0.27-2.15,0.41-3.28,0.41c-2.02,0-3.93-0.45-5.63-1.25c-2.82,1.32-5.1,3.59-6.42,6.42c0.8,1.72,1.25,3.63,1.25,5.65
				s-0.45,3.93-1.25,5.65c0,0,0,0,0,0.01l15.33-8.86V60.85z"/>
			<path style="fill:#63619A;" d="M16.59,47.94c0,2.02-0.45,3.93-1.25,5.65c-0.8-1.72-1.25-3.63-1.25-5.65s0.45-3.93,1.25-5.65
				C16.14,44.01,16.59,45.92,16.59,47.94z M0,59.16v1.68c1.05,0.27,2.15,0.4,3.28,0.4c2.02,0,3.93-0.45,5.63-1.25
				c-1.71-0.8-3.61-1.25-5.63-1.25C2.15,58.75,1.05,58.89,0,59.16z M27.4,58.75c-2.02,0-3.93,0.46-5.63,1.25
				c1.71,0.8,3.63,1.25,5.63,1.25c1.13,0,2.23-0.15,3.28-0.41v-1.7C29.62,58.89,28.53,58.75,27.4,58.75z M15.34,77.69
				c0.8-1.71,1.25-3.63,1.25-5.65s-0.45-3.93-1.25-5.65c-0.8,1.72-1.25,3.63-1.25,5.65C14.08,74.08,14.54,75.99,15.34,77.69z"/>
		</g>
	</g>
	<g>
		<g>
			<g>
				<path style="fill:#63619A;" d="M45.28,67.89c1.89-0.3,3-1.43,3-3.05v-0.13c0-1.83-1.54-3.06-3.82-3.06H40v10.63h0.94v-4.24h3.31
					l3.31,4.21l0.02,0.03h1.18L45.28,67.89z M40.92,67.18v-4.65h3.5c1.84,0,2.93,0.83,2.93,2.21v0.12c0,1.41-1.17,2.32-2.98,2.32
					C44.38,67.18,40.92,67.18,40.92,67.18z"/>
				<polygon style="fill:#63619A;" points="52.77,71.4 52.77,67.35 58.77,67.35 58.77,66.48 52.77,66.48 52.77,62.52 59.45,62.52 
					59.45,61.65 51.84,61.65 51.84,72.28 59.53,72.28 59.53,71.4 				"/>
				<path style="fill:#63619A;" d="M67.42,66.47v0.88h3.5v3.11c-0.68,0.56-1.89,1.16-3.26,1.16c-2.64,0-4.42-1.87-4.42-4.65v-0.03
					c0-2.58,1.86-4.61,4.25-4.61c1.67,0,2.61,0.62,3.31,1.24l0.06,0.06l0.61-0.7l-0.07-0.06c-1.19-0.99-2.32-1.39-3.88-1.39
					c-3.29,0-5.25,2.79-5.25,5.5v0.02c0,3.21,2.2,5.47,5.34,5.47c2.14,0,3.63-1.12,4.16-1.6l0.02-0.02v-4.37H67.42z"/>
				<polygon style="fill:#63619A;" points="76.57,71.4 76.57,67.35 82.57,67.35 82.57,66.48 76.57,66.48 76.57,62.52 83.24,62.52 
					83.24,61.65 75.63,61.65 75.63,72.28 83.32,72.28 83.32,71.4 				"/>
				<polygon style="fill:#63619A;" points="95.15,61.65 95.15,70.62 88.06,61.68 88.04,61.65 87.19,61.65 87.19,72.28 88.09,72.28 
					88.09,63.12 95.33,72.25 95.36,72.28 96.06,72.28 96.06,61.65 				"/>
				<path style="fill:#63619A;" d="M108,69.94L107.94,70c-1.16,1.14-2.19,1.61-3.55,1.61c-2.44,0-4.35-2.03-4.35-4.63v-0.03
					c0-2.62,1.86-4.61,4.34-4.61c1.67,0,2.7,0.77,3.48,1.52l0.06,0.06l0.66-0.68l-0.06-0.06c-1.12-1.02-2.23-1.7-4.13-1.7
					c-2.98,0-5.31,2.41-5.31,5.5v0.02c0,3.11,2.28,5.47,5.29,5.47c2.06,0,3.29-0.94,4.22-1.85l0.06-0.06L108,69.94z"/>
			</g>
		</g>
		<polygon style="fill:#63619A;" points="118.87,61.65 115.06,67.22 111.2,61.68 111.18,61.65 110,61.65 114.58,68.09 114.58,72.28 
			115.5,72.28 115.5,68.07 120,61.65 		"/>
	</g>
	<polygon style="fill:#63619A;" points="41.94,51.89 41.94,57 39.99,57 39.99,45.92 41.94,45.92 41.94,50.09 47.21,50.09 
		47.21,45.92 49.17,45.92 49.17,57 47.21,57 47.21,51.89 	"/>
	<polygon style="fill:#63619A;" points="83.66,57 81.7,57 81.7,47.73 77.93,47.73 77.93,45.92 87.41,45.92 87.41,47.73 83.66,47.73 
			"/>
	<polygon style="fill:#63619A;" points="95.91,57 93.96,57 93.96,47.73 90.18,47.73 90.18,45.92 99.66,45.92 99.66,47.73 
		95.91,47.73 	"/>
	<path style="fill:#63619A;" d="M58.25,51.06c0,0,0.02-0.13,0.08-0.28c0.19-0.42,3-4.85,3-4.85h2.3l-4.4,6.71v4.37h-2v-4.37
		l-4.4-6.71h2.3c0,0,2.83,4.42,3,4.85c0.08,0.19,0.08,0.28,0.08,0.28S58.25,51.06,58.25,51.06z"/>
	<path style="fill:#63619A;" d="M74.22,57h2.06l-4.88-11.16h-1.81L64.73,57h1.99l1.32-3.1h4.86L74.22,57z M68.81,52.09l1.66-3.92
		l1.66,3.92H68.81z"/>
</g>
</svg>
