<svg width="193" height="70" viewBox="0 0 193 70" fill="none" xmlns="http://www.w3.org/2000/svg">
<g clip-path="url(#clip0_0_1)">
<path fill-rule="evenodd" clip-rule="evenodd" d="M42.9083 58.5987L44.0186 51.7072L40.3688 49.8217L39.9152 50.6821L35.1778 59.8854L47.5765 66.2754L49.0731 67.0457L52.6327 60.1559L42.9083 58.5987ZM27.0848 11.4074L25.9744 18.2981L29.6242 20.1801L30.0778 19.3179L34.8152 10.1154L22.4148 3.72544L20.92 2.95514L17.363 9.84231L27.083 11.4057" fill="white"/>
<path fill-rule="evenodd" clip-rule="evenodd" d="M18.8814 16.0274L20.469 23.0092L24.3894 23.3488L24.4568 22.4419L25.3194 12.0604L11.3322 10.9041L9.74543 10.7693L9.10706 18.2263L18.877 16.0274M51.1107 53.969L49.524 46.9663L45.6255 46.6486L45.5353 47.5554L44.6754 57.9151L58.6617 59.0924L60.2694 59.2289L60.8824 51.7719L51.1125 53.969" fill="white"/>
<path fill-rule="evenodd" clip-rule="evenodd" d="M12.7849 23.7602L16.9111 29.5173L20.7185 28.2918L20.4033 27.2931L17.2754 17.5243L4.1507 21.7172L2.38184 22.2835L4.6945 29.5366L12.7866 23.7593M57.2159 46.245L53.1143 40.4678L49.2814 41.6933L49.6002 42.7131L52.7246 52.4713L65.872 48.2548L67.6181 47.7112L65.3055 40.4582L57.2124 46.2354" fill="white"/>
<path fill-rule="evenodd" clip-rule="evenodd" d="M59.7747 37.2886L53.6318 33.3014L50.7517 35.7261L51.3875 36.4982L58.0522 44.3622L68.683 35.3856L69.9965 34.2757L65.3256 28.7427L59.7721 37.2886M10.2192 32.7088L16.3857 36.6986L19.2404 34.2731L18.6064 33.5255L11.9425 25.637L1.31352 34.6144L0 35.7524L4.67 41.2609L10.2235 32.715" fill="white"/>
<path fill-rule="evenodd" clip-rule="evenodd" d="M58.6643 27.3377L51.637 26.1367L49.8261 29.6495L50.8909 30.1939L59.8903 34.8175L66.1015 22.7606L67.0542 20.9223L60.3666 17.4761L58.6669 27.336M11.312 42.6544L18.3621 43.8799L20.1756 40.3671L19.1108 39.7999L10.1114 35.1764L3.90026 47.235L2.94751 49.0733L9.63244 52.5195L11.3094 42.6596" fill="white"/>
<path fill-rule="evenodd" clip-rule="evenodd" d="M16.0249 51.1146L23.0067 49.5494L23.3465 45.6288L22.3036 45.5413L12.0844 44.6764L10.925 58.4587L10.7656 60.2724L18.2465 60.8851L16.0249 51.1146ZM53.9716 18.8828L46.9662 20.4698L46.6492 24.3905L47.6904 24.4587L57.9148 25.3192L59.0707 11.5387L59.2301 9.74866L51.75 9.11316L53.9707 18.8819" fill="white"/>
<path fill-rule="evenodd" clip-rule="evenodd" d="M23.5733 57.1211L29.4903 52.9729L28.2888 49.279L27.2906 49.5958L17.5215 52.7234L21.7168 65.8693L22.2834 67.6147L29.3554 65.3712L23.5759 57.1211M46.4031 12.8762L40.5063 17.0201L41.685 20.7158L42.7051 20.3989L52.4751 17.2704L48.2587 4.1281L47.6912 2.38354L40.6429 4.65067L46.4005 12.8789" fill="white"/>
<path fill-rule="evenodd" clip-rule="evenodd" d="M36.8801 53.8351L34.2732 50.7521L33.7294 51.2283L32.64 52.1352L25.6346 58.0498L32.1147 65.7353L33.4518 67.3214L35.7189 69.9947L41.5659 65.0543L33.1593 59.818L36.8766 53.8351M33.1112 16.1631L35.7181 19.2461L36.7838 18.3628L37.191 17.9996L44.354 11.9475L37.508 3.83309L34.2679 0.003479L34.0411 0.206558L28.4237 4.94039L36.8302 10.1767L33.1138 16.1605" fill="white"/>
</g>
<path d="M82.112 26.904V5.752C83.904 5.464 86.24 5.272 88.672 5.272C92.8 5.272 95.488 6.04 97.536 7.576C99.776 9.24 101.184 11.896 101.184 15.704C101.184 19.832 99.68 22.68 97.632 24.44C95.36 26.328 91.872 27.224 87.648 27.224C85.12 27.224 83.296 27.064 82.112 26.904ZM86.976 9.208V23.32C87.392 23.416 88.096 23.416 88.672 23.416C93.12 23.448 96.032 21.016 96.032 15.864C96.032 11.384 93.408 9.016 89.184 9.016C88.128 9.016 87.392 9.112 86.976 9.208ZM103.081 25.976L104.073 21.976C105.353 22.648 107.401 23.32 109.481 23.32C111.721 23.32 112.905 22.392 112.905 20.984C112.905 19.64 111.881 18.872 109.289 17.976C105.705 16.696 103.337 14.712 103.337 11.576C103.337 7.896 106.441 5.112 111.497 5.112C113.961 5.112 115.721 5.592 117.001 6.2L115.913 10.104C115.081 9.688 113.513 9.08 111.433 9.08C109.321 9.08 108.297 10.072 108.297 11.16C108.297 12.536 109.481 13.144 112.297 14.2C116.105 15.608 117.865 17.592 117.865 20.632C117.865 24.248 115.113 27.32 109.193 27.32C106.729 27.32 104.297 26.648 103.081 25.976ZM135.819 22.584L136.523 26.424C135.659 26.84 133.611 27.352 131.019 27.352C123.563 27.352 119.723 22.68 119.723 16.536C119.723 9.176 124.971 5.112 131.499 5.112C134.027 5.112 135.947 5.592 136.811 6.072L135.787 9.912C134.827 9.496 133.451 9.112 131.691 9.112C127.851 9.112 124.843 11.448 124.843 16.248C124.843 20.568 127.403 23.288 131.723 23.288C133.227 23.288 134.827 23 135.819 22.584ZM153.401 22.584L154.105 26.424C153.241 26.84 151.193 27.352 148.601 27.352C141.145 27.352 137.305 22.68 137.305 16.536C137.305 9.176 142.553 5.112 149.081 5.112C151.609 5.112 153.529 5.592 154.393 6.072L153.369 9.912C152.409 9.496 151.033 9.112 149.273 9.112C145.433 9.112 142.425 11.448 142.425 16.248C142.425 20.568 144.985 23.288 149.305 23.288C150.809 23.288 152.409 23 153.401 22.584Z" fill="white"/>
<path d="M86.877 46.817L87.098 47.727C86.695 47.935 85.85 48.143 84.784 48.143C82.314 48.143 80.468 46.583 80.468 43.697C80.468 40.941 82.327 39.095 85.044 39.095C86.123 39.095 86.825 39.329 87.124 39.485L86.838 40.408C86.422 40.2 85.811 40.044 85.083 40.044C83.029 40.044 81.664 41.357 81.664 43.658C81.664 45.816 82.899 47.181 85.018 47.181C85.72 47.181 86.422 47.038 86.877 46.817ZM92.3057 39.082C94.7107 39.082 96.2577 40.915 96.2577 43.528C96.2577 46.531 94.4247 48.143 92.1887 48.143C89.8617 48.143 88.2497 46.336 88.2497 43.684C88.2497 40.902 89.9657 39.082 92.3057 39.082ZM92.2667 40.005C90.3817 40.005 89.4457 41.747 89.4457 43.658C89.4457 45.543 90.4597 47.22 92.2537 47.22C94.0477 47.22 95.0617 45.569 95.0617 43.58C95.0617 41.825 94.1517 40.005 92.2667 40.005ZM99.3186 48H98.2526V39.238H99.5006L102.296 43.671C102.933 44.698 103.453 45.621 103.856 46.518L103.895 46.505C103.791 45.335 103.765 44.269 103.765 42.904V39.238H104.831V48H103.687L100.905 43.554C100.294 42.579 99.7086 41.578 99.2796 40.629L99.2406 40.642C99.3056 41.747 99.3186 42.8 99.3186 44.256V48ZM108.993 48V40.2H106.328V39.238H112.815V40.2H110.137V48H108.993ZM114.311 48V39.355C114.883 39.251 115.715 39.173 116.482 39.173C117.691 39.173 118.484 39.407 119.017 39.888C119.446 40.278 119.706 40.876 119.706 41.565C119.706 42.709 118.978 43.476 118.068 43.788V43.827C118.731 44.061 119.134 44.685 119.342 45.595C119.628 46.817 119.836 47.662 120.018 48H118.848C118.705 47.74 118.51 46.999 118.276 45.907C118.016 44.698 117.535 44.243 116.508 44.204H115.442V48H114.311ZM115.442 40.148V43.346H116.599C117.808 43.346 118.575 42.683 118.575 41.682C118.575 40.551 117.756 40.057 116.56 40.057C116.014 40.057 115.637 40.096 115.442 40.148ZM126.414 45.244H123.307L122.397 48H121.227L124.217 39.238H125.569L128.559 48H127.35L126.414 45.244ZM123.541 44.36H126.193L125.322 41.838C125.127 41.266 124.997 40.746 124.867 40.239H124.841C124.711 40.746 124.581 41.292 124.399 41.825L123.541 44.36ZM136.068 46.817L136.289 47.727C135.886 47.935 135.041 48.143 133.975 48.143C131.505 48.143 129.659 46.583 129.659 43.697C129.659 40.941 131.518 39.095 134.235 39.095C135.314 39.095 136.016 39.329 136.315 39.485L136.029 40.408C135.613 40.2 135.002 40.044 134.274 40.044C132.22 40.044 130.855 41.357 130.855 43.658C130.855 45.816 132.09 47.181 134.209 47.181C134.911 47.181 135.613 47.038 136.068 46.817ZM140.272 48V40.2H137.607V39.238H144.094V40.2H141.416V48H140.272ZM145.577 39.238H146.721V48H145.577V39.238ZM150.287 48H149.221V39.238H150.469L153.264 43.671C153.901 44.698 154.421 45.621 154.824 46.518L154.863 46.505C154.759 45.335 154.733 44.269 154.733 42.904V39.238H155.799V48H154.655L151.873 43.554C151.262 42.579 150.677 41.578 150.248 40.629L150.209 40.642C150.274 41.747 150.287 42.8 150.287 44.256V48ZM164.979 43.398V47.61C164.472 47.805 163.458 48.091 162.275 48.091C160.949 48.091 159.857 47.753 158.999 46.934C158.245 46.206 157.777 45.036 157.777 43.671C157.777 41.058 159.584 39.147 162.522 39.147C163.536 39.147 164.342 39.368 164.719 39.55L164.433 40.473C163.965 40.252 163.38 40.096 162.496 40.096C160.364 40.096 158.973 41.422 158.973 43.619C158.973 45.842 160.299 47.155 162.353 47.155C163.094 47.155 163.601 47.051 163.861 46.921V44.308H162.093V43.398H164.979ZM170.484 48V39.238H175.203V40.187H171.628V43.099H174.93V44.035H171.628V48H170.484ZM180.888 39.082C183.293 39.082 184.84 40.915 184.84 43.528C184.84 46.531 183.007 48.143 180.771 48.143C178.444 48.143 176.832 46.336 176.832 43.684C176.832 40.902 178.548 39.082 180.888 39.082ZM180.849 40.005C178.964 40.005 178.028 41.747 178.028 43.658C178.028 45.543 179.042 47.22 180.836 47.22C182.63 47.22 183.644 45.569 183.644 43.58C183.644 41.825 182.734 40.005 180.849 40.005ZM186.834 48V39.355C187.406 39.251 188.238 39.173 189.005 39.173C190.214 39.173 191.007 39.407 191.54 39.888C191.969 40.278 192.229 40.876 192.229 41.565C192.229 42.709 191.501 43.476 190.591 43.788V43.827C191.254 44.061 191.657 44.685 191.865 45.595C192.151 46.817 192.359 47.662 192.541 48H191.371C191.228 47.74 191.033 46.999 190.799 45.907C190.539 44.698 190.058 44.243 189.031 44.204H187.965V48H186.834ZM187.965 40.148V43.346H189.122C190.331 43.346 191.098 42.683 191.098 41.682C191.098 40.551 190.279 40.057 189.083 40.057C188.537 40.057 188.16 40.096 187.965 40.148ZM85.512 58.956V59.892H82.119V63.051H85.915V64H80.975V55.238H85.72V56.187H82.119V58.956H85.512ZM95.8884 64L95.6804 60.152C95.6154 58.93 95.5374 57.448 95.5374 56.369H95.5114C95.1994 57.383 94.8484 58.488 94.4064 59.697L92.8594 63.948H92.0014L90.5714 59.775C90.1554 58.527 89.8174 57.409 89.5704 56.369H89.5444C89.5184 57.461 89.4534 58.917 89.3754 60.243L89.1414 64H88.0624L88.6734 55.238H90.1164L91.6114 59.476C91.9754 60.555 92.2614 61.517 92.4954 62.427H92.5214C92.7554 61.543 93.0674 60.581 93.4574 59.476L95.0174 55.238H96.4604L97.0064 64H95.8884ZM99.6547 64V55.342C100.201 55.251 100.916 55.173 101.826 55.173C102.944 55.173 103.763 55.433 104.283 55.901C104.751 56.317 105.05 56.954 105.05 57.734C105.05 58.527 104.816 59.151 104.374 59.606C103.763 60.243 102.801 60.568 101.696 60.568C101.358 60.568 101.046 60.555 100.786 60.49V64H99.6547ZM100.786 56.161V59.567C101.033 59.632 101.345 59.658 101.722 59.658C103.087 59.658 103.919 58.982 103.919 57.799C103.919 56.629 103.087 56.07 101.852 56.07C101.358 56.07 100.981 56.109 100.786 56.161ZM111.02 55.082C113.425 55.082 114.972 56.915 114.972 59.528C114.972 62.531 113.139 64.143 110.903 64.143C108.576 64.143 106.964 62.336 106.964 59.684C106.964 56.902 108.68 55.082 111.02 55.082ZM110.981 56.005C109.096 56.005 108.16 57.747 108.16 59.658C108.16 61.543 109.174 63.22 110.968 63.22C112.762 63.22 113.776 61.569 113.776 59.58C113.776 57.825 112.866 56.005 110.981 56.005ZM119.97 64H118.787L116.564 55.238H117.76L118.8 59.671C119.06 60.763 119.294 61.855 119.45 62.7H119.476C119.619 61.829 119.892 60.789 120.191 59.658L121.361 55.238H122.544L123.61 59.684C123.857 60.724 124.091 61.764 124.221 62.687H124.247C124.429 61.725 124.676 60.75 124.949 59.658L126.106 55.238H127.263L124.78 64H123.597L122.492 59.437C122.219 58.319 122.037 57.461 121.92 56.577H121.894C121.751 57.448 121.543 58.306 121.218 59.437L119.97 64ZM133.785 58.956V59.892H130.392V63.051H134.188V64H129.248V55.238H133.993V56.187H130.392V58.956H133.785ZM136.569 64V55.355C137.141 55.251 137.973 55.173 138.74 55.173C139.949 55.173 140.742 55.407 141.275 55.888C141.704 56.278 141.964 56.876 141.964 57.565C141.964 58.709 141.236 59.476 140.326 59.788V59.827C140.989 60.061 141.392 60.685 141.6 61.595C141.886 62.817 142.094 63.662 142.276 64H141.106C140.963 63.74 140.768 62.999 140.534 61.907C140.274 60.698 139.793 60.243 138.766 60.204H137.7V64H136.569ZM137.7 56.148V59.346H138.857C140.066 59.346 140.833 58.683 140.833 57.682C140.833 56.551 140.014 56.057 138.818 56.057C138.272 56.057 137.895 56.096 137.7 56.148ZM150.841 64H149.593L146.72 55.238H147.955L149.32 59.554C149.684 60.737 150.009 61.803 150.256 62.83H150.282C150.529 61.816 150.88 60.711 151.283 59.567L152.765 55.238H153.974L150.841 64ZM159.616 61.244H156.509L155.599 64H154.429L157.419 55.238H158.771L161.761 64H160.552L159.616 61.244ZM156.743 60.36H159.395L158.524 57.838C158.329 57.266 158.199 56.746 158.069 56.239H158.043C157.913 56.746 157.783 57.292 157.601 57.825L156.743 60.36ZM163.949 64V55.238H165.093V63.051H168.837V64H163.949ZM170.521 55.238H171.665V60.438C171.665 62.388 172.536 63.22 173.706 63.22C174.993 63.22 175.838 62.362 175.838 60.438V55.238H176.982V60.36C176.982 63.051 175.565 64.143 173.667 64.143C171.873 64.143 170.521 63.129 170.521 60.399V55.238ZM184.385 58.956V59.892H180.992V63.051H184.788V64H179.848V55.238H184.593V56.187H180.992V58.956H184.385ZM186.728 63.571L187.027 62.622C187.534 62.947 188.262 63.194 189.042 63.194C190.199 63.194 190.875 62.583 190.875 61.699C190.875 60.893 190.407 60.412 189.224 59.97C187.794 59.45 186.91 58.696 186.91 57.474C186.91 56.109 188.041 55.095 189.744 55.095C190.628 55.095 191.291 55.303 191.668 55.524L191.356 56.447C191.083 56.278 190.498 56.031 189.705 56.031C188.509 56.031 188.054 56.746 188.054 57.344C188.054 58.163 188.587 58.566 189.796 59.034C191.278 59.606 192.019 60.321 192.019 61.608C192.019 62.96 191.031 64.143 188.964 64.143C188.119 64.143 187.196 63.883 186.728 63.571Z" fill="white"/>
<defs>
<clipPath id="clip0_0_1">
<rect width="70" height="70" fill="white"/>
</clipPath>
</defs>
</svg>
